M48
; DRILL file {KiCad 9.0.7} date 2026-05-02T18:05:25+0900
; FORMAT={-:-/ absolute / metric / decimal}
; #@! TF.CreationDate,2026-05-02T18:05:25+09:00
; #@! TF.GenerationSoftware,Kicad,Pcbnew,9.0.7
; #@! TF.FileFunction,Plated,1,2,PTH
FMAT,2
METRIC
; #@! TA.AperFunction,Plated,PTH,ViaDrill
T1C0.300
; #@! TA.AperFunction,Plated,PTH,ComponentDrill
T2C0.700
%
G90
G05
T1
X12.6Y-7.2
X14.6Y-24.0
X14.6Y-41.2
X18.0Y-57.4
X28.4Y-3.2
X30.8Y-19.6
X31.0Y-36.8
X34.6Y-54.0
X46.0Y-0.8
X50.0Y-14.0
X50.0Y-31.4
X53.6Y-53.4
X62.4Y17.4
X63.4Y11.2
X67.8Y-58.4
X68.8Y-2.2
X69.0Y-36.2
X69.0Y-52.0
X69.4Y-19.4
X74.6Y-74.6
X77.6Y-67.2
X78.2Y-74.4
X79.0Y-65.2
X80.0Y12.4
X80.2Y-67.2
X80.8Y-5.2
X81.6Y6.0
X82.2Y-20.6
X82.4Y-3.2
X84.4Y-36.6
X85.0Y-53.6
X90.0Y0.0
X95.8Y-63.2
X96.2Y-23.8
X97.4Y-71.6
X97.6Y-8.4
X98.4Y-25.4
X99.4Y-67.2
X99.6Y-36.0
X99.7Y-60.9
X100.6Y-50.4
X100.6Y-66.2
X101.8Y-17.6
X103.0Y-33.0
X104.8Y-17.0
X108.2Y-32.2
X108.6Y-31.0
X110.6Y-15.8
X111.4Y-60.8
X112.6Y-35.0
X116.4Y-53.2
X116.8Y-18.4
X117.4Y-47.2
X117.4Y-58.2
X117.8Y-17.4
X117.8Y-28.0
X117.8Y-30.2
X117.9Y-33.2
X118.8Y-61.8
X119.6Y-37.0
X119.6Y-51.4
X120.4Y-15.4
X121.0Y-61.8
X122.6Y-36.0
X122.8Y-38.2
X123.4Y-35.2
X124.0Y-25.4
X124.0Y-33.2
X125.0Y-35.6
X125.8Y-36.4
X127.2Y-36.4
X128.0Y-35.4
X129.4Y-50.6
X129.785Y-32.785
X130.0Y-24.0
X130.2Y-34.0
X130.4Y-30.2
X131.4Y-29.2
X137.0Y-28.8
X141.4Y-8.6
X141.6Y-11.4
X142.4Y-14.6
X143.6Y-26.8
T2
G00X134.7Y-33.17
M15
G01X133.9Y-33.17
M16
G05
G00X135.7Y-37.57
M15
G01X134.9Y-37.57
M16
G05
G00X139.7Y-37.57
M15
G01X138.9Y-37.57
M16
G05
G00X142.7Y-37.57
M15
G01X141.9Y-37.57
M16
G05
M30
