  0
SECTION
  2
HEADER
  9
$ANGBASE
  50
0.0
  9
$ANGDIR
  70
1
  9
$MEASUREMENT
  70
0
  0
ENDSEC
  0
SECTION
  2
TABLES
  0
TABLE
  2
LTYPE
  70
4
  0
LTYPE
  5
40F
  2
CONTINUOUS
  70
0
  3
Solid line
  72
65
  73
0
  40
0.0
  0
LTYPE
  5
410
  2
DASHDOT
 70
0
  3
Dash Dot ____ _ ____ _
 72
65
 73
4
 40
2.0
 49
1.25
 49
-0.25
 49
0.25
 49
-0.25
  0
LTYPE
  5
411
  2
DASHED
 70
0
  3
Dashed __ __ __ __ __
 72
65
 73
2
 40
0.75
 49
0.5
 49
-0.25
  0
LTYPE
  5
43B
  2
DOTTED
 70
0
  3
Dotted .  .  .  .
 72
65
 73
2
 40
0.2
 49
0.0
 49
-0.2
  0
ENDTAB
  0
TABLE
  2
STYLE
  70
4
  0
STYLE
  2
KICAD
  70
0
  40
0
  41
1
  42
1
  50
0
  71
0
  3
isocp.shx
  0
STYLE
  2
KICADB
  70
0
  40
0
  41
1
  42
1
  50
0
  71
0
  3
isocp.shx
  0
STYLE
  2
KICADI
  70
0
  40
0
  41
1
  42
1
  50
15
  71
0
  3
isocp.shx
  0
STYLE
  2
KICADBI
  70
0
  40
0
  41
1
  42
1
  50
15
  71
0
  3
isocp.shx
  0
ENDTAB
  0
TABLE
  2
LAYER
  70
1
  0
LAYER
  2
BLACK
  70
0
  62
7
  6
CONTINUOUS
  0
ENDTAB
  0
ENDSEC
  0
SECTION
  2
ENTITIES
0
LINE
8
BLACK
6
CONTINUOUS
10
5.1783484251968499
20
-2.5929150393700788
11
5.18213125984252
21
-2.5950990551181103
0
LINE
8
BLACK
6
CONTINUOUS
10
5.18213125984252
20
-2.5950990551181103
11
5.1852198818897639
21
-2.5981876771653543
0
LINE
8
BLACK
6
CONTINUOUS
10
5.1852198818897639
20
-2.5981876771653543
11
5.187403897637795
21
-2.6019705118110235
0
LINE
8
BLACK
6
CONTINUOUS
10
5.187403897637795
20
-2.6019705118110235
11
5.1885344094488186
21
-2.6061896456692915
0
LINE
8
BLACK
6
CONTINUOUS
10
5.1885344094488186
20
-2.6061896456692915
11
5.1885344094488186
21
-2.6105576771653545
0
LINE
8
BLACK
6
CONTINUOUS
10
5.1885344094488186
20
-2.6105576771653545
11
5.187403897637795
21
-2.614776811023622
0
LINE
8
BLACK
6
CONTINUOUS
10
5.187403897637795
20
-2.614776811023622
11
5.1852198818897639
21
-2.6185596456692912
0
LINE
8
BLACK
6
CONTINUOUS
10
5.1852198818897639
20
-2.6185596456692912
11
5.18213125984252
21
-2.6216482677165356
0
LINE
8
BLACK
6
CONTINUOUS
10
5.18213125984252
20
-2.6216482677165356
11
5.1783484251968499
21
-2.6238322834645667
0
LINE
8
BLACK
6
CONTINUOUS
10
5.1783484251968499
20
-2.6238322834645667
11
5.1741292913385823
21
-2.6249627952755903
0
LINE
8
BLACK
6
CONTINUOUS
10
5.1741292913385823
20
-2.6249627952755903
11
5.1697612598425193
21
-2.6249627952755903
0
LINE
8
BLACK
6
CONTINUOUS
10
5.1697612598425193
20
-2.6249627952755903
11
5.1655421259842518
21
-2.6238322834645667
0
LINE
8
BLACK
6
CONTINUOUS
10
5.1655421259842518
20
-2.6238322834645667
11
5.1617592913385826
21
-2.6216482677165356
0
LINE
8
BLACK
6
CONTINUOUS
10
5.1617592913385826
20
-2.6216482677165356
11
5.1586706692913387
21
-2.6185596456692912
0
LINE
8
BLACK
6
CONTINUOUS
10
5.1586706692913387
20
-2.6185596456692912
11
5.1564866535433067
21
-2.614776811023622
0
LINE
8
BLACK
6
CONTINUOUS
10
5.1564866535433067
20
-2.614776811023622
11
5.1553561417322831
21
-2.6105576771653545
0
LINE
8
BLACK
6
CONTINUOUS
10
5.1553561417322831
20
-2.6105576771653545
11
5.1553561417322831
21
-2.6064299606299213
0
LINE
8
BLACK
6
CONTINUOUS
10
5.1553561417322831
20
-2.6064299606299213
11
5.1553561417322831
21
-2.6061896456692915
0
LINE
8
BLACK
6
CONTINUOUS
10
5.1553561417322831
20
-2.6061896456692915
11
5.1564866535433067
21
-2.6019705118110235
0
LINE
8
BLACK
6
CONTINUOUS
10
5.1564866535433067
20
-2.6019705118110235
11
5.1586706692913387
21
-2.5981876771653543
0
LINE
8
BLACK
6
CONTINUOUS
10
5.1586706692913387
20
-2.5981876771653543
11
5.1617592913385826
21
-2.5950990551181103
0
LINE
8
BLACK
6
CONTINUOUS
10
5.1617592913385826
20
-2.5950990551181103
11
5.1655421259842518
21
-2.5929150393700788
0
LINE
8
BLACK
6
CONTINUOUS
10
5.1655421259842518
20
-2.5929150393700788
11
5.1697612598425193
21
-2.5917845275590552
0
LINE
8
BLACK
6
CONTINUOUS
10
5.1697612598425193
20
-2.5917845275590552
11
5.1741292913385823
21
-2.5917845275590552
0
LINE
8
BLACK
6
CONTINUOUS
10
5.1741292913385823
20
-2.5917845275590552
11
5.1783484251968499
21
-2.5929150393700788
0
LINE
8
BLACK
6
CONTINUOUS
10
5.157181496062992
20
-2.6103173622047242
11
5.1581876377952751
21
-2.6140722834645667
0
LINE
8
BLACK
6
CONTINUOUS
10
5.1581876377952751
20
-2.6140722834645667
11
5.1601312992125985
21
-2.6174388188976376
0
LINE
8
BLACK
6
CONTINUOUS
10
5.1601312992125985
20
-2.6174388188976376
11
5.1628801181102357
21
-2.6201876377952757
0
LINE
8
BLACK
6
CONTINUOUS
10
5.1628801181102357
20
-2.6201876377952757
11
5.1662466535433067
21
-2.6221312992125982
0
LINE
8
BLACK
6
CONTINUOUS
10
5.1662466535433067
20
-2.6221312992125982
11
5.1700015748031491
21
-2.6231374409448818
0
LINE
8
BLACK
6
CONTINUOUS
10
5.1700015748031491
20
-2.6231374409448818
11
5.1738889763779525
21
-2.6231374409448818
0
LINE
8
BLACK
6
CONTINUOUS
10
5.1738889763779525
20
-2.6231374409448818
11
5.177643897637795
21
-2.6221312992125982
0
LINE
8
BLACK
6
CONTINUOUS
10
5.177643897637795
20
-2.6221312992125982
11
5.181010433070866
21
-2.6201876377952757
0
LINE
8
BLACK
6
CONTINUOUS
10
5.181010433070866
20
-2.6201876377952757
11
5.1837592519685041
21
-2.6174388188976376
0
LINE
8
BLACK
6
CONTINUOUS
10
5.1837592519685041
20
-2.6174388188976376
11
5.1857029133858266
21
-2.6140722834645667
0
LINE
8
BLACK
6
CONTINUOUS
10
5.1857029133858266
20
-2.6140722834645667
11
5.1867090551181105
21
-2.6103173622047242
0
LINE
8
BLACK
6
CONTINUOUS
10
5.1867090551181105
20
-2.6103173622047242
11
5.1867090551181105
21
-2.6064299606299213
0
LINE
8
BLACK
6
CONTINUOUS
10
5.1867090551181105
20
-2.6064299606299213
11
5.1857029133858266
21
-2.6026750393700788
0
LINE
8
BLACK
6
CONTINUOUS
10
5.1857029133858266
20
-2.6026750393700788
11
5.1837592519685041
21
-2.5993085039370079
0
LINE
8
BLACK
6
CONTINUOUS
10
5.1837592519685041
20
-2.5993085039370079
11
5.181010433070866
21
-2.5965596850393702
0
LINE
8
BLACK
6
CONTINUOUS
10
5.181010433070866
20
-2.5965596850393702
11
5.177643897637795
21
-2.5946160236220472
0
LINE
8
BLACK
6
CONTINUOUS
10
5.177643897637795
20
-2.5946160236220472
11
5.1738889763779525
21
-2.5936098818897637
0
LINE
8
BLACK
6
CONTINUOUS
10
5.1738889763779525
20
-2.5936098818897637
11
5.1700015748031491
21
-2.5936098818897637
0
LINE
8
BLACK
6
CONTINUOUS
10
5.1700015748031491
20
-2.5936098818897637
11
5.1662466535433067
21
-2.5946160236220472
0
LINE
8
BLACK
6
CONTINUOUS
10
5.1662466535433067
20
-2.5946160236220472
11
5.1628801181102357
21
-2.5965596850393702
0
LINE
8
BLACK
6
CONTINUOUS
10
5.1628801181102357
20
-2.5965596850393702
11
5.1601312992125985
21
-2.5993085039370079
0
LINE
8
BLACK
6
CONTINUOUS
10
5.1601312992125985
20
-2.5993085039370079
11
5.1581876377952751
21
-2.6026750393700788
0
LINE
8
BLACK
6
CONTINUOUS
10
5.1581876377952751
20
-2.6026750393700788
11
5.157181496062992
21
-2.6064299606299213
0
LINE
8
BLACK
6
CONTINUOUS
10
5.157181496062992
20
-2.6064299606299213
11
5.157181496062992
21
-2.6103173622047242
0
LINE
8
BLACK
6
CONTINUOUS
10
4.474906535433071
20
-2.5081135433070867
11
4.4815164960629916
21
-2.5102612598425198
0
LINE
8
BLACK
6
CONTINUOUS
10
4.4815164960629916
20
-2.5102612598425198
11
4.4877090944881886
21
-2.5134165354330706
0
LINE
8
BLACK
6
CONTINUOUS
10
4.4877090944881886
20
-2.5134165354330706
11
4.4933318503937008
21
-2.517501692913386
0
LINE
8
BLACK
6
CONTINUOUS
10
4.4933318503937008
20
-2.517501692913386
11
4.4982463385826774
21
-2.5224161811023622
0
LINE
8
BLACK
6
CONTINUOUS
10
4.4982463385826774
20
-2.5224161811023622
11
4.5023314960629923
21
-2.528038937007874
0
LINE
8
BLACK
6
CONTINUOUS
10
4.5023314960629923
20
-2.528038937007874
11
4.5054867716535432
21
-2.5342315354330709
0
LINE
8
BLACK
6
CONTINUOUS
10
4.5054867716535432
20
-2.5342315354330709
11
4.5076344881889767
21
-2.5408414960629919
0
LINE
8
BLACK
6
CONTINUOUS
10
4.5076344881889767
20
-2.5408414960629919
11
4.5087217322834645
21
-2.547706062992126
0
LINE
8
BLACK
6
CONTINUOUS
10
4.5087217322834645
20
-2.547706062992126
11
4.5087217322834645
21
-2.5546561417322833
0
LINE
8
BLACK
6
CONTINUOUS
10
4.5087217322834645
20
-2.5546561417322833
11
4.5076344881889767
21
-2.5615207086614173
0
LINE
8
BLACK
6
CONTINUOUS
10
4.5076344881889767
20
-2.5615207086614173
11
4.5054867716535432
21
-2.5681306692913384
0
LINE
8
BLACK
6
CONTINUOUS
10
4.5054867716535432
20
-2.5681306692913384
11
4.5023314960629923
21
-2.5743232677165353
0
LINE
8
BLACK
6
CONTINUOUS
10
4.5023314960629923
20
-2.5743232677165353
11
4.4982463385826774
21
-2.5799460236220471
0
LINE
8
BLACK
6
CONTINUOUS
10
4.4982463385826774
20
-2.5799460236220471
11
4.4933318503937008
21
-2.5848605118110237
0
LINE
8
BLACK
6
CONTINUOUS
10
4.4933318503937008
20
-2.5848605118110237
11
4.4877090944881886
21
-2.5889456692913386
0
LINE
8
BLACK
6
CONTINUOUS
10
4.4877090944881886
20
-2.5889456692913386
11
4.4815164960629916
21
-2.5921009448818899
0
LINE
8
BLACK
6
CONTINUOUS
10
4.4815164960629916
20
-2.5921009448818899
11
4.474906535433071
21
-2.5942486614173226
0
LINE
8
BLACK
6
CONTINUOUS
10
4.474906535433071
20
-2.5942486614173226
11
4.468041968503937
21
-2.5953359055118108
0
LINE
8
BLACK
6
CONTINUOUS
10
4.468041968503937
20
-2.5953359055118108
11
4.4610918897637797
21
-2.5953359055118108
0
LINE
8
BLACK
6
CONTINUOUS
10
4.4610918897637797
20
-2.5953359055118108
11
4.4542273228346456
21
-2.5942486614173226
0
LINE
8
BLACK
6
CONTINUOUS
10
4.4542273228346456
20
-2.5942486614173226
11
4.4476173622047241
21
-2.5921009448818899
0
LINE
8
BLACK
6
CONTINUOUS
10
4.4476173622047241
20
-2.5921009448818899
11
4.4414247637795272
21
-2.5889456692913386
0
LINE
8
BLACK
6
CONTINUOUS
10
4.4414247637795272
20
-2.5889456692913386
11
4.4358020078740159
21
-2.5848605118110237
0
LINE
8
BLACK
6
CONTINUOUS
10
4.4358020078740159
20
-2.5848605118110237
11
4.4308875196850392
21
-2.5799460236220471
0
LINE
8
BLACK
6
CONTINUOUS
10
4.4308875196850392
20
-2.5799460236220471
11
4.4268023622047243
21
-2.5743232677165353
0
LINE
8
BLACK
6
CONTINUOUS
10
4.4268023622047243
20
-2.5743232677165353
11
4.4236470866141735
21
-2.5681306692913384
0
LINE
8
BLACK
6
CONTINUOUS
10
4.4236470866141735
20
-2.5681306692913384
11
4.4214993700787399
21
-2.5615207086614173
0
LINE
8
BLACK
6
CONTINUOUS
10
4.4214993700787399
20
-2.5615207086614173
11
4.4204121259842521
21
-2.5546561417322833
0
LINE
8
BLACK
6
CONTINUOUS
10
4.4204121259842521
20
-2.5546561417322833
11
4.4204121259842521
21
-2.5478502362204725
0
LINE
8
BLACK
6
CONTINUOUS
10
4.4204121259842521
20
-2.5478502362204725
11
4.4204121259842521
21
-2.547706062992126
0
LINE
8
BLACK
6
CONTINUOUS
10
4.4204121259842521
20
-2.547706062992126
11
4.4214993700787399
21
-2.5408414960629919
0
LINE
8
BLACK
6
CONTINUOUS
10
4.4214993700787399
20
-2.5408414960629919
11
4.4236470866141735
21
-2.5342315354330709
0
LINE
8
BLACK
6
CONTINUOUS
10
4.4236470866141735
20
-2.5342315354330709
11
4.4268023622047243
21
-2.528038937007874
0
LINE
8
BLACK
6
CONTINUOUS
10
4.4268023622047243
20
-2.528038937007874
11
4.4308875196850392
21
-2.5224161811023622
0
LINE
8
BLACK
6
CONTINUOUS
10
4.4308875196850392
20
-2.5224161811023622
11
4.4358020078740159
21
-2.517501692913386
0
LINE
8
BLACK
6
CONTINUOUS
10
4.4358020078740159
20
-2.517501692913386
11
4.4414247637795272
21
-2.5134165354330706
0
LINE
8
BLACK
6
CONTINUOUS
10
4.4414247637795272
20
-2.5134165354330706
11
4.4476173622047241
21
-2.5102612598425198
0
LINE
8
BLACK
6
CONTINUOUS
10
4.4476173622047241
20
-2.5102612598425198
11
4.4542273228346456
21
-2.5081135433070867
0
LINE
8
BLACK
6
CONTINUOUS
10
4.4542273228346456
20
-2.5081135433070867
11
4.4610918897637797
21
-2.5070262992125985
0
LINE
8
BLACK
6
CONTINUOUS
10
4.4610918897637797
20
-2.5070262992125985
11
4.468041968503937
21
-2.5070262992125985
0
LINE
8
BLACK
6
CONTINUOUS
10
4.468041968503937
20
-2.5070262992125985
11
4.474906535433071
21
-2.5081135433070867
0
LINE
8
BLACK
6
CONTINUOUS
10
4.4222440944881889
20
-2.5545119685039368
11
4.4232862204724412
21
-2.5610917322834643
0
LINE
8
BLACK
6
CONTINUOUS
10
4.4232862204724412
20
-2.5610917322834643
11
4.4253448425196851
21
-2.5674274409448818
0
LINE
8
BLACK
6
CONTINUOUS
10
4.4253448425196851
20
-2.5674274409448818
11
4.4283692125984251
21
-2.5733631102362202
0
LINE
8
BLACK
6
CONTINUOUS
10
4.4283692125984251
20
-2.5733631102362202
11
4.432284881889764
21
-2.5787525590551179
0
LINE
8
BLACK
6
CONTINUOUS
10
4.432284881889764
20
-2.5787525590551179
11
4.4369954724409446
21
-2.583463149606299
0
LINE
8
BLACK
6
CONTINUOUS
10
4.4369954724409446
20
-2.583463149606299
11
4.4423849212598423
21
-2.5873788188976379
0
LINE
8
BLACK
6
CONTINUOUS
10
4.4423849212598423
20
-2.5873788188976379
11
4.4483205905511811
21
-2.5904031889763779
0
LINE
8
BLACK
6
CONTINUOUS
10
4.4483205905511811
20
-2.5904031889763779
11
4.4546562992125986
21
-2.5924618110236222
0
LINE
8
BLACK
6
CONTINUOUS
10
4.4546562992125986
20
-2.5924618110236222
11
4.4612360629921257
21
-2.5935039370078741
0
LINE
8
BLACK
6
CONTINUOUS
10
4.4612360629921257
20
-2.5935039370078741
11
4.4678977952755901
21
-2.5935039370078741
0
LINE
8
BLACK
6
CONTINUOUS
10
4.4678977952755901
20
-2.5935039370078741
11
4.474477559055118
21
-2.5924618110236222
0
LINE
8
BLACK
6
CONTINUOUS
10
4.474477559055118
20
-2.5924618110236222
11
4.4808132677165355
21
-2.5904031889763779
0
LINE
8
BLACK
6
CONTINUOUS
10
4.4808132677165355
20
-2.5904031889763779
11
4.4867489370078735
21
-2.5873788188976379
0
LINE
8
BLACK
6
CONTINUOUS
10
4.4867489370078735
20
-2.5873788188976379
11
4.4921383858267712
21
-2.583463149606299
0
LINE
8
BLACK
6
CONTINUOUS
10
4.4921383858267712
20
-2.583463149606299
11
4.4968489763779527
21
-2.5787525590551179
0
LINE
8
BLACK
6
CONTINUOUS
10
4.4968489763779527
20
-2.5787525590551179
11
4.5007646456692916
21
-2.5733631102362202
0
LINE
8
BLACK
6
CONTINUOUS
10
4.5007646456692916
20
-2.5733631102362202
11
4.5037890157480316
21
-2.5674274409448818
0
LINE
8
BLACK
6
CONTINUOUS
10
4.5037890157480316
20
-2.5674274409448818
11
4.5058476377952754
21
-2.5610917322834643
0
LINE
8
BLACK
6
CONTINUOUS
10
4.5058476377952754
20
-2.5610917322834643
11
4.5068897637795278
21
-2.5545119685039368
0
LINE
8
BLACK
6
CONTINUOUS
10
4.5068897637795278
20
-2.5545119685039368
11
4.5068897637795278
21
-2.5478502362204725
0
LINE
8
BLACK
6
CONTINUOUS
10
4.5068897637795278
20
-2.5478502362204725
11
4.5058476377952754
21
-2.5412704724409449
0
LINE
8
BLACK
6
CONTINUOUS
10
4.5058476377952754
20
-2.5412704724409449
11
4.5037890157480316
21
-2.5349347637795274
0
LINE
8
BLACK
6
CONTINUOUS
10
4.5037890157480316
20
-2.5349347637795274
11
4.5007646456692916
21
-2.528999094488189
0
LINE
8
BLACK
6
CONTINUOUS
10
4.5007646456692916
20
-2.528999094488189
11
4.4968489763779527
21
-2.5236096456692914
0
LINE
8
BLACK
6
CONTINUOUS
10
4.4968489763779527
20
-2.5236096456692914
11
4.4921383858267712
21
-2.5188990551181103
0
LINE
8
BLACK
6
CONTINUOUS
10
4.4921383858267712
20
-2.5188990551181103
11
4.4867489370078735
21
-2.5149833858267714
0
LINE
8
BLACK
6
CONTINUOUS
10
4.4867489370078735
20
-2.5149833858267714
11
4.4808132677165355
21
-2.5119590157480314
0
LINE
8
BLACK
6
CONTINUOUS
10
4.4808132677165355
20
-2.5119590157480314
11
4.474477559055118
21
-2.5099003937007875
0
LINE
8
BLACK
6
CONTINUOUS
10
4.474477559055118
20
-2.5099003937007875
11
4.4678977952755901
21
-2.5088582677165352
0
LINE
8
BLACK
6
CONTINUOUS
10
4.4678977952755901
20
-2.5088582677165352
11
4.4612360629921257
21
-2.5088582677165352
0
LINE
8
BLACK
6
CONTINUOUS
10
4.4612360629921257
20
-2.5088582677165352
11
4.4546562992125986
21
-2.5099003937007875
0
LINE
8
BLACK
6
CONTINUOUS
10
4.4546562992125986
20
-2.5099003937007875
11
4.4483205905511811
21
-2.5119590157480314
0
LINE
8
BLACK
6
CONTINUOUS
10
4.4483205905511811
20
-2.5119590157480314
11
4.4423849212598423
21
-2.5149833858267714
0
LINE
8
BLACK
6
CONTINUOUS
10
4.4423849212598423
20
-2.5149833858267714
11
4.4369954724409446
21
-2.5188990551181103
0
LINE
8
BLACK
6
CONTINUOUS
10
4.4369954724409446
20
-2.5188990551181103
11
4.432284881889764
21
-2.5236096456692914
0
LINE
8
BLACK
6
CONTINUOUS
10
4.432284881889764
20
-2.5236096456692914
11
4.4283692125984251
21
-2.528999094488189
0
LINE
8
BLACK
6
CONTINUOUS
10
4.4283692125984251
20
-2.528999094488189
11
4.4253448425196851
21
-2.5349347637795274
0
LINE
8
BLACK
6
CONTINUOUS
10
4.4253448425196851
20
-2.5349347637795274
11
4.4232862204724412
21
-2.5412704724409449
0
LINE
8
BLACK
6
CONTINUOUS
10
4.4232862204724412
20
-2.5412704724409449
11
4.4222440944881889
21
-2.5478502362204725
0
LINE
8
BLACK
6
CONTINUOUS
10
4.4222440944881889
20
-2.5478502362204725
11
4.4222440944881889
21
-2.5545119685039368
0
LINE
8
BLACK
6
CONTINUOUS
10
5.2863960236220473
20
-2.4816714173228345
11
5.2915139370078741
21
-2.4846262598425195
0
LINE
8
BLACK
6
CONTINUOUS
10
5.2915139370078741
20
-2.4846262598425195
11
5.2956926771653539
21
-2.4888050000000002
0
LINE
8
BLACK
6
CONTINUOUS
10
5.2956926771653539
20
-2.4888050000000002
11
5.2986475196850389
21
-2.4939229133858265
0
LINE
8
BLACK
6
CONTINUOUS
10
5.2986475196850389
20
-2.4939229133858265
11
5.3001770472440946
21
-2.4996311811023619
0
LINE
8
BLACK
6
CONTINUOUS
10
5.3001770472440946
20
-2.4996311811023619
11
5.3001770472440946
21
-2.5055408661417324
0
LINE
8
BLACK
6
CONTINUOUS
10
5.3001770472440946
20
-2.5055408661417324
11
5.2986475196850389
21
-2.5112491338582679
0
LINE
8
BLACK
6
CONTINUOUS
10
5.2986475196850389
20
-2.5112491338582679
11
5.2956926771653539
21
-2.5163670472440942
0
LINE
8
BLACK
6
CONTINUOUS
10
5.2956926771653539
20
-2.5163670472440942
11
5.2915139370078741
21
-2.5205457874015749
0
LINE
8
BLACK
6
CONTINUOUS
10
5.2915139370078741
20
-2.5205457874015749
11
5.2863960236220473
21
-2.5235006299212599
0
LINE
8
BLACK
6
CONTINUOUS
10
5.2863960236220473
20
-2.5235006299212599
11
5.2806877559055119
21
-2.5250301574803151
0
LINE
8
BLACK
6
CONTINUOUS
10
5.2806877559055119
20
-2.5250301574803151
11
5.2747780708661418
21
-2.5250301574803151
0
LINE
8
BLACK
6
CONTINUOUS
10
5.2747780708661418
20
-2.5250301574803151
11
5.2690698031496064
21
-2.5235006299212599
0
LINE
8
BLACK
6
CONTINUOUS
10
5.2690698031496064
20
-2.5235006299212599
11
5.2639518897637796
21
-2.5205457874015749
0
LINE
8
BLACK
6
CONTINUOUS
10
5.2639518897637796
20
-2.5205457874015749
11
5.2597731496062989
21
-2.5163670472440942
0
LINE
8
BLACK
6
CONTINUOUS
10
5.2597731496062989
20
-2.5163670472440942
11
5.2568183070866139
21
-2.5112491338582679
0
LINE
8
BLACK
6
CONTINUOUS
10
5.2568183070866139
20
-2.5112491338582679
11
5.2552887795275591
21
-2.5055408661417324
0
LINE
8
BLACK
6
CONTINUOUS
10
5.2552887795275591
20
-2.5055408661417324
11
5.2552887795275591
21
-2.4998648425196848
0
LINE
8
BLACK
6
CONTINUOUS
10
5.2552887795275591
20
-2.4998648425196848
11
5.2552887795275591
21
-2.4996311811023619
0
LINE
8
BLACK
6
CONTINUOUS
10
5.2552887795275591
20
-2.4996311811023619
11
5.2568183070866139
21
-2.4939229133858265
0
LINE
8
BLACK
6
CONTINUOUS
10
5.2568183070866139
20
-2.4939229133858265
11
5.2597731496062989
21
-2.4888050000000002
0
LINE
8
BLACK
6
CONTINUOUS
10
5.2597731496062989
20
-2.4888050000000002
11
5.2639518897637796
21
-2.4846262598425195
0
LINE
8
BLACK
6
CONTINUOUS
10
5.2639518897637796
20
-2.4846262598425195
11
5.2690698031496064
21
-2.4816714173228345
0
LINE
8
BLACK
6
CONTINUOUS
10
5.2690698031496064
20
-2.4816714173228345
11
5.2747780708661418
21
-2.4801418897637793
0
LINE
8
BLACK
6
CONTINUOUS
10
5.2747780708661418
20
-2.4801418897637793
11
5.2806877559055119
21
-2.4801418897637793
0
LINE
8
BLACK
6
CONTINUOUS
10
5.2806877559055119
20
-2.4801418897637793
11
5.2863960236220473
21
-2.4816714173228345
0
LINE
8
BLACK
6
CONTINUOUS
10
5.2570636220472435
20
-2.5053072047244096
11
5.2584722047244092
21
-2.5105640551181101
0
LINE
8
BLACK
6
CONTINUOUS
10
5.2584722047244092
20
-2.5105640551181101
11
5.2611933858267719
21
-2.5152772440944879
0
LINE
8
BLACK
6
CONTINUOUS
10
5.2611933858267719
20
-2.5152772440944879
11
5.2650416929133854
21
-2.5191255511811024
0
LINE
8
BLACK
6
CONTINUOUS
10
5.2650416929133854
20
-2.5191255511811024
11
5.2697548818897637
21
-2.5218467322834646
0
LINE
8
BLACK
6
CONTINUOUS
10
5.2697548818897637
20
-2.5218467322834646
11
5.2750117322834642
21
-2.5232553149606298
0
LINE
8
BLACK
6
CONTINUOUS
10
5.2750117322834642
20
-2.5232553149606298
11
5.2804540944881886
21
-2.5232553149606298
0
LINE
8
BLACK
6
CONTINUOUS
10
5.2804540944881886
20
-2.5232553149606298
11
5.28571094488189
21
-2.5218467322834646
0
LINE
8
BLACK
6
CONTINUOUS
10
5.28571094488189
20
-2.5218467322834646
11
5.2904241338582674
21
-2.5191255511811024
0
LINE
8
BLACK
6
CONTINUOUS
10
5.2904241338582674
20
-2.5191255511811024
11
5.2942724409448818
21
-2.5152772440944879
0
LINE
8
BLACK
6
CONTINUOUS
10
5.2942724409448818
20
-2.5152772440944879
11
5.2969936220472436
21
-2.5105640551181101
0
LINE
8
BLACK
6
CONTINUOUS
10
5.2969936220472436
20
-2.5105640551181101
11
5.2984022047244093
21
-2.5053072047244096
0
LINE
8
BLACK
6
CONTINUOUS
10
5.2984022047244093
20
-2.5053072047244096
11
5.2984022047244093
21
-2.4998648425196848
0
LINE
8
BLACK
6
CONTINUOUS
10
5.2984022047244093
20
-2.4998648425196848
11
5.2969936220472436
21
-2.4946079921259843
0
LINE
8
BLACK
6
CONTINUOUS
10
5.2969936220472436
20
-2.4946079921259843
11
5.2942724409448818
21
-2.4898948031496064
0
LINE
8
BLACK
6
CONTINUOUS
10
5.2942724409448818
20
-2.4898948031496064
11
5.2904241338582674
21
-2.486046496062992
0
LINE
8
BLACK
6
CONTINUOUS
10
5.2904241338582674
20
-2.486046496062992
11
5.28571094488189
21
-2.4833253149606298
0
LINE
8
BLACK
6
CONTINUOUS
10
5.28571094488189
20
-2.4833253149606298
11
5.2804540944881886
21
-2.4819167322834645
0
LINE
8
BLACK
6
CONTINUOUS
10
5.2804540944881886
20
-2.4819167322834645
11
5.2750117322834642
21
-2.4819167322834645
0
LINE
8
BLACK
6
CONTINUOUS
10
5.2750117322834642
20
-2.4819167322834645
11
5.2697548818897637
21
-2.4833253149606298
0
LINE
8
BLACK
6
CONTINUOUS
10
5.2697548818897637
20
-2.4833253149606298
11
5.2650416929133854
21
-2.486046496062992
0
LINE
8
BLACK
6
CONTINUOUS
10
5.2650416929133854
20
-2.486046496062992
11
5.2611933858267719
21
-2.4898948031496064
0
LINE
8
BLACK
6
CONTINUOUS
10
5.2611933858267719
20
-2.4898948031496064
11
5.2584722047244092
21
-2.4946079921259843
0
LINE
8
BLACK
6
CONTINUOUS
10
5.2584722047244092
20
-2.4946079921259843
11
5.2570636220472435
21
-2.4998648425196848
0
LINE
8
BLACK
6
CONTINUOUS
10
5.2570636220472435
20
-2.4998648425196848
11
5.2570636220472435
21
-2.5053072047244096
0
LINE
8
BLACK
6
CONTINUOUS
10
-0.4542273228346457
20
-1.9687434645669291
11
-0.4476173622047244
21
-1.9708911811023622
0
LINE
8
BLACK
6
CONTINUOUS
10
-0.4476173622047244
20
-1.9708911811023622
11
-0.4414247637795276
21
-1.9740464566929132
0
LINE
8
BLACK
6
CONTINUOUS
10
-0.4414247637795276
20
-1.9740464566929132
11
-0.4358020078740157
21
-1.9781316141732284
0
LINE
8
BLACK
6
CONTINUOUS
10
-0.4358020078740157
20
-1.9781316141732284
11
-0.4308875196850394
21
-1.9830461023622046
0
LINE
8
BLACK
6
CONTINUOUS
10
-0.4308875196850394
20
-1.9830461023622046
11
-0.4268023622047244
21
-1.9886688582677166
0
LINE
8
BLACK
6
CONTINUOUS
10
-0.4268023622047244
20
-1.9886688582677166
11
-0.4236470866141732
21
-1.9948614566929133
0
LINE
8
BLACK
6
CONTINUOUS
10
-0.4236470866141732
20
-1.9948614566929133
11
-0.4214993700787402
21
-2.0014714173228345
0
LINE
8
BLACK
6
CONTINUOUS
10
-0.4214993700787402
20
-2.0014714173228345
11
-0.420412125984252
21
-2.0083359842519686
0
LINE
8
BLACK
6
CONTINUOUS
10
-0.420412125984252
20
-2.0083359842519686
11
-0.420412125984252
21
-2.0152860629921259
0
LINE
8
BLACK
6
CONTINUOUS
10
-0.420412125984252
20
-2.0152860629921259
11
-0.4214993700787402
21
-2.0221506299212599
0
LINE
8
BLACK
6
CONTINUOUS
10
-0.4214993700787402
20
-2.0221506299212599
11
-0.4236470866141732
21
-2.028760590551181
0
LINE
8
BLACK
6
CONTINUOUS
10
-0.4236470866141732
20
-2.028760590551181
11
-0.4268023622047244
21
-2.0349531889763779
0
LINE
8
BLACK
6
CONTINUOUS
10
-0.4268023622047244
20
-2.0349531889763779
11
-0.4308875196850394
21
-2.0405759448818896
0
LINE
8
BLACK
6
CONTINUOUS
10
-0.4308875196850394
20
-2.0405759448818896
11
-0.4358020078740157
21
-2.0454904330708663
0
LINE
8
BLACK
6
CONTINUOUS
10
-0.4358020078740157
20
-2.0454904330708663
11
-0.4414247637795276
21
-2.0495755905511812
0
LINE
8
BLACK
6
CONTINUOUS
10
-0.4414247637795276
20
-2.0495755905511812
11
-0.4476173622047244
21
-2.0527308661417321
0
LINE
8
BLACK
6
CONTINUOUS
10
-0.4476173622047244
20
-2.0527308661417321
11
-0.4542273228346457
21
-2.0548785826771652
0
LINE
8
BLACK
6
CONTINUOUS
10
-0.4542273228346457
20
-2.0548785826771652
11
-0.4610918897637795
21
-2.0559658267716534
0
LINE
8
BLACK
6
CONTINUOUS
10
-0.4610918897637795
20
-2.0559658267716534
11
-0.468041968503937
21
-2.0559658267716534
0
LINE
8
BLACK
6
CONTINUOUS
10
-0.468041968503937
20
-2.0559658267716534
11
-0.4749065354330709
21
-2.0548785826771652
0
LINE
8
BLACK
6
CONTINUOUS
10
-0.4749065354330709
20
-2.0548785826771652
11
-0.4815164960629921
21
-2.0527308661417321
0
LINE
8
BLACK
6
CONTINUOUS
10
-0.4815164960629921
20
-2.0527308661417321
11
-0.4877090944881889
21
-2.0495755905511812
0
LINE
8
BLACK
6
CONTINUOUS
10
-0.4877090944881889
20
-2.0495755905511812
11
-0.4933318503937008
21
-2.0454904330708663
0
LINE
8
BLACK
6
CONTINUOUS
10
-0.4933318503937008
20
-2.0454904330708663
11
-0.4982463385826771
21
-2.0405759448818896
0
LINE
8
BLACK
6
CONTINUOUS
10
-0.4982463385826771
20
-2.0405759448818896
11
-0.5023314960629921
21
-2.0349531889763779
0
LINE
8
BLACK
6
CONTINUOUS
10
-0.5023314960629921
20
-2.0349531889763779
11
-0.5054867716535433
21
-2.028760590551181
0
LINE
8
BLACK
6
CONTINUOUS
10
-0.5054867716535433
20
-2.028760590551181
11
-0.5076344881889764
21
-2.0221506299212599
0
LINE
8
BLACK
6
CONTINUOUS
10
-0.5076344881889764
20
-2.0221506299212599
11
-0.5087217322834645
21
-2.0152860629921259
0
LINE
8
BLACK
6
CONTINUOUS
10
-0.5087217322834645
20
-2.0152860629921259
11
-0.5087217322834645
21
-2.0084801574803151
0
LINE
8
BLACK
6
CONTINUOUS
10
-0.5087217322834645
20
-2.0084801574803151
11
-0.5087217322834645
21
-2.0083359842519686
0
LINE
8
BLACK
6
CONTINUOUS
10
-0.5087217322834645
20
-2.0083359842519686
11
-0.5076344881889764
21
-2.0014714173228345
0
LINE
8
BLACK
6
CONTINUOUS
10
-0.5076344881889764
20
-2.0014714173228345
11
-0.5054867716535433
21
-1.9948614566929133
0
LINE
8
BLACK
6
CONTINUOUS
10
-0.5054867716535433
20
-1.9948614566929133
11
-0.5023314960629921
21
-1.9886688582677166
0
LINE
8
BLACK
6
CONTINUOUS
10
-0.5023314960629921
20
-1.9886688582677166
11
-0.4982463385826771
21
-1.9830461023622046
0
LINE
8
BLACK
6
CONTINUOUS
10
-0.4982463385826771
20
-1.9830461023622046
11
-0.4933318503937008
21
-1.9781316141732284
0
LINE
8
BLACK
6
CONTINUOUS
10
-0.4933318503937008
20
-1.9781316141732284
11
-0.4877090944881889
21
-1.9740464566929132
0
LINE
8
BLACK
6
CONTINUOUS
10
-0.4877090944881889
20
-1.9740464566929132
11
-0.4815164960629921
21
-1.9708911811023622
0
LINE
8
BLACK
6
CONTINUOUS
10
-0.4815164960629921
20
-1.9708911811023622
11
-0.4749065354330709
21
-1.9687434645669291
0
LINE
8
BLACK
6
CONTINUOUS
10
-0.4749065354330709
20
-1.9687434645669291
11
-0.468041968503937
21
-1.9676562204724408
0
LINE
8
BLACK
6
CONTINUOUS
10
-0.468041968503937
20
-1.9676562204724408
11
-0.4610918897637795
21
-1.9676562204724408
0
LINE
8
BLACK
6
CONTINUOUS
10
-0.4610918897637795
20
-1.9676562204724408
11
-0.4542273228346457
21
-1.9687434645669291
0
LINE
8
BLACK
6
CONTINUOUS
10
-0.5068897637795275
20
-2.0151418897637794
11
-0.5058476377952755
21
-2.0217216535433069
0
LINE
8
BLACK
6
CONTINUOUS
10
-0.5058476377952755
20
-2.0217216535433069
11
-0.5037890157480315
21
-2.0280573622047244
0
LINE
8
BLACK
6
CONTINUOUS
10
-0.5037890157480315
20
-2.0280573622047244
11
-0.5007646456692914
21
-2.0339930314960628
0
LINE
8
BLACK
6
CONTINUOUS
10
-0.5007646456692914
20
-2.0339930314960628
11
-0.4968489763779527
21
-2.0393824803149605
0
LINE
8
BLACK
6
CONTINUOUS
10
-0.4968489763779527
20
-2.0393824803149605
11
-0.4921383858267717
21
-2.0440930708661416
0
LINE
8
BLACK
6
CONTINUOUS
10
-0.4921383858267717
20
-2.0440930708661416
11
-0.486748937007874
21
-2.0480087401574805
0
LINE
8
BLACK
6
CONTINUOUS
10
-0.486748937007874
20
-2.0480087401574805
11
-0.4808132677165354
21
-2.0510331102362205
0
LINE
8
BLACK
6
CONTINUOUS
10
-0.4808132677165354
20
-2.0510331102362205
11
-0.4744775590551181
21
-2.0530917322834643
0
LINE
8
BLACK
6
CONTINUOUS
10
-0.4744775590551181
20
-2.0530917322834643
11
-0.4678977952755906
21
-2.0541338582677167
0
LINE
8
BLACK
6
CONTINUOUS
10
-0.4678977952755906
20
-2.0541338582677167
11
-0.461236062992126
21
-2.0541338582677167
0
LINE
8
BLACK
6
CONTINUOUS
10
-0.461236062992126
20
-2.0541338582677167
11
-0.4546562992125984
21
-2.0530917322834643
0
LINE
8
BLACK
6
CONTINUOUS
10
-0.4546562992125984
20
-2.0530917322834643
11
-0.4483205905511811
21
-2.0510331102362205
0
LINE
8
BLACK
6
CONTINUOUS
10
-0.4483205905511811
20
-2.0510331102362205
11
-0.4423849212598425
21
-2.0480087401574805
0
LINE
8
BLACK
6
CONTINUOUS
10
-0.4423849212598425
20
-2.0480087401574805
11
-0.4369954724409449
21
-2.0440930708661416
0
LINE
8
BLACK
6
CONTINUOUS
10
-0.4369954724409449
20
-2.0440930708661416
11
-0.4322848818897638
21
-2.0393824803149605
0
LINE
8
BLACK
6
CONTINUOUS
10
-0.4322848818897638
20
-2.0393824803149605
11
-0.4283692125984252
21
-2.0339930314960628
0
LINE
8
BLACK
6
CONTINUOUS
10
-0.4283692125984252
20
-2.0339930314960628
11
-0.425344842519685
21
-2.0280573622047244
0
LINE
8
BLACK
6
CONTINUOUS
10
-0.425344842519685
20
-2.0280573622047244
11
-0.4232862204724409
21
-2.0217216535433069
0
LINE
8
BLACK
6
CONTINUOUS
10
-0.4232862204724409
20
-2.0217216535433069
11
-0.4222440944881889
21
-2.0151418897637794
0
LINE
8
BLACK
6
CONTINUOUS
10
-0.4222440944881889
20
-2.0151418897637794
11
-0.4222440944881889
21
-2.0084801574803151
0
LINE
8
BLACK
6
CONTINUOUS
10
-0.4222440944881889
20
-2.0084801574803151
11
-0.4232862204724409
21
-2.0019003937007875
0
LINE
8
BLACK
6
CONTINUOUS
10
-0.4232862204724409
20
-2.0019003937007875
11
-0.425344842519685
21
-1.99556468503937
0
LINE
8
BLACK
6
CONTINUOUS
10
-0.425344842519685
20
-1.99556468503937
11
-0.4283692125984252
21
-1.9896290157480314
0
LINE
8
BLACK
6
CONTINUOUS
10
-0.4283692125984252
20
-1.9896290157480314
11
-0.4322848818897638
21
-1.9842395669291337
0
LINE
8
BLACK
6
CONTINUOUS
10
-0.4322848818897638
20
-1.9842395669291337
11
-0.4369954724409449
21
-1.9795289763779527
0
LINE
8
BLACK
6
CONTINUOUS
10
-0.4369954724409449
20
-1.9795289763779527
11
-0.4423849212598425
21
-1.9756133070866142
0
LINE
8
BLACK
6
CONTINUOUS
10
-0.4423849212598425
20
-1.9756133070866142
11
-0.4483205905511811
21
-1.972588937007874
0
LINE
8
BLACK
6
CONTINUOUS
10
-0.4483205905511811
20
-1.972588937007874
11
-0.4546562992125984
21
-1.9705303149606299
0
LINE
8
BLACK
6
CONTINUOUS
10
-0.4546562992125984
20
-1.9705303149606299
11
-0.461236062992126
21
-1.969488188976378
0
LINE
8
BLACK
6
CONTINUOUS
10
-0.461236062992126
20
-1.969488188976378
11
-0.4678977952755906
21
-1.969488188976378
0
LINE
8
BLACK
6
CONTINUOUS
10
-0.4678977952755906
20
-1.969488188976378
11
-0.4744775590551181
21
-1.9705303149606299
0
LINE
8
BLACK
6
CONTINUOUS
10
-0.4744775590551181
20
-1.9705303149606299
11
-0.4808132677165354
21
-1.972588937007874
0
LINE
8
BLACK
6
CONTINUOUS
10
-0.4808132677165354
20
-1.972588937007874
11
-0.486748937007874
21
-1.9756133070866142
0
LINE
8
BLACK
6
CONTINUOUS
10
-0.486748937007874
20
-1.9756133070866142
11
-0.4921383858267717
21
-1.9795289763779527
0
LINE
8
BLACK
6
CONTINUOUS
10
-0.4921383858267717
20
-1.9795289763779527
11
-0.4968489763779527
21
-1.9842395669291337
0
LINE
8
BLACK
6
CONTINUOUS
10
-0.4968489763779527
20
-1.9842395669291337
11
-0.5007646456692914
21
-1.9896290157480314
0
LINE
8
BLACK
6
CONTINUOUS
10
-0.5007646456692914
20
-1.9896290157480314
11
-0.5037890157480315
21
-1.99556468503937
0
LINE
8
BLACK
6
CONTINUOUS
10
-0.5037890157480315
20
-1.99556468503937
11
-0.5058476377952755
21
-2.0019003937007875
0
LINE
8
BLACK
6
CONTINUOUS
10
-0.5058476377952755
20
-2.0019003937007875
11
-0.5068897637795275
21
-2.0084801574803151
0
LINE
8
BLACK
6
CONTINUOUS
10
-0.5068897637795275
20
-2.0084801574803151
11
-0.5068897637795275
21
-2.0151418897637794
0
LINE
8
BLACK
6
CONTINUOUS
10
5.23474905511811
20
-1.767956062992126
11
5.2413590157480314
21
-1.7701037795275589
0
LINE
8
BLACK
6
CONTINUOUS
10
5.2413590157480314
20
-1.7701037795275589
11
5.2475516141732284
21
-1.7732590551181102
0
LINE
8
BLACK
6
CONTINUOUS
10
5.2475516141732284
20
-1.7732590551181102
11
5.2531743700787397
21
-1.7773442125984251
0
LINE
8
BLACK
6
CONTINUOUS
10
5.2531743700787397
20
-1.7773442125984251
11
5.2580888582677163
21
-1.7822587007874016
0
LINE
8
BLACK
6
CONTINUOUS
10
5.2580888582677163
20
-1.7822587007874016
11
5.2621740157480312
21
-1.7878814566929133
0
LINE
8
BLACK
6
CONTINUOUS
10
5.2621740157480312
20
-1.7878814566929133
11
5.265329291338583
21
-1.7940740551181102
0
LINE
8
BLACK
6
CONTINUOUS
10
5.265329291338583
20
-1.7940740551181102
11
5.2674770078740156
21
-1.8006840157480315
0
LINE
8
BLACK
6
CONTINUOUS
10
5.2674770078740156
20
-1.8006840157480315
11
5.2685642519685034
21
-1.8075485826771653
0
LINE
8
BLACK
6
CONTINUOUS
10
5.2685642519685034
20
-1.8075485826771653
11
5.2685642519685034
21
-1.8144986614173229
0
LINE
8
BLACK
6
CONTINUOUS
10
5.2685642519685034
20
-1.8144986614173229
11
5.2674770078740156
21
-1.8213632283464567
0
LINE
8
BLACK
6
CONTINUOUS
10
5.2674770078740156
20
-1.8213632283464567
11
5.265329291338583
21
-1.8279731889763779
0
LINE
8
BLACK
6
CONTINUOUS
10
5.265329291338583
20
-1.8279731889763779
11
5.2621740157480312
21
-1.8341657874015747
0
LINE
8
BLACK
6
CONTINUOUS
10
5.2621740157480312
20
-1.8341657874015747
11
5.2580888582677163
21
-1.8397885433070866
0
LINE
8
BLACK
6
CONTINUOUS
10
5.2580888582677163
20
-1.8397885433070866
11
5.2531743700787397
21
-1.8447030314960629
0
LINE
8
BLACK
6
CONTINUOUS
10
5.2531743700787397
20
-1.8447030314960629
11
5.2475516141732284
21
-1.848788188976378
0
LINE
8
BLACK
6
CONTINUOUS
10
5.2475516141732284
20
-1.848788188976378
11
5.2413590157480314
21
-1.851943464566929
0
LINE
8
BLACK
6
CONTINUOUS
10
5.2413590157480314
20
-1.851943464566929
11
5.23474905511811
21
-1.8540911811023622
0
LINE
8
BLACK
6
CONTINUOUS
10
5.23474905511811
20
-1.8540911811023622
11
5.2278844881889759
21
-1.8551784251968504
0
LINE
8
BLACK
6
CONTINUOUS
10
5.2278844881889759
20
-1.8551784251968504
11
5.2209344094488186
21
-1.8551784251968504
0
LINE
8
BLACK
6
CONTINUOUS
10
5.2209344094488186
20
-1.8551784251968504
11
5.2140698425196845
21
-1.8540911811023622
0
LINE
8
BLACK
6
CONTINUOUS
10
5.2140698425196845
20
-1.8540911811023622
11
5.2074598818897639
21
-1.851943464566929
0
LINE
8
BLACK
6
CONTINUOUS
10
5.2074598818897639
20
-1.851943464566929
11
5.201267283464567
21
-1.848788188976378
0
LINE
8
BLACK
6
CONTINUOUS
10
5.201267283464567
20
-1.848788188976378
11
5.1956445275590548
21
-1.8447030314960629
0
LINE
8
BLACK
6
CONTINUOUS
10
5.1956445275590548
20
-1.8447030314960629
11
5.190730039370079
21
-1.8397885433070866
0
LINE
8
BLACK
6
CONTINUOUS
10
5.190730039370079
20
-1.8397885433070866
11
5.1866448818897632
21
-1.8341657874015747
0
LINE
8
BLACK
6
CONTINUOUS
10
5.1866448818897632
20
-1.8341657874015747
11
5.1834896062992124
21
-1.8279731889763779
0
LINE
8
BLACK
6
CONTINUOUS
10
5.1834896062992124
20
-1.8279731889763779
11
5.1813418897637797
21
-1.8213632283464567
0
LINE
8
BLACK
6
CONTINUOUS
10
5.1813418897637797
20
-1.8213632283464567
11
5.1802546456692911
21
-1.8144986614173229
0
LINE
8
BLACK
6
CONTINUOUS
10
5.1802546456692911
20
-1.8144986614173229
11
5.1802546456692911
21
-1.8076927559055118
0
LINE
8
BLACK
6
CONTINUOUS
10
5.1802546456692911
20
-1.8076927559055118
11
5.1802546456692911
21
-1.8075485826771653
0
LINE
8
BLACK
6
CONTINUOUS
10
5.1802546456692911
20
-1.8075485826771653
11
5.1813418897637797
21
-1.8006840157480315
0
LINE
8
BLACK
6
CONTINUOUS
10
5.1813418897637797
20
-1.8006840157480315
11
5.1834896062992124
21
-1.7940740551181102
0
LINE
8
BLACK
6
CONTINUOUS
10
5.1834896062992124
20
-1.7940740551181102
11
5.1866448818897632
21
-1.7878814566929133
0
LINE
8
BLACK
6
CONTINUOUS
10
5.1866448818897632
20
-1.7878814566929133
11
5.190730039370079
21
-1.7822587007874016
0
LINE
8
BLACK
6
CONTINUOUS
10
5.190730039370079
20
-1.7822587007874016
11
5.1956445275590548
21
-1.7773442125984251
0
LINE
8
BLACK
6
CONTINUOUS
10
5.1956445275590548
20
-1.7773442125984251
11
5.201267283464567
21
-1.7732590551181102
0
LINE
8
BLACK
6
CONTINUOUS
10
5.201267283464567
20
-1.7732590551181102
11
5.2074598818897639
21
-1.7701037795275589
0
LINE
8
BLACK
6
CONTINUOUS
10
5.2074598818897639
20
-1.7701037795275589
11
5.2140698425196845
21
-1.767956062992126
0
LINE
8
BLACK
6
CONTINUOUS
10
5.2140698425196845
20
-1.767956062992126
11
5.2209344094488186
21
-1.7668688188976378
0
LINE
8
BLACK
6
CONTINUOUS
10
5.2209344094488186
20
-1.7668688188976378
11
5.2278844881889759
21
-1.7668688188976378
0
LINE
8
BLACK
6
CONTINUOUS
10
5.2278844881889759
20
-1.7668688188976378
11
5.23474905511811
21
-1.767956062992126
0
LINE
8
BLACK
6
CONTINUOUS
10
5.1820866141732278
20
-1.8143544881889764
11
5.1831287401574802
21
-1.8209342519685039
0
LINE
8
BLACK
6
CONTINUOUS
10
5.1831287401574802
20
-1.8209342519685039
11
5.185187362204724
21
-1.8272699606299212
0
LINE
8
BLACK
6
CONTINUOUS
10
5.185187362204724
20
-1.8272699606299212
11
5.1882117322834649
21
-1.8332056299212598
0
LINE
8
BLACK
6
CONTINUOUS
10
5.1882117322834649
20
-1.8332056299212598
11
5.1921274015748029
21
-1.8385950787401575
0
LINE
8
BLACK
6
CONTINUOUS
10
5.1921274015748029
20
-1.8385950787401575
11
5.1968379921259844
21
-1.8433056692913385
0
LINE
8
BLACK
6
CONTINUOUS
10
5.1968379921259844
20
-1.8433056692913385
11
5.2022274409448821
21
-1.8472213385826772
0
LINE
8
BLACK
6
CONTINUOUS
10
5.2022274409448821
20
-1.8472213385826772
11
5.20816311023622
21
-1.8502457086614172
0
LINE
8
BLACK
6
CONTINUOUS
10
5.20816311023622
20
-1.8502457086614172
11
5.2144988188976376
21
-1.8523043307086613
0
LINE
8
BLACK
6
CONTINUOUS
10
5.2144988188976376
20
-1.8523043307086613
11
5.2210785826771655
21
-1.8533464566929134
0
LINE
8
BLACK
6
CONTINUOUS
10
5.2210785826771655
20
-1.8533464566929134
11
5.2277403149606299
21
-1.8533464566929134
0
LINE
8
BLACK
6
CONTINUOUS
10
5.2277403149606299
20
-1.8533464566929134
11
5.2343200787401569
21
-1.8523043307086613
0
LINE
8
BLACK
6
CONTINUOUS
10
5.2343200787401569
20
-1.8523043307086613
11
5.2406557874015745
21
-1.8502457086614172
0
LINE
8
BLACK
6
CONTINUOUS
10
5.2406557874015745
20
-1.8502457086614172
11
5.2465914566929133
21
-1.8472213385826772
0
LINE
8
BLACK
6
CONTINUOUS
10
5.2465914566929133
20
-1.8472213385826772
11
5.251980905511811
21
-1.8433056692913385
0
LINE
8
BLACK
6
CONTINUOUS
10
5.251980905511811
20
-1.8433056692913385
11
5.2566914960629916
21
-1.8385950787401575
0
LINE
8
BLACK
6
CONTINUOUS
10
5.2566914960629916
20
-1.8385950787401575
11
5.2606071653543305
21
-1.8332056299212598
0
LINE
8
BLACK
6
CONTINUOUS
10
5.2606071653543305
20
-1.8332056299212598
11
5.2636315354330705
21
-1.8272699606299212
0
LINE
8
BLACK
6
CONTINUOUS
10
5.2636315354330705
20
-1.8272699606299212
11
5.2656901574803152
21
-1.8209342519685039
0
LINE
8
BLACK
6
CONTINUOUS
10
5.2656901574803152
20
-1.8209342519685039
11
5.2667322834645667
21
-1.8143544881889764
0
LINE
8
BLACK
6
CONTINUOUS
10
5.2667322834645667
20
-1.8143544881889764
11
5.2667322834645667
21
-1.8076927559055118
0
LINE
8
BLACK
6
CONTINUOUS
10
5.2667322834645667
20
-1.8076927559055118
11
5.2656901574803152
21
-1.8011129921259843
0
LINE
8
BLACK
6
CONTINUOUS
10
5.2656901574803152
20
-1.8011129921259843
11
5.2636315354330705
21
-1.794777283464567
0
LINE
8
BLACK
6
CONTINUOUS
10
5.2636315354330705
20
-1.794777283464567
11
5.2606071653543305
21
-1.7888416141732284
0
LINE
8
BLACK
6
CONTINUOUS
10
5.2606071653543305
20
-1.7888416141732284
11
5.2566914960629916
21
-1.7834521653543307
0
LINE
8
BLACK
6
CONTINUOUS
10
5.2566914960629916
20
-1.7834521653543307
11
5.251980905511811
21
-1.7787415748031496
0
LINE
8
BLACK
6
CONTINUOUS
10
5.251980905511811
20
-1.7787415748031496
11
5.2465914566929133
21
-1.774825905511811
0
LINE
8
BLACK
6
CONTINUOUS
10
5.2465914566929133
20
-1.774825905511811
11
5.2406557874015745
21
-1.7718015354330707
0
LINE
8
BLACK
6
CONTINUOUS
10
5.2406557874015745
20
-1.7718015354330707
11
5.2343200787401569
21
-1.7697429133858267
0
LINE
8
BLACK
6
CONTINUOUS
10
5.2343200787401569
20
-1.7697429133858267
11
5.2277403149606299
21
-1.7687007874015748
0
LINE
8
BLACK
6
CONTINUOUS
10
5.2277403149606299
20
-1.7687007874015748
11
5.2210785826771655
21
-1.7687007874015748
0
LINE
8
BLACK
6
CONTINUOUS
10
5.2210785826771655
20
-1.7687007874015748
11
5.2144988188976376
21
-1.7697429133858267
0
LINE
8
BLACK
6
CONTINUOUS
10
5.2144988188976376
20
-1.7697429133858267
11
5.20816311023622
21
-1.7718015354330707
0
LINE
8
BLACK
6
CONTINUOUS
10
5.20816311023622
20
-1.7718015354330707
11
5.2022274409448821
21
-1.774825905511811
0
LINE
8
BLACK
6
CONTINUOUS
10
5.2022274409448821
20
-1.774825905511811
11
5.1968379921259844
21
-1.7787415748031496
0
LINE
8
BLACK
6
CONTINUOUS
10
5.1968379921259844
20
-1.7787415748031496
11
5.1921274015748029
21
-1.7834521653543307
0
LINE
8
BLACK
6
CONTINUOUS
10
5.1921274015748029
20
-1.7834521653543307
11
5.1882117322834649
21
-1.7888416141732284
0
LINE
8
BLACK
6
CONTINUOUS
10
5.1882117322834649
20
-1.7888416141732284
11
5.185187362204724
21
-1.794777283464567
0
LINE
8
BLACK
6
CONTINUOUS
10
5.185187362204724
20
-1.794777283464567
11
5.1831287401574802
21
-1.8011129921259843
0
LINE
8
BLACK
6
CONTINUOUS
10
5.1831287401574802
20
-1.8011129921259843
11
5.1820866141732278
21
-1.8076927559055118
0
LINE
8
BLACK
6
CONTINUOUS
10
5.1820866141732278
20
-1.8076927559055118
11
5.1820866141732278
21
-1.8143544881889764
0
LINE
8
BLACK
6
CONTINUOUS
10
-0.4542273228346457
20
0.0351935433070866
11
-0.4476173622047244
21
0.0330458267716535
0
LINE
8
BLACK
6
CONTINUOUS
10
-0.4476173622047244
20
0.0330458267716535
11
-0.4414247637795276
21
0.0298905511811024
0
LINE
8
BLACK
6
CONTINUOUS
10
-0.4414247637795276
20
0.0298905511811024
11
-0.4358020078740157
21
0.0258053937007874
0
LINE
8
BLACK
6
CONTINUOUS
10
-0.4358020078740157
20
0.0258053937007874
11
-0.4308875196850394
21
0.020890905511811
0
LINE
8
BLACK
6
CONTINUOUS
10
-0.4308875196850394
20
0.020890905511811
11
-0.4268023622047244
21
0.0152681496062992
0
LINE
8
BLACK
6
CONTINUOUS
10
-0.4268023622047244
20
0.0152681496062992
11
-0.4236470866141732
21
0.0090755511811024
0
LINE
8
BLACK
6
CONTINUOUS
10
-0.4236470866141732
20
0.0090755511811024
11
-0.4214993700787402
21
0.0024655905511811
0
LINE
8
BLACK
6
CONTINUOUS
10
-0.4214993700787402
20
0.0024655905511811
11
-0.420412125984252
21
-0.0043989763779528
0
LINE
8
BLACK
6
CONTINUOUS
10
-0.420412125984252
20
-0.0043989763779528
11
-0.420412125984252
21
-0.0113490551181102
0
LINE
8
BLACK
6
CONTINUOUS
10
-0.420412125984252
20
-0.0113490551181102
11
-0.4214993700787402
21
-0.0182136220472441
0
LINE
8
BLACK
6
CONTINUOUS
10
-0.4214993700787402
20
-0.0182136220472441
11
-0.4236470866141732
21
-0.0248235826771654
0
LINE
8
BLACK
6
CONTINUOUS
10
-0.4236470866141732
20
-0.0248235826771654
11
-0.4268023622047244
21
-0.0310161811023622
0
LINE
8
BLACK
6
CONTINUOUS
10
-0.4268023622047244
20
-0.0310161811023622
11
-0.4308875196850394
21
-0.036638937007874
0
LINE
8
BLACK
6
CONTINUOUS
10
-0.4308875196850394
20
-0.036638937007874
11
-0.4358020078740157
21
-0.0415534251968504
0
LINE
8
BLACK
6
CONTINUOUS
10
-0.4358020078740157
20
-0.0415534251968504
11
-0.4414247637795276
21
-0.0456385826771654
0
LINE
8
BLACK
6
CONTINUOUS
10
-0.4414247637795276
20
-0.0456385826771654
11
-0.4476173622047244
21
-0.0487938582677165
0
LINE
8
BLACK
6
CONTINUOUS
10
-0.4476173622047244
20
-0.0487938582677165
11
-0.4542273228346457
21
-0.0509415748031496
0
LINE
8
BLACK
6
CONTINUOUS
10
-0.4542273228346457
20
-0.0509415748031496
11
-0.4610918897637795
21
-0.0520288188976378
0
LINE
8
BLACK
6
CONTINUOUS
10
-0.4610918897637795
20
-0.0520288188976378
11
-0.468041968503937
21
-0.0520288188976378
0
LINE
8
BLACK
6
CONTINUOUS
10
-0.468041968503937
20
-0.0520288188976378
11
-0.4749065354330709
21
-0.0509415748031496
0
LINE
8
BLACK
6
CONTINUOUS
10
-0.4749065354330709
20
-0.0509415748031496
11
-0.4815164960629921
21
-0.0487938582677165
0
LINE
8
BLACK
6
CONTINUOUS
10
-0.4815164960629921
20
-0.0487938582677165
11
-0.4877090944881889
21
-0.0456385826771654
0
LINE
8
BLACK
6
CONTINUOUS
10
-0.4877090944881889
20
-0.0456385826771654
11
-0.4933318503937008
21
-0.0415534251968504
0
LINE
8
BLACK
6
CONTINUOUS
10
-0.4933318503937008
20
-0.0415534251968504
11
-0.4982463385826771
21
-0.036638937007874
0
LINE
8
BLACK
6
CONTINUOUS
10
-0.4982463385826771
20
-0.036638937007874
11
-0.5023314960629921
21
-0.0310161811023622
0
LINE
8
BLACK
6
CONTINUOUS
10
-0.5023314960629921
20
-0.0310161811023622
11
-0.5054867716535433
21
-0.0248235826771654
0
LINE
8
BLACK
6
CONTINUOUS
10
-0.5054867716535433
20
-0.0248235826771654
11
-0.5076344881889764
21
-0.0182136220472441
0
LINE
8
BLACK
6
CONTINUOUS
10
-0.5076344881889764
20
-0.0182136220472441
11
-0.5087217322834645
21
-0.0113490551181102
0
LINE
8
BLACK
6
CONTINUOUS
10
-0.5087217322834645
20
-0.0113490551181102
11
-0.5087217322834645
21
-0.0045431496062992
0
LINE
8
BLACK
6
CONTINUOUS
10
-0.5087217322834645
20
-0.0045431496062992
11
-0.5087217322834645
21
-0.0043989763779528
0
LINE
8
BLACK
6
CONTINUOUS
10
-0.5087217322834645
20
-0.0043989763779528
11
-0.5076344881889764
21
0.0024655905511811
0
LINE
8
BLACK
6
CONTINUOUS
10
-0.5076344881889764
20
0.0024655905511811
11
-0.5054867716535433
21
0.0090755511811024
0
LINE
8
BLACK
6
CONTINUOUS
10
-0.5054867716535433
20
0.0090755511811024
11
-0.5023314960629921
21
0.0152681496062992
0
LINE
8
BLACK
6
CONTINUOUS
10
-0.5023314960629921
20
0.0152681496062992
11
-0.4982463385826771
21
0.020890905511811
0
LINE
8
BLACK
6
CONTINUOUS
10
-0.4982463385826771
20
0.020890905511811
11
-0.4933318503937008
21
0.0258053937007874
0
LINE
8
BLACK
6
CONTINUOUS
10
-0.4933318503937008
20
0.0258053937007874
11
-0.4877090944881889
21
0.0298905511811024
0
LINE
8
BLACK
6
CONTINUOUS
10
-0.4877090944881889
20
0.0298905511811024
11
-0.4815164960629921
21
0.0330458267716535
0
LINE
8
BLACK
6
CONTINUOUS
10
-0.4815164960629921
20
0.0330458267716535
11
-0.4749065354330709
21
0.0351935433070866
0
LINE
8
BLACK
6
CONTINUOUS
10
-0.4749065354330709
20
0.0351935433070866
11
-0.468041968503937
21
0.0362807874015748
0
LINE
8
BLACK
6
CONTINUOUS
10
-0.468041968503937
20
0.0362807874015748
11
-0.4610918897637795
21
0.0362807874015748
0
LINE
8
BLACK
6
CONTINUOUS
10
-0.4610918897637795
20
0.0362807874015748
11
-0.4542273228346457
21
0.0351935433070866
0
LINE
8
BLACK
6
CONTINUOUS
10
-0.5068897637795275
20
-0.0112048818897638
11
-0.5058476377952755
21
-0.0177846456692913
0
LINE
8
BLACK
6
CONTINUOUS
10
-0.5058476377952755
20
-0.0177846456692913
11
-0.5037890157480315
21
-0.0241203543307087
0
LINE
8
BLACK
6
CONTINUOUS
10
-0.5037890157480315
20
-0.0241203543307087
11
-0.5007646456692914
21
-0.0300560236220472
0
LINE
8
BLACK
6
CONTINUOUS
10
-0.5007646456692914
20
-0.0300560236220472
11
-0.4968489763779527
21
-0.0354454724409449
0
LINE
8
BLACK
6
CONTINUOUS
10
-0.4968489763779527
20
-0.0354454724409449
11
-0.4921383858267717
21
-0.040156062992126
0
LINE
8
BLACK
6
CONTINUOUS
10
-0.4921383858267717
20
-0.040156062992126
11
-0.486748937007874
21
-0.0440717322834646
0
LINE
8
BLACK
6
CONTINUOUS
10
-0.486748937007874
20
-0.0440717322834646
11
-0.4808132677165354
21
-0.0470961023622047
0
LINE
8
BLACK
6
CONTINUOUS
10
-0.4808132677165354
20
-0.0470961023622047
11
-0.4744775590551181
21
-0.0491547244094488
0
LINE
8
BLACK
6
CONTINUOUS
10
-0.4744775590551181
20
-0.0491547244094488
11
-0.4678977952755906
21
-0.0501968503937008
0
LINE
8
BLACK
6
CONTINUOUS
10
-0.4678977952755906
20
-0.0501968503937008
11
-0.461236062992126
21
-0.0501968503937008
0
LINE
8
BLACK
6
CONTINUOUS
10
-0.461236062992126
20
-0.0501968503937008
11
-0.4546562992125984
21
-0.0491547244094488
0
LINE
8
BLACK
6
CONTINUOUS
10
-0.4546562992125984
20
-0.0491547244094488
11
-0.4483205905511811
21
-0.0470961023622047
0
LINE
8
BLACK
6
CONTINUOUS
10
-0.4483205905511811
20
-0.0470961023622047
11
-0.4423849212598425
21
-0.0440717322834646
0
LINE
8
BLACK
6
CONTINUOUS
10
-0.4423849212598425
20
-0.0440717322834646
11
-0.4369954724409449
21
-0.040156062992126
0
LINE
8
BLACK
6
CONTINUOUS
10
-0.4369954724409449
20
-0.040156062992126
11
-0.4322848818897638
21
-0.0354454724409449
0
LINE
8
BLACK
6
CONTINUOUS
10
-0.4322848818897638
20
-0.0354454724409449
11
-0.4283692125984252
21
-0.0300560236220472
0
LINE
8
BLACK
6
CONTINUOUS
10
-0.4283692125984252
20
-0.0300560236220472
11
-0.425344842519685
21
-0.0241203543307087
0
LINE
8
BLACK
6
CONTINUOUS
10
-0.425344842519685
20
-0.0241203543307087
11
-0.4232862204724409
21
-0.0177846456692913
0
LINE
8
BLACK
6
CONTINUOUS
10
-0.4232862204724409
20
-0.0177846456692913
11
-0.4222440944881889
21
-0.0112048818897638
0
LINE
8
BLACK
6
CONTINUOUS
10
-0.4222440944881889
20
-0.0112048818897638
11
-0.4222440944881889
21
-0.0045431496062992
0
LINE
8
BLACK
6
CONTINUOUS
10
-0.4222440944881889
20
-0.0045431496062992
11
-0.4232862204724409
21
0.0020366141732283
0
LINE
8
BLACK
6
CONTINUOUS
10
-0.4232862204724409
20
0.0020366141732283
11
-0.425344842519685
21
0.0083723228346457
0
LINE
8
BLACK
6
CONTINUOUS
10
-0.425344842519685
20
0.0083723228346457
11
-0.4283692125984252
21
0.0143079921259843
0
LINE
8
BLACK
6
CONTINUOUS
10
-0.4283692125984252
20
0.0143079921259843
11
-0.4322848818897638
21
0.0196974409448819
0
LINE
8
BLACK
6
CONTINUOUS
10
-0.4322848818897638
20
0.0196974409448819
11
-0.4369954724409449
21
0.024408031496063
0
LINE
8
BLACK
6
CONTINUOUS
10
-0.4369954724409449
20
0.024408031496063
11
-0.4423849212598425
21
0.0283237007874016
0
LINE
8
BLACK
6
CONTINUOUS
10
-0.4423849212598425
20
0.0283237007874016
11
-0.4483205905511811
21
0.0313480708661417
0
LINE
8
BLACK
6
CONTINUOUS
10
-0.4483205905511811
20
0.0313480708661417
11
-0.4546562992125984
21
0.0334066929133858
0
LINE
8
BLACK
6
CONTINUOUS
10
-0.4546562992125984
20
0.0334066929133858
11
-0.461236062992126
21
0.0344488188976378
0
LINE
8
BLACK
6
CONTINUOUS
10
-0.461236062992126
20
0.0344488188976378
11
-0.4678977952755906
21
0.0344488188976378
0
LINE
8
BLACK
6
CONTINUOUS
10
-0.4678977952755906
20
0.0344488188976378
11
-0.4744775590551181
21
0.0334066929133858
0
LINE
8
BLACK
6
CONTINUOUS
10
-0.4744775590551181
20
0.0334066929133858
11
-0.4808132677165354
21
0.0313480708661417
0
LINE
8
BLACK
6
CONTINUOUS
10
-0.4808132677165354
20
0.0313480708661417
11
-0.486748937007874
21
0.0283237007874016
0
LINE
8
BLACK
6
CONTINUOUS
10
-0.486748937007874
20
0.0283237007874016
11
-0.4921383858267717
21
0.024408031496063
0
LINE
8
BLACK
6
CONTINUOUS
10
-0.4921383858267717
20
0.024408031496063
11
-0.4968489763779527
21
0.0196974409448819
0
LINE
8
BLACK
6
CONTINUOUS
10
-0.4968489763779527
20
0.0196974409448819
11
-0.5007646456692914
21
0.0143079921259843
0
LINE
8
BLACK
6
CONTINUOUS
10
-0.5007646456692914
20
0.0143079921259843
11
-0.5037890157480315
21
0.0083723228346457
0
LINE
8
BLACK
6
CONTINUOUS
10
-0.5037890157480315
20
0.0083723228346457
11
-0.5058476377952755
21
0.0020366141732283
0
LINE
8
BLACK
6
CONTINUOUS
10
-0.5058476377952755
20
0.0020366141732283
11
-0.5068897637795275
21
-0.0045431496062992
0
LINE
8
BLACK
6
CONTINUOUS
10
-0.5068897637795275
20
-0.0045431496062992
11
-0.5068897637795275
21
-0.0112048818897638
0
LINE
8
BLACK
6
CONTINUOUS
10
2.4964396456692914
20
0.7961849212598425
11
2.4967589763779525
21
0.7959715748031496
0
LINE
8
BLACK
6
CONTINUOUS
10
2.4967589763779525
20
0.7959715748031496
11
2.5282550393700789
21
0.7644755118110236
0
LINE
8
BLACK
6
CONTINUOUS
10
2.5282550393700789
20
0.7644755118110236
11
2.5284683858267716
21
0.7641561811023622
0
LINE
8
BLACK
6
CONTINUOUS
10
2.5284683858267716
20
0.7641561811023622
11
2.5285433070866139
21
0.7637795275590551
0
LINE
8
BLACK
6
CONTINUOUS
10
2.5285433070866139
20
0.7637795275590551
11
2.5285433070866139
21
0.6303289763779527
0
LINE
8
BLACK
6
CONTINUOUS
10
2.5285433070866139
20
0.6303289763779527
11
2.5594628346456694
21
0.5994094488188976
0
LINE
8
BLACK
6
CONTINUOUS
10
2.5594628346456694
20
0.5994094488188976
11
3.204724409448819
21
0.5994094488188976
0
LINE
8
BLACK
6
CONTINUOUS
10
3.204724409448819
20
0.5994094488188976
11
3.2051010629921257
21
0.5993345275590551
0
LINE
8
BLACK
6
CONTINUOUS
10
3.2051010629921257
20
0.5993345275590551
11
3.2054203937007872
21
0.5991211811023622
0
LINE
8
BLACK
6
CONTINUOUS
10
3.2054203937007872
20
0.5991211811023622
11
3.2369164566929132
21
0.5676251181102362
0
LINE
8
BLACK
6
CONTINUOUS
10
3.2369164566929132
20
0.5676251181102362
11
3.2371298031496063
21
0.5673057874015748
0
LINE
8
BLACK
6
CONTINUOUS
10
3.2371298031496063
20
0.5673057874015748
11
3.2372047244094486
21
0.5669291338582677
0
LINE
8
BLACK
6
CONTINUOUS
10
3.2372047244094486
20
0.5669291338582677
11
3.2372047244094486
21
0.4334785826771653
0
LINE
8
BLACK
6
CONTINUOUS
10
3.2372047244094486
20
0.4334785826771653
11
3.2681242519685036
21
0.4025590551181102
0
LINE
8
BLACK
6
CONTINUOUS
10
3.2681242519685036
20
0.4025590551181102
11
3.9133858267716533
21
0.4025590551181102
0
LINE
8
BLACK
6
CONTINUOUS
10
3.9133858267716533
20
0.4025590551181102
11
3.9137624803149604
21
0.4024841338582677
0
LINE
8
BLACK
6
CONTINUOUS
10
3.9137624803149604
20
0.4024841338582677
11
3.914081811023622
21
0.4022707874015748
0
LINE
8
BLACK
6
CONTINUOUS
10
3.914081811023622
20
0.4022707874015748
11
3.9455778740157479
21
0.3707747244094488
0
LINE
8
BLACK
6
CONTINUOUS
10
3.9455778740157479
20
0.3707747244094488
11
3.945791220472441
21
0.3704553937007874
0
LINE
8
BLACK
6
CONTINUOUS
10
3.945791220472441
20
0.3704553937007874
11
3.9458661417322833
21
0.3700787401574803
0
LINE
8
BLACK
6
CONTINUOUS
10
3.9458661417322833
20
0.3700787401574803
11
3.9458661417322833
21
0.094895905511811
0
LINE
8
BLACK
6
CONTINUOUS
10
3.9458661417322833
20
0.094895905511811
11
3.9767856692913384
21
0.0639763779527559
0
LINE
8
BLACK
6
CONTINUOUS
10
3.9767856692913384
20
0.0639763779527559
11
4.872047244094488
21
0.0639763779527559
0
LINE
8
BLACK
6
CONTINUOUS
10
4.872047244094488
20
0.0639763779527559
11
4.8724238976377956
21
0.0639014566929134
0
LINE
8
BLACK
6
CONTINUOUS
10
4.8724238976377956
20
0.0639014566929134
11
4.8729565748031494
21
0.0633687795275591
0
LINE
8
BLACK
6
CONTINUOUS
10
4.8729565748031494
20
0.0633687795275591
11
4.8730314960629917
21
0.062992125984252
0
LINE
8
BLACK
6
CONTINUOUS
10
4.8730314960629917
20
0.062992125984252
11
4.8730314960629917
21
0.0606299212598425
0
LINE
8
BLACK
6
CONTINUOUS
10
4.8730314960629917
20
0.0606299212598425
11
4.8730314960629917
21
-0.7848425196850394
0
LINE
8
BLACK
6
CONTINUOUS
10
4.8730314960629917
20
-0.7848425196850394
11
5.4222440944881889
21
-0.7848425196850394
0
LINE
8
BLACK
6
CONTINUOUS
10
5.4222440944881889
20
-0.7848425196850394
11
5.4222440944881889
21
0.0606299212598425
0
LINE
8
BLACK
6
CONTINUOUS
10
5.4222440944881889
20
0.0606299212598425
11
5.4222440944881889
21
0.062992125984252
0
LINE
8
BLACK
6
CONTINUOUS
10
5.4222440944881889
20
0.062992125984252
11
5.4223190157480312
21
0.0633687795275591
0
LINE
8
BLACK
6
CONTINUOUS
10
5.4223190157480312
20
0.0633687795275591
11
5.4228516929133859
21
0.0639014566929134
0
LINE
8
BLACK
6
CONTINUOUS
10
5.4228516929133859
20
0.0639014566929134
11
5.4232283464566926
21
0.0639763779527559
0
LINE
8
BLACK
6
CONTINUOUS
10
5.4232283464566926
20
0.0639763779527559
11
5.5659448818897639
21
0.0639763779527559
0
LINE
8
BLACK
6
CONTINUOUS
10
5.5659448818897639
20
0.0639763779527559
11
5.5663150393700782
21
0.0639027165354331
0
LINE
8
BLACK
6
CONTINUOUS
10
5.5663150393700782
20
0.0639027165354331
11
5.5663183858267713
21
0.0639027559055118
0
LINE
8
BLACK
6
CONTINUOUS
10
5.5663183858267713
20
0.0639027559055118
11
5.5663198031496064
21
0.0639017716535433
0
LINE
8
BLACK
6
CONTINUOUS
10
5.5663198031496064
20
0.0639017716535433
11
5.5663215354330706
21
0.0639014566929134
0
LINE
8
BLACK
6
CONTINUOUS
10
5.5663215354330706
20
0.0639014566929134
11
5.5663238582677161
21
0.063899094488189
0
LINE
8
BLACK
6
CONTINUOUS
10
5.5663238582677161
20
0.063899094488189
11
5.5666384251968504
21
0.0636905118110236
0
LINE
8
BLACK
6
CONTINUOUS
10
5.5666384251968504
20
0.0636905118110236
11
5.7093549606299208
21
-0.0780417716535433
0
LINE
8
BLACK
6
CONTINUOUS
10
5.7093549606299208
20
-0.0780417716535433
11
5.7095694488188977
21
-0.0783603543307087
0
LINE
8
BLACK
6
CONTINUOUS
10
5.7095694488188977
20
-0.0783603543307087
11
5.7095694488188977
21
-0.0783622047244095
0
LINE
8
BLACK
6
CONTINUOUS
10
5.7095694488188977
20
-0.0783622047244095
11
5.7095707480314957
21
-0.0783635039370079
0
LINE
8
BLACK
6
CONTINUOUS
10
5.7095707480314957
20
-0.0783635039370079
11
5.7096456692913389
21
-0.078740157480315
0
LINE
8
BLACK
6
CONTINUOUS
10
5.7096456692913389
20
-0.078740157480315
11
5.7096456692913389
21
-1.7165354330708662
0
LINE
8
BLACK
6
CONTINUOUS
10
5.7096456692913389
20
-1.7165354330708662
11
5.7096456692913389
21
-2.4724409448818898
0
LINE
8
BLACK
6
CONTINUOUS
10
5.7096456692913389
20
-2.4724409448818898
11
5.7095813385826775
21
-2.472764251968504
0
LINE
8
BLACK
6
CONTINUOUS
10
5.7095813385826775
20
-2.472764251968504
11
5.7095821259842516
21
-2.4727888582677164
0
LINE
8
BLACK
6
CONTINUOUS
10
5.7095821259842516
20
-2.4727888582677164
11
5.7095737795275587
21
-2.4728021653543308
0
LINE
8
BLACK
6
CONTINUOUS
10
5.7095737795275587
20
-2.4728021653543308
11
5.7095707480314957
21
-2.472817598425197
0
LINE
8
BLACK
6
CONTINUOUS
10
5.7095707480314957
20
-2.472817598425197
11
5.7095533464566932
21
-2.4728349606299211
0
LINE
8
BLACK
6
CONTINUOUS
10
5.7095533464566932
20
-2.4728349606299211
11
5.7093788976377953
21
-2.4731147244094487
0
LINE
8
BLACK
6
CONTINUOUS
10
5.7093788976377953
20
-2.4731147244094487
11
5.3101087401574798
21
-2.8983115354330709
0
LINE
8
BLACK
6
CONTINUOUS
10
5.3101087401574798
20
-2.8983115354330709
11
5.3097962598425195
21
-2.8985348425196849
0
LINE
8
BLACK
6
CONTINUOUS
10
5.3097962598425195
20
-2.8985348425196849
11
5.3096046850393703
21
-2.8985408267716535
0
LINE
8
BLACK
6
CONTINUOUS
10
5.3096046850393703
20
-2.8985408267716535
11
5.3094076377952755
21
-2.8985835039370076
0
LINE
8
BLACK
6
CONTINUOUS
10
5.3094076377952755
20
-2.8985835039370076
11
4.8640972047244091
21
-2.9060053543307087
0
LINE
8
BLACK
6
CONTINUOUS
10
4.8640972047244091
20
-2.9060053543307087
11
4.4339284645669288
21
-3.6697743307086612
0
LINE
8
BLACK
6
CONTINUOUS
10
4.4339284645669288
20
-3.6697743307086612
11
4.4336783464566931
21
-3.670065748031496
0
LINE
8
BLACK
6
CONTINUOUS
10
4.4336783464566931
20
-3.670065748031496
11
4.4335984251968501
21
-3.6700880708661416
0
LINE
8
BLACK
6
CONTINUOUS
10
4.4335984251968501
20
-3.6700880708661416
11
4.4335466535433072
21
-3.6701529527559056
0
LINE
8
BLACK
6
CONTINUOUS
10
4.4335466535433072
20
-3.6701529527559056
11
4.4331807086614168
21
-3.6702694488188974
0
LINE
8
BLACK
6
CONTINUOUS
10
4.4331807086614168
20
-3.6702694488188974
11
4.3465665354330705
21
-3.679996181102362
0
LINE
8
BLACK
6
CONTINUOUS
10
4.3465665354330705
20
-3.679996181102362
11
4.3463712204724407
21
-3.6799796062992125
0
LINE
8
BLACK
6
CONTINUOUS
10
4.3463712204724407
20
-3.6799796062992125
11
4.3463202755905508
21
-3.6799928346456694
0
LINE
8
BLACK
6
CONTINUOUS
10
4.3463202755905508
20
-3.6799928346456694
11
4.3462538188976376
21
-3.6799696456692912
0
LINE
8
BLACK
6
CONTINUOUS
10
4.3462538188976376
20
-3.6799696456692912
11
4.3461838582677164
21
-3.6799637401574801
0
LINE
8
BLACK
6
CONTINUOUS
10
4.3461838582677164
20
-3.6799637401574801
11
4.3461427559055119
21
-3.6799309448818898
0
LINE
8
BLACK
6
CONTINUOUS
10
4.3461427559055119
20
-3.6799309448818898
11
4.3459576377952756
21
-3.6798664173228346
0
LINE
8
BLACK
6
CONTINUOUS
10
4.3459576377952756
20
-3.6798664173228346
11
3.7004063385826771
21
-3.3001303543307086
0
LINE
8
BLACK
6
CONTINUOUS
10
3.7004063385826771
20
-3.3001303543307086
11
2.9762517322834645
21
-3.1112204724409449
0
LINE
8
BLACK
6
CONTINUOUS
10
2.9762517322834645
20
-3.1112204724409449
11
2.204724409448819
21
-3.1112204724409449
0
LINE
8
BLACK
6
CONTINUOUS
10
2.204724409448819
20
-3.1112204724409449
11
2.2043477559055118
21
-3.1111455511811021
0
LINE
8
BLACK
6
CONTINUOUS
10
2.2043477559055118
20
-3.1111455511811021
11
2.2040284251968503
21
-3.1109322047244095
0
LINE
8
BLACK
6
CONTINUOUS
10
2.2040284251968503
20
-3.1109322047244095
11
2.1252882677165355
21
-3.0321920472440946
0
LINE
8
BLACK
6
CONTINUOUS
10
2.1252882677165355
20
-3.0321920472440946
11
2.1250749212598423
21
-3.0318727165354331
0
LINE
8
BLACK
6
CONTINUOUS
10
2.1250749212598423
20
-3.0318727165354331
11
2.125
21
-3.0314960629921259
0
LINE
8
BLACK
6
CONTINUOUS
10
2.125
20
-3.0314960629921259
11
2.125
21
-2.3389903543307087
0
LINE
8
BLACK
6
CONTINUOUS
10
2.125
20
-2.3389903543307087
11
2.062584409448819
21
-2.276574803149606
0
LINE
8
BLACK
6
CONTINUOUS
10
2.062584409448819
20
-2.276574803149606
11
1.1657620472440944
21
-2.276574803149606
0
LINE
8
BLACK
6
CONTINUOUS
10
1.1657620472440944
20
-2.276574803149606
11
1.1348425196850394
21
-2.3074943307086615
0
LINE
8
BLACK
6
CONTINUOUS
10
1.1348425196850394
20
-2.3074943307086615
11
1.1348425196850394
21
-2.3779527559055116
0
LINE
8
BLACK
6
CONTINUOUS
10
1.1348425196850394
20
-2.3779527559055116
11
1.1347675984251968
21
-2.3783294094488188
0
LINE
8
BLACK
6
CONTINUOUS
10
1.1347675984251968
20
-2.3783294094488188
11
1.1345542519685039
21
-2.3786487401574803
0
LINE
8
BLACK
6
CONTINUOUS
10
1.1345542519685039
20
-2.3786487401574803
11
1.103058188976378
21
-2.4101448031496062
0
LINE
8
BLACK
6
CONTINUOUS
10
1.103058188976378
20
-2.4101448031496062
11
1.1027388582677164
21
-2.4103581496062993
0
LINE
8
BLACK
6
CONTINUOUS
10
1.1027388582677164
20
-2.4103581496062993
11
1.1023622047244095
21
-2.4104330708661417
0
LINE
8
BLACK
6
CONTINUOUS
10
1.1023622047244095
20
-2.4104330708661417
11
-0.3543307086614173
21
-2.4104330708661417
0
LINE
8
BLACK
6
CONTINUOUS
10
-0.3543307086614173
20
-2.4104330708661417
11
-0.3547073622047244
21
-2.4103581496062993
0
LINE
8
BLACK
6
CONTINUOUS
10
-0.3547073622047244
20
-2.4103581496062993
11
-0.3550266535433071
21
-2.4101448031496062
0
LINE
8
BLACK
6
CONTINUOUS
10
-0.3550266535433071
20
-2.4101448031496062
11
-0.5282550393700788
21
-2.2369164566929132
0
LINE
8
BLACK
6
CONTINUOUS
10
-0.5282550393700788
20
-2.2369164566929132
11
-0.5284683858267717
21
-2.2365971259842521
0
LINE
8
BLACK
6
CONTINUOUS
10
-0.5284683858267717
20
-2.2365971259842521
11
-0.5285433070866141
21
-2.2362204724409449
0
LINE
8
BLACK
6
CONTINUOUS
10
-0.5285433070866141
20
-2.2362204724409449
11
-0.5285433070866141
21
-1.7559055118110236
0
LINE
8
BLACK
6
CONTINUOUS
10
-0.5285433070866141
20
-1.7559055118110236
11
-0.5284683858267717
21
-1.7555288582677164
0
LINE
8
BLACK
6
CONTINUOUS
10
-0.5284683858267717
20
-1.7555288582677164
11
-0.5282550393700788
21
-1.7552095275590551
0
LINE
8
BLACK
6
CONTINUOUS
10
-0.5282550393700788
20
-1.7552095275590551
11
-0.4655511811023622
21
-1.6925056692913385
0
LINE
8
BLACK
6
CONTINUOUS
10
-0.4655511811023622
20
-1.6925056692913385
11
-0.4655511811023622
21
-0.3232423228346457
0
LINE
8
BLACK
6
CONTINUOUS
10
-0.4655511811023622
20
-0.3232423228346457
11
-0.5282550393700788
21
-0.2605385039370079
0
LINE
8
BLACK
6
CONTINUOUS
10
-0.5282550393700788
20
-0.2605385039370079
11
-0.5284683858267717
21
-0.2602191732283464
0
LINE
8
BLACK
6
CONTINUOUS
10
-0.5284683858267717
20
-0.2602191732283464
11
-0.5285433070866141
21
-0.2598425196850394
0
LINE
8
BLACK
6
CONTINUOUS
10
-0.5285433070866141
20
-0.2598425196850394
11
-0.5285433070866141
21
0.2283464566929134
0
LINE
8
BLACK
6
CONTINUOUS
10
-0.5285433070866141
20
0.2283464566929134
11
-0.5284683858267717
21
0.2287231102362205
0
LINE
8
BLACK
6
CONTINUOUS
10
-0.5284683858267717
20
0.2287231102362205
11
-0.5282550393700788
21
0.2290424409448819
0
LINE
8
BLACK
6
CONTINUOUS
10
-0.5282550393700788
20
0.2290424409448819
11
-0.3550266535433071
21
0.4022707874015748
0
LINE
8
BLACK
6
CONTINUOUS
10
-0.3550266535433071
20
0.4022707874015748
11
-0.3547073622047244
21
0.4024841338582677
0
LINE
8
BLACK
6
CONTINUOUS
10
-0.3547073622047244
20
0.4024841338582677
11
-0.3543307086614173
21
0.4025590551181102
0
LINE
8
BLACK
6
CONTINUOUS
10
-0.3543307086614173
20
0.4025590551181102
11
0.9838442519685039
21
0.4025590551181102
0
LINE
8
BLACK
6
CONTINUOUS
10
0.9838442519685039
20
0.4025590551181102
11
1.014763779527559
21
0.4334785826771653
0
LINE
8
BLACK
6
CONTINUOUS
10
1.014763779527559
20
0.4334785826771653
11
1.014763779527559
21
0.5669291338582677
0
LINE
8
BLACK
6
CONTINUOUS
10
1.014763779527559
20
0.5669291338582677
11
1.0148387007874016
21
0.5673057874015748
0
LINE
8
BLACK
6
CONTINUOUS
10
1.0148387007874016
20
0.5673057874015748
11
1.0150520472440945
21
0.5676251181102362
0
LINE
8
BLACK
6
CONTINUOUS
10
1.0150520472440945
20
0.5676251181102362
11
1.0465481102362204
21
0.5991211811023622
0
LINE
8
BLACK
6
CONTINUOUS
10
1.0465481102362204
20
0.5991211811023622
11
1.0468674409448819
21
0.5993345275590551
0
LINE
8
BLACK
6
CONTINUOUS
10
1.0468674409448819
20
0.5993345275590551
11
1.0472440944881889
21
0.5994094488188976
0
LINE
8
BLACK
6
CONTINUOUS
10
1.0472440944881889
20
0.5994094488188976
11
1.6925056692913385
21
0.5994094488188976
0
LINE
8
BLACK
6
CONTINUOUS
10
1.6925056692913385
20
0.5994094488188976
11
1.7234251968503937
21
0.6303289763779527
0
LINE
8
BLACK
6
CONTINUOUS
10
1.7234251968503937
20
0.6303289763779527
11
1.7234251968503937
21
0.7637795275590551
0
LINE
8
BLACK
6
CONTINUOUS
10
1.7234251968503937
20
0.7637795275590551
11
1.7235001181102363
21
0.7641561811023622
0
LINE
8
BLACK
6
CONTINUOUS
10
1.7235001181102363
20
0.7641561811023622
11
1.7237134645669292
21
0.7644755118110236
0
LINE
8
BLACK
6
CONTINUOUS
10
1.7237134645669292
20
0.7644755118110236
11
1.7552095275590551
21
0.7959715748031496
0
LINE
8
BLACK
6
CONTINUOUS
10
1.7552095275590551
20
0.7959715748031496
11
1.7555288582677164
21
0.7961849212598425
0
LINE
8
BLACK
6
CONTINUOUS
10
1.7555288582677164
20
0.7961849212598425
11
1.7559055118110236
21
0.7962598425196851
0
LINE
8
BLACK
6
CONTINUOUS
10
1.7559055118110236
20
0.7962598425196851
11
2.4960629921259843
21
0.7962598425196851
0
LINE
8
BLACK
6
CONTINUOUS
10
2.4960629921259843
20
0.7962598425196851
11
2.4964396456692914
21
0.7961849212598425
0
LINE
8
BLACK
6
CONTINUOUS
10
1.7563132283464566
20
0.7942913385826772
11
1.7253937007874016
21
0.7633718110236221
0
LINE
8
BLACK
6
CONTINUOUS
10
1.7253937007874016
20
0.7633718110236221
11
1.7253937007874016
21
0.6299212598425197
0
LINE
8
BLACK
6
CONTINUOUS
10
1.7253937007874016
20
0.6299212598425197
11
1.7253187795275591
21
0.6295446062992126
0
LINE
8
BLACK
6
CONTINUOUS
10
1.7253187795275591
20
0.6295446062992126
11
1.7251054330708662
21
0.6292252755905512
0
LINE
8
BLACK
6
CONTINUOUS
10
1.7251054330708662
20
0.6292252755905512
11
1.69360937007874
21
0.5977292125984252
0
LINE
8
BLACK
6
CONTINUOUS
10
1.69360937007874
20
0.5977292125984252
11
1.6932900393700787
21
0.5975158661417322
0
LINE
8
BLACK
6
CONTINUOUS
10
1.6932900393700787
20
0.5975158661417322
11
1.6929133858267715
21
0.5974409448818897
0
LINE
8
BLACK
6
CONTINUOUS
10
1.6929133858267715
20
0.5974409448818897
11
1.0476518110236219
21
0.5974409448818897
0
LINE
8
BLACK
6
CONTINUOUS
10
1.0476518110236219
20
0.5974409448818897
11
1.0167322834645669
21
0.5665214173228347
0
LINE
8
BLACK
6
CONTINUOUS
10
1.0167322834645669
20
0.5665214173228347
11
1.0167322834645669
21
0.4330708661417323
0
LINE
8
BLACK
6
CONTINUOUS
10
1.0167322834645669
20
0.4330708661417323
11
1.0166573622047244
21
0.4326942125984252
0
LINE
8
BLACK
6
CONTINUOUS
10
1.0166573622047244
20
0.4326942125984252
11
1.0164440157480314
21
0.4323748818897638
0
LINE
8
BLACK
6
CONTINUOUS
10
1.0164440157480314
20
0.4323748818897638
11
0.9849479527559055
21
0.4008788188976378
0
LINE
8
BLACK
6
CONTINUOUS
10
0.9849479527559055
20
0.4008788188976378
11
0.9846286220472441
21
0.4006654724409449
0
LINE
8
BLACK
6
CONTINUOUS
10
0.9846286220472441
20
0.4006654724409449
11
0.984251968503937
21
0.4005905511811024
0
LINE
8
BLACK
6
CONTINUOUS
10
0.984251968503937
20
0.4005905511811024
11
-0.353923031496063
21
0.4005905511811024
0
LINE
8
BLACK
6
CONTINUOUS
10
-0.353923031496063
20
0.4005905511811024
11
-0.5265748031496063
21
0.2279387401574803
0
LINE
8
BLACK
6
CONTINUOUS
10
-0.5265748031496063
20
0.2279387401574803
11
-0.5265748031496063
21
-0.2594348031496063
0
LINE
8
BLACK
6
CONTINUOUS
10
-0.5265748031496063
20
-0.2594348031496063
11
-0.4638709448818897
21
-0.3221387007874016
0
LINE
8
BLACK
6
CONTINUOUS
10
-0.4638709448818897
20
-0.3221387007874016
11
-0.4636575984251968
21
-0.3224579921259842
0
LINE
8
BLACK
6
CONTINUOUS
10
-0.4636575984251968
20
-0.3224579921259842
11
-0.4635826771653543
21
-0.3228346456692913
0
LINE
8
BLACK
6
CONTINUOUS
10
-0.4635826771653543
20
-0.3228346456692913
11
-0.4635826771653543
21
-1.6929133858267715
0
LINE
8
BLACK
6
CONTINUOUS
10
-0.4635826771653543
20
-1.6929133858267715
11
-0.4636575984251968
21
-1.6932900393700787
0
LINE
8
BLACK
6
CONTINUOUS
10
-0.4636575984251968
20
-1.6932900393700787
11
-0.4638709448818897
21
-1.6936093307086615
0
LINE
8
BLACK
6
CONTINUOUS
10
-0.4638709448818897
20
-1.6936093307086615
11
-0.5265748031496063
21
-1.7563131889763779
0
LINE
8
BLACK
6
CONTINUOUS
10
-0.5265748031496063
20
-1.7563131889763779
11
-0.5265748031496063
21
-2.2358127559055117
0
LINE
8
BLACK
6
CONTINUOUS
10
-0.5265748031496063
20
-2.2358127559055117
11
-0.353923031496063
21
-2.4084645669291338
0
LINE
8
BLACK
6
CONTINUOUS
10
-0.353923031496063
20
-2.4084645669291338
11
1.1019544881889765
21
-2.4084645669291338
0
LINE
8
BLACK
6
CONTINUOUS
10
1.1019544881889765
20
-2.4084645669291338
11
1.1328740157480315
21
-2.3775450393700788
0
LINE
8
BLACK
6
CONTINUOUS
10
1.1328740157480315
20
-2.3775450393700788
11
1.1328740157480315
21
-2.3070866141732282
0
LINE
8
BLACK
6
CONTINUOUS
10
1.1328740157480315
20
-2.3070866141732282
11
1.132948937007874
21
-2.3067099606299211
0
LINE
8
BLACK
6
CONTINUOUS
10
1.132948937007874
20
-2.3067099606299211
11
1.1331622834645669
21
-2.30639062992126
0
LINE
8
BLACK
6
CONTINUOUS
10
1.1331622834645669
20
-2.30639062992126
11
1.1646583464566929
21
-2.2748945669291336
0
LINE
8
BLACK
6
CONTINUOUS
10
1.1646583464566929
20
-2.2748945669291336
11
1.1649776771653544
21
-2.2746812204724409
0
LINE
8
BLACK
6
CONTINUOUS
10
1.1649776771653544
20
-2.2746812204724409
11
1.1653543307086613
21
-2.2746062992125982
0
LINE
8
BLACK
6
CONTINUOUS
10
1.1653543307086613
20
-2.2746062992125982
11
2.0629921259842519
21
-2.2746062992125982
0
LINE
8
BLACK
6
CONTINUOUS
10
2.0629921259842519
20
-2.2746062992125982
11
2.063368779527559
21
-2.2746812204724409
0
LINE
8
BLACK
6
CONTINUOUS
10
2.063368779527559
20
-2.2746812204724409
11
2.0636881102362206
21
-2.2748945669291336
0
LINE
8
BLACK
6
CONTINUOUS
10
2.0636881102362206
20
-2.2748945669291336
11
2.1266802362204724
21
-2.3378867322834647
0
LINE
8
BLACK
6
CONTINUOUS
10
2.1266802362204724
20
-2.3378867322834647
11
2.1268935826771651
21
-2.338206023622047
0
LINE
8
BLACK
6
CONTINUOUS
10
2.1268935826771651
20
-2.338206023622047
11
2.1269685039370079
21
-2.3385826771653542
0
LINE
8
BLACK
6
CONTINUOUS
10
2.1269685039370079
20
-2.3385826771653542
11
2.1269685039370079
21
-3.0310883464566927
0
LINE
8
BLACK
6
CONTINUOUS
10
2.1269685039370079
20
-3.0310883464566927
11
2.2051321259842518
21
-3.109251968503937
0
LINE
8
BLACK
6
CONTINUOUS
10
2.2051321259842518
20
-3.109251968503937
11
2.9763779527559056
21
-3.109251968503937
0
LINE
8
BLACK
6
CONTINUOUS
10
2.9763779527559056
20
-3.109251968503937
11
2.9765011417322835
21
-3.1092764566929132
0
LINE
8
BLACK
6
CONTINUOUS
10
2.9765011417322835
20
-3.1092764566929132
11
2.9766264173228345
21
-3.1092838582677165
0
LINE
8
BLACK
6
CONTINUOUS
10
2.9766264173228345
20
-3.1092838582677165
11
3.7010358661417322
21
-3.2982602362204725
0
LINE
8
BLACK
6
CONTINUOUS
10
3.7010358661417322
20
-3.2982602362204725
11
3.701158031496063
21
-3.2983194488188974
0
LINE
8
BLACK
6
CONTINUOUS
10
3.701158031496063
20
-3.2983194488188974
11
3.7012864566929133
21
-3.2983642519685037
0
LINE
8
BLACK
6
CONTINUOUS
10
3.7012864566929133
20
-3.2983642519685037
11
4.3466728346456689
21
-3.678003346456693
0
LINE
8
BLACK
6
CONTINUOUS
10
4.3466728346456689
20
-3.678003346456693
11
4.4324604330708661
21
-3.6683694094488186
0
LINE
8
BLACK
6
CONTINUOUS
10
4.4324604330708661
20
-3.6683694094488186
11
4.8626589370078737
21
-2.9045476771653544
0
LINE
8
BLACK
6
CONTINUOUS
10
4.8626589370078737
20
-2.9045476771653544
11
4.8629090551181102
21
-2.9042562598425197
0
LINE
8
BLACK
6
CONTINUOUS
10
4.8629090551181102
20
-2.9042562598425197
11
4.8630342913385824
21
-2.9042212204724409
0
LINE
8
BLACK
6
CONTINUOUS
10
4.8630342913385824
20
-2.9042212204724409
11
4.8631248031496064
21
-2.9041277165354331
0
LINE
8
BLACK
6
CONTINUOUS
10
4.8631248031496064
20
-2.9041277165354331
11
4.8635001574803152
21
-2.9040464960629921
0
LINE
8
BLACK
6
CONTINUOUS
10
4.8635001574803152
20
-2.9040464960629921
11
5.3089952755905507
21
-2.8966215354330709
0
LINE
8
BLACK
6
CONTINUOUS
10
5.3089952755905507
20
-2.8966215354330709
11
5.7076771653543306
21
-2.4720512204724407
0
LINE
8
BLACK
6
CONTINUOUS
10
5.7076771653543306
20
-2.4720512204724407
11
5.7076771653543306
21
-1.7165354330708662
0
LINE
8
BLACK
6
CONTINUOUS
10
5.7076771653543306
20
-1.7165354330708662
11
5.7076771653543306
21
-0.0791498031496063
0
LINE
8
BLACK
6
CONTINUOUS
10
5.7076771653543306
20
-0.0791498031496063
11
5.5655391732283466
21
0.062007874015748
0
LINE
8
BLACK
6
CONTINUOUS
10
5.5655391732283466
20
0.062007874015748
11
5.4242125984251963
21
0.062007874015748
0
LINE
8
BLACK
6
CONTINUOUS
10
5.4242125984251963
20
0.062007874015748
11
5.4242125984251963
21
0.0606299212598425
0
LINE
8
BLACK
6
CONTINUOUS
10
5.4242125984251963
20
0.0606299212598425
11
5.4242125984251963
21
-0.7858267716535433
0
LINE
8
BLACK
6
CONTINUOUS
10
5.4242125984251963
20
-0.7858267716535433
11
5.424137677165354
21
-0.7862034251968504
0
LINE
8
BLACK
6
CONTINUOUS
10
5.424137677165354
20
-0.7862034251968504
11
5.4236050000000002
21
-0.7867361023622047
0
LINE
8
BLACK
6
CONTINUOUS
10
5.4236050000000002
20
-0.7867361023622047
11
5.4232283464566926
21
-0.7868110236220472
0
LINE
8
BLACK
6
CONTINUOUS
10
5.4232283464566926
20
-0.7868110236220472
11
4.872047244094488
21
-0.7868110236220472
0
LINE
8
BLACK
6
CONTINUOUS
10
4.872047244094488
20
-0.7868110236220472
11
4.8716705905511812
21
-0.7867361023622047
0
LINE
8
BLACK
6
CONTINUOUS
10
4.8716705905511812
20
-0.7867361023622047
11
4.8711379133858266
21
-0.7862034251968504
0
LINE
8
BLACK
6
CONTINUOUS
10
4.8711379133858266
20
-0.7862034251968504
11
4.8710629921259843
21
-0.7858267716535433
0
LINE
8
BLACK
6
CONTINUOUS
10
4.8710629921259843
20
-0.7858267716535433
11
4.8710629921259843
21
0.0606299212598425
0
LINE
8
BLACK
6
CONTINUOUS
10
4.8710629921259843
20
0.0606299212598425
11
4.8710629921259843
21
0.062007874015748
0
LINE
8
BLACK
6
CONTINUOUS
10
4.8710629921259843
20
0.062007874015748
11
3.9763779527559056
21
0.062007874015748
0
LINE
8
BLACK
6
CONTINUOUS
10
3.9763779527559056
20
0.062007874015748
11
3.9760012992125984
21
0.0620827952755905
0
LINE
8
BLACK
6
CONTINUOUS
10
3.9760012992125984
20
0.0620827952755905
11
3.9756819685039368
21
0.0622961417322835
0
LINE
8
BLACK
6
CONTINUOUS
10
3.9756819685039368
20
0.0622961417322835
11
3.9441859055118109
21
0.0937922047244095
0
LINE
8
BLACK
6
CONTINUOUS
10
3.9441859055118109
20
0.0937922047244095
11
3.9439725590551182
21
0.0941115354330709
0
LINE
8
BLACK
6
CONTINUOUS
10
3.9439725590551182
20
0.0941115354330709
11
3.9438976377952755
21
0.094488188976378
0
LINE
8
BLACK
6
CONTINUOUS
10
3.9438976377952755
20
0.094488188976378
11
3.9438976377952755
21
0.3696710236220472
0
LINE
8
BLACK
6
CONTINUOUS
10
3.9438976377952755
20
0.3696710236220472
11
3.9129781102362204
21
0.4005905511811024
0
LINE
8
BLACK
6
CONTINUOUS
10
3.9129781102362204
20
0.4005905511811024
11
3.2677165354330708
21
0.4005905511811024
0
LINE
8
BLACK
6
CONTINUOUS
10
3.2677165354330708
20
0.4005905511811024
11
3.2673398818897637
21
0.4006654724409449
0
LINE
8
BLACK
6
CONTINUOUS
10
3.2673398818897637
20
0.4006654724409449
11
3.2670205511811021
21
0.4008788188976378
0
LINE
8
BLACK
6
CONTINUOUS
10
3.2670205511811021
20
0.4008788188976378
11
3.2355244881889762
21
0.4323748818897638
0
LINE
8
BLACK
6
CONTINUOUS
10
3.2355244881889762
20
0.4323748818897638
11
3.2353111417322835
21
0.4326942125984252
0
LINE
8
BLACK
6
CONTINUOUS
10
3.2353111417322835
20
0.4326942125984252
11
3.2352362204724407
21
0.4330708661417323
0
LINE
8
BLACK
6
CONTINUOUS
10
3.2352362204724407
20
0.4330708661417323
11
3.2352362204724407
21
0.5665214173228347
0
LINE
8
BLACK
6
CONTINUOUS
10
3.2352362204724407
20
0.5665214173228347
11
3.2043166929133857
21
0.5974409448818897
0
LINE
8
BLACK
6
CONTINUOUS
10
3.2043166929133857
20
0.5974409448818897
11
2.5590551181102361
21
0.5974409448818897
0
LINE
8
BLACK
6
CONTINUOUS
10
2.5590551181102361
20
0.5974409448818897
11
2.5586784645669289
21
0.5975158661417322
0
LINE
8
BLACK
6
CONTINUOUS
10
2.5586784645669289
20
0.5975158661417322
11
2.5583591338582679
21
0.5977292125984252
0
LINE
8
BLACK
6
CONTINUOUS
10
2.5583591338582679
20
0.5977292125984252
11
2.5268630708661415
21
0.6292252755905512
0
LINE
8
BLACK
6
CONTINUOUS
10
2.5268630708661415
20
0.6292252755905512
11
2.5266497244094488
21
0.6295446062992126
0
LINE
8
BLACK
6
CONTINUOUS
10
2.5266497244094488
20
0.6295446062992126
11
2.526574803149606
21
0.6299212598425197
0
LINE
8
BLACK
6
CONTINUOUS
10
2.526574803149606
20
0.6299212598425197
11
2.526574803149606
21
0.7633718110236221
0
LINE
8
BLACK
6
CONTINUOUS
10
2.526574803149606
20
0.7633718110236221
11
2.495655275590551
21
0.7942913385826772
0
LINE
8
BLACK
6
CONTINUOUS
10
2.495655275590551
20
0.7942913385826772
11
1.7563132283464566
21
0.7942913385826772
  0
ENDSEC
  0
EOF
