%TF.GenerationSoftware,KiCad,Pcbnew,9.0.7*%
%TF.CreationDate,2026-05-02T18:05:20+09:00*%
%TF.ProjectId,keykeyv2.1,6b65796b-6579-4763-922e-312e6b696361,rev?*%
%TF.SameCoordinates,Original*%
%TF.FileFunction,Profile,NP*%
%FSLAX46Y46*%
G04 Gerber Fmt 4.6, Leading zero omitted, Abs format (unit mm)*
G04 Created by KiCad (PCBNEW 9.0.7) date 2026-05-02 18:05:20*
%MOMM*%
%LPD*%
G01*
G04 APERTURE LIST*
%TA.AperFunction,Profile*%
%ADD10C,0.050000*%
%TD*%
G04 APERTURE END LIST*
D10*
X-13400000Y-44600000D02*
X-13400000Y-56800000D01*
X72600000Y-87200000D02*
X53400000Y-87200000D01*
X59800000Y-61000000D02*
X62800000Y-64000000D01*
X101000000Y1600000D02*
X100200000Y2400000D01*
X99400000Y10200000D02*
X83000000Y10200000D01*
X28000000Y-61200000D02*
X-9000000Y-61200000D01*
X-11800000Y-43000000D02*
X-11800000Y-8200000D01*
X137750000Y1600000D02*
X141375000Y1600000D01*
X124600000Y-60600000D02*
X131200000Y-54000000D01*
X82200000Y11000000D02*
X82200000Y14400000D01*
X53600000Y-66800000D02*
X62000000Y-66800000D01*
X59800000Y-61000000D02*
X56600000Y-57800000D01*
X118000000Y-86400000D02*
X118000000Y-83200000D01*
X65000000Y15200000D02*
X64200000Y16000000D01*
X-10700000Y-51100000D02*
G75*
G02*
X-12900000Y-51100000I-1100000J0D01*
G01*
X-12900000Y-51100000D02*
G75*
G02*
X-10700000Y-51100000I1100000J0D01*
G01*
X141375000Y1600000D02*
X145000000Y-2000000D01*
X131200000Y-54000000D02*
X131200000Y-50200000D01*
X43000000Y15200000D02*
X26600000Y15200000D01*
X133800000Y-46000000D02*
G75*
G02*
X131600000Y-46000000I-1100000J0D01*
G01*
X131600000Y-46000000D02*
G75*
G02*
X133800000Y-46000000I1100000J0D01*
G01*
X52800000Y-67600000D02*
X52800000Y-86600000D01*
X28800000Y-58600000D02*
X28800000Y-60400000D01*
X123750000Y1600000D02*
X101000000Y1600000D01*
X145000000Y-2000000D02*
X145000000Y-43600000D01*
X25800000Y14400000D02*
X25800000Y11000000D01*
X137750000Y1600000D02*
X137750000Y1540000D01*
X25000000Y10200000D02*
X-9000000Y10200000D01*
X-9000000Y-61200000D02*
X-13400000Y-56800000D01*
X44600000Y20200000D02*
X43800000Y19400000D01*
X25800000Y11000000D02*
X25000000Y10200000D01*
X109138706Y-102200000D02*
X108163517Y-102423896D01*
X82200000Y14400000D02*
X81400000Y15200000D01*
X43800000Y16000000D02*
X43000000Y15200000D01*
X-13400000Y5800000D02*
X-13400000Y-6600000D01*
X91200000Y-92400000D02*
X72600000Y-87200000D01*
X63400000Y20200000D02*
X44600000Y20200000D01*
X52800000Y-86600000D02*
X53400000Y-87200000D01*
X64200000Y19400000D02*
X63400000Y20200000D01*
X115200000Y-73500000D02*
G75*
G02*
X113000000Y-73500000I-1100000J0D01*
G01*
X113000000Y-73500000D02*
G75*
G02*
X115200000Y-73500000I1100000J0D01*
G01*
X121400000Y-70800000D02*
X124600000Y-67600000D01*
X112400000Y-80000000D02*
X112400000Y-78100000D01*
X-13400000Y-44600000D02*
X-11800000Y-43000000D01*
X28800000Y-60400000D02*
X28000000Y-61200000D01*
X83000000Y10200000D02*
X82200000Y11000000D01*
X124600000Y-60600000D02*
X124600000Y-67600000D01*
X56600000Y-57800000D02*
X29600000Y-57800000D01*
X62800000Y-66000000D02*
X62800000Y-64000000D01*
X-13400000Y-6600000D02*
X-11800000Y-8200000D01*
X25800000Y14400000D02*
X26600000Y15200000D01*
X64200000Y16000000D02*
X64200000Y19400000D01*
X123750000Y1600000D02*
X123750000Y1540000D01*
X144200000Y-44400000D02*
X137000000Y-44400000D01*
X145000000Y-43600000D02*
X144200000Y-44400000D01*
X119800000Y-70800000D02*
X121400000Y-70800000D01*
X-10700000Y-200000D02*
G75*
G02*
X-12900000Y-200000I-1100000J0D01*
G01*
X-12900000Y-200000D02*
G75*
G02*
X-10700000Y-200000I1100000J0D01*
G01*
X81400000Y15200000D02*
X65000000Y15200000D01*
X112400000Y-78100000D02*
X112400000Y-78000000D01*
X43800000Y19400000D02*
X43800000Y16000000D01*
X109138706Y-102200000D02*
X118000000Y-86400000D01*
X119800000Y-70800000D02*
X112400000Y-78000000D01*
X52800000Y-67600000D02*
X53600000Y-66800000D01*
X62300000Y-59500000D02*
G75*
G02*
X60100000Y-59500000I-1100000J0D01*
G01*
X60100000Y-59500000D02*
G75*
G02*
X62300000Y-59500000I1100000J0D01*
G01*
X28800000Y-58600000D02*
X29600000Y-57800000D01*
X100200000Y9400000D02*
X99400000Y10200000D01*
X-9000000Y10200000D02*
X-13400000Y5800000D01*
X134000000Y-47400000D02*
X137000000Y-44400000D01*
X134000000Y-47400000D02*
X131200000Y-50200000D01*
X108163517Y-102423896D02*
X91200000Y-92400000D01*
X100200000Y2400000D02*
X100200000Y9400000D01*
X62800000Y-66000000D02*
X62000000Y-66800000D01*
X112400000Y-80000000D02*
X118000000Y-83200000D01*
%TO.C,U2*%
X112606497Y-64056497D02*
G75*
G02*
X111506497Y-64056497I-550000J0D01*
G01*
X111506497Y-64056497D02*
G75*
G02*
X112606497Y-64056497I550000J0D01*
G01*
X115143503Y-66743503D02*
G75*
G02*
X114343503Y-66743503I-400000J0D01*
G01*
X114343503Y-66743503D02*
G75*
G02*
X115143503Y-66743503I400000J0D01*
G01*
%TO.C,U1*%
X123750000Y-19960000D02*
X123750000Y1540000D01*
X137750000Y1540000D02*
X137750000Y-19960000D01*
X137750000Y-19960000D02*
X123750000Y-19960000D01*
%TD*%
M02*
