%TF.GenerationSoftware,KiCad,Pcbnew,9.0.7*%
%TF.CreationDate,2026-05-02T18:05:20+09:00*%
%TF.ProjectId,keykeyv2.1,6b65796b-6579-4763-922e-312e6b696361,rev?*%
%TF.SameCoordinates,Original*%
%TF.FileFunction,Paste,Bot*%
%TF.FilePolarity,Positive*%
%FSLAX46Y46*%
G04 Gerber Fmt 4.6, Leading zero omitted, Abs format (unit mm)*
G04 Created by KiCad (PCBNEW 9.0.7) date 2026-05-02 18:05:20*
%MOMM*%
%LPD*%
G01*
G04 APERTURE LIST*
G04 Aperture macros list*
%AMRoundRect*
0 Rectangle with rounded corners*
0 $1 Rounding radius*
0 $2 $3 $4 $5 $6 $7 $8 $9 X,Y pos of 4 corners*
0 Add a 4 corners polygon primitive as box body*
4,1,4,$2,$3,$4,$5,$6,$7,$8,$9,$2,$3,0*
0 Add four circle primitives for the rounded corners*
1,1,$1+$1,$2,$3*
1,1,$1+$1,$4,$5*
1,1,$1+$1,$6,$7*
1,1,$1+$1,$8,$9*
0 Add four rect primitives between the rounded corners*
20,1,$1+$1,$2,$3,$4,$5,0*
20,1,$1+$1,$4,$5,$6,$7,0*
20,1,$1+$1,$6,$7,$8,$9,0*
20,1,$1+$1,$8,$9,$2,$3,0*%
G04 Aperture macros list end*
%ADD10RoundRect,0.250000X-1.025000X-1.000000X1.025000X-1.000000X1.025000X1.000000X-1.025000X1.000000X0*%
%ADD11RoundRect,0.250000X-1.248893X-0.700636X0.731255X-1.231215X1.248893X0.700636X-0.731255X1.231215X0*%
%ADD12RoundRect,0.250000X-1.387676X-0.353525X0.387676X-1.378525X1.387676X0.353525X-0.387676X1.378525X0*%
%ADD13RoundRect,0.225000X-0.225000X-0.375000X0.225000X-0.375000X0.225000X0.375000X-0.225000X0.375000X0*%
%ADD14RoundRect,0.225000X-0.382356X-0.212260X0.007356X-0.437260X0.382356X0.212260X-0.007356X0.437260X0*%
%ADD15RoundRect,0.225000X-0.314390X-0.303988X0.120276X-0.420456X0.314390X0.303988X-0.120276X0.420456X0*%
G04 APERTURE END LIST*
D10*
%TO.C,SW10*%
X50500000Y-1000000D03*
X62500000Y-3200000D03*
%TD*%
%TO.C,SW28*%
X104500000Y-36500000D03*
X116500000Y-38700000D03*
%TD*%
%TO.C,SW14*%
X14500000Y-28000000D03*
X26500000Y-30200000D03*
%TD*%
%TO.C,SW11*%
X68500000Y-6000000D03*
X80500000Y-8200000D03*
%TD*%
%TO.C,SW5*%
X68500000Y11000000D03*
X80500000Y8800000D03*
%TD*%
%TO.C,SW19*%
X-3500000Y-45000000D03*
X8500000Y-47200000D03*
%TD*%
%TO.C,SW12*%
X86500000Y-11000000D03*
X98500000Y-13200000D03*
%TD*%
%TO.C,SW13*%
X-3500000Y-28000000D03*
X8500000Y-30200000D03*
%TD*%
%TO.C,SW9*%
X32500000Y-6000000D03*
X44500000Y-8200000D03*
%TD*%
%TO.C,SW17*%
X68500000Y-23000000D03*
X80500000Y-25200000D03*
%TD*%
%TO.C,SW2*%
X14500000Y6000000D03*
X26500000Y3800000D03*
%TD*%
%TO.C,SW30*%
X104500000Y-2500000D03*
X116500000Y-4700000D03*
%TD*%
%TO.C,SW24*%
X86500000Y-45000000D03*
X98500000Y-47200000D03*
%TD*%
%TO.C,SW16*%
X50500000Y-18000000D03*
X62500000Y-20200000D03*
%TD*%
%TO.C,SW25*%
X59500000Y-71000000D03*
X71500000Y-73200000D03*
%TD*%
%TO.C,SW1*%
X-3500000Y6000000D03*
X8500000Y3800000D03*
%TD*%
%TO.C,SW7*%
X-3500000Y-11000000D03*
X8500000Y-13200000D03*
%TD*%
%TO.C,SW18*%
X86500000Y-28000000D03*
X98500000Y-30200000D03*
%TD*%
%TO.C,SW3*%
X32500000Y11000000D03*
X44500000Y8800000D03*
%TD*%
D11*
%TO.C,SW26*%
X82672174Y-73298578D03*
X93693882Y-78529444D03*
%TD*%
D10*
%TO.C,SW20*%
X14500000Y-45000000D03*
X26500000Y-47200000D03*
%TD*%
%TO.C,SW15*%
X32500000Y-23000000D03*
X44500000Y-25200000D03*
%TD*%
%TO.C,SW29*%
X104500000Y-19500000D03*
X116500000Y-21700000D03*
%TD*%
%TO.C,SW8*%
X14500000Y-11000000D03*
X26500000Y-13200000D03*
%TD*%
%TO.C,SW21*%
X32500000Y-40000000D03*
X44500000Y-42200000D03*
%TD*%
%TO.C,SW22*%
X50500000Y-35000000D03*
X62500000Y-37200000D03*
%TD*%
%TO.C,SW6*%
X86500000Y6000000D03*
X98500000Y3800000D03*
%TD*%
%TO.C,SW4*%
X50500000Y16000000D03*
X62500000Y13800000D03*
%TD*%
D12*
%TO.C,SW27*%
X104468911Y-81553848D03*
X113761216Y-89459103D03*
%TD*%
D10*
%TO.C,SW23*%
X68500000Y-40000000D03*
X80500000Y-42200000D03*
%TD*%
D13*
%TO.C,D26*%
X61200000Y-82000000D03*
X64500000Y-82000000D03*
%TD*%
%TO.C,D16*%
X34500000Y-34000000D03*
X37800000Y-34000000D03*
%TD*%
%TO.C,D10*%
X34500000Y-17000000D03*
X37800000Y-17000000D03*
%TD*%
%TO.C,D30*%
X106700000Y-30500000D03*
X110000000Y-30500000D03*
%TD*%
D14*
%TO.C,D28*%
X100142116Y-92350000D03*
X103000000Y-94000000D03*
%TD*%
D13*
%TO.C,D13*%
X88200000Y-22000000D03*
X91500000Y-22000000D03*
%TD*%
%TO.C,D11*%
X52500000Y-12000000D03*
X55800000Y-12000000D03*
%TD*%
%TO.C,D17*%
X52500000Y-29000000D03*
X55800000Y-29000000D03*
%TD*%
%TO.C,D14*%
X-1500000Y-39000000D03*
X1800000Y-39000000D03*
%TD*%
%TO.C,D20*%
X-1500000Y-56000000D03*
X1800000Y-56000000D03*
%TD*%
%TO.C,D9*%
X16500000Y-22000000D03*
X19800000Y-22000000D03*
%TD*%
%TO.C,D4*%
X34500000Y0D03*
X37800000Y0D03*
%TD*%
%TO.C,D8*%
X-1500000Y-22000000D03*
X1800000Y-22000000D03*
%TD*%
%TO.C,D22*%
X34500000Y-51000000D03*
X37800000Y-51000000D03*
%TD*%
D15*
%TO.C,D27*%
X81312444Y-84572950D03*
X84500000Y-85427050D03*
%TD*%
D13*
%TO.C,D21*%
X16500000Y-56000000D03*
X19800000Y-56000000D03*
%TD*%
%TO.C,D7*%
X88200000Y-5000000D03*
X91500000Y-5000000D03*
%TD*%
%TO.C,D6*%
X70700000Y0D03*
X74000000Y0D03*
%TD*%
%TO.C,D19*%
X88200000Y-39000000D03*
X91500000Y-39000000D03*
%TD*%
%TO.C,D23*%
X52500000Y-46000000D03*
X55800000Y-46000000D03*
%TD*%
%TO.C,D31*%
X106700000Y-13500000D03*
X110000000Y-13500000D03*
%TD*%
%TO.C,D5*%
X52500000Y5000000D03*
X55800000Y5000000D03*
%TD*%
%TO.C,D25*%
X88200000Y-56000000D03*
X91500000Y-56000000D03*
%TD*%
%TO.C,D2*%
X-1500000Y-5000000D03*
X1800000Y-5000000D03*
%TD*%
%TO.C,D15*%
X16500000Y-39000000D03*
X19800000Y-39000000D03*
%TD*%
%TO.C,D12*%
X70700000Y-17000000D03*
X74000000Y-17000000D03*
%TD*%
%TO.C,D29*%
X106700000Y-47500000D03*
X110000000Y-47500000D03*
%TD*%
%TO.C,D18*%
X70700000Y-34000000D03*
X74000000Y-34000000D03*
%TD*%
%TO.C,D3*%
X16500000Y-5000000D03*
X19800000Y-5000000D03*
%TD*%
%TO.C,D24*%
X70700000Y-51000000D03*
X74000000Y-51000000D03*
%TD*%
M02*
