%TF.GenerationSoftware,KiCad,Pcbnew,9.0.7*%
%TF.CreationDate,2026-05-02T18:05:20+09:00*%
%TF.ProjectId,keykeyv2.1,6b65796b-6579-4763-922e-312e6b696361,rev?*%
%TF.SameCoordinates,Original*%
%TF.FileFunction,Soldermask,Top*%
%TF.FilePolarity,Negative*%
%FSLAX46Y46*%
G04 Gerber Fmt 4.6, Leading zero omitted, Abs format (unit mm)*
G04 Created by KiCad (PCBNEW 9.0.7) date 2026-05-02 18:05:20*
%MOMM*%
%LPD*%
G01*
G04 APERTURE LIST*
G04 Aperture macros list*
%AMRoundRect*
0 Rectangle with rounded corners*
0 $1 Rounding radius*
0 $2 $3 $4 $5 $6 $7 $8 $9 X,Y pos of 4 corners*
0 Add a 4 corners polygon primitive as box body*
4,1,4,$2,$3,$4,$5,$6,$7,$8,$9,$2,$3,0*
0 Add four circle primitives for the rounded corners*
1,1,$1+$1,$2,$3*
1,1,$1+$1,$4,$5*
1,1,$1+$1,$6,$7*
1,1,$1+$1,$8,$9*
0 Add four rect primitives between the rounded corners*
20,1,$1+$1,$2,$3,$4,$5,0*
20,1,$1+$1,$4,$5,$6,$7,0*
20,1,$1+$1,$6,$7,$8,$9,0*
20,1,$1+$1,$8,$9,$2,$3,0*%
G04 Aperture macros list end*
%ADD10C,1.900000*%
%ADD11C,1.600000*%
%ADD12C,3.050000*%
%ADD13C,5.050000*%
%ADD14RoundRect,0.250000X-0.350000X-0.450000X0.350000X-0.450000X0.350000X0.450000X-0.350000X0.450000X0*%
%ADD15RoundRect,0.105000X-0.247487X-0.593970X0.593970X0.247487X0.247487X0.593970X-0.593970X-0.247487X0*%
%ADD16RoundRect,0.250000X0.325000X0.450000X-0.325000X0.450000X-0.325000X-0.450000X0.325000X-0.450000X0*%
%ADD17RoundRect,0.225000X-1.025000X-0.525000X1.025000X-0.525000X1.025000X0.525000X-1.025000X0.525000X0*%
%ADD18RoundRect,0.225000X-0.525000X1.025000X-0.525000X-1.025000X0.525000X-1.025000X0.525000X1.025000X0*%
G04 APERTURE END LIST*
D10*
%TO.C,SW10*%
X48500000Y-7000000D03*
D11*
X49000000Y-12150000D03*
D12*
X54000000Y-1100000D03*
D13*
X54000000Y-7000000D03*
D12*
X59000000Y-3200000D03*
D10*
X59500000Y-7000000D03*
%TD*%
%TO.C,SW28*%
X102500000Y-42500000D03*
D11*
X103000000Y-47650000D03*
D12*
X108000000Y-36600000D03*
D13*
X108000000Y-42500000D03*
D12*
X113000000Y-38700000D03*
D10*
X113500000Y-42500000D03*
%TD*%
%TO.C,SW14*%
X12500000Y-34000000D03*
D11*
X13000000Y-39150000D03*
D12*
X18000000Y-28100000D03*
D13*
X18000000Y-34000000D03*
D12*
X23000000Y-30200000D03*
D10*
X23500000Y-34000000D03*
%TD*%
%TO.C,SW11*%
X66500000Y-12000000D03*
D11*
X67000000Y-17150000D03*
D12*
X72000000Y-6100000D03*
D13*
X72000000Y-12000000D03*
D12*
X77000000Y-8200000D03*
D10*
X77500000Y-12000000D03*
%TD*%
%TO.C,SW5*%
X66500000Y5000000D03*
D11*
X67000000Y-150000D03*
D12*
X72000000Y10900000D03*
D13*
X72000000Y5000000D03*
D12*
X77000000Y8800000D03*
D10*
X77500000Y5000000D03*
%TD*%
%TO.C,SW19*%
X-5500000Y-51000000D03*
D11*
X-5000000Y-56150000D03*
D12*
X0Y-45100000D03*
D13*
X0Y-51000000D03*
D12*
X5000000Y-47200000D03*
D10*
X5500000Y-51000000D03*
%TD*%
%TO.C,SW12*%
X84500000Y-17000000D03*
D11*
X85000000Y-22150000D03*
D12*
X90000000Y-11100000D03*
D13*
X90000000Y-17000000D03*
D12*
X95000000Y-13200000D03*
D10*
X95500000Y-17000000D03*
%TD*%
%TO.C,SW13*%
X-5500000Y-34000000D03*
D11*
X-5000000Y-39150000D03*
D12*
X0Y-28100000D03*
D13*
X0Y-34000000D03*
D12*
X5000000Y-30200000D03*
D10*
X5500000Y-34000000D03*
%TD*%
%TO.C,SW9*%
X30500000Y-12000000D03*
D11*
X31000000Y-17150000D03*
D12*
X36000000Y-6100000D03*
D13*
X36000000Y-12000000D03*
D12*
X41000000Y-8200000D03*
D10*
X41500000Y-12000000D03*
%TD*%
%TO.C,SW17*%
X66500000Y-29000000D03*
D11*
X67000000Y-34150000D03*
D12*
X72000000Y-23100000D03*
D13*
X72000000Y-29000000D03*
D12*
X77000000Y-25200000D03*
D10*
X77500000Y-29000000D03*
%TD*%
%TO.C,SW2*%
X12500000Y0D03*
D11*
X13000000Y-5150000D03*
D12*
X18000000Y5900000D03*
D13*
X18000000Y0D03*
D12*
X23000000Y3800000D03*
D10*
X23500000Y0D03*
%TD*%
%TO.C,SW30*%
X102500000Y-8500000D03*
D11*
X103000000Y-13650000D03*
D12*
X108000000Y-2600000D03*
D13*
X108000000Y-8500000D03*
D12*
X113000000Y-4700000D03*
D10*
X113500000Y-8500000D03*
%TD*%
D14*
%TO.C,R1*%
X124200000Y-38200000D03*
X126200000Y-38200000D03*
%TD*%
%TO.C,R2*%
X140400000Y-29000000D03*
X142400000Y-29000000D03*
%TD*%
D10*
%TO.C,SW24*%
X84500000Y-51000000D03*
D11*
X85000000Y-56150000D03*
D12*
X90000000Y-45100000D03*
D13*
X90000000Y-51000000D03*
D12*
X95000000Y-47200000D03*
D10*
X95500000Y-51000000D03*
%TD*%
D15*
%TO.C,U2*%
X109510913Y-67309188D03*
X110500862Y-68299138D03*
X111490812Y-69289087D03*
X115309188Y-61510913D03*
X116299138Y-62500862D03*
X117289087Y-63490812D03*
%TD*%
D10*
%TO.C,SW16*%
X48500000Y-24000000D03*
D11*
X49000000Y-29150000D03*
D12*
X54000000Y-18100000D03*
D13*
X54000000Y-24000000D03*
D12*
X59000000Y-20200000D03*
D10*
X59500000Y-24000000D03*
%TD*%
D16*
%TO.C,D1*%
X130600000Y-38200000D03*
X128550000Y-38200000D03*
%TD*%
D10*
%TO.C,SW25*%
X57500000Y-77000000D03*
D11*
X58000000Y-82150000D03*
D12*
X63000000Y-71100000D03*
D13*
X63000000Y-77000000D03*
D12*
X68000000Y-73200000D03*
D10*
X68500000Y-77000000D03*
%TD*%
%TO.C,SW1*%
X-5500000Y0D03*
D11*
X-5000000Y-5150000D03*
D12*
X0Y5900000D03*
D13*
X0Y0D03*
D12*
X5000000Y3800000D03*
D10*
X5500000Y0D03*
%TD*%
%TO.C,SW7*%
X-5500000Y-17000000D03*
D11*
X-5000000Y-22150000D03*
D12*
X0Y-11100000D03*
D13*
X0Y-17000000D03*
D12*
X5000000Y-13200000D03*
D10*
X5500000Y-17000000D03*
%TD*%
%TO.C,SW18*%
X84500000Y-34000000D03*
D11*
X85000000Y-39150000D03*
D12*
X90000000Y-28100000D03*
D13*
X90000000Y-34000000D03*
D12*
X95000000Y-30200000D03*
D10*
X95500000Y-34000000D03*
%TD*%
%TO.C,SW3*%
X30500000Y5000000D03*
D11*
X31000000Y-150000D03*
D12*
X36000000Y10900000D03*
D13*
X36000000Y5000000D03*
D12*
X41000000Y8800000D03*
D10*
X41500000Y5000000D03*
%TD*%
%TO.C,SW26*%
X79187408Y-78576495D03*
D11*
X78337453Y-83680423D03*
D12*
X86027032Y-74301038D03*
D13*
X84500000Y-80000000D03*
D12*
X90313142Y-77623577D03*
D10*
X89812592Y-81423505D03*
%TD*%
%TO.C,SW20*%
X12500000Y-51000000D03*
D11*
X13000000Y-56150000D03*
D12*
X18000000Y-45100000D03*
D13*
X18000000Y-51000000D03*
D12*
X23000000Y-47200000D03*
D10*
X23500000Y-51000000D03*
%TD*%
%TO.C,SW15*%
X30500000Y-29000000D03*
D11*
X31000000Y-34150000D03*
D12*
X36000000Y-23100000D03*
D13*
X36000000Y-29000000D03*
D12*
X41000000Y-25200000D03*
D10*
X41500000Y-29000000D03*
%TD*%
%TO.C,SW29*%
X102500000Y-25500000D03*
D11*
X103000000Y-30650000D03*
D12*
X108000000Y-19600000D03*
D13*
X108000000Y-25500000D03*
D12*
X113000000Y-21700000D03*
D10*
X113500000Y-25500000D03*
%TD*%
%TO.C,SW8*%
X12500000Y-17000000D03*
D11*
X13000000Y-22150000D03*
D12*
X18000000Y-11100000D03*
D13*
X18000000Y-17000000D03*
D12*
X23000000Y-13200000D03*
D10*
X23500000Y-17000000D03*
%TD*%
D11*
%TO.C,J1*%
X134300000Y-33170000D03*
X135300000Y-37570000D03*
X139300000Y-37570000D03*
X142300000Y-37570000D03*
%TD*%
D10*
%TO.C,SW21*%
X30500000Y-46000000D03*
D11*
X31000000Y-51150000D03*
D12*
X36000000Y-40100000D03*
D13*
X36000000Y-46000000D03*
D12*
X41000000Y-42200000D03*
D10*
X41500000Y-46000000D03*
%TD*%
%TO.C,SW22*%
X48500000Y-41000000D03*
D11*
X49000000Y-46150000D03*
D12*
X54000000Y-35100000D03*
D13*
X54000000Y-41000000D03*
D12*
X59000000Y-37200000D03*
D10*
X59500000Y-41000000D03*
%TD*%
D17*
%TO.C,U1*%
X139000000Y-50000D03*
X139000000Y-2590000D03*
X139000000Y-5130000D03*
X139000000Y-7670000D03*
X122500000Y-5130000D03*
X139000000Y-10210000D03*
X139000000Y-12750000D03*
X122500000Y-50000D03*
X139000000Y-15290000D03*
X139000000Y-17830000D03*
X139000000Y-20370000D03*
D18*
X135830000Y-21210000D03*
X133290000Y-21210000D03*
X130750000Y-21210000D03*
X128210000Y-21210000D03*
X125670000Y-21210000D03*
D17*
X122500000Y-20370000D03*
X122500000Y-17830000D03*
X122500000Y-15290000D03*
X122500000Y-12750000D03*
X122500000Y-10210000D03*
X122500000Y-7670000D03*
X122500000Y-2590000D03*
%TD*%
D10*
%TO.C,SW6*%
X84500000Y0D03*
D11*
X85000000Y-5150000D03*
D12*
X90000000Y5900000D03*
D13*
X90000000Y0D03*
D12*
X95000000Y3800000D03*
D10*
X95500000Y0D03*
%TD*%
%TO.C,SW4*%
X48500000Y10000000D03*
D11*
X49000000Y4850000D03*
D12*
X54000000Y15900000D03*
D13*
X54000000Y10000000D03*
D12*
X59000000Y13800000D03*
D10*
X59500000Y10000000D03*
%TD*%
%TO.C,SW27*%
X99736860Y-85750000D03*
D11*
X97594873Y-90460031D03*
D12*
X107450000Y-83390450D03*
D13*
X104500000Y-88500000D03*
D12*
X110730127Y-87709103D03*
D10*
X109263140Y-91250000D03*
%TD*%
%TO.C,SW23*%
X66500000Y-46000000D03*
D11*
X67000000Y-51150000D03*
D12*
X72000000Y-40100000D03*
D13*
X72000000Y-46000000D03*
D12*
X77000000Y-42200000D03*
D10*
X77500000Y-46000000D03*
%TD*%
M02*
