M48
; DRILL file {KiCad 9.0.7} date 2026-04-23T19:45:03+0900
; FORMAT={-:-/ absolute / metric / decimal}
; #@! TF.CreationDate,2026-04-23T19:45:03+09:00
; #@! TF.GenerationSoftware,Kicad,Pcbnew,9.0.7
; #@! TF.FileFunction,Plated,1,2,PTH
FMAT,2
METRIC
; #@! TA.AperFunction,Plated,PTH,ViaDrill
T1C0.300
; #@! TA.AperFunction,Plated,PTH,ComponentDrill
T2C0.700
%
G90
G05
T1
X-6.8Y-33.2
X-1.6Y-23.6
X1.0Y-23.4
X1.0Y-35.0
X2.6Y-30.8
X4.4Y-24.4
X6.4Y-26.4
X11.2Y-32.8
X12.8Y-63.6
X13.2Y-53.8
X13.8Y-67.8
X14.0Y-56.6
X14.15Y-0.05
X14.6Y-65.0
X14.8Y-14.0
X15.8Y-28.8
X16.0Y-12.8
X16.2Y-58.8
X16.4Y-1.2
X16.4Y-57.0
X16.6Y-43.4
X17.2Y-17.0
X17.2Y-27.0
X20.0Y-45.2
X20.8Y-28.4
X21.4Y-17.0
X22.8Y-34.0
X25.6Y-68.4
X31.8Y-16.0
X33.4Y-17.0
X35.6Y-66.0
X36.0Y-1.4
X38.6Y-65.8
X39.2Y-2.8
X39.4Y-69.0
X39.4Y-72.0
X40.2Y-59.8
X40.4Y-68.6
X42.0Y-84.0
X42.2Y-23.8
X42.2Y-40.8
X53.6Y-19.4
X53.6Y-36.8
X53.6Y-55.4
X56.8Y2.2
X62.0Y-73.0
X71.8Y-11.4
X71.8Y-28.8
X71.8Y-46.0
X72.8Y6.2
X78.0Y18.6
X89.6Y-15.6
X89.6Y-32.6
X89.6Y-51.0
X92.4Y2.2
X95.6Y13.4
X107.8Y-18.4
X107.8Y-35.8
X107.8Y-52.8
X109.4Y-2.8
X111.8Y8.6
X126.0Y-22.4
X126.0Y-39.6
X126.0Y-56.0
X127.4Y-7.4
T2
G00X-8.425Y-37.57
M15
G01X-7.625Y-37.57
M16
G05
G00X-5.425Y-37.57
M15
G01X-4.625Y-37.57
M16
G05
G00X-1.425Y-37.57
M15
G01X-0.625Y-37.57
M16
G05
G00X-0.425Y-41.97
M15
G01X0.375Y-41.97
M16
G05
M30
