M48
; DRILL file {KiCad 9.0.7} date 2026-05-02T18:05:25+0900
; FORMAT={-:-/ absolute / metric / decimal}
; #@! TF.CreationDate,2026-05-02T18:05:25+09:00
; #@! TF.GenerationSoftware,Kicad,Pcbnew,9.0.7
; #@! TF.FileFunction,NonPlated,1,2,NPTH
FMAT,2
METRIC
; #@! TA.AperFunction,NonPlated,NPTH,ComponentDrill
T1C1.500
; #@! TA.AperFunction,NonPlated,NPTH,ComponentDrill
T2C1.600
; #@! TA.AperFunction,NonPlated,NPTH,ComponentDrill
T3C1.900
; #@! TA.AperFunction,NonPlated,NPTH,ComponentDrill
T4C3.050
; #@! TA.AperFunction,NonPlated,NPTH,ComponentDrill
T5C5.050
%
G90
G05
T1
X136.75Y-35.37
X143.75Y-35.37
T2
X-5.0Y-5.15
X-5.0Y-22.15
X-5.0Y-39.15
X-5.0Y-56.15
X13.0Y-5.15
X13.0Y-22.15
X13.0Y-39.15
X13.0Y-56.15
X31.0Y-0.15
X31.0Y-17.15
X31.0Y-34.15
X31.0Y-51.15
X49.0Y4.85
X49.0Y-12.15
X49.0Y-29.15
X49.0Y-46.15
X58.0Y-82.15
X67.0Y-0.15
X67.0Y-17.15
X67.0Y-34.15
X67.0Y-51.15
X78.337Y-83.68
X85.0Y-5.15
X85.0Y-22.15
X85.0Y-39.15
X85.0Y-56.15
X97.595Y-90.46
X103.0Y-13.65
X103.0Y-30.65
X103.0Y-47.65
T3
X-5.5Y0.0
X-5.5Y-17.0
X-5.5Y-34.0
X-5.5Y-51.0
X5.5Y0.0
X5.5Y-17.0
X5.5Y-34.0
X5.5Y-51.0
X12.5Y0.0
X12.5Y-17.0
X12.5Y-34.0
X12.5Y-51.0
X23.5Y0.0
X23.5Y-17.0
X23.5Y-34.0
X23.5Y-51.0
X30.5Y5.0
X30.5Y-12.0
X30.5Y-29.0
X30.5Y-46.0
X41.5Y5.0
X41.5Y-12.0
X41.5Y-29.0
X41.5Y-46.0
X48.5Y10.0
X48.5Y-7.0
X48.5Y-24.0
X48.5Y-41.0
X57.5Y-77.0
X59.5Y10.0
X59.5Y-7.0
X59.5Y-24.0
X59.5Y-41.0
X66.5Y5.0
X66.5Y-12.0
X66.5Y-29.0
X66.5Y-46.0
X68.5Y-77.0
X77.5Y5.0
X77.5Y-12.0
X77.5Y-29.0
X77.5Y-46.0
X79.187Y-78.576
X84.5Y0.0
X84.5Y-17.0
X84.5Y-34.0
X84.5Y-51.0
X89.813Y-81.424
X95.5Y0.0
X95.5Y-17.0
X95.5Y-34.0
X95.5Y-51.0
X99.737Y-85.75
X102.5Y-8.5
X102.5Y-25.5
X102.5Y-42.5
X109.263Y-91.25
X113.5Y-8.5
X113.5Y-25.5
X113.5Y-42.5
T4
X0.0Y5.9
X0.0Y-11.1
X0.0Y-28.1
X0.0Y-45.1
X5.0Y3.8
X5.0Y-13.2
X5.0Y-30.2
X5.0Y-47.2
X18.0Y5.9
X18.0Y-11.1
X18.0Y-28.1
X18.0Y-45.1
X23.0Y3.8
X23.0Y-13.2
X23.0Y-30.2
X23.0Y-47.2
X36.0Y10.9
X36.0Y-6.1
X36.0Y-23.1
X36.0Y-40.1
X41.0Y8.8
X41.0Y-8.2
X41.0Y-25.2
X41.0Y-42.2
X54.0Y15.9
X54.0Y-1.1
X54.0Y-18.1
X54.0Y-35.1
X59.0Y13.8
X59.0Y-3.2
X59.0Y-20.2
X59.0Y-37.2
X63.0Y-71.1
X68.0Y-73.2
X72.0Y10.9
X72.0Y-6.1
X72.0Y-23.1
X72.0Y-40.1
X77.0Y8.8
X77.0Y-8.2
X77.0Y-25.2
X77.0Y-42.2
X86.027Y-74.301
X90.0Y5.9
X90.0Y-11.1
X90.0Y-28.1
X90.0Y-45.1
X90.313Y-77.624
X95.0Y3.8
X95.0Y-13.2
X95.0Y-30.2
X95.0Y-47.2
X107.45Y-83.39
X108.0Y-2.6
X108.0Y-19.6
X108.0Y-36.6
X110.73Y-87.709
X113.0Y-4.7
X113.0Y-21.7
X113.0Y-38.7
T5
X0.0Y0.0
X0.0Y-17.0
X0.0Y-34.0
X0.0Y-51.0
X18.0Y0.0
X18.0Y-17.0
X18.0Y-34.0
X18.0Y-51.0
X36.0Y5.0
X36.0Y-12.0
X36.0Y-29.0
X36.0Y-46.0
X54.0Y10.0
X54.0Y-7.0
X54.0Y-24.0
X54.0Y-41.0
X63.0Y-77.0
X72.0Y5.0
X72.0Y-12.0
X72.0Y-29.0
X72.0Y-46.0
X84.5Y-80.0
X90.0Y0.0
X90.0Y-17.0
X90.0Y-34.0
X90.0Y-51.0
X104.5Y-88.5
X108.0Y-8.5
X108.0Y-25.5
X108.0Y-42.5
M30
