%TF.GenerationSoftware,KiCad,Pcbnew,9.0.7*%
%TF.CreationDate,2026-04-23T19:44:55+09:00*%
%TF.ProjectId,keykeyv2.1_r,6b65796b-6579-4763-922e-315f722e6b69,rev?*%
%TF.SameCoordinates,Original*%
%TF.FileFunction,Copper,L2,Bot*%
%TF.FilePolarity,Positive*%
%FSLAX46Y46*%
G04 Gerber Fmt 4.6, Leading zero omitted, Abs format (unit mm)*
G04 Created by KiCad (PCBNEW 9.0.7) date 2026-04-23 19:44:55*
%MOMM*%
%LPD*%
G01*
G04 APERTURE LIST*
G04 Aperture macros list*
%AMRoundRect*
0 Rectangle with rounded corners*
0 $1 Rounding radius*
0 $2 $3 $4 $5 $6 $7 $8 $9 X,Y pos of 4 corners*
0 Add a 4 corners polygon primitive as box body*
4,1,4,$2,$3,$4,$5,$6,$7,$8,$9,$2,$3,0*
0 Add four circle primitives for the rounded corners*
1,1,$1+$1,$2,$3*
1,1,$1+$1,$4,$5*
1,1,$1+$1,$6,$7*
1,1,$1+$1,$8,$9*
0 Add four rect primitives between the rounded corners*
20,1,$1+$1,$2,$3,$4,$5,0*
20,1,$1+$1,$4,$5,$6,$7,0*
20,1,$1+$1,$6,$7,$8,$9,0*
20,1,$1+$1,$8,$9,$2,$3,0*%
G04 Aperture macros list end*
%TA.AperFunction,SMDPad,CuDef*%
%ADD10RoundRect,0.250000X-1.025000X-1.000000X1.025000X-1.000000X1.025000X1.000000X-1.025000X1.000000X0*%
%TD*%
%TA.AperFunction,SMDPad,CuDef*%
%ADD11RoundRect,0.250000X-0.731255X-1.231215X1.248893X-0.700636X0.731255X1.231215X-1.248893X0.700636X0*%
%TD*%
%TA.AperFunction,ComponentPad*%
%ADD12C,1.600000*%
%TD*%
%TA.AperFunction,SMDPad,CuDef*%
%ADD13RoundRect,0.250000X-0.387676X-1.378525X1.387676X-0.353525X0.387676X1.378525X-1.387676X0.353525X0*%
%TD*%
%TA.AperFunction,SMDPad,CuDef*%
%ADD14RoundRect,0.225000X-0.225000X-0.375000X0.225000X-0.375000X0.225000X0.375000X-0.225000X0.375000X0*%
%TD*%
%TA.AperFunction,SMDPad,CuDef*%
%ADD15RoundRect,0.225000X-0.007356X-0.437260X0.382356X-0.212260X0.007356X0.437260X-0.382356X0.212260X0*%
%TD*%
%TA.AperFunction,SMDPad,CuDef*%
%ADD16RoundRect,0.225000X-0.120276X-0.420456X0.314390X-0.303988X0.120276X0.420456X-0.314390X0.303988X0*%
%TD*%
%TA.AperFunction,ViaPad*%
%ADD17C,0.600000*%
%TD*%
%TA.AperFunction,Conductor*%
%ADD18C,0.200000*%
%TD*%
%TA.AperFunction,Conductor*%
%ADD19C,0.400000*%
%TD*%
G04 APERTURE END LIST*
D10*
%TO.P,SW10,1,1*%
%TO.N,Net-(U1-GP2)*%
X76775000Y-1000000D03*
%TO.P,SW10,2,2*%
%TO.N,Net-(D11-A)*%
X88775000Y-3200000D03*
%TD*%
%TO.P,SW28,1,1*%
%TO.N,Net-(U1-GP5)*%
X22775000Y-36500000D03*
%TO.P,SW28,2,2*%
%TO.N,Net-(D29-A)*%
X34775000Y-38700000D03*
%TD*%
%TO.P,SW14,1,1*%
%TO.N,Net-(U1-GP3)*%
X112775000Y-28000000D03*
%TO.P,SW14,2,2*%
%TO.N,Net-(D15-A)*%
X124775000Y-30200000D03*
%TD*%
%TO.P,SW11,1,1*%
%TO.N,Net-(U1-GP2)*%
X58775000Y-6000000D03*
%TO.P,SW11,2,2*%
%TO.N,Net-(D12-A)*%
X70775000Y-8200000D03*
%TD*%
%TO.P,SW5,1,1*%
%TO.N,Net-(U1-GP1)*%
X58775000Y11000000D03*
%TO.P,SW5,2,2*%
%TO.N,Net-(D6-A)*%
X70775000Y8800000D03*
%TD*%
%TO.P,SW19,1,1*%
%TO.N,Net-(U1-GP4)*%
X130775000Y-45000000D03*
%TO.P,SW19,2,2*%
%TO.N,Net-(D20-A)*%
X142775000Y-47200000D03*
%TD*%
%TO.P,SW12,1,1*%
%TO.N,Net-(U1-GP2)*%
X40775000Y-11000000D03*
%TO.P,SW12,2,2*%
%TO.N,Net-(D13-A)*%
X52775000Y-13200000D03*
%TD*%
%TO.P,SW13,1,1*%
%TO.N,Net-(U1-GP3)*%
X130775000Y-28000000D03*
%TO.P,SW13,2,2*%
%TO.N,Net-(D14-A)*%
X142775000Y-30200000D03*
%TD*%
%TO.P,SW9,1,1*%
%TO.N,Net-(U1-GP2)*%
X94775000Y-6000000D03*
%TO.P,SW9,2,2*%
%TO.N,Net-(D10-A)*%
X106775000Y-8200000D03*
%TD*%
%TO.P,SW17,1,1*%
%TO.N,Net-(U1-GP3)*%
X58775000Y-23000000D03*
%TO.P,SW17,2,2*%
%TO.N,Net-(D18-A)*%
X70775000Y-25200000D03*
%TD*%
%TO.P,SW2,1,1*%
%TO.N,Net-(U1-GP1)*%
X112775000Y6000000D03*
%TO.P,SW2,2,2*%
%TO.N,Net-(D3-A)*%
X124775000Y3800000D03*
%TD*%
%TO.P,SW30,1,1*%
%TO.N,Net-(U1-GP5)*%
X22775000Y-2500000D03*
%TO.P,SW30,2,2*%
%TO.N,Net-(D31-A)*%
X34775000Y-4700000D03*
%TD*%
%TO.P,SW24,1,1*%
%TO.N,Net-(U1-GP4)*%
X40775000Y-45000000D03*
%TO.P,SW24,2,2*%
%TO.N,Net-(D25-A)*%
X52775000Y-47200000D03*
%TD*%
%TO.P,SW16,1,1*%
%TO.N,Net-(U1-GP3)*%
X76775000Y-18000000D03*
%TO.P,SW16,2,2*%
%TO.N,Net-(D17-A)*%
X88775000Y-20200000D03*
%TD*%
%TO.P,SW25,1,1*%
%TO.N,Net-(U1-GP5)*%
X67775000Y-71000000D03*
%TO.P,SW25,2,2*%
%TO.N,Net-(D26-A)*%
X79775000Y-73200000D03*
%TD*%
%TO.P,SW1,1,1*%
%TO.N,Net-(U1-GP1)*%
X130775000Y6000000D03*
%TO.P,SW1,2,2*%
%TO.N,Net-(D2-A)*%
X142775000Y3800000D03*
%TD*%
%TO.P,SW7,1,1*%
%TO.N,Net-(U1-GP2)*%
X130775000Y-11000000D03*
%TO.P,SW7,2,2*%
%TO.N,Net-(D8-A)*%
X142775000Y-13200000D03*
%TD*%
%TO.P,SW18,1,1*%
%TO.N,Net-(U1-GP3)*%
X40775000Y-28000000D03*
%TO.P,SW18,2,2*%
%TO.N,Net-(D19-A)*%
X52775000Y-30200000D03*
%TD*%
%TO.P,SW3,1,1*%
%TO.N,Net-(U1-GP1)*%
X94775000Y11000000D03*
%TO.P,SW3,2,2*%
%TO.N,Net-(D4-A)*%
X106775000Y8800000D03*
%TD*%
D11*
%TO.P,SW26,1,1*%
%TO.N,Net-(U1-GP5)*%
X44841345Y-75110311D03*
%TO.P,SW26,2,2*%
%TO.N,Net-(D27-A)*%
X57001857Y-74129520D03*
%TD*%
D10*
%TO.P,SW20,1,1*%
%TO.N,Net-(U1-GP4)*%
X112775000Y-45000000D03*
%TO.P,SW20,2,2*%
%TO.N,Net-(D21-A)*%
X124775000Y-47200000D03*
%TD*%
%TO.P,SW15,1,1*%
%TO.N,Net-(U1-GP3)*%
X94775000Y-23000000D03*
%TO.P,SW15,2,2*%
%TO.N,Net-(D16-A)*%
X106775000Y-25200000D03*
%TD*%
%TO.P,SW29,1,1*%
%TO.N,Net-(U1-GP5)*%
X22775000Y-19500000D03*
%TO.P,SW29,2,2*%
%TO.N,Net-(D30-A)*%
X34775000Y-21700000D03*
%TD*%
%TO.P,SW8,1,1*%
%TO.N,Net-(U1-GP2)*%
X112775000Y-11000000D03*
%TO.P,SW8,2,2*%
%TO.N,Net-(D9-A)*%
X124775000Y-13200000D03*
%TD*%
D12*
%TO.P,J1,1*%
%TO.N,Net-(J1-Pad1)*%
X-25000Y-41970000D03*
%TO.P,J1,2*%
%TO.N,unconnected-(J1-Pad2)*%
X-1025000Y-37570000D03*
%TO.P,J1,3*%
%TO.N,Net-(J1-Pad3)*%
X-5025000Y-37570000D03*
%TO.P,J1,4*%
%TO.N,Net-(D1-K)*%
X-8025000Y-37570000D03*
%TD*%
D10*
%TO.P,SW21,1,1*%
%TO.N,Net-(U1-GP4)*%
X94775000Y-40000000D03*
%TO.P,SW21,2,2*%
%TO.N,Net-(D22-A)*%
X106775000Y-42200000D03*
%TD*%
%TO.P,SW22,1,1*%
%TO.N,Net-(U1-GP4)*%
X76775000Y-35000000D03*
%TO.P,SW22,2,2*%
%TO.N,Net-(D23-A)*%
X88775000Y-37200000D03*
%TD*%
%TO.P,SW6,1,1*%
%TO.N,Net-(U1-GP1)*%
X40775000Y6000000D03*
%TO.P,SW6,2,2*%
%TO.N,Net-(D7-A)*%
X52775000Y3800000D03*
%TD*%
%TO.P,SW4,1,1*%
%TO.N,Net-(U1-GP1)*%
X76775000Y16000000D03*
%TO.P,SW4,2,2*%
%TO.N,Net-(D5-A)*%
X88775000Y13800000D03*
%TD*%
D13*
%TO.P,SW27,1,1*%
%TO.N,Net-(U1-GP5)*%
X23743911Y-85053848D03*
%TO.P,SW27,2,2*%
%TO.N,Net-(D28-A)*%
X35236216Y-80959103D03*
%TD*%
D10*
%TO.P,SW23,1,1*%
%TO.N,Net-(U1-GP4)*%
X58775000Y-40000000D03*
%TO.P,SW23,2,2*%
%TO.N,Net-(D24-A)*%
X70775000Y-42200000D03*
%TD*%
D14*
%TO.P,D26,1,K*%
%TO.N,Net-(D14-K)*%
X69775000Y-82000000D03*
%TO.P,D26,2,A*%
%TO.N,Net-(D26-A)*%
X73075000Y-82000000D03*
%TD*%
%TO.P,D16,1,K*%
%TO.N,Net-(D10-K)*%
X96475000Y-34000000D03*
%TO.P,D16,2,A*%
%TO.N,Net-(D16-A)*%
X99775000Y-34000000D03*
%TD*%
%TO.P,D10,1,K*%
%TO.N,Net-(D10-K)*%
X96475000Y-17000000D03*
%TO.P,D10,2,A*%
%TO.N,Net-(D10-A)*%
X99775000Y-17000000D03*
%TD*%
%TO.P,D30,1,K*%
%TO.N,Net-(D12-K)*%
X24275000Y-30500000D03*
%TO.P,D30,2,A*%
%TO.N,Net-(D30-A)*%
X27575000Y-30500000D03*
%TD*%
D15*
%TO.P,D28,1,K*%
%TO.N,Net-(D10-K)*%
X31275000Y-94000000D03*
%TO.P,D28,2,A*%
%TO.N,Net-(D28-A)*%
X34132884Y-92350000D03*
%TD*%
D14*
%TO.P,D13,1,K*%
%TO.N,Net-(D13-K)*%
X42775000Y-22000000D03*
%TO.P,D13,2,A*%
%TO.N,Net-(D13-A)*%
X46075000Y-22000000D03*
%TD*%
%TO.P,D11,1,K*%
%TO.N,Net-(D11-K)*%
X78475000Y-12000000D03*
%TO.P,D11,2,A*%
%TO.N,Net-(D11-A)*%
X81775000Y-12000000D03*
%TD*%
%TO.P,D17,1,K*%
%TO.N,Net-(D11-K)*%
X78475000Y-29000000D03*
%TO.P,D17,2,A*%
%TO.N,Net-(D17-A)*%
X81775000Y-29000000D03*
%TD*%
%TO.P,D14,1,K*%
%TO.N,Net-(D14-K)*%
X132475000Y-39000000D03*
%TO.P,D14,2,A*%
%TO.N,Net-(D14-A)*%
X135775000Y-39000000D03*
%TD*%
%TO.P,D20,1,K*%
%TO.N,Net-(D14-K)*%
X132475000Y-56000000D03*
%TO.P,D20,2,A*%
%TO.N,Net-(D20-A)*%
X135775000Y-56000000D03*
%TD*%
%TO.P,D9,1,K*%
%TO.N,Net-(D15-K)*%
X114475000Y-22000000D03*
%TO.P,D9,2,A*%
%TO.N,Net-(D9-A)*%
X117775000Y-22000000D03*
%TD*%
%TO.P,D4,1,K*%
%TO.N,Net-(D10-K)*%
X96475000Y0D03*
%TO.P,D4,2,A*%
%TO.N,Net-(D4-A)*%
X99775000Y0D03*
%TD*%
%TO.P,D8,1,K*%
%TO.N,Net-(D14-K)*%
X132475000Y-22000000D03*
%TO.P,D8,2,A*%
%TO.N,Net-(D8-A)*%
X135775000Y-22000000D03*
%TD*%
%TO.P,D22,1,K*%
%TO.N,Net-(D10-K)*%
X96475000Y-51000000D03*
%TO.P,D22,2,A*%
%TO.N,Net-(D22-A)*%
X99775000Y-51000000D03*
%TD*%
D16*
%TO.P,D27,1,K*%
%TO.N,Net-(D15-K)*%
X49775001Y-85427053D03*
%TO.P,D27,2,A*%
%TO.N,Net-(D27-A)*%
X52962555Y-84572947D03*
%TD*%
D14*
%TO.P,D21,1,K*%
%TO.N,Net-(D15-K)*%
X114475000Y-56000000D03*
%TO.P,D21,2,A*%
%TO.N,Net-(D21-A)*%
X117775000Y-56000000D03*
%TD*%
%TO.P,D7,1,K*%
%TO.N,Net-(D13-K)*%
X42775000Y-5000000D03*
%TO.P,D7,2,A*%
%TO.N,Net-(D7-A)*%
X46075000Y-5000000D03*
%TD*%
%TO.P,D6,1,K*%
%TO.N,Net-(D12-K)*%
X60275000Y0D03*
%TO.P,D6,2,A*%
%TO.N,Net-(D6-A)*%
X63575000Y0D03*
%TD*%
%TO.P,D19,1,K*%
%TO.N,Net-(D13-K)*%
X42775000Y-39000000D03*
%TO.P,D19,2,A*%
%TO.N,Net-(D19-A)*%
X46075000Y-39000000D03*
%TD*%
%TO.P,D23,1,K*%
%TO.N,Net-(D11-K)*%
X78475000Y-46000000D03*
%TO.P,D23,2,A*%
%TO.N,Net-(D23-A)*%
X81775000Y-46000000D03*
%TD*%
%TO.P,D31,1,K*%
%TO.N,Net-(D13-K)*%
X24275000Y-13500000D03*
%TO.P,D31,2,A*%
%TO.N,Net-(D31-A)*%
X27575000Y-13500000D03*
%TD*%
%TO.P,D5,1,K*%
%TO.N,Net-(D11-K)*%
X78475000Y5000000D03*
%TO.P,D5,2,A*%
%TO.N,Net-(D5-A)*%
X81775000Y5000000D03*
%TD*%
%TO.P,D25,1,K*%
%TO.N,Net-(D13-K)*%
X42775000Y-56000000D03*
%TO.P,D25,2,A*%
%TO.N,Net-(D25-A)*%
X46075000Y-56000000D03*
%TD*%
%TO.P,D2,1,K*%
%TO.N,Net-(D14-K)*%
X132475000Y-5000000D03*
%TO.P,D2,2,A*%
%TO.N,Net-(D2-A)*%
X135775000Y-5000000D03*
%TD*%
%TO.P,D15,1,K*%
%TO.N,Net-(D15-K)*%
X114475000Y-39000000D03*
%TO.P,D15,2,A*%
%TO.N,Net-(D15-A)*%
X117775000Y-39000000D03*
%TD*%
%TO.P,D12,1,K*%
%TO.N,Net-(D12-K)*%
X60275000Y-17000000D03*
%TO.P,D12,2,A*%
%TO.N,Net-(D12-A)*%
X63575000Y-17000000D03*
%TD*%
%TO.P,D29,1,K*%
%TO.N,Net-(D11-K)*%
X24275000Y-47500000D03*
%TO.P,D29,2,A*%
%TO.N,Net-(D29-A)*%
X27575000Y-47500000D03*
%TD*%
%TO.P,D18,1,K*%
%TO.N,Net-(D12-K)*%
X60275000Y-34000000D03*
%TO.P,D18,2,A*%
%TO.N,Net-(D18-A)*%
X63575000Y-34000000D03*
%TD*%
%TO.P,D3,1,K*%
%TO.N,Net-(D15-K)*%
X114475000Y-5000000D03*
%TO.P,D3,2,A*%
%TO.N,Net-(D3-A)*%
X117775000Y-5000000D03*
%TD*%
%TO.P,D24,1,K*%
%TO.N,Net-(D12-K)*%
X60275000Y-51000000D03*
%TO.P,D24,2,A*%
%TO.N,Net-(D24-A)*%
X63575000Y-51000000D03*
%TD*%
D17*
%TO.N,Net-(D14-K)*%
X127400000Y-7400000D03*
X126000000Y-22400000D03*
X126000000Y-56000000D03*
X126000000Y-39600000D03*
X62000000Y-73000000D03*
%TO.N,Net-(D15-K)*%
X107800000Y-18400000D03*
X14000000Y-56600000D03*
X109400000Y-2800000D03*
X40400000Y-68600000D03*
X38600000Y-65800000D03*
X42000000Y-84000000D03*
X16200000Y-58800000D03*
X107800000Y-35800000D03*
X107800000Y-52800000D03*
%TO.N,Net-(D10-K)*%
X39400000Y-69000000D03*
X89600000Y-15600000D03*
X35600000Y-66000000D03*
X89600000Y-51000000D03*
X16400000Y-57000000D03*
X89600000Y-32600000D03*
X92400000Y2200000D03*
X39400000Y-72000000D03*
X13200000Y-53800000D03*
%TO.N,Net-(D11-K)*%
X71800000Y-46000000D03*
X71800000Y-11400000D03*
X11200000Y-32800000D03*
X16600000Y-43400000D03*
X20000000Y-45200000D03*
X71800000Y-28800000D03*
X72800000Y6200000D03*
%TO.N,Net-(D12-K)*%
X53600000Y-36800000D03*
X56800000Y2200000D03*
X17200000Y-27000000D03*
X20800000Y-28400000D03*
X6400000Y-26400000D03*
X53600000Y-55400000D03*
X53600000Y-19400000D03*
%TO.N,Net-(D13-K)*%
X42200000Y-40800000D03*
X39200000Y-2800000D03*
X4400000Y-24400000D03*
X42200000Y-23800000D03*
X21400000Y-17000000D03*
X33400000Y-17000000D03*
X40200000Y-59800000D03*
X17200000Y-17000000D03*
%TO.N,Net-(J1-Pad1)*%
X-6800000Y-33200000D03*
X1000000Y-35000000D03*
%TO.N,Net-(U1-GP0)*%
X2600000Y-30800000D03*
X14800000Y-14000000D03*
X14150000Y-50000D03*
X15800000Y-28800000D03*
%TO.N,Net-(U1-GP1)*%
X16400000Y-1200000D03*
X95600000Y13400000D03*
X78000000Y18600000D03*
X111800000Y8600000D03*
%TO.N,Net-(U1-GP2)*%
X36000000Y-1400000D03*
%TO.N,Net-(U1-GP3)*%
X31800000Y-16000000D03*
%TO.N,Net-(U1-GP4)*%
X22800000Y-34000000D03*
%TO.N,Net-(U1-GP5)*%
X16000000Y-12800000D03*
%TO.N,Net-(U1-GP12)*%
X14600000Y-65000000D03*
X1000000Y-23400000D03*
%TO.N,Net-(U1-GP13)*%
X13800000Y-67800000D03*
X-1600000Y-23600000D03*
%TO.N,Net-(U1-GP15)*%
X12800000Y-63600000D03*
X25600000Y-68400000D03*
%TD*%
D18*
%TO.N,Net-(D14-K)*%
X126000000Y-22400000D02*
X128600000Y-19800000D01*
X69775000Y-81575000D02*
X68000000Y-79800000D01*
X128600000Y-19800000D02*
X130400000Y-19800000D01*
X63000000Y-79800000D02*
X62000000Y-78800000D01*
X126000000Y-39600000D02*
X128600000Y-37000000D01*
X132475000Y-55875000D02*
X132475000Y-56000000D01*
X132475000Y-38875000D02*
X130600000Y-37000000D01*
X132475000Y-5725000D02*
X130800000Y-7400000D01*
X69775000Y-82000000D02*
X69775000Y-81575000D01*
X62000000Y-78800000D02*
X62000000Y-73000000D01*
X132475000Y-21875000D02*
X132475000Y-22000000D01*
X126000000Y-56000000D02*
X127800000Y-54200000D01*
X130400000Y-19800000D02*
X132475000Y-21875000D01*
X127800000Y-54200000D02*
X130800000Y-54200000D01*
X132475000Y-5000000D02*
X132475000Y-5725000D01*
X130800000Y-7400000D02*
X127400000Y-7400000D01*
X68000000Y-79800000D02*
X63000000Y-79800000D01*
X130600000Y-37000000D02*
X128600000Y-37000000D01*
X132475000Y-39000000D02*
X132475000Y-38875000D01*
X130800000Y-54200000D02*
X132475000Y-55875000D01*
%TO.N,Net-(D2-A)*%
X142775000Y-2025000D02*
X142775000Y3800000D01*
X139800000Y-5000000D02*
X142775000Y-2025000D01*
X135775000Y-5000000D02*
X139800000Y-5000000D01*
%TO.N,Net-(D3-A)*%
X117775000Y-5000000D02*
X121600000Y-5000000D01*
X121600000Y-5000000D02*
X124775000Y-1825000D01*
X124775000Y-1825000D02*
X124775000Y3800000D01*
%TO.N,Net-(D15-K)*%
X114475000Y-39000000D02*
X114475000Y-38475000D01*
X39800000Y-65800000D02*
X38600000Y-65800000D01*
X48000000Y-84000000D02*
X42000000Y-84000000D01*
X109000000Y-37000000D02*
X107800000Y-35800000D01*
X113000000Y-37000000D02*
X109000000Y-37000000D01*
X109200000Y-19800000D02*
X112400000Y-19800000D01*
X107800000Y-18400000D02*
X109200000Y-19800000D01*
X112400000Y-53800000D02*
X108800000Y-53800000D01*
X114475000Y-5000000D02*
X114475000Y-4875000D01*
X114475000Y-21875000D02*
X114475000Y-22000000D01*
X114475000Y-38475000D02*
X113000000Y-37000000D01*
X114475000Y-56000000D02*
X114475000Y-55875000D01*
X40400000Y-68600000D02*
X40400000Y-66400000D01*
X49775001Y-85427053D02*
X49427053Y-85427053D01*
X114475000Y-4875000D02*
X112400000Y-2800000D01*
X112400000Y-19800000D02*
X114475000Y-21875000D01*
X49427053Y-85427053D02*
X48000000Y-84000000D01*
X16200000Y-58800000D02*
X14000000Y-56600000D01*
X114475000Y-55875000D02*
X112400000Y-53800000D01*
X40400000Y-66400000D02*
X39800000Y-65800000D01*
X108800000Y-53800000D02*
X107800000Y-52800000D01*
X112400000Y-2800000D02*
X109400000Y-2800000D01*
%TO.N,Net-(D10-K)*%
X91400000Y-49200000D02*
X89600000Y-51000000D01*
X95000000Y-15000000D02*
X90200000Y-15000000D01*
X90200000Y-32000000D02*
X89600000Y-32600000D01*
X34000000Y-95200000D02*
X39400000Y-89800000D01*
X96475000Y-16475000D02*
X95000000Y-15000000D01*
X95000000Y-32000000D02*
X90200000Y-32000000D01*
X94400000Y2200000D02*
X92400000Y2200000D01*
X39400000Y-89800000D02*
X39400000Y-73200000D01*
X96475000Y-34000000D02*
X96475000Y-33475000D01*
X39400000Y-72000000D02*
X39400000Y-72200000D01*
X36600000Y-68000000D02*
X35600000Y-67000000D01*
X96475000Y-17000000D02*
X96475000Y-16475000D01*
X96475000Y-33475000D02*
X95000000Y-32000000D01*
X94800000Y-49325000D02*
X94800000Y-49200000D01*
X90200000Y-15000000D02*
X89600000Y-15600000D01*
X96475000Y125000D02*
X94400000Y2200000D01*
X16400000Y-57000000D02*
X13200000Y-53800000D01*
X35600000Y-67000000D02*
X35600000Y-66000000D01*
X96475000Y0D02*
X96475000Y125000D01*
X38400000Y-68000000D02*
X36600000Y-68000000D01*
X32475000Y-95200000D02*
X32600000Y-95200000D01*
X39400000Y-69000000D02*
X38400000Y-68000000D01*
X32600000Y-95200000D02*
X34000000Y-95200000D01*
X96475000Y-51000000D02*
X94800000Y-49325000D01*
X39400000Y-73200000D02*
X39400000Y-72000000D01*
X31275000Y-94000000D02*
X32475000Y-95200000D01*
X94800000Y-49200000D02*
X91400000Y-49200000D01*
%TO.N,Net-(D4-A)*%
X99775000Y0D02*
X103600000Y0D01*
X103600000Y0D02*
X106775000Y3175000D01*
X106775000Y3175000D02*
X106775000Y8800000D01*
%TO.N,Net-(D5-A)*%
X86000000Y5000000D02*
X88775000Y7775000D01*
X88775000Y7775000D02*
X88775000Y13800000D01*
X81775000Y5000000D02*
X86000000Y5000000D01*
%TO.N,Net-(D11-K)*%
X73800000Y-44000000D02*
X76475000Y-44000000D01*
X73400000Y-27200000D02*
X76675000Y-27200000D01*
X16600000Y-43400000D02*
X16600000Y-37799000D01*
X77000000Y7000000D02*
X73600000Y7000000D01*
X76200000Y-9600000D02*
X78475000Y-11875000D01*
X78475000Y-46000000D02*
X76475000Y-44000000D01*
X71800000Y-46000000D02*
X73800000Y-44000000D01*
X76200000Y-9600000D02*
X73600000Y-9600000D01*
X71800000Y-28800000D02*
X73400000Y-27200000D01*
X73600000Y7000000D02*
X72800000Y6200000D01*
X71800000Y-11400000D02*
X73600000Y-9600000D01*
X11601000Y-32800000D02*
X11200000Y-32800000D01*
X24275000Y-47500000D02*
X24275000Y-46875000D01*
X16600000Y-37799000D02*
X11601000Y-32800000D01*
X78475000Y-11875000D02*
X78475000Y-12000000D01*
X78475000Y-29000000D02*
X76675000Y-27200000D01*
X24275000Y-46875000D02*
X22600000Y-45200000D01*
X22600000Y-45200000D02*
X20000000Y-45200000D01*
X78475000Y5000000D02*
X78475000Y5525000D01*
X78475000Y5525000D02*
X77000000Y7000000D01*
%TO.N,Net-(D6-A)*%
X70775000Y3175000D02*
X70775000Y8800000D01*
X67600000Y0D02*
X70775000Y3175000D01*
X63575000Y0D02*
X67600000Y0D01*
%TO.N,Net-(D12-K)*%
X6800000Y-26800000D02*
X7000000Y-27000000D01*
X60275000Y0D02*
X60275000Y725000D01*
X24275000Y-29275000D02*
X23400000Y-28400000D01*
X54400000Y-16800000D02*
X56200000Y-15000000D01*
X53600000Y-19400000D02*
X54400000Y-18600000D01*
X59000000Y-54400000D02*
X54600000Y-54400000D01*
X54200000Y-36200000D02*
X53600000Y-36800000D01*
X23400000Y-28400000D02*
X20800000Y-28400000D01*
X7000000Y-27000000D02*
X17200000Y-27000000D01*
X54600000Y-54400000D02*
X53600000Y-55400000D01*
X56200000Y-15000000D02*
X59400000Y-15000000D01*
X60275000Y725000D02*
X58800000Y2200000D01*
X60275000Y-35525000D02*
X59600000Y-36200000D01*
X60275000Y-34000000D02*
X60275000Y-35525000D01*
X60275000Y-51000000D02*
X60275000Y-53125000D01*
X59600000Y-36200000D02*
X54200000Y-36200000D01*
X24275000Y-30500000D02*
X24275000Y-29275000D01*
X60275000Y-17000000D02*
X60275000Y-15875000D01*
X54400000Y-18600000D02*
X54400000Y-16800000D01*
X60275000Y-15875000D02*
X59400000Y-15000000D01*
X60275000Y-53125000D02*
X59000000Y-54400000D01*
X6400000Y-26400000D02*
X6800000Y-26800000D01*
X58800000Y2200000D02*
X56800000Y2200000D01*
%TO.N,Net-(D7-A)*%
X52775000Y-3025000D02*
X52775000Y3800000D01*
X46075000Y-5000000D02*
X50800000Y-5000000D01*
X50800000Y-5000000D02*
X52775000Y-3025000D01*
%TO.N,Net-(D13-K)*%
X42775000Y-23225000D02*
X42200000Y-23800000D01*
X21400000Y-17000000D02*
X22750000Y-17000000D01*
X24275000Y-13500000D02*
X24275000Y-15475000D01*
X16200000Y-17600000D02*
X16200000Y-23400000D01*
X15200000Y-24400000D02*
X4400000Y-24400000D01*
X16200000Y-23400000D02*
X15200000Y-24400000D01*
X42775000Y-22000000D02*
X42775000Y-23225000D01*
X22750000Y-17000000D02*
X24275000Y-15475000D01*
X22750000Y-17000000D02*
X33400000Y-17000000D01*
X42775000Y-5000000D02*
X42775000Y-4575000D01*
X42775000Y-4575000D02*
X41000000Y-2800000D01*
X42775000Y-40225000D02*
X42200000Y-40800000D01*
X41000000Y-2800000D02*
X39200000Y-2800000D01*
X42775000Y-39000000D02*
X42775000Y-40225000D01*
X17200000Y-17000000D02*
X16800000Y-17000000D01*
X16800000Y-17000000D02*
X16200000Y-17600000D01*
X42775000Y-57225000D02*
X40200000Y-59800000D01*
X42775000Y-56000000D02*
X42775000Y-57225000D01*
%TO.N,Net-(D8-A)*%
X135775000Y-22000000D02*
X139800000Y-22000000D01*
X142775000Y-19025000D02*
X142775000Y-13200000D01*
X139800000Y-22000000D02*
X142775000Y-19025000D01*
%TO.N,Net-(D9-A)*%
X122175000Y-22000000D02*
X124775000Y-19400000D01*
X124775000Y-19400000D02*
X124775000Y-13200000D01*
X117775000Y-22000000D02*
X122175000Y-22000000D01*
%TO.N,Net-(D10-A)*%
X99775000Y-17000000D02*
X103800000Y-17000000D01*
X103800000Y-17000000D02*
X106775000Y-14025000D01*
X106775000Y-14025000D02*
X106775000Y-8200000D01*
%TO.N,Net-(D11-A)*%
X85800000Y-12000000D02*
X88775000Y-9025000D01*
X88775000Y-9025000D02*
X88775000Y-3200000D01*
X81775000Y-12000000D02*
X85800000Y-12000000D01*
%TO.N,Net-(D12-A)*%
X70775000Y-8200000D02*
X70775000Y-15025000D01*
X68800000Y-17000000D02*
X70775000Y-15025000D01*
X63575000Y-17000000D02*
X68800000Y-17000000D01*
%TO.N,Net-(D13-A)*%
X49400000Y-22000000D02*
X52775000Y-18625000D01*
X52775000Y-18625000D02*
X52775000Y-13200000D01*
X46075000Y-22000000D02*
X49400000Y-22000000D01*
%TO.N,Net-(D14-A)*%
X140000000Y-39000000D02*
X142775000Y-36225000D01*
X142775000Y-36225000D02*
X142775000Y-30200000D01*
X135775000Y-39000000D02*
X140000000Y-39000000D01*
%TO.N,Net-(D15-A)*%
X121600000Y-39000000D02*
X124775000Y-35825000D01*
X117775000Y-39000000D02*
X121600000Y-39000000D01*
X124775000Y-35825000D02*
X124775000Y-30200000D01*
%TO.N,Net-(D16-A)*%
X106775000Y-30625000D02*
X106775000Y-25200000D01*
X103400000Y-34000000D02*
X106775000Y-30625000D01*
X99775000Y-34000000D02*
X103400000Y-34000000D01*
%TO.N,Net-(D17-A)*%
X88775000Y-26025000D02*
X88775000Y-20200000D01*
X85800000Y-29000000D02*
X88775000Y-26025000D01*
X81775000Y-29000000D02*
X85800000Y-29000000D01*
%TO.N,Net-(D18-A)*%
X70775000Y-25200000D02*
X70775000Y-31825000D01*
X70775000Y-31825000D02*
X68600000Y-34000000D01*
X68600000Y-34000000D02*
X63575000Y-34000000D01*
%TO.N,Net-(D19-A)*%
X52775000Y-35625000D02*
X52775000Y-30200000D01*
X46075000Y-39000000D02*
X49400000Y-39000000D01*
X49400000Y-39000000D02*
X52775000Y-35625000D01*
%TO.N,Net-(D20-A)*%
X142775000Y-53425000D02*
X142775000Y-47200000D01*
X140200000Y-56000000D02*
X142775000Y-53425000D01*
X135775000Y-56000000D02*
X140200000Y-56000000D01*
%TO.N,Net-(D21-A)*%
X124775000Y-53225000D02*
X124775000Y-47200000D01*
X117775000Y-56000000D02*
X122000000Y-56000000D01*
X122000000Y-56000000D02*
X124775000Y-53225000D01*
%TO.N,Net-(D22-A)*%
X99775000Y-51000000D02*
X103400000Y-51000000D01*
X106775000Y-47625000D02*
X106775000Y-42200000D01*
X103400000Y-51000000D02*
X106775000Y-47625000D01*
%TO.N,Net-(D23-A)*%
X88775000Y-42825000D02*
X88775000Y-37200000D01*
X85600000Y-46000000D02*
X88775000Y-42825000D01*
X81775000Y-46000000D02*
X85600000Y-46000000D01*
%TO.N,Net-(D24-A)*%
X68200000Y-51000000D02*
X70800000Y-48400000D01*
X63575000Y-51000000D02*
X68200000Y-51000000D01*
X70775000Y-48375000D02*
X70775000Y-42200000D01*
X70800000Y-48400000D02*
X70775000Y-48375000D01*
%TO.N,Net-(D25-A)*%
X49600000Y-56000000D02*
X52775000Y-52825000D01*
X46075000Y-56000000D02*
X49600000Y-56000000D01*
X52775000Y-52825000D02*
X52775000Y-47200000D01*
%TO.N,Net-(D26-A)*%
X79775000Y-79025000D02*
X79775000Y-73200000D01*
X73075000Y-82000000D02*
X76800000Y-82000000D01*
X76800000Y-82000000D02*
X79775000Y-79025000D01*
%TO.N,Net-(D27-A)*%
X52962555Y-84572947D02*
X55335502Y-82200000D01*
X58200000Y-75327663D02*
X57001857Y-74129520D01*
X55335502Y-82200000D02*
X55800000Y-82200000D01*
X55800000Y-82200000D02*
X58200000Y-79800000D01*
X58200000Y-79800000D02*
X58200000Y-75327663D01*
%TO.N,Net-(D28-A)*%
X38000000Y-88482884D02*
X38000000Y-83722887D01*
X38000000Y-83722887D02*
X35236216Y-80959103D01*
X34132884Y-92350000D02*
X38000000Y-88482884D01*
%TO.N,Net-(D29-A)*%
X31875000Y-47500000D02*
X34775000Y-44600000D01*
X34775000Y-44600000D02*
X34775000Y-38700000D01*
X27575000Y-47500000D02*
X31875000Y-47500000D01*
%TO.N,Net-(D30-A)*%
X34775000Y-27825000D02*
X34775000Y-21700000D01*
X32100000Y-30500000D02*
X34775000Y-27825000D01*
X27575000Y-30500000D02*
X32100000Y-30500000D01*
%TO.N,Net-(D31-A)*%
X32900000Y-13475000D02*
X34775000Y-11600000D01*
X32900000Y-13500000D02*
X32900000Y-13475000D01*
X32900000Y-13500000D02*
X27575000Y-13500000D01*
X34775000Y-4700000D02*
X34775000Y-11600000D01*
D19*
%TO.N,Net-(J1-Pad1)*%
X400000Y-33200000D02*
X1000000Y-33800000D01*
X-6800000Y-33200000D02*
X400000Y-33200000D01*
X1000000Y-33800000D02*
X1000000Y-35000000D01*
D18*
%TO.N,Net-(U1-GP0)*%
X14250000Y-50000D02*
X14150000Y-50000D01*
X2600000Y-30800000D02*
X13800000Y-30800000D01*
X14800000Y-600000D02*
X14250000Y-50000D01*
X14800000Y-14000000D02*
X14800000Y-600000D01*
X13800000Y-30800000D02*
X15800000Y-28800000D01*
%TO.N,Net-(U1-GP1)*%
X42000000Y8400000D02*
X37400000Y8400000D01*
X35800000Y800000D02*
X35200000Y200000D01*
X76775000Y17375000D02*
X76775000Y16000000D01*
X58775000Y11000000D02*
X58775000Y12575000D01*
X128800000Y8600000D02*
X111800000Y8600000D01*
X111800000Y8600000D02*
X112775000Y7625000D01*
X75200000Y18600000D02*
X70000000Y13400000D01*
X58775000Y12575000D02*
X59600000Y13400000D01*
X35800000Y6800000D02*
X35800000Y800000D01*
X55800000Y13400000D02*
X54800000Y12400000D01*
X53000000Y8400000D02*
X42000000Y8400000D01*
X40775000Y7175000D02*
X42000000Y8400000D01*
X54800000Y12400000D02*
X54800000Y10200000D01*
X130775000Y6000000D02*
X130775000Y6625000D01*
X78000000Y18600000D02*
X76775000Y17375000D01*
X37400000Y8400000D02*
X35800000Y6800000D01*
X40775000Y6000000D02*
X40775000Y7175000D01*
X35200000Y200000D02*
X17800000Y200000D01*
X94775000Y12575000D02*
X94775000Y11000000D01*
X16400000Y-1200000D02*
X17800000Y200000D01*
X130775000Y6625000D02*
X128800000Y8600000D01*
X95600000Y13400000D02*
X94775000Y12575000D01*
X78000000Y18600000D02*
X75200000Y18600000D01*
X59600000Y13400000D02*
X55800000Y13400000D01*
X112775000Y7625000D02*
X112775000Y6000000D01*
X70000000Y13400000D02*
X59600000Y13400000D01*
X54800000Y10200000D02*
X53000000Y8400000D01*
%TO.N,Net-(U1-GP2)*%
X60000000Y-3600000D02*
X72000000Y-3600000D01*
X94775000Y-6000000D02*
X94775000Y-4425000D01*
X113600000Y-8600000D02*
X128375000Y-8600000D01*
X93000000Y-3400000D02*
X95800000Y-3400000D01*
X94775000Y-4425000D02*
X95800000Y-3400000D01*
X38400000Y-8400000D02*
X42000000Y-8400000D01*
X111200000Y-8600000D02*
X113600000Y-8600000D01*
X53400000Y-5000000D02*
X54800000Y-3600000D01*
X72800000Y0D02*
X74200000Y1400000D01*
X88200000Y1400000D02*
X93000000Y-3400000D01*
X72800000Y-2800000D02*
X72800000Y0D01*
X52600000Y-8400000D02*
X53400000Y-7600000D01*
X58775000Y-6000000D02*
X58775000Y-4825000D01*
X95800000Y-3400000D02*
X106000000Y-3400000D01*
X58775000Y-4825000D02*
X60000000Y-3600000D01*
X74200000Y1400000D02*
X77800000Y1400000D01*
X40775000Y-9625000D02*
X42000000Y-8400000D01*
X112775000Y-11000000D02*
X112775000Y-9425000D01*
X42000000Y-8400000D02*
X52600000Y-8400000D01*
X37200000Y-2600000D02*
X37200000Y-7200000D01*
X72000000Y-3600000D02*
X72800000Y-2800000D01*
X76775000Y375000D02*
X77800000Y1400000D01*
X76775000Y-1000000D02*
X76775000Y375000D01*
X106000000Y-3400000D02*
X111200000Y-8600000D01*
X77800000Y1400000D02*
X88200000Y1400000D01*
X40775000Y-11000000D02*
X40775000Y-9625000D01*
X128375000Y-8600000D02*
X130775000Y-11000000D01*
X112775000Y-9425000D02*
X113600000Y-8600000D01*
X37200000Y-7200000D02*
X38400000Y-8400000D01*
X54800000Y-3600000D02*
X60000000Y-3600000D01*
X36000000Y-1400000D02*
X37200000Y-2600000D01*
X53400000Y-7600000D02*
X53400000Y-5000000D01*
%TO.N,Net-(U1-GP3)*%
X77800000Y-15400000D02*
X73600000Y-15400000D01*
X76775000Y-16425000D02*
X77800000Y-15400000D01*
X59600000Y-20400000D02*
X54800000Y-20400000D01*
X70800000Y-20400000D02*
X59600000Y-20400000D01*
X130775000Y-28000000D02*
X130775000Y-27975000D01*
X94775000Y-23000000D02*
X94775000Y-21425000D01*
X111600000Y-25400000D02*
X106600000Y-20400000D01*
X58775000Y-23000000D02*
X58775000Y-21225000D01*
X71600000Y-17400000D02*
X71600000Y-19600000D01*
X37200000Y-23600000D02*
X37200000Y-19000000D01*
X58775000Y-21225000D02*
X59600000Y-20400000D01*
X38800000Y-25200000D02*
X37200000Y-23600000D01*
X76775000Y-18000000D02*
X76775000Y-16425000D01*
X53600000Y-24400000D02*
X52800000Y-25200000D01*
X40775000Y-26025000D02*
X41600000Y-25200000D01*
X34200000Y-16000000D02*
X32000000Y-16000000D01*
X40775000Y-28000000D02*
X40775000Y-26025000D01*
X92800000Y-20400000D02*
X87800000Y-15400000D01*
X32000000Y-16000000D02*
X31800000Y-16000000D01*
X53600000Y-21600000D02*
X53600000Y-24400000D01*
X52800000Y-25200000D02*
X41600000Y-25200000D01*
X41600000Y-25200000D02*
X38800000Y-25200000D01*
X54800000Y-20400000D02*
X53600000Y-21600000D01*
X128200000Y-25400000D02*
X113600000Y-25400000D01*
X95800000Y-20400000D02*
X92800000Y-20400000D01*
X71600000Y-19600000D02*
X70800000Y-20400000D01*
X37200000Y-19000000D02*
X34200000Y-16000000D01*
X106600000Y-20400000D02*
X95800000Y-20400000D01*
X130775000Y-27975000D02*
X128200000Y-25400000D01*
X112775000Y-26225000D02*
X113600000Y-25400000D01*
X73600000Y-15400000D02*
X71600000Y-17400000D01*
X87800000Y-15400000D02*
X77800000Y-15400000D01*
X112775000Y-28000000D02*
X112775000Y-26225000D01*
X94775000Y-21425000D02*
X95800000Y-20400000D01*
X113600000Y-25400000D02*
X111600000Y-25400000D01*
%TO.N,Net-(U1-GP4)*%
X35200000Y-34000000D02*
X22800000Y-34000000D01*
X76775000Y-35000000D02*
X76775000Y-33225000D01*
X76775000Y-33225000D02*
X77600000Y-32400000D01*
X40775000Y-45000000D02*
X40775000Y-43425000D01*
X73000000Y-33600000D02*
X74200000Y-32400000D01*
X56400000Y-37400000D02*
X59600000Y-37400000D01*
X55200000Y-40200000D02*
X55200000Y-38400000D01*
X113400000Y-42600000D02*
X128375000Y-42600000D01*
X111600000Y-42600000D02*
X106400000Y-37400000D01*
X73000000Y-35800000D02*
X73000000Y-33600000D01*
X128375000Y-42600000D02*
X130775000Y-45000000D01*
X42000000Y-42200000D02*
X53200000Y-42200000D01*
X71400000Y-37400000D02*
X73000000Y-35800000D01*
X37200000Y-36800000D02*
X37200000Y-36000000D01*
X92800000Y-37400000D02*
X87800000Y-32400000D01*
X93800000Y-37400000D02*
X92800000Y-37400000D01*
X87800000Y-32400000D02*
X77600000Y-32400000D01*
X38400000Y-42200000D02*
X37200000Y-41000000D01*
X112775000Y-43225000D02*
X113400000Y-42600000D01*
X42000000Y-42200000D02*
X38400000Y-42200000D01*
X74200000Y-32400000D02*
X77600000Y-32400000D01*
X112775000Y-45000000D02*
X112775000Y-43225000D01*
X40775000Y-43425000D02*
X42000000Y-42200000D01*
X58775000Y-38225000D02*
X59600000Y-37400000D01*
X55400000Y-38400000D02*
X55200000Y-38400000D01*
X37200000Y-36000000D02*
X35200000Y-34000000D01*
X113400000Y-42600000D02*
X111600000Y-42600000D01*
X37200000Y-41000000D02*
X37200000Y-36800000D01*
X58775000Y-40000000D02*
X58775000Y-38225000D01*
X59600000Y-37400000D02*
X71400000Y-37400000D01*
X56400000Y-37400000D02*
X55400000Y-38400000D01*
X94775000Y-38375000D02*
X93800000Y-37400000D01*
X53200000Y-42200000D02*
X55200000Y-40200000D01*
X106400000Y-37400000D02*
X93800000Y-37400000D01*
X94775000Y-40000000D02*
X94775000Y-38375000D01*
%TO.N,Net-(U1-GP5)*%
X22775000Y-36500000D02*
X19700000Y-36500000D01*
X18000000Y-38200000D02*
X18000000Y-49400000D01*
X16800000Y-12800000D02*
X16000000Y-12800000D01*
X42400000Y-69000000D02*
X41400000Y-70000000D01*
X31800000Y-69000000D02*
X31000000Y-68200000D01*
X19700000Y-36500000D02*
X18000000Y-38200000D01*
X18000000Y-49400000D02*
X20400000Y-51800000D01*
X18000000Y-14000000D02*
X16800000Y-12800000D01*
X44841345Y-69958655D02*
X45800000Y-69000000D01*
X18000000Y-6000000D02*
X18000000Y-14000000D01*
X42400000Y-69000000D02*
X45800000Y-69000000D01*
X22775000Y-2500000D02*
X21500000Y-2500000D01*
X61000000Y-71000000D02*
X59000000Y-69000000D01*
X31000000Y-53200000D02*
X31000000Y-68200000D01*
X21500000Y-2500000D02*
X18000000Y-6000000D01*
X31800000Y-69000000D02*
X32600000Y-69000000D01*
X22775000Y-19500000D02*
X19300000Y-19500000D01*
X59000000Y-69000000D02*
X45800000Y-69000000D01*
X23743911Y-80456089D02*
X29600000Y-74600000D01*
X18000000Y-20800000D02*
X18000000Y-38200000D01*
X39000000Y-70000000D02*
X38000000Y-69000000D01*
X29600000Y-72000000D02*
X32600000Y-69000000D01*
X29600000Y-51800000D02*
X31000000Y-53200000D01*
X44841345Y-75110311D02*
X44841345Y-69958655D01*
X41400000Y-70000000D02*
X39000000Y-70000000D01*
X32600000Y-69000000D02*
X38000000Y-69000000D01*
X18000000Y-14000000D02*
X18000000Y-20800000D01*
X19300000Y-19500000D02*
X18000000Y-20800000D01*
X23743911Y-85053848D02*
X23743911Y-80456089D01*
X20400000Y-51800000D02*
X29600000Y-51800000D01*
X29600000Y-74600000D02*
X29600000Y-72000000D01*
X67775000Y-71000000D02*
X61000000Y-71000000D01*
%TO.N,Net-(U1-GP12)*%
X14600000Y-63800000D02*
X14600000Y-61200000D01*
X6000000Y-44200000D02*
X5000000Y-43200000D01*
X14600000Y-63800000D02*
X14600000Y-65000000D01*
X6000000Y-52600000D02*
X6000000Y-44200000D01*
X5000000Y-43200000D02*
X5000000Y-34000000D01*
X14600000Y-61200000D02*
X6000000Y-52600000D01*
X2800000Y-31800000D02*
X1600000Y-31800000D01*
X5000000Y-34000000D02*
X2800000Y-31800000D01*
X1000000Y-31200000D02*
X1600000Y-31800000D01*
X1000000Y-31200000D02*
X1000000Y-23400000D01*
%TO.N,Net-(U1-GP13)*%
X4200000Y-43400000D02*
X4200000Y-34000000D01*
X2600000Y-32400000D02*
X-1000000Y-32400000D01*
X5200000Y-52800000D02*
X5200000Y-44400000D01*
X13800000Y-67800000D02*
X13800000Y-61400000D01*
X13800000Y-61400000D02*
X5200000Y-52800000D01*
X-1600000Y-31800000D02*
X-1600000Y-23600000D01*
X-1000000Y-32400000D02*
X-1600000Y-31800000D01*
X5200000Y-44400000D02*
X4200000Y-43400000D01*
X4200000Y-34000000D02*
X2600000Y-32400000D01*
%TO.N,Net-(U1-GP15)*%
X12800000Y-68400000D02*
X13800000Y-69400000D01*
X12800000Y-67400000D02*
X12800000Y-68400000D01*
X24600000Y-69400000D02*
X25600000Y-68400000D01*
X12800000Y-67400000D02*
X12800000Y-63600000D01*
X13800000Y-69400000D02*
X24600000Y-69400000D01*
%TD*%
M02*
