  0
SECTION
  2
HEADER
  9
$ANGBASE
  50
0.0
  9
$ANGDIR
  70
1
  9
$MEASUREMENT
  70
0
  0
ENDSEC
  0
SECTION
  2
TABLES
  0
TABLE
  2
LTYPE
  70
4
  0
LTYPE
  5
40F
  2
CONTINUOUS
  70
0
  3
Solid line
  72
65
  73
0
  40
0.0
  0
LTYPE
  5
410
  2
DASHDOT
 70
0
  3
Dash Dot ____ _ ____ _
 72
65
 73
4
 40
2.0
 49
1.25
 49
-0.25
 49
0.25
 49
-0.25
  0
LTYPE
  5
411
  2
DASHED
 70
0
  3
Dashed __ __ __ __ __
 72
65
 73
2
 40
0.75
 49
0.5
 49
-0.25
  0
LTYPE
  5
43B
  2
DOTTED
 70
0
  3
Dotted .  .  .  .
 72
65
 73
2
 40
0.2
 49
0.0
 49
-0.2
  0
ENDTAB
  0
TABLE
  2
STYLE
  70
4
  0
STYLE
  2
KICAD
  70
0
  40
0
  41
1
  42
1
  50
0
  71
0
  3
isocp.shx
  0
STYLE
  2
KICADB
  70
0
  40
0
  41
1
  42
1
  50
0
  71
0
  3
isocp.shx
  0
STYLE
  2
KICADI
  70
0
  40
0
  41
1
  42
1
  50
15
  71
0
  3
isocp.shx
  0
STYLE
  2
KICADBI
  70
0
  40
0
  41
1
  42
1
  50
15
  71
0
  3
isocp.shx
  0
ENDTAB
  0
TABLE
  2
LAYER
  70
1
  0
LAYER
  2
BLACK
  70
0
  62
7
  6
CONTINUOUS
  0
ENDTAB
  0
ENDSEC
  0
SECTION
  2
ENTITIES
0
LINE
8
BLACK
6
CONTINUOUS
10
5.1609997637795271
20
-2.6813896850393699
11
5.1623409055118108
21
-2.6822857874015749
0
LINE
8
BLACK
6
CONTINUOUS
10
5.1623409055118108
20
-2.6822857874015749
11
5.175981929133858
21
-2.6959268110236221
0
LINE
8
BLACK
6
CONTINUOUS
10
5.175981929133858
20
-2.6959268110236221
11
5.176878031496063
21
-2.6972679527559054
0
LINE
8
BLACK
6
CONTINUOUS
10
5.176878031496063
20
-2.6972679527559054
11
5.1771926771653538
21
-2.6988499212598422
0
LINE
8
BLACK
6
CONTINUOUS
10
5.1771926771653538
20
-2.6988499212598422
11
5.176878031496063
21
-2.7004318503937008
0
LINE
8
BLACK
6
CONTINUOUS
10
5.176878031496063
20
-2.7004318503937008
11
5.175981929133858
21
-2.7017729921259841
0
LINE
8
BLACK
6
CONTINUOUS
10
5.175981929133858
20
-2.7017729921259841
11
5.1428537007874011
21
-2.734901220472441
0
LINE
8
BLACK
6
CONTINUOUS
10
5.1428537007874011
20
-2.734901220472441
11
5.1415125590551183
21
-2.7357973228346455
0
LINE
8
BLACK
6
CONTINUOUS
10
5.1415125590551183
20
-2.7357973228346455
11
5.1399306299212597
21
-2.7361119685039368
0
LINE
8
BLACK
6
CONTINUOUS
10
5.1399306299212597
20
-2.7361119685039368
11
5.1383486614173224
21
-2.7357973228346455
0
LINE
8
BLACK
6
CONTINUOUS
10
5.1383486614173224
20
-2.7357973228346455
11
5.1370075196850395
21
-2.734901220472441
0
LINE
8
BLACK
6
CONTINUOUS
10
5.1370075196850395
20
-2.734901220472441
11
5.1233664960629923
21
-2.7212601968503938
0
LINE
8
BLACK
6
CONTINUOUS
10
5.1233664960629923
20
-2.7212601968503938
11
5.1224703937007874
21
-2.7199190551181101
0
LINE
8
BLACK
6
CONTINUOUS
10
5.1224703937007874
20
-2.7199190551181101
11
5.1221557480314956
21
-2.7183370866141732
0
LINE
8
BLACK
6
CONTINUOUS
10
5.1221557480314956
20
-2.7183370866141732
11
5.1224703937007874
21
-2.716755157480315
0
LINE
8
BLACK
6
CONTINUOUS
10
5.1224703937007874
20
-2.716755157480315
11
5.1233664960629923
21
-2.7154140157480313
0
LINE
8
BLACK
6
CONTINUOUS
10
5.1233664960629923
20
-2.7154140157480313
11
5.1564947244094483
21
-2.6822857874015749
0
LINE
8
BLACK
6
CONTINUOUS
10
5.1564947244094483
20
-2.6822857874015749
11
5.1578358661417321
21
-2.6813896850393699
0
LINE
8
BLACK
6
CONTINUOUS
10
5.1578358661417321
20
-2.6813896850393699
11
5.1594177952755906
21
-2.6810750393700786
0
LINE
8
BLACK
6
CONTINUOUS
10
5.1594177952755906
20
-2.6810750393700786
11
5.1609997637795271
21
-2.6813896850393699
0
LINE
8
BLACK
6
CONTINUOUS
10
5.1220253543307086
20
-2.6424153149606298
11
5.1233664960629923
21
-2.6433114173228347
0
LINE
8
BLACK
6
CONTINUOUS
10
5.1233664960629923
20
-2.6433114173228347
11
5.1370075196850395
21
-2.6569524409448819
0
LINE
8
BLACK
6
CONTINUOUS
10
5.1370075196850395
20
-2.6569524409448819
11
5.1379036220472436
21
-2.6582935826771652
0
LINE
8
BLACK
6
CONTINUOUS
10
5.1379036220472436
20
-2.6582935826771652
11
5.1382182677165353
21
-2.6598755511811021
0
LINE
8
BLACK
6
CONTINUOUS
10
5.1382182677165353
20
-2.6598755511811021
11
5.1379036220472436
21
-2.6614574803149607
0
LINE
8
BLACK
6
CONTINUOUS
10
5.1379036220472436
20
-2.6614574803149607
11
5.1370075196850395
21
-2.6627986220472439
0
LINE
8
BLACK
6
CONTINUOUS
10
5.1370075196850395
20
-2.6627986220472439
11
5.1038792913385826
21
-2.6959268503937008
0
LINE
8
BLACK
6
CONTINUOUS
10
5.1038792913385826
20
-2.6959268503937008
11
5.1025381496062989
21
-2.6968229527559053
0
LINE
8
BLACK
6
CONTINUOUS
10
5.1025381496062989
20
-2.6968229527559053
11
5.1009562204724412
21
-2.6971375984251966
0
LINE
8
BLACK
6
CONTINUOUS
10
5.1009562204724412
20
-2.6971375984251966
11
5.0993742519685039
21
-2.6968229527559053
0
LINE
8
BLACK
6
CONTINUOUS
10
5.0993742519685039
20
-2.6968229527559053
11
5.0980331102362202
21
-2.6959268503937008
0
LINE
8
BLACK
6
CONTINUOUS
10
5.0980331102362202
20
-2.6959268503937008
11
5.084392086614173
21
-2.6822858267716536
0
LINE
8
BLACK
6
CONTINUOUS
10
5.084392086614173
20
-2.6822858267716536
11
5.083495984251968
21
-2.6809446850393699
0
LINE
8
BLACK
6
CONTINUOUS
10
5.083495984251968
20
-2.6809446850393699
11
5.0831813385826772
21
-2.679362716535433
0
LINE
8
BLACK
6
CONTINUOUS
10
5.0831813385826772
20
-2.679362716535433
11
5.083495984251968
21
-2.6777807874015749
0
LINE
8
BLACK
6
CONTINUOUS
10
5.083495984251968
20
-2.6777807874015749
11
5.084392086614173
21
-2.6764396456692912
0
LINE
8
BLACK
6
CONTINUOUS
10
5.084392086614173
20
-2.6764396456692912
11
5.1175203149606299
21
-2.6433114173228347
0
LINE
8
BLACK
6
CONTINUOUS
10
5.1175203149606299
20
-2.6433114173228347
11
5.1188614566929136
21
-2.6424153149606298
0
LINE
8
BLACK
6
CONTINUOUS
10
5.1188614566929136
20
-2.6424153149606298
11
5.1204433858267713
21
-2.6421006692913385
0
LINE
8
BLACK
6
CONTINUOUS
10
5.1204433858267713
20
-2.6421006692913385
11
5.1220253543307086
21
-2.6424153149606298
0
LINE
8
BLACK
6
CONTINUOUS
10
5.083050984251968
20
-2.6034409055118108
11
5.0843921259842517
21
-2.6043370078740158
0
LINE
8
BLACK
6
CONTINUOUS
10
5.0843921259842517
20
-2.6043370078740158
11
5.0980331496062989
21
-2.617978031496063
0
LINE
8
BLACK
6
CONTINUOUS
10
5.0980331496062989
20
-2.617978031496063
11
5.0989292519685039
21
-2.6193191732283463
0
LINE
8
BLACK
6
CONTINUOUS
10
5.0989292519685039
20
-2.6193191732283463
11
5.0992438976377947
21
-2.6209011417322836
0
LINE
8
BLACK
6
CONTINUOUS
10
5.0992438976377947
20
-2.6209011417322836
11
5.0989292519685039
21
-2.6224830708661417
0
LINE
8
BLACK
6
CONTINUOUS
10
5.0989292519685039
20
-2.6224830708661417
11
5.0980331496062989
21
-2.623824212598425
0
LINE
8
BLACK
6
CONTINUOUS
10
5.0980331496062989
20
-2.623824212598425
11
5.064904921259842
21
-2.6569524409448819
0
LINE
8
BLACK
6
CONTINUOUS
10
5.064904921259842
20
-2.6569524409448819
11
5.0635637795275592
21
-2.6578485433070864
0
LINE
8
BLACK
6
CONTINUOUS
10
5.0635637795275592
20
-2.6578485433070864
11
5.0619818503937006
21
-2.6581631889763777
0
LINE
8
BLACK
6
CONTINUOUS
10
5.0619818503937006
20
-2.6581631889763777
11
5.0603998818897633
21
-2.6578485433070864
0
LINE
8
BLACK
6
CONTINUOUS
10
5.0603998818897633
20
-2.6578485433070864
11
5.0590587401574805
21
-2.6569524409448819
0
LINE
8
BLACK
6
CONTINUOUS
10
5.0590587401574805
20
-2.6569524409448819
11
5.0454177165354333
21
-2.6433114173228347
0
LINE
8
BLACK
6
CONTINUOUS
10
5.0454177165354333
20
-2.6433114173228347
11
5.0445216141732283
21
-2.641970275590551
0
LINE
8
BLACK
6
CONTINUOUS
10
5.0445216141732283
20
-2.641970275590551
11
5.0442069685039366
21
-2.6403883070866141
0
LINE
8
BLACK
6
CONTINUOUS
10
5.0442069685039366
20
-2.6403883070866141
11
5.0445216141732283
21
-2.638806377952756
0
LINE
8
BLACK
6
CONTINUOUS
10
5.0445216141732283
20
-2.638806377952756
11
5.0454177165354333
21
-2.6374652362204722
0
LINE
8
BLACK
6
CONTINUOUS
10
5.0454177165354333
20
-2.6374652362204722
11
5.0785459448818893
21
-2.6043370078740158
0
LINE
8
BLACK
6
CONTINUOUS
10
5.0785459448818893
20
-2.6043370078740158
11
5.079887086614173
21
-2.6034409055118108
0
LINE
8
BLACK
6
CONTINUOUS
10
5.079887086614173
20
-2.6034409055118108
11
5.0814690157480316
21
-2.6031262598425196
0
LINE
8
BLACK
6
CONTINUOUS
10
5.0814690157480316
20
-2.6031262598425196
11
5.083050984251968
21
-2.6034409055118108
0
LINE
8
BLACK
6
CONTINUOUS
10
5.3892783070866139
20
-2.4531111417322835
11
5.3906194488188977
21
-2.454007244094488
0
LINE
8
BLACK
6
CONTINUOUS
10
5.3906194488188977
20
-2.454007244094488
11
5.4042604724409449
21
-2.4676482677165352
0
LINE
8
BLACK
6
CONTINUOUS
10
5.4042604724409449
20
-2.4676482677165352
11
5.4051565748031498
21
-2.468989409448819
0
LINE
8
BLACK
6
CONTINUOUS
10
5.4051565748031498
20
-2.468989409448819
11
5.4054712204724407
21
-2.4705713779527558
0
LINE
8
BLACK
6
CONTINUOUS
10
5.4054712204724407
20
-2.4705713779527558
11
5.4051565748031498
21
-2.472153307086614
0
LINE
8
BLACK
6
CONTINUOUS
10
5.4051565748031498
20
-2.472153307086614
11
5.4042604724409449
21
-2.4734944488188977
0
LINE
8
BLACK
6
CONTINUOUS
10
5.4042604724409449
20
-2.4734944488188977
11
5.371132244094488
21
-2.5066226771653541
0
LINE
8
BLACK
6
CONTINUOUS
10
5.371132244094488
20
-2.5066226771653541
11
5.3697911023622042
21
-2.5075187795275591
0
LINE
8
BLACK
6
CONTINUOUS
10
5.3697911023622042
20
-2.5075187795275591
11
5.3682091732283466
21
-2.5078334251968504
0
LINE
8
BLACK
6
CONTINUOUS
10
5.3682091732283466
20
-2.5078334251968504
11
5.3666272047244092
21
-2.5075187795275591
0
LINE
8
BLACK
6
CONTINUOUS
10
5.3666272047244092
20
-2.5075187795275591
11
5.3652860629921255
21
-2.5066226771653541
0
LINE
8
BLACK
6
CONTINUOUS
10
5.3652860629921255
20
-2.5066226771653541
11
5.3516450393700783
21
-2.4929816535433069
0
LINE
8
BLACK
6
CONTINUOUS
10
5.3516450393700783
20
-2.4929816535433069
11
5.3507489370078742
21
-2.4916405118110236
0
LINE
8
BLACK
6
CONTINUOUS
10
5.3507489370078742
20
-2.4916405118110236
11
5.3504342913385825
21
-2.4900585433070868
0
LINE
8
BLACK
6
CONTINUOUS
10
5.3504342913385825
20
-2.4900585433070868
11
5.3507489370078742
21
-2.4884766141732282
0
LINE
8
BLACK
6
CONTINUOUS
10
5.3507489370078742
20
-2.4884766141732282
11
5.3516450393700783
21
-2.4871354724409449
0
LINE
8
BLACK
6
CONTINUOUS
10
5.3516450393700783
20
-2.4871354724409449
11
5.3847732677165352
21
-2.454007244094488
0
LINE
8
BLACK
6
CONTINUOUS
10
5.3847732677165352
20
-2.454007244094488
11
5.3861144094488189
21
-2.4531111417322835
0
LINE
8
BLACK
6
CONTINUOUS
10
5.3861144094488189
20
-2.4531111417322835
11
5.3876963385826766
21
-2.4527964960629922
0
LINE
8
BLACK
6
CONTINUOUS
10
5.3876963385826766
20
-2.4527964960629922
11
5.3892783070866139
21
-2.4531111417322835
0
LINE
8
BLACK
6
CONTINUOUS
10
5.3503039370078742
20
-2.4141367322834646
11
5.351645078740157
21
-2.4150328346456691
0
LINE
8
BLACK
6
CONTINUOUS
10
5.351645078740157
20
-2.4150328346456691
11
5.3652861023622043
21
-2.4286738582677163
0
LINE
8
BLACK
6
CONTINUOUS
10
5.3652861023622043
20
-2.4286738582677163
11
5.3661822047244092
21
-2.430015
0
LINE
8
BLACK
6
CONTINUOUS
10
5.3661822047244092
20
-2.430015
11
5.3664968503937009
21
-2.4315969685039369
0
LINE
8
BLACK
6
CONTINUOUS
10
5.3664968503937009
20
-2.4315969685039369
11
5.3661822047244092
21
-2.433178897637795
0
LINE
8
BLACK
6
CONTINUOUS
10
5.3661822047244092
20
-2.433178897637795
11
5.3652861023622043
21
-2.4345200393700788
0
LINE
8
BLACK
6
CONTINUOUS
10
5.3652861023622043
20
-2.4345200393700788
11
5.3321578740157483
21
-2.4676482677165352
0
LINE
8
BLACK
6
CONTINUOUS
10
5.3321578740157483
20
-2.4676482677165352
11
5.3308167322834645
21
-2.4685443700787402
0
LINE
8
BLACK
6
CONTINUOUS
10
5.3308167322834645
20
-2.4685443700787402
11
5.329234803149606
21
-2.4688590157480315
0
LINE
8
BLACK
6
CONTINUOUS
10
5.329234803149606
20
-2.4688590157480315
11
5.3276528346456695
21
-2.4685443700787402
0
LINE
8
BLACK
6
CONTINUOUS
10
5.3276528346456695
20
-2.4685443700787402
11
5.3263116929133858
21
-2.4676482677165352
0
LINE
8
BLACK
6
CONTINUOUS
10
5.3263116929133858
20
-2.4676482677165352
11
5.3126706692913386
21
-2.454007244094488
0
LINE
8
BLACK
6
CONTINUOUS
10
5.3126706692913386
20
-2.454007244094488
11
5.3117745669291336
21
-2.4526661023622047
0
LINE
8
BLACK
6
CONTINUOUS
10
5.3117745669291336
20
-2.4526661023622047
11
5.3114599212598428
21
-2.4510841338582678
0
LINE
8
BLACK
6
CONTINUOUS
10
5.3114599212598428
20
-2.4510841338582678
11
5.3117745669291336
21
-2.4495022047244093
0
LINE
8
BLACK
6
CONTINUOUS
10
5.3117745669291336
20
-2.4495022047244093
11
5.3126706692913386
21
-2.448161062992126
0
LINE
8
BLACK
6
CONTINUOUS
10
5.3126706692913386
20
-2.448161062992126
11
5.3457988976377955
21
-2.4150328346456691
0
LINE
8
BLACK
6
CONTINUOUS
10
5.3457988976377955
20
-2.4150328346456691
11
5.3471400393700783
21
-2.4141367322834646
0
LINE
8
BLACK
6
CONTINUOUS
10
5.3471400393700783
20
-2.4141367322834646
11
5.3487219685039369
21
-2.4138220866141733
0
LINE
8
BLACK
6
CONTINUOUS
10
5.3487219685039369
20
-2.4138220866141733
11
5.3503039370078742
21
-2.4141367322834646
0
LINE
8
BLACK
6
CONTINUOUS
10
5.3113295275590549
20
-2.3751623622047244
11
5.3126706692913386
21
-2.3760584645669289
0
LINE
8
BLACK
6
CONTINUOUS
10
5.3126706692913386
20
-2.3760584645669289
11
5.3263116929133858
21
-2.3896994881889762
0
LINE
8
BLACK
6
CONTINUOUS
10
5.3263116929133858
20
-2.3896994881889762
11
5.3272077952755907
21
-2.3910406299212599
0
LINE
8
BLACK
6
CONTINUOUS
10
5.3272077952755907
20
-2.3910406299212599
11
5.3275224409448816
21
-2.3926225984251968
0
LINE
8
BLACK
6
CONTINUOUS
10
5.3275224409448816
20
-2.3926225984251968
11
5.3272077952755907
21
-2.3942045275590549
0
LINE
8
BLACK
6
CONTINUOUS
10
5.3272077952755907
20
-2.3942045275590549
11
5.3263116929133858
21
-2.3955456692913386
0
LINE
8
BLACK
6
CONTINUOUS
10
5.3263116929133858
20
-2.3955456692913386
11
5.2931834645669289
21
-2.4286738976377951
0
LINE
8
BLACK
6
CONTINUOUS
10
5.2931834645669289
20
-2.4286738976377951
11
5.2918423228346452
21
-2.42957
0
LINE
8
BLACK
6
CONTINUOUS
10
5.2918423228346452
20
-2.42957
11
5.2902603937007875
21
-2.4298846456692913
0
LINE
8
BLACK
6
CONTINUOUS
10
5.2902603937007875
20
-2.4298846456692913
11
5.2886784251968502
21
-2.42957
0
LINE
8
BLACK
6
CONTINUOUS
10
5.2886784251968502
20
-2.42957
11
5.2873372834645664
21
-2.4286738976377951
0
LINE
8
BLACK
6
CONTINUOUS
10
5.2873372834645664
20
-2.4286738976377951
11
5.2736962598425192
21
-2.4150328740157478
0
LINE
8
BLACK
6
CONTINUOUS
10
5.2736962598425192
20
-2.4150328740157478
11
5.2728001574803152
21
-2.4136917322834646
0
LINE
8
BLACK
6
CONTINUOUS
10
5.2728001574803152
20
-2.4136917322834646
11
5.2724855118110234
21
-2.4121097637795277
0
LINE
8
BLACK
6
CONTINUOUS
10
5.2724855118110234
20
-2.4121097637795277
11
5.2728001574803152
21
-2.4105278346456691
0
LINE
8
BLACK
6
CONTINUOUS
10
5.2728001574803152
20
-2.4105278346456691
11
5.2736962598425192
21
-2.4091866929133858
0
LINE
8
BLACK
6
CONTINUOUS
10
5.2736962598425192
20
-2.4091866929133858
11
5.3068244881889761
21
-2.3760584645669289
0
LINE
8
BLACK
6
CONTINUOUS
10
5.3068244881889761
20
-2.3760584645669289
11
5.3081656299212598
21
-2.3751623622047244
0
LINE
8
BLACK
6
CONTINUOUS
10
5.3081656299212598
20
-2.3751623622047244
11
5.3097475590551184
21
-2.3748477165354331
0
LINE
8
BLACK
6
CONTINUOUS
10
5.3097475590551184
20
-2.3748477165354331
11
5.3113295275590549
21
-2.3751623622047244
0
LINE
8
BLACK
6
CONTINUOUS
10
4.9132153937007876
20
-1.8078358267716534
11
4.9164085433070861
21
-1.8099694094488188
0
LINE
8
BLACK
6
CONTINUOUS
10
4.9164085433070861
20
-1.8099694094488188
11
4.9185421259842519
21
-1.8131625590551181
0
LINE
8
BLACK
6
CONTINUOUS
10
4.9185421259842519
20
-1.8131625590551181
11
4.9192913385826769
21
-1.8169291338582676
0
LINE
8
BLACK
6
CONTINUOUS
10
4.9192913385826769
20
-1.8169291338582676
11
4.9192913385826769
21
-1.8523622047244095
0
LINE
8
BLACK
6
CONTINUOUS
10
4.9192913385826769
20
-1.8523622047244095
11
4.9185421259842519
21
-1.8561287795275589
0
LINE
8
BLACK
6
CONTINUOUS
10
4.9185421259842519
20
-1.8561287795275589
11
4.9164085433070861
21
-1.8593219291338583
0
LINE
8
BLACK
6
CONTINUOUS
10
4.9164085433070861
20
-1.8593219291338583
11
4.9132153937007876
21
-1.8614555118110236
0
LINE
8
BLACK
6
CONTINUOUS
10
4.9132153937007876
20
-1.8614555118110236
11
4.909448818897638
21
-1.8622047244094488
0
LINE
8
BLACK
6
CONTINUOUS
10
4.909448818897638
20
-1.8622047244094488
11
4.8838582677165352
21
-1.8622047244094488
0
LINE
8
BLACK
6
CONTINUOUS
10
4.8838582677165352
20
-1.8622047244094488
11
4.8800916929133855
21
-1.8614555118110236
0
LINE
8
BLACK
6
CONTINUOUS
10
4.8800916929133855
20
-1.8614555118110236
11
4.8768985433070862
21
-1.8593219291338583
0
LINE
8
BLACK
6
CONTINUOUS
10
4.8768985433070862
20
-1.8593219291338583
11
4.8747649606299213
21
-1.8561287795275589
0
LINE
8
BLACK
6
CONTINUOUS
10
4.8747649606299213
20
-1.8561287795275589
11
4.8740157480314963
21
-1.8523622047244095
0
LINE
8
BLACK
6
CONTINUOUS
10
4.8740157480314963
20
-1.8523622047244095
11
4.8740157480314963
21
-1.8169291338582676
0
LINE
8
BLACK
6
CONTINUOUS
10
4.8740157480314963
20
-1.8169291338582676
11
4.8747649606299213
21
-1.8131625590551181
0
LINE
8
BLACK
6
CONTINUOUS
10
4.8747649606299213
20
-1.8131625590551181
11
4.8768985433070862
21
-1.8099694094488188
0
LINE
8
BLACK
6
CONTINUOUS
10
4.8768985433070862
20
-1.8099694094488188
11
4.8800916929133855
21
-1.8078358267716534
0
LINE
8
BLACK
6
CONTINUOUS
10
4.8800916929133855
20
-1.8078358267716534
11
4.8838582677165352
21
-1.8070866141732282
0
LINE
8
BLACK
6
CONTINUOUS
10
4.8838582677165352
20
-1.8070866141732282
11
4.909448818897638
21
-1.8070866141732282
0
LINE
8
BLACK
6
CONTINUOUS
10
4.909448818897638
20
-1.8070866141732282
11
4.9132153937007876
21
-1.8078358267716534
0
LINE
8
BLACK
6
CONTINUOUS
10
4.9939240551181099
20
-1.8078358267716534
11
4.9971172047244092
21
-1.8099694094488188
0
LINE
8
BLACK
6
CONTINUOUS
10
4.9971172047244092
20
-1.8099694094488188
11
4.999250787401575
21
-1.8131625590551181
0
LINE
8
BLACK
6
CONTINUOUS
10
4.999250787401575
20
-1.8131625590551181
11
5.
21
-1.8169291338582676
0
LINE
8
BLACK
6
CONTINUOUS
10
5.
20
-1.8169291338582676
11
5.
21
-1.8523622047244095
0
LINE
8
BLACK
6
CONTINUOUS
10
5.
20
-1.8523622047244095
11
4.999250787401575
21
-1.8561287795275589
0
LINE
8
BLACK
6
CONTINUOUS
10
4.999250787401575
20
-1.8561287795275589
11
4.9971172047244092
21
-1.8593219291338583
0
LINE
8
BLACK
6
CONTINUOUS
10
4.9971172047244092
20
-1.8593219291338583
11
4.9939240551181099
21
-1.8614555118110236
0
LINE
8
BLACK
6
CONTINUOUS
10
4.9939240551181099
20
-1.8614555118110236
11
4.9901574803149602
21
-1.8622047244094488
0
LINE
8
BLACK
6
CONTINUOUS
10
4.9901574803149602
20
-1.8622047244094488
11
4.9645669291338583
21
-1.8622047244094488
0
LINE
8
BLACK
6
CONTINUOUS
10
4.9645669291338583
20
-1.8622047244094488
11
4.9608003543307087
21
-1.8614555118110236
0
LINE
8
BLACK
6
CONTINUOUS
10
4.9608003543307087
20
-1.8614555118110236
11
4.9576072047244093
21
-1.8593219291338583
0
LINE
8
BLACK
6
CONTINUOUS
10
4.9576072047244093
20
-1.8593219291338583
11
4.9554736220472444
21
-1.8561287795275589
0
LINE
8
BLACK
6
CONTINUOUS
10
4.9554736220472444
20
-1.8561287795275589
11
4.9547244094488185
21
-1.8523622047244095
0
LINE
8
BLACK
6
CONTINUOUS
10
4.9547244094488185
20
-1.8523622047244095
11
4.9547244094488185
21
-1.8169291338582676
0
LINE
8
BLACK
6
CONTINUOUS
10
4.9547244094488185
20
-1.8169291338582676
11
4.9554736220472444
21
-1.8131625590551181
0
LINE
8
BLACK
6
CONTINUOUS
10
4.9554736220472444
20
-1.8131625590551181
11
4.9576072047244093
21
-1.8099694094488188
0
LINE
8
BLACK
6
CONTINUOUS
10
4.9576072047244093
20
-1.8099694094488188
11
4.9608003543307087
21
-1.8078358267716534
0
LINE
8
BLACK
6
CONTINUOUS
10
4.9608003543307087
20
-1.8078358267716534
11
4.9645669291338583
21
-1.8070866141732282
0
LINE
8
BLACK
6
CONTINUOUS
10
4.9645669291338583
20
-1.8070866141732282
11
4.9901574803149602
21
-1.8070866141732282
0
LINE
8
BLACK
6
CONTINUOUS
10
4.9901574803149602
20
-1.8070866141732282
11
4.9939240551181099
21
-1.8078358267716534
0
LINE
8
BLACK
6
CONTINUOUS
10
4.9151838976377951
20
-1.6582295275590551
11
4.9183770472440944
21
-1.6603631102362204
0
LINE
8
BLACK
6
CONTINUOUS
10
4.9183770472440944
20
-1.6603631102362204
11
4.9205106299212593
21
-1.6635562598425198
0
LINE
8
BLACK
6
CONTINUOUS
10
4.9205106299212593
20
-1.6635562598425198
11
4.9212598425196852
21
-1.6673228346456692
0
LINE
8
BLACK
6
CONTINUOUS
10
4.9212598425196852
20
-1.6673228346456692
11
4.9212598425196852
21
-1.7027559055118109
0
LINE
8
BLACK
6
CONTINUOUS
10
4.9212598425196852
20
-1.7027559055118109
11
4.9205106299212593
21
-1.7065224803149606
0
LINE
8
BLACK
6
CONTINUOUS
10
4.9205106299212593
20
-1.7065224803149606
11
4.9183770472440944
21
-1.7097156299212597
0
LINE
8
BLACK
6
CONTINUOUS
10
4.9183770472440944
20
-1.7097156299212597
11
4.9151838976377951
21
-1.7118492125984253
0
LINE
8
BLACK
6
CONTINUOUS
10
4.9151838976377951
20
-1.7118492125984253
11
4.9114173228346454
21
-1.7125984251968505
0
LINE
8
BLACK
6
CONTINUOUS
10
4.9114173228346454
20
-1.7125984251968505
11
4.8838582677165352
21
-1.7125984251968505
0
LINE
8
BLACK
6
CONTINUOUS
10
4.8838582677165352
20
-1.7125984251968505
11
4.8800916929133855
21
-1.7118492125984253
0
LINE
8
BLACK
6
CONTINUOUS
10
4.8800916929133855
20
-1.7118492125984253
11
4.8768985433070862
21
-1.7097156299212597
0
LINE
8
BLACK
6
CONTINUOUS
10
4.8768985433070862
20
-1.7097156299212597
11
4.8747649606299213
21
-1.7065224803149606
0
LINE
8
BLACK
6
CONTINUOUS
10
4.8747649606299213
20
-1.7065224803149606
11
4.8740157480314963
21
-1.7027559055118109
0
LINE
8
BLACK
6
CONTINUOUS
10
4.8740157480314963
20
-1.7027559055118109
11
4.8740157480314963
21
-1.6673228346456692
0
LINE
8
BLACK
6
CONTINUOUS
10
4.8740157480314963
20
-1.6673228346456692
11
4.8747649606299213
21
-1.6635562598425198
0
LINE
8
BLACK
6
CONTINUOUS
10
4.8747649606299213
20
-1.6635562598425198
11
4.8768985433070862
21
-1.6603631102362204
0
LINE
8
BLACK
6
CONTINUOUS
10
4.8768985433070862
20
-1.6603631102362204
11
4.8800916929133855
21
-1.6582295275590551
0
LINE
8
BLACK
6
CONTINUOUS
10
4.8800916929133855
20
-1.6582295275590551
11
4.8838582677165352
21
-1.6574803149606299
0
LINE
8
BLACK
6
CONTINUOUS
10
4.8838582677165352
20
-1.6574803149606299
11
4.9114173228346454
21
-1.6574803149606299
0
LINE
8
BLACK
6
CONTINUOUS
10
4.9114173228346454
20
-1.6574803149606299
11
4.9151838976377951
21
-1.6582295275590551
0
LINE
8
BLACK
6
CONTINUOUS
10
4.9939240551181099
20
-1.6582295275590551
11
4.9971172047244092
21
-1.6603631102362204
0
LINE
8
BLACK
6
CONTINUOUS
10
4.9971172047244092
20
-1.6603631102362204
11
4.999250787401575
21
-1.6635562598425198
0
LINE
8
BLACK
6
CONTINUOUS
10
4.999250787401575
20
-1.6635562598425198
11
5.
21
-1.6673228346456692
0
LINE
8
BLACK
6
CONTINUOUS
10
5.
20
-1.6673228346456692
11
5.
21
-1.7027559055118109
0
LINE
8
BLACK
6
CONTINUOUS
10
5.
20
-1.7027559055118109
11
4.999250787401575
21
-1.7065224803149606
0
LINE
8
BLACK
6
CONTINUOUS
10
4.999250787401575
20
-1.7065224803149606
11
4.9971172047244092
21
-1.7097156299212597
0
LINE
8
BLACK
6
CONTINUOUS
10
4.9971172047244092
20
-1.7097156299212597
11
4.9939240551181099
21
-1.7118492125984253
0
LINE
8
BLACK
6
CONTINUOUS
10
4.9939240551181099
20
-1.7118492125984253
11
4.9901574803149602
21
-1.7125984251968505
0
LINE
8
BLACK
6
CONTINUOUS
10
4.9901574803149602
20
-1.7125984251968505
11
4.96259842519685
21
-1.7125984251968505
0
LINE
8
BLACK
6
CONTINUOUS
10
4.96259842519685
20
-1.7125984251968505
11
4.9588318503937003
21
-1.7118492125984253
0
LINE
8
BLACK
6
CONTINUOUS
10
4.9588318503937003
20
-1.7118492125984253
11
4.9556387007874019
21
-1.7097156299212597
0
LINE
8
BLACK
6
CONTINUOUS
10
4.9556387007874019
20
-1.7097156299212597
11
4.9535051181102361
21
-1.7065224803149606
0
LINE
8
BLACK
6
CONTINUOUS
10
4.9535051181102361
20
-1.7065224803149606
11
4.9527559055118111
21
-1.7027559055118109
0
LINE
8
BLACK
6
CONTINUOUS
10
4.9527559055118111
20
-1.7027559055118109
11
4.9527559055118111
21
-1.6673228346456692
0
LINE
8
BLACK
6
CONTINUOUS
10
4.9527559055118111
20
-1.6673228346456692
11
4.9535051181102361
21
-1.6635562598425198
0
LINE
8
BLACK
6
CONTINUOUS
10
4.9535051181102361
20
-1.6635562598425198
11
4.9556387007874019
21
-1.6603631102362204
0
LINE
8
BLACK
6
CONTINUOUS
10
4.9556387007874019
20
-1.6603631102362204
11
4.9588318503937003
21
-1.6582295275590551
0
LINE
8
BLACK
6
CONTINUOUS
10
4.9588318503937003
20
-1.6582295275590551
11
4.96259842519685
21
-1.6574803149606299
0
LINE
8
BLACK
6
CONTINUOUS
10
4.96259842519685
20
-1.6574803149606299
11
4.9901574803149602
21
-1.6574803149606299
0
LINE
8
BLACK
6
CONTINUOUS
10
4.9901574803149602
20
-1.6574803149606299
11
4.9939240551181099
21
-1.6582295275590551
0
LINE
8
BLACK
6
CONTINUOUS
10
5.5451051574803145
20
-1.1149224409448819
11
5.5482983070866139
21
-1.1170560236220473
0
LINE
8
BLACK
6
CONTINUOUS
10
5.5482983070866139
20
-1.1170560236220473
11
5.5504318897637797
21
-1.1202491732283464
0
LINE
8
BLACK
6
CONTINUOUS
10
5.5504318897637797
20
-1.1202491732283464
11
5.5511811023622046
21
-1.1240157480314961
0
LINE
8
BLACK
6
CONTINUOUS
10
5.5511811023622046
20
-1.1240157480314961
11
5.5511811023622046
21
-1.1594488188976377
0
LINE
8
BLACK
6
CONTINUOUS
10
5.5511811023622046
20
-1.1594488188976377
11
5.5504318897637797
21
-1.1632153937007874
0
LINE
8
BLACK
6
CONTINUOUS
10
5.5504318897637797
20
-1.1632153937007874
11
5.5482983070866139
21
-1.1664085433070865
0
LINE
8
BLACK
6
CONTINUOUS
10
5.5482983070866139
20
-1.1664085433070865
11
5.5451051574803145
21
-1.1685421259842519
0
LINE
8
BLACK
6
CONTINUOUS
10
5.5451051574803145
20
-1.1685421259842519
11
5.5413385826771648
21
-1.1692913385826771
0
LINE
8
BLACK
6
CONTINUOUS
10
5.5413385826771648
20
-1.1692913385826771
11
5.5137795275590546
21
-1.1692913385826771
0
LINE
8
BLACK
6
CONTINUOUS
10
5.5137795275590546
20
-1.1692913385826771
11
5.510012952755905
21
-1.1685421259842519
0
LINE
8
BLACK
6
CONTINUOUS
10
5.510012952755905
20
-1.1685421259842519
11
5.5068198031496065
21
-1.1664085433070865
0
LINE
8
BLACK
6
CONTINUOUS
10
5.5068198031496065
20
-1.1664085433070865
11
5.5046862204724407
21
-1.1632153937007874
0
LINE
8
BLACK
6
CONTINUOUS
10
5.5046862204724407
20
-1.1632153937007874
11
5.5039370078740157
21
-1.1594488188976377
0
LINE
8
BLACK
6
CONTINUOUS
10
5.5039370078740157
20
-1.1594488188976377
11
5.5039370078740157
21
-1.1240157480314961
0
LINE
8
BLACK
6
CONTINUOUS
10
5.5039370078740157
20
-1.1240157480314961
11
5.5046862204724407
21
-1.1202491732283464
0
LINE
8
BLACK
6
CONTINUOUS
10
5.5046862204724407
20
-1.1202491732283464
11
5.5068198031496065
21
-1.1170560236220473
0
LINE
8
BLACK
6
CONTINUOUS
10
5.5068198031496065
20
-1.1170560236220473
11
5.510012952755905
21
-1.1149224409448819
0
LINE
8
BLACK
6
CONTINUOUS
10
5.510012952755905
20
-1.1149224409448819
11
5.5137795275590546
21
-1.1141732283464567
0
LINE
8
BLACK
6
CONTINUOUS
10
5.5137795275590546
20
-1.1141732283464567
11
5.5413385826771648
21
-1.1141732283464567
0
LINE
8
BLACK
6
CONTINUOUS
10
5.5413385826771648
20
-1.1141732283464567
11
5.5451051574803145
21
-1.1149224409448819
0
LINE
8
BLACK
6
CONTINUOUS
10
5.6238453149606302
20
-1.1149224409448819
11
5.6270384645669287
21
-1.1170560236220473
0
LINE
8
BLACK
6
CONTINUOUS
10
5.6270384645669287
20
-1.1170560236220473
11
5.6291720472440945
21
-1.1202491732283464
0
LINE
8
BLACK
6
CONTINUOUS
10
5.6291720472440945
20
-1.1202491732283464
11
5.6299212598425195
21
-1.1240157480314961
0
LINE
8
BLACK
6
CONTINUOUS
10
5.6299212598425195
20
-1.1240157480314961
11
5.6299212598425195
21
-1.1594488188976377
0
LINE
8
BLACK
6
CONTINUOUS
10
5.6299212598425195
20
-1.1594488188976377
11
5.6291720472440945
21
-1.1632153937007874
0
LINE
8
BLACK
6
CONTINUOUS
10
5.6291720472440945
20
-1.1632153937007874
11
5.6270384645669287
21
-1.1664085433070865
0
LINE
8
BLACK
6
CONTINUOUS
10
5.6270384645669287
20
-1.1664085433070865
11
5.6238453149606302
21
-1.1685421259842519
0
LINE
8
BLACK
6
CONTINUOUS
10
5.6238453149606302
20
-1.1685421259842519
11
5.6200787401574805
21
-1.1692913385826771
0
LINE
8
BLACK
6
CONTINUOUS
10
5.6200787401574805
20
-1.1692913385826771
11
5.5925196850393704
21
-1.1692913385826771
0
LINE
8
BLACK
6
CONTINUOUS
10
5.5925196850393704
20
-1.1692913385826771
11
5.5887531102362207
21
-1.1685421259842519
0
LINE
8
BLACK
6
CONTINUOUS
10
5.5887531102362207
20
-1.1685421259842519
11
5.5855599606299213
21
-1.1664085433070865
0
LINE
8
BLACK
6
CONTINUOUS
10
5.5855599606299213
20
-1.1664085433070865
11
5.5834263779527555
21
-1.1632153937007874
0
LINE
8
BLACK
6
CONTINUOUS
10
5.5834263779527555
20
-1.1632153937007874
11
5.5826771653543306
21
-1.1594488188976377
0
LINE
8
BLACK
6
CONTINUOUS
10
5.5826771653543306
20
-1.1594488188976377
11
5.5826771653543306
21
-1.1240157480314961
0
LINE
8
BLACK
6
CONTINUOUS
10
5.5826771653543306
20
-1.1240157480314961
11
5.5834263779527555
21
-1.1202491732283464
0
LINE
8
BLACK
6
CONTINUOUS
10
5.5834263779527555
20
-1.1202491732283464
11
5.5855599606299213
21
-1.1170560236220473
0
LINE
8
BLACK
6
CONTINUOUS
10
5.5855599606299213
20
-1.1170560236220473
11
5.5887531102362207
21
-1.1149224409448819
0
LINE
8
BLACK
6
CONTINUOUS
10
5.5887531102362207
20
-1.1149224409448819
11
5.5925196850393704
21
-1.1141732283464567
0
LINE
8
BLACK
6
CONTINUOUS
10
5.5925196850393704
20
-1.1141732283464567
11
5.6200787401574805
21
-1.1141732283464567
0
LINE
8
BLACK
6
CONTINUOUS
10
5.6200787401574805
20
-1.1141732283464567
11
5.6238453149606302
21
-1.1149224409448819
0
LINE
8
BLACK
6
CONTINUOUS
10
4.9716970078740159
20
-0.786501062992126
11
4.9745708267716537
21
-0.7884212992125984
0
LINE
8
BLACK
6
CONTINUOUS
10
4.9745708267716537
20
-0.7884212992125984
11
4.9764910629921255
21
-0.7912951181102362
0
LINE
8
BLACK
6
CONTINUOUS
10
4.9764910629921255
20
-0.7912951181102362
11
4.9771653543307082
21
-0.7946850393700787
0
LINE
8
BLACK
6
CONTINUOUS
10
4.9771653543307082
20
-0.7946850393700787
11
4.9771653543307082
21
-0.8753937007874015
0
LINE
8
BLACK
6
CONTINUOUS
10
4.9771653543307082
20
-0.8753937007874015
11
4.9764910629921255
21
-0.878783622047244
0
LINE
8
BLACK
6
CONTINUOUS
10
4.9764910629921255
20
-0.878783622047244
11
4.9745708267716537
21
-0.8816574409448819
0
LINE
8
BLACK
6
CONTINUOUS
10
4.9745708267716537
20
-0.8816574409448819
11
4.9716970078740159
21
-0.8835776771653543
0
LINE
8
BLACK
6
CONTINUOUS
10
4.9716970078740159
20
-0.8835776771653543
11
4.968307086614173
21
-0.8842519685039369
0
LINE
8
BLACK
6
CONTINUOUS
10
4.968307086614173
20
-0.8842519685039369
11
4.9269685039370081
21
-0.8842519685039369
0
LINE
8
BLACK
6
CONTINUOUS
10
4.9269685039370081
20
-0.8842519685039369
11
4.9235785826771652
21
-0.8835776771653543
0
LINE
8
BLACK
6
CONTINUOUS
10
4.9235785826771652
20
-0.8835776771653543
11
4.9207047637795274
21
-0.8816574409448819
0
LINE
8
BLACK
6
CONTINUOUS
10
4.9207047637795274
20
-0.8816574409448819
11
4.9187845275590547
21
-0.878783622047244
0
LINE
8
BLACK
6
CONTINUOUS
10
4.9187845275590547
20
-0.878783622047244
11
4.9181102362204721
21
-0.8753937007874015
0
LINE
8
BLACK
6
CONTINUOUS
10
4.9181102362204721
20
-0.8753937007874015
11
4.9181102362204721
21
-0.7946850393700787
0
LINE
8
BLACK
6
CONTINUOUS
10
4.9181102362204721
20
-0.7946850393700787
11
4.9187845275590547
21
-0.7912951181102362
0
LINE
8
BLACK
6
CONTINUOUS
10
4.9187845275590547
20
-0.7912951181102362
11
4.9207047637795274
21
-0.7884212992125984
0
LINE
8
BLACK
6
CONTINUOUS
10
4.9207047637795274
20
-0.7884212992125984
11
4.9235785826771652
21
-0.786501062992126
0
LINE
8
BLACK
6
CONTINUOUS
10
4.9235785826771652
20
-0.786501062992126
11
4.9269685039370081
21
-0.7858267716535433
0
LINE
8
BLACK
6
CONTINUOUS
10
4.9269685039370081
20
-0.7858267716535433
11
4.968307086614173
21
-0.7858267716535433
0
LINE
8
BLACK
6
CONTINUOUS
10
4.968307086614173
20
-0.7858267716535433
11
4.9716970078740159
21
-0.786501062992126
0
LINE
8
BLACK
6
CONTINUOUS
10
5.0716970078740156
20
-0.786501062992126
11
5.0745708267716534
21
-0.7884212992125984
0
LINE
8
BLACK
6
CONTINUOUS
10
5.0745708267716534
20
-0.7884212992125984
11
5.076491062992126
21
-0.7912951181102362
0
LINE
8
BLACK
6
CONTINUOUS
10
5.076491062992126
20
-0.7912951181102362
11
5.0771653543307087
21
-0.7946850393700787
0
LINE
8
BLACK
6
CONTINUOUS
10
5.0771653543307087
20
-0.7946850393700787
11
5.0771653543307087
21
-0.8753937007874015
0
LINE
8
BLACK
6
CONTINUOUS
10
5.0771653543307087
20
-0.8753937007874015
11
5.076491062992126
21
-0.878783622047244
0
LINE
8
BLACK
6
CONTINUOUS
10
5.076491062992126
20
-0.878783622047244
11
5.0745708267716534
21
-0.8816574409448819
0
LINE
8
BLACK
6
CONTINUOUS
10
5.0745708267716534
20
-0.8816574409448819
11
5.0716970078740156
21
-0.8835776771653543
0
LINE
8
BLACK
6
CONTINUOUS
10
5.0716970078740156
20
-0.8835776771653543
11
5.0683070866141735
21
-0.8842519685039369
0
LINE
8
BLACK
6
CONTINUOUS
10
5.0683070866141735
20
-0.8842519685039369
11
5.0269685039370078
21
-0.8842519685039369
0
LINE
8
BLACK
6
CONTINUOUS
10
5.0269685039370078
20
-0.8842519685039369
11
5.0235785826771648
21
-0.8835776771653543
0
LINE
8
BLACK
6
CONTINUOUS
10
5.0235785826771648
20
-0.8835776771653543
11
5.020704763779527
21
-0.8816574409448819
0
LINE
8
BLACK
6
CONTINUOUS
10
5.020704763779527
20
-0.8816574409448819
11
5.0187845275590552
21
-0.878783622047244
0
LINE
8
BLACK
6
CONTINUOUS
10
5.0187845275590552
20
-0.878783622047244
11
5.0181102362204726
21
-0.8753937007874015
0
LINE
8
BLACK
6
CONTINUOUS
10
5.0181102362204726
20
-0.8753937007874015
11
5.0181102362204726
21
-0.7946850393700787
0
LINE
8
BLACK
6
CONTINUOUS
10
5.0181102362204726
20
-0.7946850393700787
11
5.0187845275590552
21
-0.7912951181102362
0
LINE
8
BLACK
6
CONTINUOUS
10
5.0187845275590552
20
-0.7912951181102362
11
5.020704763779527
21
-0.7884212992125984
0
LINE
8
BLACK
6
CONTINUOUS
10
5.020704763779527
20
-0.7884212992125984
11
5.0235785826771648
21
-0.786501062992126
0
LINE
8
BLACK
6
CONTINUOUS
10
5.0235785826771648
20
-0.786501062992126
11
5.0269685039370078
21
-0.7858267716535433
0
LINE
8
BLACK
6
CONTINUOUS
10
5.0269685039370078
20
-0.7858267716535433
11
5.0683070866141735
21
-0.7858267716535433
0
LINE
8
BLACK
6
CONTINUOUS
10
5.0683070866141735
20
-0.7858267716535433
11
5.0716970078740156
21
-0.786501062992126
0
LINE
8
BLACK
6
CONTINUOUS
10
5.1716970078740152
20
-0.786501062992126
11
5.174570826771653
21
-0.7884212992125984
0
LINE
8
BLACK
6
CONTINUOUS
10
5.174570826771653
20
-0.7884212992125984
11
5.1764910629921257
21
-0.7912951181102362
0
LINE
8
BLACK
6
CONTINUOUS
10
5.1764910629921257
20
-0.7912951181102362
11
5.1771653543307083
21
-0.7946850393700787
0
LINE
8
BLACK
6
CONTINUOUS
10
5.1771653543307083
20
-0.7946850393700787
11
5.1771653543307083
21
-0.8753937007874015
0
LINE
8
BLACK
6
CONTINUOUS
10
5.1771653543307083
20
-0.8753937007874015
11
5.1764910629921257
21
-0.878783622047244
0
LINE
8
BLACK
6
CONTINUOUS
10
5.1764910629921257
20
-0.878783622047244
11
5.174570826771653
21
-0.8816574409448819
0
LINE
8
BLACK
6
CONTINUOUS
10
5.174570826771653
20
-0.8816574409448819
11
5.1716970078740152
21
-0.8835776771653543
0
LINE
8
BLACK
6
CONTINUOUS
10
5.1716970078740152
20
-0.8835776771653543
11
5.1683070866141732
21
-0.8842519685039369
0
LINE
8
BLACK
6
CONTINUOUS
10
5.1683070866141732
20
-0.8842519685039369
11
5.1269685039370074
21
-0.8842519685039369
0
LINE
8
BLACK
6
CONTINUOUS
10
5.1269685039370074
20
-0.8842519685039369
11
5.1235785826771654
21
-0.8835776771653543
0
LINE
8
BLACK
6
CONTINUOUS
10
5.1235785826771654
20
-0.8835776771653543
11
5.1207047637795275
21
-0.8816574409448819
0
LINE
8
BLACK
6
CONTINUOUS
10
5.1207047637795275
20
-0.8816574409448819
11
5.1187845275590549
21
-0.878783622047244
0
LINE
8
BLACK
6
CONTINUOUS
10
5.1187845275590549
20
-0.878783622047244
11
5.1181102362204722
21
-0.8753937007874015
0
LINE
8
BLACK
6
CONTINUOUS
10
5.1181102362204722
20
-0.8753937007874015
11
5.1181102362204722
21
-0.7946850393700787
0
LINE
8
BLACK
6
CONTINUOUS
10
5.1181102362204722
20
-0.7946850393700787
11
5.1187845275590549
21
-0.7912951181102362
0
LINE
8
BLACK
6
CONTINUOUS
10
5.1187845275590549
20
-0.7912951181102362
11
5.1207047637795275
21
-0.7884212992125984
0
LINE
8
BLACK
6
CONTINUOUS
10
5.1207047637795275
20
-0.7884212992125984
11
5.1235785826771654
21
-0.786501062992126
0
LINE
8
BLACK
6
CONTINUOUS
10
5.1235785826771654
20
-0.786501062992126
11
5.1269685039370074
21
-0.7858267716535433
0
LINE
8
BLACK
6
CONTINUOUS
10
5.1269685039370074
20
-0.7858267716535433
11
5.1683070866141732
21
-0.7858267716535433
0
LINE
8
BLACK
6
CONTINUOUS
10
5.1683070866141732
20
-0.7858267716535433
11
5.1716970078740152
21
-0.786501062992126
0
LINE
8
BLACK
6
CONTINUOUS
10
5.2716970078740157
20
-0.786501062992126
11
5.2745708267716536
21
-0.7884212992125984
0
LINE
8
BLACK
6
CONTINUOUS
10
5.2745708267716536
20
-0.7884212992125984
11
5.2764910629921262
21
-0.7912951181102362
0
LINE
8
BLACK
6
CONTINUOUS
10
5.2764910629921262
20
-0.7912951181102362
11
5.2771653543307089
21
-0.7946850393700787
0
LINE
8
BLACK
6
CONTINUOUS
10
5.2771653543307089
20
-0.7946850393700787
11
5.2771653543307089
21
-0.8753937007874015
0
LINE
8
BLACK
6
CONTINUOUS
10
5.2771653543307089
20
-0.8753937007874015
11
5.2764910629921262
21
-0.878783622047244
0
LINE
8
BLACK
6
CONTINUOUS
10
5.2764910629921262
20
-0.878783622047244
11
5.2745708267716536
21
-0.8816574409448819
0
LINE
8
BLACK
6
CONTINUOUS
10
5.2745708267716536
20
-0.8816574409448819
11
5.2716970078740157
21
-0.8835776771653543
0
LINE
8
BLACK
6
CONTINUOUS
10
5.2716970078740157
20
-0.8835776771653543
11
5.2683070866141728
21
-0.8842519685039369
0
LINE
8
BLACK
6
CONTINUOUS
10
5.2683070866141728
20
-0.8842519685039369
11
5.226968503937008
21
-0.8842519685039369
0
LINE
8
BLACK
6
CONTINUOUS
10
5.226968503937008
20
-0.8842519685039369
11
5.223578582677165
21
-0.8835776771653543
0
LINE
8
BLACK
6
CONTINUOUS
10
5.223578582677165
20
-0.8835776771653543
11
5.2207047637795272
21
-0.8816574409448819
0
LINE
8
BLACK
6
CONTINUOUS
10
5.2207047637795272
20
-0.8816574409448819
11
5.2187845275590554
21
-0.878783622047244
0
LINE
8
BLACK
6
CONTINUOUS
10
5.2187845275590554
20
-0.878783622047244
11
5.2181102362204728
21
-0.8753937007874015
0
LINE
8
BLACK
6
CONTINUOUS
10
5.2181102362204728
20
-0.8753937007874015
11
5.2181102362204728
21
-0.7946850393700787
0
LINE
8
BLACK
6
CONTINUOUS
10
5.2181102362204728
20
-0.7946850393700787
11
5.2187845275590554
21
-0.7912951181102362
0
LINE
8
BLACK
6
CONTINUOUS
10
5.2187845275590554
20
-0.7912951181102362
11
5.2207047637795272
21
-0.7884212992125984
0
LINE
8
BLACK
6
CONTINUOUS
10
5.2207047637795272
20
-0.7884212992125984
11
5.223578582677165
21
-0.786501062992126
0
LINE
8
BLACK
6
CONTINUOUS
10
5.223578582677165
20
-0.786501062992126
11
5.226968503937008
21
-0.7858267716535433
0
LINE
8
BLACK
6
CONTINUOUS
10
5.226968503937008
20
-0.7858267716535433
11
5.2683070866141728
21
-0.7858267716535433
0
LINE
8
BLACK
6
CONTINUOUS
10
5.2683070866141728
20
-0.7858267716535433
11
5.2716970078740157
21
-0.786501062992126
0
LINE
8
BLACK
6
CONTINUOUS
10
5.3716970078740154
20
-0.786501062992126
11
5.3745708267716532
21
-0.7884212992125984
0
LINE
8
BLACK
6
CONTINUOUS
10
5.3745708267716532
20
-0.7884212992125984
11
5.3764910629921259
21
-0.7912951181102362
0
LINE
8
BLACK
6
CONTINUOUS
10
5.3764910629921259
20
-0.7912951181102362
11
5.3771653543307085
21
-0.7946850393700787
0
LINE
8
BLACK
6
CONTINUOUS
10
5.3771653543307085
20
-0.7946850393700787
11
5.3771653543307085
21
-0.8753937007874015
0
LINE
8
BLACK
6
CONTINUOUS
10
5.3771653543307085
20
-0.8753937007874015
11
5.3764910629921259
21
-0.878783622047244
0
LINE
8
BLACK
6
CONTINUOUS
10
5.3764910629921259
20
-0.878783622047244
11
5.3745708267716532
21
-0.8816574409448819
0
LINE
8
BLACK
6
CONTINUOUS
10
5.3745708267716532
20
-0.8816574409448819
11
5.3716970078740154
21
-0.8835776771653543
0
LINE
8
BLACK
6
CONTINUOUS
10
5.3716970078740154
20
-0.8835776771653543
11
5.3683070866141733
21
-0.8842519685039369
0
LINE
8
BLACK
6
CONTINUOUS
10
5.3683070866141733
20
-0.8842519685039369
11
5.3269685039370076
21
-0.8842519685039369
0
LINE
8
BLACK
6
CONTINUOUS
10
5.3269685039370076
20
-0.8842519685039369
11
5.3235785826771655
21
-0.8835776771653543
0
LINE
8
BLACK
6
CONTINUOUS
10
5.3235785826771655
20
-0.8835776771653543
11
5.3207047637795277
21
-0.8816574409448819
0
LINE
8
BLACK
6
CONTINUOUS
10
5.3207047637795277
20
-0.8816574409448819
11
5.3187845275590551
21
-0.878783622047244
0
LINE
8
BLACK
6
CONTINUOUS
10
5.3187845275590551
20
-0.878783622047244
11
5.3181102362204724
21
-0.8753937007874015
0
LINE
8
BLACK
6
CONTINUOUS
10
5.3181102362204724
20
-0.8753937007874015
11
5.3181102362204724
21
-0.7946850393700787
0
LINE
8
BLACK
6
CONTINUOUS
10
5.3181102362204724
20
-0.7946850393700787
11
5.3187845275590551
21
-0.7912951181102362
0
LINE
8
BLACK
6
CONTINUOUS
10
5.3187845275590551
20
-0.7912951181102362
11
5.3207047637795277
21
-0.7884212992125984
0
LINE
8
BLACK
6
CONTINUOUS
10
5.3207047637795277
20
-0.7884212992125984
11
5.3235785826771655
21
-0.786501062992126
0
LINE
8
BLACK
6
CONTINUOUS
10
5.3235785826771655
20
-0.786501062992126
11
5.3269685039370076
21
-0.7858267716535433
0
LINE
8
BLACK
6
CONTINUOUS
10
5.3269685039370076
20
-0.7858267716535433
11
5.3683070866141733
21
-0.7858267716535433
0
LINE
8
BLACK
6
CONTINUOUS
10
5.3683070866141733
20
-0.7858267716535433
11
5.3716970078740154
21
-0.786501062992126
0
LINE
8
BLACK
6
CONTINUOUS
10
4.8665788976377948
20
-0.7731152362204724
11
4.8694527165354327
21
-0.7750354724409448
0
LINE
8
BLACK
6
CONTINUOUS
10
4.8694527165354327
20
-0.7750354724409448
11
4.8713729527559053
21
-0.7779092913385827
0
LINE
8
BLACK
6
CONTINUOUS
10
4.8713729527559053
20
-0.7779092913385827
11
4.872047244094488
21
-0.7812992125984252
0
LINE
8
BLACK
6
CONTINUOUS
10
4.872047244094488
20
-0.7812992125984252
11
4.872047244094488
21
-0.8226377952755906
0
LINE
8
BLACK
6
CONTINUOUS
10
4.872047244094488
20
-0.8226377952755906
11
4.8713729527559053
21
-0.8260277165354331
0
LINE
8
BLACK
6
CONTINUOUS
10
4.8713729527559053
20
-0.8260277165354331
11
4.8694527165354327
21
-0.8289015354330709
0
LINE
8
BLACK
6
CONTINUOUS
10
4.8694527165354327
20
-0.8289015354330709
11
4.8665788976377948
21
-0.8308217716535433
0
LINE
8
BLACK
6
CONTINUOUS
10
4.8665788976377948
20
-0.8308217716535433
11
4.8631889763779528
21
-0.831496062992126
0
LINE
8
BLACK
6
CONTINUOUS
10
4.8631889763779528
20
-0.831496062992126
11
4.7824803149606296
21
-0.831496062992126
0
LINE
8
BLACK
6
CONTINUOUS
10
4.7824803149606296
20
-0.831496062992126
11
4.7790903937007876
21
-0.8308217716535433
0
LINE
8
BLACK
6
CONTINUOUS
10
4.7790903937007876
20
-0.8308217716535433
11
4.7762165748031498
21
-0.8289015354330709
0
LINE
8
BLACK
6
CONTINUOUS
10
4.7762165748031498
20
-0.8289015354330709
11
4.7742963385826771
21
-0.8260277165354331
0
LINE
8
BLACK
6
CONTINUOUS
10
4.7742963385826771
20
-0.8260277165354331
11
4.7736220472440944
21
-0.8226377952755906
0
LINE
8
BLACK
6
CONTINUOUS
10
4.7736220472440944
20
-0.8226377952755906
11
4.7736220472440944
21
-0.7812992125984252
0
LINE
8
BLACK
6
CONTINUOUS
10
4.7736220472440944
20
-0.7812992125984252
11
4.7742963385826771
21
-0.7779092913385827
0
LINE
8
BLACK
6
CONTINUOUS
10
4.7742963385826771
20
-0.7779092913385827
11
4.7762165748031498
21
-0.7750354724409448
0
LINE
8
BLACK
6
CONTINUOUS
10
4.7762165748031498
20
-0.7750354724409448
11
4.7790903937007876
21
-0.7731152362204724
0
LINE
8
BLACK
6
CONTINUOUS
10
4.7790903937007876
20
-0.7731152362204724
11
4.7824803149606296
21
-0.7724409448818897
0
LINE
8
BLACK
6
CONTINUOUS
10
4.7824803149606296
20
-0.7724409448818897
11
4.8631889763779528
21
-0.7724409448818897
0
LINE
8
BLACK
6
CONTINUOUS
10
4.8631889763779528
20
-0.7724409448818897
11
4.8665788976377948
21
-0.7731152362204724
0
LINE
8
BLACK
6
CONTINUOUS
10
5.5161851968503939
20
-0.7731152362204724
11
5.5190590157480317
21
-0.7750354724409448
0
LINE
8
BLACK
6
CONTINUOUS
10
5.5190590157480317
20
-0.7750354724409448
11
5.5209792519685035
21
-0.7779092913385827
0
LINE
8
BLACK
6
CONTINUOUS
10
5.5209792519685035
20
-0.7779092913385827
11
5.5216535433070861
21
-0.7812992125984252
0
LINE
8
BLACK
6
CONTINUOUS
10
5.5216535433070861
20
-0.7812992125984252
11
5.5216535433070861
21
-0.8226377952755906
0
LINE
8
BLACK
6
CONTINUOUS
10
5.5216535433070861
20
-0.8226377952755906
11
5.5209792519685035
21
-0.8260277165354331
0
LINE
8
BLACK
6
CONTINUOUS
10
5.5209792519685035
20
-0.8260277165354331
11
5.5190590157480317
21
-0.8289015354330709
0
LINE
8
BLACK
6
CONTINUOUS
10
5.5190590157480317
20
-0.8289015354330709
11
5.5161851968503939
21
-0.8308217716535433
0
LINE
8
BLACK
6
CONTINUOUS
10
5.5161851968503939
20
-0.8308217716535433
11
5.5127952755905509
21
-0.831496062992126
0
LINE
8
BLACK
6
CONTINUOUS
10
5.5127952755905509
20
-0.831496062992126
11
5.4320866141732278
21
-0.831496062992126
0
LINE
8
BLACK
6
CONTINUOUS
10
5.4320866141732278
20
-0.831496062992126
11
5.4286966929133857
21
-0.8308217716535433
0
LINE
8
BLACK
6
CONTINUOUS
10
5.4286966929133857
20
-0.8308217716535433
11
5.4258228740157479
21
-0.8289015354330709
0
LINE
8
BLACK
6
CONTINUOUS
10
5.4258228740157479
20
-0.8289015354330709
11
5.4239026377952753
21
-0.8260277165354331
0
LINE
8
BLACK
6
CONTINUOUS
10
5.4239026377952753
20
-0.8260277165354331
11
5.4232283464566926
21
-0.8226377952755906
0
LINE
8
BLACK
6
CONTINUOUS
10
5.4232283464566926
20
-0.8226377952755906
11
5.4232283464566926
21
-0.7812992125984252
0
LINE
8
BLACK
6
CONTINUOUS
10
5.4232283464566926
20
-0.7812992125984252
11
5.4239026377952753
21
-0.7779092913385827
0
LINE
8
BLACK
6
CONTINUOUS
10
5.4239026377952753
20
-0.7779092913385827
11
5.4258228740157479
21
-0.7750354724409448
0
LINE
8
BLACK
6
CONTINUOUS
10
5.4258228740157479
20
-0.7750354724409448
11
5.4286966929133857
21
-0.7731152362204724
0
LINE
8
BLACK
6
CONTINUOUS
10
5.4286966929133857
20
-0.7731152362204724
11
5.4320866141732278
21
-0.7724409448818897
0
LINE
8
BLACK
6
CONTINUOUS
10
5.4320866141732278
20
-0.7724409448818897
11
5.5127952755905509
21
-0.7724409448818897
0
LINE
8
BLACK
6
CONTINUOUS
10
5.5127952755905509
20
-0.7724409448818897
11
5.5161851968503939
21
-0.7731152362204724
0
LINE
8
BLACK
6
CONTINUOUS
10
4.8665788976377948
20
-0.6731152362204724
11
4.8694527165354327
21
-0.6750354724409449
0
LINE
8
BLACK
6
CONTINUOUS
10
4.8694527165354327
20
-0.6750354724409449
11
4.8713729527559053
21
-0.6779092913385827
0
LINE
8
BLACK
6
CONTINUOUS
10
4.8713729527559053
20
-0.6779092913385827
11
4.872047244094488
21
-0.6812992125984252
0
LINE
8
BLACK
6
CONTINUOUS
10
4.872047244094488
20
-0.6812992125984252
11
4.872047244094488
21
-0.7226377952755906
0
LINE
8
BLACK
6
CONTINUOUS
10
4.872047244094488
20
-0.7226377952755906
11
4.8713729527559053
21
-0.7260277165354331
0
LINE
8
BLACK
6
CONTINUOUS
10
4.8713729527559053
20
-0.7260277165354331
11
4.8694527165354327
21
-0.7289015354330709
0
LINE
8
BLACK
6
CONTINUOUS
10
4.8694527165354327
20
-0.7289015354330709
11
4.8665788976377948
21
-0.7308217716535433
0
LINE
8
BLACK
6
CONTINUOUS
10
4.8665788976377948
20
-0.7308217716535433
11
4.8631889763779528
21
-0.731496062992126
0
LINE
8
BLACK
6
CONTINUOUS
10
4.8631889763779528
20
-0.731496062992126
11
4.7824803149606296
21
-0.731496062992126
0
LINE
8
BLACK
6
CONTINUOUS
10
4.7824803149606296
20
-0.731496062992126
11
4.7790903937007876
21
-0.7308217716535433
0
LINE
8
BLACK
6
CONTINUOUS
10
4.7790903937007876
20
-0.7308217716535433
11
4.7762165748031498
21
-0.7289015354330709
0
LINE
8
BLACK
6
CONTINUOUS
10
4.7762165748031498
20
-0.7289015354330709
11
4.7742963385826771
21
-0.7260277165354331
0
LINE
8
BLACK
6
CONTINUOUS
10
4.7742963385826771
20
-0.7260277165354331
11
4.7736220472440944
21
-0.7226377952755906
0
LINE
8
BLACK
6
CONTINUOUS
10
4.7736220472440944
20
-0.7226377952755906
11
4.7736220472440944
21
-0.6812992125984252
0
LINE
8
BLACK
6
CONTINUOUS
10
4.7736220472440944
20
-0.6812992125984252
11
4.7742963385826771
21
-0.6779092913385827
0
LINE
8
BLACK
6
CONTINUOUS
10
4.7742963385826771
20
-0.6779092913385827
11
4.7762165748031498
21
-0.6750354724409449
0
LINE
8
BLACK
6
CONTINUOUS
10
4.7762165748031498
20
-0.6750354724409449
11
4.7790903937007876
21
-0.6731152362204724
0
LINE
8
BLACK
6
CONTINUOUS
10
4.7790903937007876
20
-0.6731152362204724
11
4.7824803149606296
21
-0.6724409448818898
0
LINE
8
BLACK
6
CONTINUOUS
10
4.7824803149606296
20
-0.6724409448818898
11
4.8631889763779528
21
-0.6724409448818898
0
LINE
8
BLACK
6
CONTINUOUS
10
4.8631889763779528
20
-0.6724409448818898
11
4.8665788976377948
21
-0.6731152362204724
0
LINE
8
BLACK
6
CONTINUOUS
10
5.5161851968503939
20
-0.6731152362204724
11
5.5190590157480317
21
-0.6750354724409449
0
LINE
8
BLACK
6
CONTINUOUS
10
5.5190590157480317
20
-0.6750354724409449
11
5.5209792519685035
21
-0.6779092913385827
0
LINE
8
BLACK
6
CONTINUOUS
10
5.5209792519685035
20
-0.6779092913385827
11
5.5216535433070861
21
-0.6812992125984252
0
LINE
8
BLACK
6
CONTINUOUS
10
5.5216535433070861
20
-0.6812992125984252
11
5.5216535433070861
21
-0.7226377952755906
0
LINE
8
BLACK
6
CONTINUOUS
10
5.5216535433070861
20
-0.7226377952755906
11
5.5209792519685035
21
-0.7260277165354331
0
LINE
8
BLACK
6
CONTINUOUS
10
5.5209792519685035
20
-0.7260277165354331
11
5.5190590157480317
21
-0.7289015354330709
0
LINE
8
BLACK
6
CONTINUOUS
10
5.5190590157480317
20
-0.7289015354330709
11
5.5161851968503939
21
-0.7308217716535433
0
LINE
8
BLACK
6
CONTINUOUS
10
5.5161851968503939
20
-0.7308217716535433
11
5.5127952755905509
21
-0.731496062992126
0
LINE
8
BLACK
6
CONTINUOUS
10
5.5127952755905509
20
-0.731496062992126
11
5.4320866141732278
21
-0.731496062992126
0
LINE
8
BLACK
6
CONTINUOUS
10
5.4320866141732278
20
-0.731496062992126
11
5.4286966929133857
21
-0.7308217716535433
0
LINE
8
BLACK
6
CONTINUOUS
10
5.4286966929133857
20
-0.7308217716535433
11
5.4258228740157479
21
-0.7289015354330709
0
LINE
8
BLACK
6
CONTINUOUS
10
5.4258228740157479
20
-0.7289015354330709
11
5.4239026377952753
21
-0.7260277165354331
0
LINE
8
BLACK
6
CONTINUOUS
10
5.4239026377952753
20
-0.7260277165354331
11
5.4232283464566926
21
-0.7226377952755906
0
LINE
8
BLACK
6
CONTINUOUS
10
5.4232283464566926
20
-0.7226377952755906
11
5.4232283464566926
21
-0.6812992125984252
0
LINE
8
BLACK
6
CONTINUOUS
10
5.4232283464566926
20
-0.6812992125984252
11
5.4239026377952753
21
-0.6779092913385827
0
LINE
8
BLACK
6
CONTINUOUS
10
5.4239026377952753
20
-0.6779092913385827
11
5.4258228740157479
21
-0.6750354724409449
0
LINE
8
BLACK
6
CONTINUOUS
10
5.4258228740157479
20
-0.6750354724409449
11
5.4286966929133857
21
-0.6731152362204724
0
LINE
8
BLACK
6
CONTINUOUS
10
5.4286966929133857
20
-0.6731152362204724
11
5.4320866141732278
21
-0.6724409448818898
0
LINE
8
BLACK
6
CONTINUOUS
10
5.4320866141732278
20
-0.6724409448818898
11
5.5127952755905509
21
-0.6724409448818898
0
LINE
8
BLACK
6
CONTINUOUS
10
5.5127952755905509
20
-0.6724409448818898
11
5.5161851968503939
21
-0.6731152362204724
0
LINE
8
BLACK
6
CONTINUOUS
10
4.8665788976377948
20
-0.5731152362204724
11
4.8694527165354327
21
-0.5750354724409449
0
LINE
8
BLACK
6
CONTINUOUS
10
4.8694527165354327
20
-0.5750354724409449
11
4.8713729527559053
21
-0.5779092913385827
0
LINE
8
BLACK
6
CONTINUOUS
10
4.8713729527559053
20
-0.5779092913385827
11
4.872047244094488
21
-0.5812992125984252
0
LINE
8
BLACK
6
CONTINUOUS
10
4.872047244094488
20
-0.5812992125984252
11
4.872047244094488
21
-0.6226377952755905
0
LINE
8
BLACK
6
CONTINUOUS
10
4.872047244094488
20
-0.6226377952755905
11
4.8713729527559053
21
-0.6260277165354331
0
LINE
8
BLACK
6
CONTINUOUS
10
4.8713729527559053
20
-0.6260277165354331
11
4.8694527165354327
21
-0.6289015354330708
0
LINE
8
BLACK
6
CONTINUOUS
10
4.8694527165354327
20
-0.6289015354330708
11
4.8665788976377948
21
-0.6308217716535433
0
LINE
8
BLACK
6
CONTINUOUS
10
4.8665788976377948
20
-0.6308217716535433
11
4.8631889763779528
21
-0.631496062992126
0
LINE
8
BLACK
6
CONTINUOUS
10
4.8631889763779528
20
-0.631496062992126
11
4.7824803149606296
21
-0.631496062992126
0
LINE
8
BLACK
6
CONTINUOUS
10
4.7824803149606296
20
-0.631496062992126
11
4.7790903937007876
21
-0.6308217716535433
0
LINE
8
BLACK
6
CONTINUOUS
10
4.7790903937007876
20
-0.6308217716535433
11
4.7762165748031498
21
-0.6289015354330708
0
LINE
8
BLACK
6
CONTINUOUS
10
4.7762165748031498
20
-0.6289015354330708
11
4.7742963385826771
21
-0.6260277165354331
0
LINE
8
BLACK
6
CONTINUOUS
10
4.7742963385826771
20
-0.6260277165354331
11
4.7736220472440944
21
-0.6226377952755905
0
LINE
8
BLACK
6
CONTINUOUS
10
4.7736220472440944
20
-0.6226377952755905
11
4.7736220472440944
21
-0.5812992125984252
0
LINE
8
BLACK
6
CONTINUOUS
10
4.7736220472440944
20
-0.5812992125984252
11
4.7742963385826771
21
-0.5779092913385827
0
LINE
8
BLACK
6
CONTINUOUS
10
4.7742963385826771
20
-0.5779092913385827
11
4.7762165748031498
21
-0.5750354724409449
0
LINE
8
BLACK
6
CONTINUOUS
10
4.7762165748031498
20
-0.5750354724409449
11
4.7790903937007876
21
-0.5731152362204724
0
LINE
8
BLACK
6
CONTINUOUS
10
4.7790903937007876
20
-0.5731152362204724
11
4.7824803149606296
21
-0.5724409448818898
0
LINE
8
BLACK
6
CONTINUOUS
10
4.7824803149606296
20
-0.5724409448818898
11
4.8631889763779528
21
-0.5724409448818898
0
LINE
8
BLACK
6
CONTINUOUS
10
4.8631889763779528
20
-0.5724409448818898
11
4.8665788976377948
21
-0.5731152362204724
0
LINE
8
BLACK
6
CONTINUOUS
10
5.5161851968503939
20
-0.5731152362204724
11
5.5190590157480317
21
-0.5750354724409449
0
LINE
8
BLACK
6
CONTINUOUS
10
5.5190590157480317
20
-0.5750354724409449
11
5.5209792519685035
21
-0.5779092913385827
0
LINE
8
BLACK
6
CONTINUOUS
10
5.5209792519685035
20
-0.5779092913385827
11
5.5216535433070861
21
-0.5812992125984252
0
LINE
8
BLACK
6
CONTINUOUS
10
5.5216535433070861
20
-0.5812992125984252
11
5.5216535433070861
21
-0.6226377952755905
0
LINE
8
BLACK
6
CONTINUOUS
10
5.5216535433070861
20
-0.6226377952755905
11
5.5209792519685035
21
-0.6260277165354331
0
LINE
8
BLACK
6
CONTINUOUS
10
5.5209792519685035
20
-0.6260277165354331
11
5.5190590157480317
21
-0.6289015354330708
0
LINE
8
BLACK
6
CONTINUOUS
10
5.5190590157480317
20
-0.6289015354330708
11
5.5161851968503939
21
-0.6308217716535433
0
LINE
8
BLACK
6
CONTINUOUS
10
5.5161851968503939
20
-0.6308217716535433
11
5.5127952755905509
21
-0.631496062992126
0
LINE
8
BLACK
6
CONTINUOUS
10
5.5127952755905509
20
-0.631496062992126
11
5.4320866141732278
21
-0.631496062992126
0
LINE
8
BLACK
6
CONTINUOUS
10
5.4320866141732278
20
-0.631496062992126
11
5.4286966929133857
21
-0.6308217716535433
0
LINE
8
BLACK
6
CONTINUOUS
10
5.4286966929133857
20
-0.6308217716535433
11
5.4258228740157479
21
-0.6289015354330708
0
LINE
8
BLACK
6
CONTINUOUS
10
5.4258228740157479
20
-0.6289015354330708
11
5.4239026377952753
21
-0.6260277165354331
0
LINE
8
BLACK
6
CONTINUOUS
10
5.4239026377952753
20
-0.6260277165354331
11
5.4232283464566926
21
-0.6226377952755905
0
LINE
8
BLACK
6
CONTINUOUS
10
5.4232283464566926
20
-0.6226377952755905
11
5.4232283464566926
21
-0.5812992125984252
0
LINE
8
BLACK
6
CONTINUOUS
10
5.4232283464566926
20
-0.5812992125984252
11
5.4239026377952753
21
-0.5779092913385827
0
LINE
8
BLACK
6
CONTINUOUS
10
5.4239026377952753
20
-0.5779092913385827
11
5.4258228740157479
21
-0.5750354724409449
0
LINE
8
BLACK
6
CONTINUOUS
10
5.4258228740157479
20
-0.5750354724409449
11
5.4286966929133857
21
-0.5731152362204724
0
LINE
8
BLACK
6
CONTINUOUS
10
5.4286966929133857
20
-0.5731152362204724
11
5.4320866141732278
21
-0.5724409448818898
0
LINE
8
BLACK
6
CONTINUOUS
10
5.4320866141732278
20
-0.5724409448818898
11
5.5127952755905509
21
-0.5724409448818898
0
LINE
8
BLACK
6
CONTINUOUS
10
5.5127952755905509
20
-0.5724409448818898
11
5.5161851968503939
21
-0.5731152362204724
0
LINE
8
BLACK
6
CONTINUOUS
10
4.8665788976377948
20
-0.4731152362204724
11
4.8694527165354327
21
-0.4750354724409449
0
LINE
8
BLACK
6
CONTINUOUS
10
4.8694527165354327
20
-0.4750354724409449
11
4.8713729527559053
21
-0.4779092913385827
0
LINE
8
BLACK
6
CONTINUOUS
10
4.8713729527559053
20
-0.4779092913385827
11
4.872047244094488
21
-0.4812992125984252
0
LINE
8
BLACK
6
CONTINUOUS
10
4.872047244094488
20
-0.4812992125984252
11
4.872047244094488
21
-0.5226377952755905
0
LINE
8
BLACK
6
CONTINUOUS
10
4.872047244094488
20
-0.5226377952755905
11
4.8713729527559053
21
-0.526027716535433
0
LINE
8
BLACK
6
CONTINUOUS
10
4.8713729527559053
20
-0.526027716535433
11
4.8694527165354327
21
-0.5289015354330708
0
LINE
8
BLACK
6
CONTINUOUS
10
4.8694527165354327
20
-0.5289015354330708
11
4.8665788976377948
21
-0.5308217716535433
0
LINE
8
BLACK
6
CONTINUOUS
10
4.8665788976377948
20
-0.5308217716535433
11
4.8631889763779528
21
-0.5314960629921259
0
LINE
8
BLACK
6
CONTINUOUS
10
4.8631889763779528
20
-0.5314960629921259
11
4.7824803149606296
21
-0.5314960629921259
0
LINE
8
BLACK
6
CONTINUOUS
10
4.7824803149606296
20
-0.5314960629921259
11
4.7790903937007876
21
-0.5308217716535433
0
LINE
8
BLACK
6
CONTINUOUS
10
4.7790903937007876
20
-0.5308217716535433
11
4.7762165748031498
21
-0.5289015354330708
0
LINE
8
BLACK
6
CONTINUOUS
10
4.7762165748031498
20
-0.5289015354330708
11
4.7742963385826771
21
-0.526027716535433
0
LINE
8
BLACK
6
CONTINUOUS
10
4.7742963385826771
20
-0.526027716535433
11
4.7736220472440944
21
-0.5226377952755905
0
LINE
8
BLACK
6
CONTINUOUS
10
4.7736220472440944
20
-0.5226377952755905
11
4.7736220472440944
21
-0.4812992125984252
0
LINE
8
BLACK
6
CONTINUOUS
10
4.7736220472440944
20
-0.4812992125984252
11
4.7742963385826771
21
-0.4779092913385827
0
LINE
8
BLACK
6
CONTINUOUS
10
4.7742963385826771
20
-0.4779092913385827
11
4.7762165748031498
21
-0.4750354724409449
0
LINE
8
BLACK
6
CONTINUOUS
10
4.7762165748031498
20
-0.4750354724409449
11
4.7790903937007876
21
-0.4731152362204724
0
LINE
8
BLACK
6
CONTINUOUS
10
4.7790903937007876
20
-0.4731152362204724
11
4.7824803149606296
21
-0.4724409448818898
0
LINE
8
BLACK
6
CONTINUOUS
10
4.7824803149606296
20
-0.4724409448818898
11
4.8631889763779528
21
-0.4724409448818898
0
LINE
8
BLACK
6
CONTINUOUS
10
4.8631889763779528
20
-0.4724409448818898
11
4.8665788976377948
21
-0.4731152362204724
0
LINE
8
BLACK
6
CONTINUOUS
10
5.5161851968503939
20
-0.4731152362204724
11
5.5190590157480317
21
-0.4750354724409449
0
LINE
8
BLACK
6
CONTINUOUS
10
5.5190590157480317
20
-0.4750354724409449
11
5.5209792519685035
21
-0.4779092913385827
0
LINE
8
BLACK
6
CONTINUOUS
10
5.5209792519685035
20
-0.4779092913385827
11
5.5216535433070861
21
-0.4812992125984252
0
LINE
8
BLACK
6
CONTINUOUS
10
5.5216535433070861
20
-0.4812992125984252
11
5.5216535433070861
21
-0.5226377952755905
0
LINE
8
BLACK
6
CONTINUOUS
10
5.5216535433070861
20
-0.5226377952755905
11
5.5209792519685035
21
-0.526027716535433
0
LINE
8
BLACK
6
CONTINUOUS
10
5.5209792519685035
20
-0.526027716535433
11
5.5190590157480317
21
-0.5289015354330708
0
LINE
8
BLACK
6
CONTINUOUS
10
5.5190590157480317
20
-0.5289015354330708
11
5.5161851968503939
21
-0.5308217716535433
0
LINE
8
BLACK
6
CONTINUOUS
10
5.5161851968503939
20
-0.5308217716535433
11
5.5127952755905509
21
-0.5314960629921259
0
LINE
8
BLACK
6
CONTINUOUS
10
5.5127952755905509
20
-0.5314960629921259
11
5.4320866141732278
21
-0.5314960629921259
0
LINE
8
BLACK
6
CONTINUOUS
10
5.4320866141732278
20
-0.5314960629921259
11
5.4286966929133857
21
-0.5308217716535433
0
LINE
8
BLACK
6
CONTINUOUS
10
5.4286966929133857
20
-0.5308217716535433
11
5.4258228740157479
21
-0.5289015354330708
0
LINE
8
BLACK
6
CONTINUOUS
10
5.4258228740157479
20
-0.5289015354330708
11
5.4239026377952753
21
-0.526027716535433
0
LINE
8
BLACK
6
CONTINUOUS
10
5.4239026377952753
20
-0.526027716535433
11
5.4232283464566926
21
-0.5226377952755905
0
LINE
8
BLACK
6
CONTINUOUS
10
5.4232283464566926
20
-0.5226377952755905
11
5.4232283464566926
21
-0.4812992125984252
0
LINE
8
BLACK
6
CONTINUOUS
10
5.4232283464566926
20
-0.4812992125984252
11
5.4239026377952753
21
-0.4779092913385827
0
LINE
8
BLACK
6
CONTINUOUS
10
5.4239026377952753
20
-0.4779092913385827
11
5.4258228740157479
21
-0.4750354724409449
0
LINE
8
BLACK
6
CONTINUOUS
10
5.4258228740157479
20
-0.4750354724409449
11
5.4286966929133857
21
-0.4731152362204724
0
LINE
8
BLACK
6
CONTINUOUS
10
5.4286966929133857
20
-0.4731152362204724
11
5.4320866141732278
21
-0.4724409448818898
0
LINE
8
BLACK
6
CONTINUOUS
10
5.4320866141732278
20
-0.4724409448818898
11
5.5127952755905509
21
-0.4724409448818898
0
LINE
8
BLACK
6
CONTINUOUS
10
5.5127952755905509
20
-0.4724409448818898
11
5.5161851968503939
21
-0.4731152362204724
0
LINE
8
BLACK
6
CONTINUOUS
10
4.8665788976377948
20
-0.3731152362204724
11
4.8694527165354327
21
-0.3750354724409449
0
LINE
8
BLACK
6
CONTINUOUS
10
4.8694527165354327
20
-0.3750354724409449
11
4.8713729527559053
21
-0.3779092913385826
0
LINE
8
BLACK
6
CONTINUOUS
10
4.8713729527559053
20
-0.3779092913385826
11
4.872047244094488
21
-0.3812992125984252
0
LINE
8
BLACK
6
CONTINUOUS
10
4.872047244094488
20
-0.3812992125984252
11
4.872047244094488
21
-0.4226377952755905
0
LINE
8
BLACK
6
CONTINUOUS
10
4.872047244094488
20
-0.4226377952755905
11
4.8713729527559053
21
-0.4260277165354331
0
LINE
8
BLACK
6
CONTINUOUS
10
4.8713729527559053
20
-0.4260277165354331
11
4.8694527165354327
21
-0.4289015354330709
0
LINE
8
BLACK
6
CONTINUOUS
10
4.8694527165354327
20
-0.4289015354330709
11
4.8665788976377948
21
-0.4308217716535433
0
LINE
8
BLACK
6
CONTINUOUS
10
4.8665788976377948
20
-0.4308217716535433
11
4.8631889763779528
21
-0.431496062992126
0
LINE
8
BLACK
6
CONTINUOUS
10
4.8631889763779528
20
-0.431496062992126
11
4.7824803149606296
21
-0.431496062992126
0
LINE
8
BLACK
6
CONTINUOUS
10
4.7824803149606296
20
-0.431496062992126
11
4.7790903937007876
21
-0.4308217716535433
0
LINE
8
BLACK
6
CONTINUOUS
10
4.7790903937007876
20
-0.4308217716535433
11
4.7762165748031498
21
-0.4289015354330709
0
LINE
8
BLACK
6
CONTINUOUS
10
4.7762165748031498
20
-0.4289015354330709
11
4.7742963385826771
21
-0.4260277165354331
0
LINE
8
BLACK
6
CONTINUOUS
10
4.7742963385826771
20
-0.4260277165354331
11
4.7736220472440944
21
-0.4226377952755905
0
LINE
8
BLACK
6
CONTINUOUS
10
4.7736220472440944
20
-0.4226377952755905
11
4.7736220472440944
21
-0.3812992125984252
0
LINE
8
BLACK
6
CONTINUOUS
10
4.7736220472440944
20
-0.3812992125984252
11
4.7742963385826771
21
-0.3779092913385826
0
LINE
8
BLACK
6
CONTINUOUS
10
4.7742963385826771
20
-0.3779092913385826
11
4.7762165748031498
21
-0.3750354724409449
0
LINE
8
BLACK
6
CONTINUOUS
10
4.7762165748031498
20
-0.3750354724409449
11
4.7790903937007876
21
-0.3731152362204724
0
LINE
8
BLACK
6
CONTINUOUS
10
4.7790903937007876
20
-0.3731152362204724
11
4.7824803149606296
21
-0.3724409448818898
0
LINE
8
BLACK
6
CONTINUOUS
10
4.7824803149606296
20
-0.3724409448818898
11
4.8631889763779528
21
-0.3724409448818898
0
LINE
8
BLACK
6
CONTINUOUS
10
4.8631889763779528
20
-0.3724409448818898
11
4.8665788976377948
21
-0.3731152362204724
0
LINE
8
BLACK
6
CONTINUOUS
10
5.5161851968503939
20
-0.3731152362204724
11
5.5190590157480317
21
-0.3750354724409449
0
LINE
8
BLACK
6
CONTINUOUS
10
5.5190590157480317
20
-0.3750354724409449
11
5.5209792519685035
21
-0.3779092913385826
0
LINE
8
BLACK
6
CONTINUOUS
10
5.5209792519685035
20
-0.3779092913385826
11
5.5216535433070861
21
-0.3812992125984252
0
LINE
8
BLACK
6
CONTINUOUS
10
5.5216535433070861
20
-0.3812992125984252
11
5.5216535433070861
21
-0.4226377952755905
0
LINE
8
BLACK
6
CONTINUOUS
10
5.5216535433070861
20
-0.4226377952755905
11
5.5209792519685035
21
-0.4260277165354331
0
LINE
8
BLACK
6
CONTINUOUS
10
5.5209792519685035
20
-0.4260277165354331
11
5.5190590157480317
21
-0.4289015354330709
0
LINE
8
BLACK
6
CONTINUOUS
10
5.5190590157480317
20
-0.4289015354330709
11
5.5161851968503939
21
-0.4308217716535433
0
LINE
8
BLACK
6
CONTINUOUS
10
5.5161851968503939
20
-0.4308217716535433
11
5.5127952755905509
21
-0.431496062992126
0
LINE
8
BLACK
6
CONTINUOUS
10
5.5127952755905509
20
-0.431496062992126
11
5.4320866141732278
21
-0.431496062992126
0
LINE
8
BLACK
6
CONTINUOUS
10
5.4320866141732278
20
-0.431496062992126
11
5.4286966929133857
21
-0.4308217716535433
0
LINE
8
BLACK
6
CONTINUOUS
10
5.4286966929133857
20
-0.4308217716535433
11
5.4258228740157479
21
-0.4289015354330709
0
LINE
8
BLACK
6
CONTINUOUS
10
5.4258228740157479
20
-0.4289015354330709
11
5.4239026377952753
21
-0.4260277165354331
0
LINE
8
BLACK
6
CONTINUOUS
10
5.4239026377952753
20
-0.4260277165354331
11
5.4232283464566926
21
-0.4226377952755905
0
LINE
8
BLACK
6
CONTINUOUS
10
5.4232283464566926
20
-0.4226377952755905
11
5.4232283464566926
21
-0.3812992125984252
0
LINE
8
BLACK
6
CONTINUOUS
10
5.4232283464566926
20
-0.3812992125984252
11
5.4239026377952753
21
-0.3779092913385826
0
LINE
8
BLACK
6
CONTINUOUS
10
5.4239026377952753
20
-0.3779092913385826
11
5.4258228740157479
21
-0.3750354724409449
0
LINE
8
BLACK
6
CONTINUOUS
10
5.4258228740157479
20
-0.3750354724409449
11
5.4286966929133857
21
-0.3731152362204724
0
LINE
8
BLACK
6
CONTINUOUS
10
5.4286966929133857
20
-0.3731152362204724
11
5.4320866141732278
21
-0.3724409448818898
0
LINE
8
BLACK
6
CONTINUOUS
10
5.4320866141732278
20
-0.3724409448818898
11
5.5127952755905509
21
-0.3724409448818898
0
LINE
8
BLACK
6
CONTINUOUS
10
5.5127952755905509
20
-0.3724409448818898
11
5.5161851968503939
21
-0.3731152362204724
0
LINE
8
BLACK
6
CONTINUOUS
10
4.8665788976377948
20
-0.2731152362204725
11
4.8694527165354327
21
-0.2750354724409449
0
LINE
8
BLACK
6
CONTINUOUS
10
4.8694527165354327
20
-0.2750354724409449
11
4.8713729527559053
21
-0.2779092913385827
0
LINE
8
BLACK
6
CONTINUOUS
10
4.8713729527559053
20
-0.2779092913385827
11
4.872047244094488
21
-0.2812992125984252
0
LINE
8
BLACK
6
CONTINUOUS
10
4.872047244094488
20
-0.2812992125984252
11
4.872047244094488
21
-0.3226377952755906
0
LINE
8
BLACK
6
CONTINUOUS
10
4.872047244094488
20
-0.3226377952755906
11
4.8713729527559053
21
-0.3260277165354331
0
LINE
8
BLACK
6
CONTINUOUS
10
4.8713729527559053
20
-0.3260277165354331
11
4.8694527165354327
21
-0.3289015354330709
0
LINE
8
BLACK
6
CONTINUOUS
10
4.8694527165354327
20
-0.3289015354330709
11
4.8665788976377948
21
-0.3308217716535433
0
LINE
8
BLACK
6
CONTINUOUS
10
4.8665788976377948
20
-0.3308217716535433
11
4.8631889763779528
21
-0.331496062992126
0
LINE
8
BLACK
6
CONTINUOUS
10
4.8631889763779528
20
-0.331496062992126
11
4.7824803149606296
21
-0.331496062992126
0
LINE
8
BLACK
6
CONTINUOUS
10
4.7824803149606296
20
-0.331496062992126
11
4.7790903937007876
21
-0.3308217716535433
0
LINE
8
BLACK
6
CONTINUOUS
10
4.7790903937007876
20
-0.3308217716535433
11
4.7762165748031498
21
-0.3289015354330709
0
LINE
8
BLACK
6
CONTINUOUS
10
4.7762165748031498
20
-0.3289015354330709
11
4.7742963385826771
21
-0.3260277165354331
0
LINE
8
BLACK
6
CONTINUOUS
10
4.7742963385826771
20
-0.3260277165354331
11
4.7736220472440944
21
-0.3226377952755906
0
LINE
8
BLACK
6
CONTINUOUS
10
4.7736220472440944
20
-0.3226377952755906
11
4.7736220472440944
21
-0.2812992125984252
0
LINE
8
BLACK
6
CONTINUOUS
10
4.7736220472440944
20
-0.2812992125984252
11
4.7742963385826771
21
-0.2779092913385827
0
LINE
8
BLACK
6
CONTINUOUS
10
4.7742963385826771
20
-0.2779092913385827
11
4.7762165748031498
21
-0.2750354724409449
0
LINE
8
BLACK
6
CONTINUOUS
10
4.7762165748031498
20
-0.2750354724409449
11
4.7790903937007876
21
-0.2731152362204725
0
LINE
8
BLACK
6
CONTINUOUS
10
4.7790903937007876
20
-0.2731152362204725
11
4.7824803149606296
21
-0.2724409448818897
0
LINE
8
BLACK
6
CONTINUOUS
10
4.7824803149606296
20
-0.2724409448818897
11
4.8631889763779528
21
-0.2724409448818897
0
LINE
8
BLACK
6
CONTINUOUS
10
4.8631889763779528
20
-0.2724409448818897
11
4.8665788976377948
21
-0.2731152362204725
0
LINE
8
BLACK
6
CONTINUOUS
10
5.5161851968503939
20
-0.2731152362204725
11
5.5190590157480317
21
-0.2750354724409449
0
LINE
8
BLACK
6
CONTINUOUS
10
5.5190590157480317
20
-0.2750354724409449
11
5.5209792519685035
21
-0.2779092913385827
0
LINE
8
BLACK
6
CONTINUOUS
10
5.5209792519685035
20
-0.2779092913385827
11
5.5216535433070861
21
-0.2812992125984252
0
LINE
8
BLACK
6
CONTINUOUS
10
5.5216535433070861
20
-0.2812992125984252
11
5.5216535433070861
21
-0.3226377952755906
0
LINE
8
BLACK
6
CONTINUOUS
10
5.5216535433070861
20
-0.3226377952755906
11
5.5209792519685035
21
-0.3260277165354331
0
LINE
8
BLACK
6
CONTINUOUS
10
5.5209792519685035
20
-0.3260277165354331
11
5.5190590157480317
21
-0.3289015354330709
0
LINE
8
BLACK
6
CONTINUOUS
10
5.5190590157480317
20
-0.3289015354330709
11
5.5161851968503939
21
-0.3308217716535433
0
LINE
8
BLACK
6
CONTINUOUS
10
5.5161851968503939
20
-0.3308217716535433
11
5.5127952755905509
21
-0.331496062992126
0
LINE
8
BLACK
6
CONTINUOUS
10
5.5127952755905509
20
-0.331496062992126
11
5.4320866141732278
21
-0.331496062992126
0
LINE
8
BLACK
6
CONTINUOUS
10
5.4320866141732278
20
-0.331496062992126
11
5.4286966929133857
21
-0.3308217716535433
0
LINE
8
BLACK
6
CONTINUOUS
10
5.4286966929133857
20
-0.3308217716535433
11
5.4258228740157479
21
-0.3289015354330709
0
LINE
8
BLACK
6
CONTINUOUS
10
5.4258228740157479
20
-0.3289015354330709
11
5.4239026377952753
21
-0.3260277165354331
0
LINE
8
BLACK
6
CONTINUOUS
10
5.4239026377952753
20
-0.3260277165354331
11
5.4232283464566926
21
-0.3226377952755906
0
LINE
8
BLACK
6
CONTINUOUS
10
5.4232283464566926
20
-0.3226377952755906
11
5.4232283464566926
21
-0.2812992125984252
0
LINE
8
BLACK
6
CONTINUOUS
10
5.4232283464566926
20
-0.2812992125984252
11
5.4239026377952753
21
-0.2779092913385827
0
LINE
8
BLACK
6
CONTINUOUS
10
5.4239026377952753
20
-0.2779092913385827
11
5.4258228740157479
21
-0.2750354724409449
0
LINE
8
BLACK
6
CONTINUOUS
10
5.4258228740157479
20
-0.2750354724409449
11
5.4286966929133857
21
-0.2731152362204725
0
LINE
8
BLACK
6
CONTINUOUS
10
5.4286966929133857
20
-0.2731152362204725
11
5.4320866141732278
21
-0.2724409448818897
0
LINE
8
BLACK
6
CONTINUOUS
10
5.4320866141732278
20
-0.2724409448818897
11
5.5127952755905509
21
-0.2724409448818897
0
LINE
8
BLACK
6
CONTINUOUS
10
5.5127952755905509
20
-0.2724409448818897
11
5.5161851968503939
21
-0.2731152362204725
0
LINE
8
BLACK
6
CONTINUOUS
10
4.8665788976377948
20
-0.1731152362204724
11
4.8694527165354327
21
-0.1750354724409449
0
LINE
8
BLACK
6
CONTINUOUS
10
4.8694527165354327
20
-0.1750354724409449
11
4.8713729527559053
21
-0.1779092913385827
0
LINE
8
BLACK
6
CONTINUOUS
10
4.8713729527559053
20
-0.1779092913385827
11
4.872047244094488
21
-0.1812992125984252
0
LINE
8
BLACK
6
CONTINUOUS
10
4.872047244094488
20
-0.1812992125984252
11
4.872047244094488
21
-0.2226377952755905
0
LINE
8
BLACK
6
CONTINUOUS
10
4.872047244094488
20
-0.2226377952755905
11
4.8713729527559053
21
-0.2260277165354331
0
LINE
8
BLACK
6
CONTINUOUS
10
4.8713729527559053
20
-0.2260277165354331
11
4.8694527165354327
21
-0.2289015354330709
0
LINE
8
BLACK
6
CONTINUOUS
10
4.8694527165354327
20
-0.2289015354330709
11
4.8665788976377948
21
-0.2308217716535433
0
LINE
8
BLACK
6
CONTINUOUS
10
4.8665788976377948
20
-0.2308217716535433
11
4.8631889763779528
21
-0.231496062992126
0
LINE
8
BLACK
6
CONTINUOUS
10
4.8631889763779528
20
-0.231496062992126
11
4.7824803149606296
21
-0.231496062992126
0
LINE
8
BLACK
6
CONTINUOUS
10
4.7824803149606296
20
-0.231496062992126
11
4.7790903937007876
21
-0.2308217716535433
0
LINE
8
BLACK
6
CONTINUOUS
10
4.7790903937007876
20
-0.2308217716535433
11
4.7762165748031498
21
-0.2289015354330709
0
LINE
8
BLACK
6
CONTINUOUS
10
4.7762165748031498
20
-0.2289015354330709
11
4.7742963385826771
21
-0.2260277165354331
0
LINE
8
BLACK
6
CONTINUOUS
10
4.7742963385826771
20
-0.2260277165354331
11
4.7736220472440944
21
-0.2226377952755905
0
LINE
8
BLACK
6
CONTINUOUS
10
4.7736220472440944
20
-0.2226377952755905
11
4.7736220472440944
21
-0.1812992125984252
0
LINE
8
BLACK
6
CONTINUOUS
10
4.7736220472440944
20
-0.1812992125984252
11
4.7742963385826771
21
-0.1779092913385827
0
LINE
8
BLACK
6
CONTINUOUS
10
4.7742963385826771
20
-0.1779092913385827
11
4.7762165748031498
21
-0.1750354724409449
0
LINE
8
BLACK
6
CONTINUOUS
10
4.7762165748031498
20
-0.1750354724409449
11
4.7790903937007876
21
-0.1731152362204724
0
LINE
8
BLACK
6
CONTINUOUS
10
4.7790903937007876
20
-0.1731152362204724
11
4.7824803149606296
21
-0.1724409448818898
0
LINE
8
BLACK
6
CONTINUOUS
10
4.7824803149606296
20
-0.1724409448818898
11
4.8631889763779528
21
-0.1724409448818898
0
LINE
8
BLACK
6
CONTINUOUS
10
4.8631889763779528
20
-0.1724409448818898
11
4.8665788976377948
21
-0.1731152362204724
0
LINE
8
BLACK
6
CONTINUOUS
10
5.5161851968503939
20
-0.1731152362204724
11
5.5190590157480317
21
-0.1750354724409449
0
LINE
8
BLACK
6
CONTINUOUS
10
5.5190590157480317
20
-0.1750354724409449
11
5.5209792519685035
21
-0.1779092913385827
0
LINE
8
BLACK
6
CONTINUOUS
10
5.5209792519685035
20
-0.1779092913385827
11
5.5216535433070861
21
-0.1812992125984252
0
LINE
8
BLACK
6
CONTINUOUS
10
5.5216535433070861
20
-0.1812992125984252
11
5.5216535433070861
21
-0.2226377952755905
0
LINE
8
BLACK
6
CONTINUOUS
10
5.5216535433070861
20
-0.2226377952755905
11
5.5209792519685035
21
-0.2260277165354331
0
LINE
8
BLACK
6
CONTINUOUS
10
5.5209792519685035
20
-0.2260277165354331
11
5.5190590157480317
21
-0.2289015354330709
0
LINE
8
BLACK
6
CONTINUOUS
10
5.5190590157480317
20
-0.2289015354330709
11
5.5161851968503939
21
-0.2308217716535433
0
LINE
8
BLACK
6
CONTINUOUS
10
5.5161851968503939
20
-0.2308217716535433
11
5.5127952755905509
21
-0.231496062992126
0
LINE
8
BLACK
6
CONTINUOUS
10
5.5127952755905509
20
-0.231496062992126
11
5.4320866141732278
21
-0.231496062992126
0
LINE
8
BLACK
6
CONTINUOUS
10
5.4320866141732278
20
-0.231496062992126
11
5.4286966929133857
21
-0.2308217716535433
0
LINE
8
BLACK
6
CONTINUOUS
10
5.4286966929133857
20
-0.2308217716535433
11
5.4258228740157479
21
-0.2289015354330709
0
LINE
8
BLACK
6
CONTINUOUS
10
5.4258228740157479
20
-0.2289015354330709
11
5.4239026377952753
21
-0.2260277165354331
0
LINE
8
BLACK
6
CONTINUOUS
10
5.4239026377952753
20
-0.2260277165354331
11
5.4232283464566926
21
-0.2226377952755905
0
LINE
8
BLACK
6
CONTINUOUS
10
5.4232283464566926
20
-0.2226377952755905
11
5.4232283464566926
21
-0.1812992125984252
0
LINE
8
BLACK
6
CONTINUOUS
10
5.4232283464566926
20
-0.1812992125984252
11
5.4239026377952753
21
-0.1779092913385827
0
LINE
8
BLACK
6
CONTINUOUS
10
5.4239026377952753
20
-0.1779092913385827
11
5.4258228740157479
21
-0.1750354724409449
0
LINE
8
BLACK
6
CONTINUOUS
10
5.4258228740157479
20
-0.1750354724409449
11
5.4286966929133857
21
-0.1731152362204724
0
LINE
8
BLACK
6
CONTINUOUS
10
5.4286966929133857
20
-0.1731152362204724
11
5.4320866141732278
21
-0.1724409448818898
0
LINE
8
BLACK
6
CONTINUOUS
10
5.4320866141732278
20
-0.1724409448818898
11
5.5127952755905509
21
-0.1724409448818898
0
LINE
8
BLACK
6
CONTINUOUS
10
5.5127952755905509
20
-0.1724409448818898
11
5.5161851968503939
21
-0.1731152362204724
0
LINE
8
BLACK
6
CONTINUOUS
10
4.8665788976377948
20
-0.0731152362204724
11
4.8694527165354327
21
-0.0750354724409449
0
LINE
8
BLACK
6
CONTINUOUS
10
4.8694527165354327
20
-0.0750354724409449
11
4.8713729527559053
21
-0.0779092913385827
0
LINE
8
BLACK
6
CONTINUOUS
10
4.8713729527559053
20
-0.0779092913385827
11
4.872047244094488
21
-0.0812992125984252
0
LINE
8
BLACK
6
CONTINUOUS
10
4.872047244094488
20
-0.0812992125984252
11
4.872047244094488
21
-0.1226377952755905
0
LINE
8
BLACK
6
CONTINUOUS
10
4.872047244094488
20
-0.1226377952755905
11
4.8713729527559053
21
-0.1260277165354331
0
LINE
8
BLACK
6
CONTINUOUS
10
4.8713729527559053
20
-0.1260277165354331
11
4.8694527165354327
21
-0.1289015354330709
0
LINE
8
BLACK
6
CONTINUOUS
10
4.8694527165354327
20
-0.1289015354330709
11
4.8665788976377948
21
-0.1308217716535433
0
LINE
8
BLACK
6
CONTINUOUS
10
4.8665788976377948
20
-0.1308217716535433
11
4.8631889763779528
21
-0.131496062992126
0
LINE
8
BLACK
6
CONTINUOUS
10
4.8631889763779528
20
-0.131496062992126
11
4.7824803149606296
21
-0.131496062992126
0
LINE
8
BLACK
6
CONTINUOUS
10
4.7824803149606296
20
-0.131496062992126
11
4.7790903937007876
21
-0.1308217716535433
0
LINE
8
BLACK
6
CONTINUOUS
10
4.7790903937007876
20
-0.1308217716535433
11
4.7762165748031498
21
-0.1289015354330709
0
LINE
8
BLACK
6
CONTINUOUS
10
4.7762165748031498
20
-0.1289015354330709
11
4.7742963385826771
21
-0.1260277165354331
0
LINE
8
BLACK
6
CONTINUOUS
10
4.7742963385826771
20
-0.1260277165354331
11
4.7736220472440944
21
-0.1226377952755905
0
LINE
8
BLACK
6
CONTINUOUS
10
4.7736220472440944
20
-0.1226377952755905
11
4.7736220472440944
21
-0.0812992125984252
0
LINE
8
BLACK
6
CONTINUOUS
10
4.7736220472440944
20
-0.0812992125984252
11
4.7742963385826771
21
-0.0779092913385827
0
LINE
8
BLACK
6
CONTINUOUS
10
4.7742963385826771
20
-0.0779092913385827
11
4.7762165748031498
21
-0.0750354724409449
0
LINE
8
BLACK
6
CONTINUOUS
10
4.7762165748031498
20
-0.0750354724409449
11
4.7790903937007876
21
-0.0731152362204724
0
LINE
8
BLACK
6
CONTINUOUS
10
4.7790903937007876
20
-0.0731152362204724
11
4.7824803149606296
21
-0.0724409448818898
0
LINE
8
BLACK
6
CONTINUOUS
10
4.7824803149606296
20
-0.0724409448818898
11
4.8631889763779528
21
-0.0724409448818898
0
LINE
8
BLACK
6
CONTINUOUS
10
4.8631889763779528
20
-0.0724409448818898
11
4.8665788976377948
21
-0.0731152362204724
0
LINE
8
BLACK
6
CONTINUOUS
10
5.5161851968503939
20
-0.0731152362204724
11
5.5190590157480317
21
-0.0750354724409449
0
LINE
8
BLACK
6
CONTINUOUS
10
5.5190590157480317
20
-0.0750354724409449
11
5.5209792519685035
21
-0.0779092913385827
0
LINE
8
BLACK
6
CONTINUOUS
10
5.5209792519685035
20
-0.0779092913385827
11
5.5216535433070861
21
-0.0812992125984252
0
LINE
8
BLACK
6
CONTINUOUS
10
5.5216535433070861
20
-0.0812992125984252
11
5.5216535433070861
21
-0.1226377952755905
0
LINE
8
BLACK
6
CONTINUOUS
10
5.5216535433070861
20
-0.1226377952755905
11
5.5209792519685035
21
-0.1260277165354331
0
LINE
8
BLACK
6
CONTINUOUS
10
5.5209792519685035
20
-0.1260277165354331
11
5.5190590157480317
21
-0.1289015354330709
0
LINE
8
BLACK
6
CONTINUOUS
10
5.5190590157480317
20
-0.1289015354330709
11
5.5161851968503939
21
-0.1308217716535433
0
LINE
8
BLACK
6
CONTINUOUS
10
5.5161851968503939
20
-0.1308217716535433
11
5.5127952755905509
21
-0.131496062992126
0
LINE
8
BLACK
6
CONTINUOUS
10
5.5127952755905509
20
-0.131496062992126
11
5.4320866141732278
21
-0.131496062992126
0
LINE
8
BLACK
6
CONTINUOUS
10
5.4320866141732278
20
-0.131496062992126
11
5.4286966929133857
21
-0.1308217716535433
0
LINE
8
BLACK
6
CONTINUOUS
10
5.4286966929133857
20
-0.1308217716535433
11
5.4258228740157479
21
-0.1289015354330709
0
LINE
8
BLACK
6
CONTINUOUS
10
5.4258228740157479
20
-0.1289015354330709
11
5.4239026377952753
21
-0.1260277165354331
0
LINE
8
BLACK
6
CONTINUOUS
10
5.4239026377952753
20
-0.1260277165354331
11
5.4232283464566926
21
-0.1226377952755905
0
LINE
8
BLACK
6
CONTINUOUS
10
5.4232283464566926
20
-0.1226377952755905
11
5.4232283464566926
21
-0.0812992125984252
0
LINE
8
BLACK
6
CONTINUOUS
10
5.4232283464566926
20
-0.0812992125984252
11
5.4239026377952753
21
-0.0779092913385827
0
LINE
8
BLACK
6
CONTINUOUS
10
5.4239026377952753
20
-0.0779092913385827
11
5.4258228740157479
21
-0.0750354724409449
0
LINE
8
BLACK
6
CONTINUOUS
10
5.4258228740157479
20
-0.0750354724409449
11
5.4286966929133857
21
-0.0731152362204724
0
LINE
8
BLACK
6
CONTINUOUS
10
5.4286966929133857
20
-0.0731152362204724
11
5.4320866141732278
21
-0.0724409448818898
0
LINE
8
BLACK
6
CONTINUOUS
10
5.4320866141732278
20
-0.0724409448818898
11
5.5127952755905509
21
-0.0724409448818898
0
LINE
8
BLACK
6
CONTINUOUS
10
5.5127952755905509
20
-0.0724409448818898
11
5.5161851968503939
21
-0.0731152362204724
0
LINE
8
BLACK
6
CONTINUOUS
10
4.8665788976377948
20
0.0268847637795276
11
4.8694527165354327
21
0.0249645275590551
0
LINE
8
BLACK
6
CONTINUOUS
10
4.8694527165354327
20
0.0249645275590551
11
4.8713729527559053
21
0.0220907086614173
0
LINE
8
BLACK
6
CONTINUOUS
10
4.8713729527559053
20
0.0220907086614173
11
4.872047244094488
21
0.0187007874015748
0
LINE
8
BLACK
6
CONTINUOUS
10
4.872047244094488
20
0.0187007874015748
11
4.872047244094488
21
-0.0226377952755905
0
LINE
8
BLACK
6
CONTINUOUS
10
4.872047244094488
20
-0.0226377952755905
11
4.8713729527559053
21
-0.0260277165354331
0
LINE
8
BLACK
6
CONTINUOUS
10
4.8713729527559053
20
-0.0260277165354331
11
4.8694527165354327
21
-0.0289015354330709
0
LINE
8
BLACK
6
CONTINUOUS
10
4.8694527165354327
20
-0.0289015354330709
11
4.8665788976377948
21
-0.0308217716535433
0
LINE
8
BLACK
6
CONTINUOUS
10
4.8665788976377948
20
-0.0308217716535433
11
4.8631889763779528
21
-0.031496062992126
0
LINE
8
BLACK
6
CONTINUOUS
10
4.8631889763779528
20
-0.031496062992126
11
4.7824803149606296
21
-0.031496062992126
0
LINE
8
BLACK
6
CONTINUOUS
10
4.7824803149606296
20
-0.031496062992126
11
4.7790903937007876
21
-0.0308217716535433
0
LINE
8
BLACK
6
CONTINUOUS
10
4.7790903937007876
20
-0.0308217716535433
11
4.7762165748031498
21
-0.0289015354330709
0
LINE
8
BLACK
6
CONTINUOUS
10
4.7762165748031498
20
-0.0289015354330709
11
4.7742963385826771
21
-0.0260277165354331
0
LINE
8
BLACK
6
CONTINUOUS
10
4.7742963385826771
20
-0.0260277165354331
11
4.7736220472440944
21
-0.0226377952755905
0
LINE
8
BLACK
6
CONTINUOUS
10
4.7736220472440944
20
-0.0226377952755905
11
4.7736220472440944
21
0.0187007874015748
0
LINE
8
BLACK
6
CONTINUOUS
10
4.7736220472440944
20
0.0187007874015748
11
4.7742963385826771
21
0.0220907086614173
0
LINE
8
BLACK
6
CONTINUOUS
10
4.7742963385826771
20
0.0220907086614173
11
4.7762165748031498
21
0.0249645275590551
0
LINE
8
BLACK
6
CONTINUOUS
10
4.7762165748031498
20
0.0249645275590551
11
4.7790903937007876
21
0.0268847637795276
0
LINE
8
BLACK
6
CONTINUOUS
10
4.7790903937007876
20
0.0268847637795276
11
4.7824803149606296
21
0.0275590551181102
0
LINE
8
BLACK
6
CONTINUOUS
10
4.7824803149606296
20
0.0275590551181102
11
4.8631889763779528
21
0.0275590551181102
0
LINE
8
BLACK
6
CONTINUOUS
10
4.8631889763779528
20
0.0275590551181102
11
4.8665788976377948
21
0.0268847637795276
0
LINE
8
BLACK
6
CONTINUOUS
10
5.5161851968503939
20
0.0268847637795276
11
5.5190590157480317
21
0.0249645275590551
0
LINE
8
BLACK
6
CONTINUOUS
10
5.5190590157480317
20
0.0249645275590551
11
5.5209792519685035
21
0.0220907086614173
0
LINE
8
BLACK
6
CONTINUOUS
10
5.5209792519685035
20
0.0220907086614173
11
5.5216535433070861
21
0.0187007874015748
0
LINE
8
BLACK
6
CONTINUOUS
10
5.5216535433070861
20
0.0187007874015748
11
5.5216535433070861
21
-0.0226377952755905
0
LINE
8
BLACK
6
CONTINUOUS
10
5.5216535433070861
20
-0.0226377952755905
11
5.5209792519685035
21
-0.0260277165354331
0
LINE
8
BLACK
6
CONTINUOUS
10
5.5209792519685035
20
-0.0260277165354331
11
5.5190590157480317
21
-0.0289015354330709
0
LINE
8
BLACK
6
CONTINUOUS
10
5.5190590157480317
20
-0.0289015354330709
11
5.5161851968503939
21
-0.0308217716535433
0
LINE
8
BLACK
6
CONTINUOUS
10
5.5161851968503939
20
-0.0308217716535433
11
5.5127952755905509
21
-0.031496062992126
0
LINE
8
BLACK
6
CONTINUOUS
10
5.5127952755905509
20
-0.031496062992126
11
5.4320866141732278
21
-0.031496062992126
0
LINE
8
BLACK
6
CONTINUOUS
10
5.4320866141732278
20
-0.031496062992126
11
5.4286966929133857
21
-0.0308217716535433
0
LINE
8
BLACK
6
CONTINUOUS
10
5.4286966929133857
20
-0.0308217716535433
11
5.4258228740157479
21
-0.0289015354330709
0
LINE
8
BLACK
6
CONTINUOUS
10
5.4258228740157479
20
-0.0289015354330709
11
5.4239026377952753
21
-0.0260277165354331
0
LINE
8
BLACK
6
CONTINUOUS
10
5.4239026377952753
20
-0.0260277165354331
11
5.4232283464566926
21
-0.0226377952755905
0
LINE
8
BLACK
6
CONTINUOUS
10
5.4232283464566926
20
-0.0226377952755905
11
5.4232283464566926
21
0.0187007874015748
0
LINE
8
BLACK
6
CONTINUOUS
10
5.4232283464566926
20
0.0187007874015748
11
5.4239026377952753
21
0.0220907086614173
0
LINE
8
BLACK
6
CONTINUOUS
10
5.4239026377952753
20
0.0220907086614173
11
5.4258228740157479
21
0.0249645275590551
0
LINE
8
BLACK
6
CONTINUOUS
10
5.4258228740157479
20
0.0249645275590551
11
5.4286966929133857
21
0.0268847637795276
0
LINE
8
BLACK
6
CONTINUOUS
10
5.4286966929133857
20
0.0268847637795276
11
5.4320866141732278
21
0.0275590551181102
0
LINE
8
BLACK
6
CONTINUOUS
10
5.4320866141732278
20
0.0275590551181102
11
5.5127952755905509
21
0.0275590551181102
0
LINE
8
BLACK
6
CONTINUOUS
10
5.5127952755905509
20
0.0275590551181102
11
5.5161851968503939
21
0.0268847637795276
  0
ENDSEC
  0
EOF
