%TF.GenerationSoftware,KiCad,Pcbnew,9.0.7*%
%TF.CreationDate,2026-04-23T19:44:55+09:00*%
%TF.ProjectId,keykeyv2.1_r,6b65796b-6579-4763-922e-315f722e6b69,rev?*%
%TF.SameCoordinates,Original*%
%TF.FileFunction,Paste,Bot*%
%TF.FilePolarity,Positive*%
%FSLAX46Y46*%
G04 Gerber Fmt 4.6, Leading zero omitted, Abs format (unit mm)*
G04 Created by KiCad (PCBNEW 9.0.7) date 2026-04-23 19:44:55*
%MOMM*%
%LPD*%
G01*
G04 APERTURE LIST*
G04 Aperture macros list*
%AMRoundRect*
0 Rectangle with rounded corners*
0 $1 Rounding radius*
0 $2 $3 $4 $5 $6 $7 $8 $9 X,Y pos of 4 corners*
0 Add a 4 corners polygon primitive as box body*
4,1,4,$2,$3,$4,$5,$6,$7,$8,$9,$2,$3,0*
0 Add four circle primitives for the rounded corners*
1,1,$1+$1,$2,$3*
1,1,$1+$1,$4,$5*
1,1,$1+$1,$6,$7*
1,1,$1+$1,$8,$9*
0 Add four rect primitives between the rounded corners*
20,1,$1+$1,$2,$3,$4,$5,0*
20,1,$1+$1,$4,$5,$6,$7,0*
20,1,$1+$1,$6,$7,$8,$9,0*
20,1,$1+$1,$8,$9,$2,$3,0*%
G04 Aperture macros list end*
%ADD10RoundRect,0.250000X-1.025000X-1.000000X1.025000X-1.000000X1.025000X1.000000X-1.025000X1.000000X0*%
%ADD11RoundRect,0.250000X-0.731255X-1.231215X1.248893X-0.700636X0.731255X1.231215X-1.248893X0.700636X0*%
%ADD12RoundRect,0.250000X-0.387676X-1.378525X1.387676X-0.353525X0.387676X1.378525X-1.387676X0.353525X0*%
%ADD13RoundRect,0.225000X-0.225000X-0.375000X0.225000X-0.375000X0.225000X0.375000X-0.225000X0.375000X0*%
%ADD14RoundRect,0.225000X-0.007356X-0.437260X0.382356X-0.212260X0.007356X0.437260X-0.382356X0.212260X0*%
%ADD15RoundRect,0.225000X-0.120276X-0.420456X0.314390X-0.303988X0.120276X0.420456X-0.314390X0.303988X0*%
G04 APERTURE END LIST*
D10*
%TO.C,SW10*%
X76775000Y-1000000D03*
X88775000Y-3200000D03*
%TD*%
%TO.C,SW28*%
X22775000Y-36500000D03*
X34775000Y-38700000D03*
%TD*%
%TO.C,SW14*%
X112775000Y-28000000D03*
X124775000Y-30200000D03*
%TD*%
%TO.C,SW11*%
X58775000Y-6000000D03*
X70775000Y-8200000D03*
%TD*%
%TO.C,SW5*%
X58775000Y11000000D03*
X70775000Y8800000D03*
%TD*%
%TO.C,SW19*%
X130775000Y-45000000D03*
X142775000Y-47200000D03*
%TD*%
%TO.C,SW12*%
X40775000Y-11000000D03*
X52775000Y-13200000D03*
%TD*%
%TO.C,SW13*%
X130775000Y-28000000D03*
X142775000Y-30200000D03*
%TD*%
%TO.C,SW9*%
X94775000Y-6000000D03*
X106775000Y-8200000D03*
%TD*%
%TO.C,SW17*%
X58775000Y-23000000D03*
X70775000Y-25200000D03*
%TD*%
%TO.C,SW2*%
X112775000Y6000000D03*
X124775000Y3800000D03*
%TD*%
%TO.C,SW30*%
X22775000Y-2500000D03*
X34775000Y-4700000D03*
%TD*%
%TO.C,SW24*%
X40775000Y-45000000D03*
X52775000Y-47200000D03*
%TD*%
%TO.C,SW16*%
X76775000Y-18000000D03*
X88775000Y-20200000D03*
%TD*%
%TO.C,SW25*%
X67775000Y-71000000D03*
X79775000Y-73200000D03*
%TD*%
%TO.C,SW1*%
X130775000Y6000000D03*
X142775000Y3800000D03*
%TD*%
%TO.C,SW7*%
X130775000Y-11000000D03*
X142775000Y-13200000D03*
%TD*%
%TO.C,SW18*%
X40775000Y-28000000D03*
X52775000Y-30200000D03*
%TD*%
%TO.C,SW3*%
X94775000Y11000000D03*
X106775000Y8800000D03*
%TD*%
D11*
%TO.C,SW26*%
X44841345Y-75110311D03*
X57001857Y-74129520D03*
%TD*%
D10*
%TO.C,SW20*%
X112775000Y-45000000D03*
X124775000Y-47200000D03*
%TD*%
%TO.C,SW15*%
X94775000Y-23000000D03*
X106775000Y-25200000D03*
%TD*%
%TO.C,SW29*%
X22775000Y-19500000D03*
X34775000Y-21700000D03*
%TD*%
%TO.C,SW8*%
X112775000Y-11000000D03*
X124775000Y-13200000D03*
%TD*%
%TO.C,SW21*%
X94775000Y-40000000D03*
X106775000Y-42200000D03*
%TD*%
%TO.C,SW22*%
X76775000Y-35000000D03*
X88775000Y-37200000D03*
%TD*%
%TO.C,SW6*%
X40775000Y6000000D03*
X52775000Y3800000D03*
%TD*%
%TO.C,SW4*%
X76775000Y16000000D03*
X88775000Y13800000D03*
%TD*%
D12*
%TO.C,SW27*%
X23743911Y-85053848D03*
X35236216Y-80959103D03*
%TD*%
D10*
%TO.C,SW23*%
X58775000Y-40000000D03*
X70775000Y-42200000D03*
%TD*%
D13*
%TO.C,D26*%
X69775000Y-82000000D03*
X73075000Y-82000000D03*
%TD*%
%TO.C,D16*%
X96475000Y-34000000D03*
X99775000Y-34000000D03*
%TD*%
%TO.C,D10*%
X96475000Y-17000000D03*
X99775000Y-17000000D03*
%TD*%
%TO.C,D30*%
X24275000Y-30500000D03*
X27575000Y-30500000D03*
%TD*%
D14*
%TO.C,D28*%
X31275000Y-94000000D03*
X34132884Y-92350000D03*
%TD*%
D13*
%TO.C,D13*%
X42775000Y-22000000D03*
X46075000Y-22000000D03*
%TD*%
%TO.C,D11*%
X78475000Y-12000000D03*
X81775000Y-12000000D03*
%TD*%
%TO.C,D17*%
X78475000Y-29000000D03*
X81775000Y-29000000D03*
%TD*%
%TO.C,D14*%
X132475000Y-39000000D03*
X135775000Y-39000000D03*
%TD*%
%TO.C,D20*%
X132475000Y-56000000D03*
X135775000Y-56000000D03*
%TD*%
%TO.C,D9*%
X114475000Y-22000000D03*
X117775000Y-22000000D03*
%TD*%
%TO.C,D4*%
X96475000Y0D03*
X99775000Y0D03*
%TD*%
%TO.C,D8*%
X132475000Y-22000000D03*
X135775000Y-22000000D03*
%TD*%
%TO.C,D22*%
X96475000Y-51000000D03*
X99775000Y-51000000D03*
%TD*%
D15*
%TO.C,D27*%
X49775001Y-85427053D03*
X52962555Y-84572947D03*
%TD*%
D13*
%TO.C,D21*%
X114475000Y-56000000D03*
X117775000Y-56000000D03*
%TD*%
%TO.C,D7*%
X42775000Y-5000000D03*
X46075000Y-5000000D03*
%TD*%
%TO.C,D6*%
X60275000Y0D03*
X63575000Y0D03*
%TD*%
%TO.C,D19*%
X42775000Y-39000000D03*
X46075000Y-39000000D03*
%TD*%
%TO.C,D23*%
X78475000Y-46000000D03*
X81775000Y-46000000D03*
%TD*%
%TO.C,D31*%
X24275000Y-13500000D03*
X27575000Y-13500000D03*
%TD*%
%TO.C,D5*%
X78475000Y5000000D03*
X81775000Y5000000D03*
%TD*%
%TO.C,D25*%
X42775000Y-56000000D03*
X46075000Y-56000000D03*
%TD*%
%TO.C,D2*%
X132475000Y-5000000D03*
X135775000Y-5000000D03*
%TD*%
%TO.C,D15*%
X114475000Y-39000000D03*
X117775000Y-39000000D03*
%TD*%
%TO.C,D12*%
X60275000Y-17000000D03*
X63575000Y-17000000D03*
%TD*%
%TO.C,D29*%
X24275000Y-47500000D03*
X27575000Y-47500000D03*
%TD*%
%TO.C,D18*%
X60275000Y-34000000D03*
X63575000Y-34000000D03*
%TD*%
%TO.C,D3*%
X114475000Y-5000000D03*
X117775000Y-5000000D03*
%TD*%
%TO.C,D24*%
X60275000Y-51000000D03*
X63575000Y-51000000D03*
%TD*%
M02*
