%TF.GenerationSoftware,KiCad,Pcbnew,9.0.7*%
%TF.CreationDate,2026-04-23T19:44:55+09:00*%
%TF.ProjectId,keykeyv2.1_r,6b65796b-6579-4763-922e-315f722e6b69,rev?*%
%TF.SameCoordinates,Original*%
%TF.FileFunction,Legend,Bot*%
%TF.FilePolarity,Positive*%
%FSLAX46Y46*%
G04 Gerber Fmt 4.6, Leading zero omitted, Abs format (unit mm)*
G04 Created by KiCad (PCBNEW 9.0.7) date 2026-04-23 19:44:55*
%MOMM*%
%LPD*%
G01*
G04 APERTURE LIST*
%ADD10C,0.050000*%
%ADD11C,0.150000*%
%ADD12C,0.120000*%
G04 APERTURE END LIST*
D10*
X21675000Y-73500000D02*
G75*
G02*
X18675000Y-73500000I-1500000J0D01*
G01*
X18675000Y-73500000D02*
G75*
G02*
X21675000Y-73500000I1500000J0D01*
G01*
X147575000Y-200000D02*
G75*
G02*
X144575000Y-200000I-1500000J0D01*
G01*
X144575000Y-200000D02*
G75*
G02*
X147575000Y-200000I1500000J0D01*
G01*
X3075000Y-46000000D02*
G75*
G02*
X75000Y-46000000I-1500000J0D01*
G01*
X75000Y-46000000D02*
G75*
G02*
X3075000Y-46000000I1500000J0D01*
G01*
X74575000Y-59500000D02*
G75*
G02*
X71575000Y-59500000I-1500000J0D01*
G01*
X71575000Y-59500000D02*
G75*
G02*
X74575000Y-59500000I1500000J0D01*
G01*
X147575000Y-51100000D02*
G75*
G02*
X144575000Y-51100000I-1500000J0D01*
G01*
X144575000Y-51100000D02*
G75*
G02*
X147575000Y-51100000I1500000J0D01*
G01*
D11*
X72639285Y-84454819D02*
X72639285Y-83454819D01*
X72639285Y-83454819D02*
X72401190Y-83454819D01*
X72401190Y-83454819D02*
X72258333Y-83502438D01*
X72258333Y-83502438D02*
X72163095Y-83597676D01*
X72163095Y-83597676D02*
X72115476Y-83692914D01*
X72115476Y-83692914D02*
X72067857Y-83883390D01*
X72067857Y-83883390D02*
X72067857Y-84026247D01*
X72067857Y-84026247D02*
X72115476Y-84216723D01*
X72115476Y-84216723D02*
X72163095Y-84311961D01*
X72163095Y-84311961D02*
X72258333Y-84407200D01*
X72258333Y-84407200D02*
X72401190Y-84454819D01*
X72401190Y-84454819D02*
X72639285Y-84454819D01*
X71686904Y-83550057D02*
X71639285Y-83502438D01*
X71639285Y-83502438D02*
X71544047Y-83454819D01*
X71544047Y-83454819D02*
X71305952Y-83454819D01*
X71305952Y-83454819D02*
X71210714Y-83502438D01*
X71210714Y-83502438D02*
X71163095Y-83550057D01*
X71163095Y-83550057D02*
X71115476Y-83645295D01*
X71115476Y-83645295D02*
X71115476Y-83740533D01*
X71115476Y-83740533D02*
X71163095Y-83883390D01*
X71163095Y-83883390D02*
X71734523Y-84454819D01*
X71734523Y-84454819D02*
X71115476Y-84454819D01*
X70258333Y-83454819D02*
X70448809Y-83454819D01*
X70448809Y-83454819D02*
X70544047Y-83502438D01*
X70544047Y-83502438D02*
X70591666Y-83550057D01*
X70591666Y-83550057D02*
X70686904Y-83692914D01*
X70686904Y-83692914D02*
X70734523Y-83883390D01*
X70734523Y-83883390D02*
X70734523Y-84264342D01*
X70734523Y-84264342D02*
X70686904Y-84359580D01*
X70686904Y-84359580D02*
X70639285Y-84407200D01*
X70639285Y-84407200D02*
X70544047Y-84454819D01*
X70544047Y-84454819D02*
X70353571Y-84454819D01*
X70353571Y-84454819D02*
X70258333Y-84407200D01*
X70258333Y-84407200D02*
X70210714Y-84359580D01*
X70210714Y-84359580D02*
X70163095Y-84264342D01*
X70163095Y-84264342D02*
X70163095Y-84026247D01*
X70163095Y-84026247D02*
X70210714Y-83931009D01*
X70210714Y-83931009D02*
X70258333Y-83883390D01*
X70258333Y-83883390D02*
X70353571Y-83835771D01*
X70353571Y-83835771D02*
X70544047Y-83835771D01*
X70544047Y-83835771D02*
X70639285Y-83883390D01*
X70639285Y-83883390D02*
X70686904Y-83931009D01*
X70686904Y-83931009D02*
X70734523Y-84026247D01*
X99339285Y-36454819D02*
X99339285Y-35454819D01*
X99339285Y-35454819D02*
X99101190Y-35454819D01*
X99101190Y-35454819D02*
X98958333Y-35502438D01*
X98958333Y-35502438D02*
X98863095Y-35597676D01*
X98863095Y-35597676D02*
X98815476Y-35692914D01*
X98815476Y-35692914D02*
X98767857Y-35883390D01*
X98767857Y-35883390D02*
X98767857Y-36026247D01*
X98767857Y-36026247D02*
X98815476Y-36216723D01*
X98815476Y-36216723D02*
X98863095Y-36311961D01*
X98863095Y-36311961D02*
X98958333Y-36407200D01*
X98958333Y-36407200D02*
X99101190Y-36454819D01*
X99101190Y-36454819D02*
X99339285Y-36454819D01*
X97815476Y-36454819D02*
X98386904Y-36454819D01*
X98101190Y-36454819D02*
X98101190Y-35454819D01*
X98101190Y-35454819D02*
X98196428Y-35597676D01*
X98196428Y-35597676D02*
X98291666Y-35692914D01*
X98291666Y-35692914D02*
X98386904Y-35740533D01*
X96958333Y-35454819D02*
X97148809Y-35454819D01*
X97148809Y-35454819D02*
X97244047Y-35502438D01*
X97244047Y-35502438D02*
X97291666Y-35550057D01*
X97291666Y-35550057D02*
X97386904Y-35692914D01*
X97386904Y-35692914D02*
X97434523Y-35883390D01*
X97434523Y-35883390D02*
X97434523Y-36264342D01*
X97434523Y-36264342D02*
X97386904Y-36359580D01*
X97386904Y-36359580D02*
X97339285Y-36407200D01*
X97339285Y-36407200D02*
X97244047Y-36454819D01*
X97244047Y-36454819D02*
X97053571Y-36454819D01*
X97053571Y-36454819D02*
X96958333Y-36407200D01*
X96958333Y-36407200D02*
X96910714Y-36359580D01*
X96910714Y-36359580D02*
X96863095Y-36264342D01*
X96863095Y-36264342D02*
X96863095Y-36026247D01*
X96863095Y-36026247D02*
X96910714Y-35931009D01*
X96910714Y-35931009D02*
X96958333Y-35883390D01*
X96958333Y-35883390D02*
X97053571Y-35835771D01*
X97053571Y-35835771D02*
X97244047Y-35835771D01*
X97244047Y-35835771D02*
X97339285Y-35883390D01*
X97339285Y-35883390D02*
X97386904Y-35931009D01*
X97386904Y-35931009D02*
X97434523Y-36026247D01*
X99339285Y-19454819D02*
X99339285Y-18454819D01*
X99339285Y-18454819D02*
X99101190Y-18454819D01*
X99101190Y-18454819D02*
X98958333Y-18502438D01*
X98958333Y-18502438D02*
X98863095Y-18597676D01*
X98863095Y-18597676D02*
X98815476Y-18692914D01*
X98815476Y-18692914D02*
X98767857Y-18883390D01*
X98767857Y-18883390D02*
X98767857Y-19026247D01*
X98767857Y-19026247D02*
X98815476Y-19216723D01*
X98815476Y-19216723D02*
X98863095Y-19311961D01*
X98863095Y-19311961D02*
X98958333Y-19407200D01*
X98958333Y-19407200D02*
X99101190Y-19454819D01*
X99101190Y-19454819D02*
X99339285Y-19454819D01*
X97815476Y-19454819D02*
X98386904Y-19454819D01*
X98101190Y-19454819D02*
X98101190Y-18454819D01*
X98101190Y-18454819D02*
X98196428Y-18597676D01*
X98196428Y-18597676D02*
X98291666Y-18692914D01*
X98291666Y-18692914D02*
X98386904Y-18740533D01*
X97196428Y-18454819D02*
X97101190Y-18454819D01*
X97101190Y-18454819D02*
X97005952Y-18502438D01*
X97005952Y-18502438D02*
X96958333Y-18550057D01*
X96958333Y-18550057D02*
X96910714Y-18645295D01*
X96910714Y-18645295D02*
X96863095Y-18835771D01*
X96863095Y-18835771D02*
X96863095Y-19073866D01*
X96863095Y-19073866D02*
X96910714Y-19264342D01*
X96910714Y-19264342D02*
X96958333Y-19359580D01*
X96958333Y-19359580D02*
X97005952Y-19407200D01*
X97005952Y-19407200D02*
X97101190Y-19454819D01*
X97101190Y-19454819D02*
X97196428Y-19454819D01*
X97196428Y-19454819D02*
X97291666Y-19407200D01*
X97291666Y-19407200D02*
X97339285Y-19359580D01*
X97339285Y-19359580D02*
X97386904Y-19264342D01*
X97386904Y-19264342D02*
X97434523Y-19073866D01*
X97434523Y-19073866D02*
X97434523Y-18835771D01*
X97434523Y-18835771D02*
X97386904Y-18645295D01*
X97386904Y-18645295D02*
X97339285Y-18550057D01*
X97339285Y-18550057D02*
X97291666Y-18502438D01*
X97291666Y-18502438D02*
X97196428Y-18454819D01*
X27139285Y-32954819D02*
X27139285Y-31954819D01*
X27139285Y-31954819D02*
X26901190Y-31954819D01*
X26901190Y-31954819D02*
X26758333Y-32002438D01*
X26758333Y-32002438D02*
X26663095Y-32097676D01*
X26663095Y-32097676D02*
X26615476Y-32192914D01*
X26615476Y-32192914D02*
X26567857Y-32383390D01*
X26567857Y-32383390D02*
X26567857Y-32526247D01*
X26567857Y-32526247D02*
X26615476Y-32716723D01*
X26615476Y-32716723D02*
X26663095Y-32811961D01*
X26663095Y-32811961D02*
X26758333Y-32907200D01*
X26758333Y-32907200D02*
X26901190Y-32954819D01*
X26901190Y-32954819D02*
X27139285Y-32954819D01*
X26234523Y-31954819D02*
X25615476Y-31954819D01*
X25615476Y-31954819D02*
X25948809Y-32335771D01*
X25948809Y-32335771D02*
X25805952Y-32335771D01*
X25805952Y-32335771D02*
X25710714Y-32383390D01*
X25710714Y-32383390D02*
X25663095Y-32431009D01*
X25663095Y-32431009D02*
X25615476Y-32526247D01*
X25615476Y-32526247D02*
X25615476Y-32764342D01*
X25615476Y-32764342D02*
X25663095Y-32859580D01*
X25663095Y-32859580D02*
X25710714Y-32907200D01*
X25710714Y-32907200D02*
X25805952Y-32954819D01*
X25805952Y-32954819D02*
X26091666Y-32954819D01*
X26091666Y-32954819D02*
X26186904Y-32907200D01*
X26186904Y-32907200D02*
X26234523Y-32859580D01*
X24996428Y-31954819D02*
X24901190Y-31954819D01*
X24901190Y-31954819D02*
X24805952Y-32002438D01*
X24805952Y-32002438D02*
X24758333Y-32050057D01*
X24758333Y-32050057D02*
X24710714Y-32145295D01*
X24710714Y-32145295D02*
X24663095Y-32335771D01*
X24663095Y-32335771D02*
X24663095Y-32573866D01*
X24663095Y-32573866D02*
X24710714Y-32764342D01*
X24710714Y-32764342D02*
X24758333Y-32859580D01*
X24758333Y-32859580D02*
X24805952Y-32907200D01*
X24805952Y-32907200D02*
X24901190Y-32954819D01*
X24901190Y-32954819D02*
X24996428Y-32954819D01*
X24996428Y-32954819D02*
X25091666Y-32907200D01*
X25091666Y-32907200D02*
X25139285Y-32859580D01*
X25139285Y-32859580D02*
X25186904Y-32764342D01*
X25186904Y-32764342D02*
X25234523Y-32573866D01*
X25234523Y-32573866D02*
X25234523Y-32335771D01*
X25234523Y-32335771D02*
X25186904Y-32145295D01*
X25186904Y-32145295D02*
X25139285Y-32050057D01*
X25139285Y-32050057D02*
X25091666Y-32002438D01*
X25091666Y-32002438D02*
X24996428Y-31954819D01*
X34982953Y-94693792D02*
X34482953Y-93827767D01*
X34482953Y-93827767D02*
X34276757Y-93946815D01*
X34276757Y-93946815D02*
X34176848Y-94059483D01*
X34176848Y-94059483D02*
X34141989Y-94189580D01*
X34141989Y-94189580D02*
X34148369Y-94295868D01*
X34148369Y-94295868D02*
X34202367Y-94484635D01*
X34202367Y-94484635D02*
X34273796Y-94608353D01*
X34273796Y-94608353D02*
X34410273Y-94749501D01*
X34410273Y-94749501D02*
X34499132Y-94808170D01*
X34499132Y-94808170D02*
X34629229Y-94843029D01*
X34629229Y-94843029D02*
X34776757Y-94812840D01*
X34776757Y-94812840D02*
X34982953Y-94693792D01*
X33705786Y-94386436D02*
X33640737Y-94369006D01*
X33640737Y-94369006D02*
X33534449Y-94375386D01*
X33534449Y-94375386D02*
X33328253Y-94494434D01*
X33328253Y-94494434D02*
X33269584Y-94583292D01*
X33269584Y-94583292D02*
X33252154Y-94648341D01*
X33252154Y-94648341D02*
X33258534Y-94754629D01*
X33258534Y-94754629D02*
X33306153Y-94837108D01*
X33306153Y-94837108D02*
X33418821Y-94937016D01*
X33418821Y-94937016D02*
X34199407Y-95146173D01*
X34199407Y-95146173D02*
X33663296Y-95455697D01*
X32882710Y-95246540D02*
X32941379Y-95157682D01*
X32941379Y-95157682D02*
X32958808Y-95092633D01*
X32958808Y-95092633D02*
X32952429Y-94986345D01*
X32952429Y-94986345D02*
X32928619Y-94945105D01*
X32928619Y-94945105D02*
X32839761Y-94886436D01*
X32839761Y-94886436D02*
X32774712Y-94869006D01*
X32774712Y-94869006D02*
X32668424Y-94875386D01*
X32668424Y-94875386D02*
X32503467Y-94970624D01*
X32503467Y-94970624D02*
X32444798Y-95059483D01*
X32444798Y-95059483D02*
X32427368Y-95124531D01*
X32427368Y-95124531D02*
X32433748Y-95230820D01*
X32433748Y-95230820D02*
X32457557Y-95272059D01*
X32457557Y-95272059D02*
X32546415Y-95330728D01*
X32546415Y-95330728D02*
X32611464Y-95348158D01*
X32611464Y-95348158D02*
X32717752Y-95341778D01*
X32717752Y-95341778D02*
X32882710Y-95246540D01*
X32882710Y-95246540D02*
X32988998Y-95240160D01*
X32988998Y-95240160D02*
X33054047Y-95257590D01*
X33054047Y-95257590D02*
X33142905Y-95316259D01*
X33142905Y-95316259D02*
X33238143Y-95481216D01*
X33238143Y-95481216D02*
X33244523Y-95587504D01*
X33244523Y-95587504D02*
X33227093Y-95652553D01*
X33227093Y-95652553D02*
X33168424Y-95741412D01*
X33168424Y-95741412D02*
X33003467Y-95836650D01*
X33003467Y-95836650D02*
X32897179Y-95843029D01*
X32897179Y-95843029D02*
X32832130Y-95825600D01*
X32832130Y-95825600D02*
X32743271Y-95766931D01*
X32743271Y-95766931D02*
X32648033Y-95601973D01*
X32648033Y-95601973D02*
X32641654Y-95495685D01*
X32641654Y-95495685D02*
X32659083Y-95430636D01*
X32659083Y-95430636D02*
X32717752Y-95341778D01*
X45639285Y-24454819D02*
X45639285Y-23454819D01*
X45639285Y-23454819D02*
X45401190Y-23454819D01*
X45401190Y-23454819D02*
X45258333Y-23502438D01*
X45258333Y-23502438D02*
X45163095Y-23597676D01*
X45163095Y-23597676D02*
X45115476Y-23692914D01*
X45115476Y-23692914D02*
X45067857Y-23883390D01*
X45067857Y-23883390D02*
X45067857Y-24026247D01*
X45067857Y-24026247D02*
X45115476Y-24216723D01*
X45115476Y-24216723D02*
X45163095Y-24311961D01*
X45163095Y-24311961D02*
X45258333Y-24407200D01*
X45258333Y-24407200D02*
X45401190Y-24454819D01*
X45401190Y-24454819D02*
X45639285Y-24454819D01*
X44115476Y-24454819D02*
X44686904Y-24454819D01*
X44401190Y-24454819D02*
X44401190Y-23454819D01*
X44401190Y-23454819D02*
X44496428Y-23597676D01*
X44496428Y-23597676D02*
X44591666Y-23692914D01*
X44591666Y-23692914D02*
X44686904Y-23740533D01*
X43782142Y-23454819D02*
X43163095Y-23454819D01*
X43163095Y-23454819D02*
X43496428Y-23835771D01*
X43496428Y-23835771D02*
X43353571Y-23835771D01*
X43353571Y-23835771D02*
X43258333Y-23883390D01*
X43258333Y-23883390D02*
X43210714Y-23931009D01*
X43210714Y-23931009D02*
X43163095Y-24026247D01*
X43163095Y-24026247D02*
X43163095Y-24264342D01*
X43163095Y-24264342D02*
X43210714Y-24359580D01*
X43210714Y-24359580D02*
X43258333Y-24407200D01*
X43258333Y-24407200D02*
X43353571Y-24454819D01*
X43353571Y-24454819D02*
X43639285Y-24454819D01*
X43639285Y-24454819D02*
X43734523Y-24407200D01*
X43734523Y-24407200D02*
X43782142Y-24359580D01*
X81339285Y-14454819D02*
X81339285Y-13454819D01*
X81339285Y-13454819D02*
X81101190Y-13454819D01*
X81101190Y-13454819D02*
X80958333Y-13502438D01*
X80958333Y-13502438D02*
X80863095Y-13597676D01*
X80863095Y-13597676D02*
X80815476Y-13692914D01*
X80815476Y-13692914D02*
X80767857Y-13883390D01*
X80767857Y-13883390D02*
X80767857Y-14026247D01*
X80767857Y-14026247D02*
X80815476Y-14216723D01*
X80815476Y-14216723D02*
X80863095Y-14311961D01*
X80863095Y-14311961D02*
X80958333Y-14407200D01*
X80958333Y-14407200D02*
X81101190Y-14454819D01*
X81101190Y-14454819D02*
X81339285Y-14454819D01*
X79815476Y-14454819D02*
X80386904Y-14454819D01*
X80101190Y-14454819D02*
X80101190Y-13454819D01*
X80101190Y-13454819D02*
X80196428Y-13597676D01*
X80196428Y-13597676D02*
X80291666Y-13692914D01*
X80291666Y-13692914D02*
X80386904Y-13740533D01*
X78863095Y-14454819D02*
X79434523Y-14454819D01*
X79148809Y-14454819D02*
X79148809Y-13454819D01*
X79148809Y-13454819D02*
X79244047Y-13597676D01*
X79244047Y-13597676D02*
X79339285Y-13692914D01*
X79339285Y-13692914D02*
X79434523Y-13740533D01*
X81339285Y-31454819D02*
X81339285Y-30454819D01*
X81339285Y-30454819D02*
X81101190Y-30454819D01*
X81101190Y-30454819D02*
X80958333Y-30502438D01*
X80958333Y-30502438D02*
X80863095Y-30597676D01*
X80863095Y-30597676D02*
X80815476Y-30692914D01*
X80815476Y-30692914D02*
X80767857Y-30883390D01*
X80767857Y-30883390D02*
X80767857Y-31026247D01*
X80767857Y-31026247D02*
X80815476Y-31216723D01*
X80815476Y-31216723D02*
X80863095Y-31311961D01*
X80863095Y-31311961D02*
X80958333Y-31407200D01*
X80958333Y-31407200D02*
X81101190Y-31454819D01*
X81101190Y-31454819D02*
X81339285Y-31454819D01*
X79815476Y-31454819D02*
X80386904Y-31454819D01*
X80101190Y-31454819D02*
X80101190Y-30454819D01*
X80101190Y-30454819D02*
X80196428Y-30597676D01*
X80196428Y-30597676D02*
X80291666Y-30692914D01*
X80291666Y-30692914D02*
X80386904Y-30740533D01*
X79482142Y-30454819D02*
X78815476Y-30454819D01*
X78815476Y-30454819D02*
X79244047Y-31454819D01*
X135339285Y-41454819D02*
X135339285Y-40454819D01*
X135339285Y-40454819D02*
X135101190Y-40454819D01*
X135101190Y-40454819D02*
X134958333Y-40502438D01*
X134958333Y-40502438D02*
X134863095Y-40597676D01*
X134863095Y-40597676D02*
X134815476Y-40692914D01*
X134815476Y-40692914D02*
X134767857Y-40883390D01*
X134767857Y-40883390D02*
X134767857Y-41026247D01*
X134767857Y-41026247D02*
X134815476Y-41216723D01*
X134815476Y-41216723D02*
X134863095Y-41311961D01*
X134863095Y-41311961D02*
X134958333Y-41407200D01*
X134958333Y-41407200D02*
X135101190Y-41454819D01*
X135101190Y-41454819D02*
X135339285Y-41454819D01*
X133815476Y-41454819D02*
X134386904Y-41454819D01*
X134101190Y-41454819D02*
X134101190Y-40454819D01*
X134101190Y-40454819D02*
X134196428Y-40597676D01*
X134196428Y-40597676D02*
X134291666Y-40692914D01*
X134291666Y-40692914D02*
X134386904Y-40740533D01*
X132958333Y-40788152D02*
X132958333Y-41454819D01*
X133196428Y-40407200D02*
X133434523Y-41121485D01*
X133434523Y-41121485D02*
X132815476Y-41121485D01*
X135339285Y-58454819D02*
X135339285Y-57454819D01*
X135339285Y-57454819D02*
X135101190Y-57454819D01*
X135101190Y-57454819D02*
X134958333Y-57502438D01*
X134958333Y-57502438D02*
X134863095Y-57597676D01*
X134863095Y-57597676D02*
X134815476Y-57692914D01*
X134815476Y-57692914D02*
X134767857Y-57883390D01*
X134767857Y-57883390D02*
X134767857Y-58026247D01*
X134767857Y-58026247D02*
X134815476Y-58216723D01*
X134815476Y-58216723D02*
X134863095Y-58311961D01*
X134863095Y-58311961D02*
X134958333Y-58407200D01*
X134958333Y-58407200D02*
X135101190Y-58454819D01*
X135101190Y-58454819D02*
X135339285Y-58454819D01*
X134386904Y-57550057D02*
X134339285Y-57502438D01*
X134339285Y-57502438D02*
X134244047Y-57454819D01*
X134244047Y-57454819D02*
X134005952Y-57454819D01*
X134005952Y-57454819D02*
X133910714Y-57502438D01*
X133910714Y-57502438D02*
X133863095Y-57550057D01*
X133863095Y-57550057D02*
X133815476Y-57645295D01*
X133815476Y-57645295D02*
X133815476Y-57740533D01*
X133815476Y-57740533D02*
X133863095Y-57883390D01*
X133863095Y-57883390D02*
X134434523Y-58454819D01*
X134434523Y-58454819D02*
X133815476Y-58454819D01*
X133196428Y-57454819D02*
X133101190Y-57454819D01*
X133101190Y-57454819D02*
X133005952Y-57502438D01*
X133005952Y-57502438D02*
X132958333Y-57550057D01*
X132958333Y-57550057D02*
X132910714Y-57645295D01*
X132910714Y-57645295D02*
X132863095Y-57835771D01*
X132863095Y-57835771D02*
X132863095Y-58073866D01*
X132863095Y-58073866D02*
X132910714Y-58264342D01*
X132910714Y-58264342D02*
X132958333Y-58359580D01*
X132958333Y-58359580D02*
X133005952Y-58407200D01*
X133005952Y-58407200D02*
X133101190Y-58454819D01*
X133101190Y-58454819D02*
X133196428Y-58454819D01*
X133196428Y-58454819D02*
X133291666Y-58407200D01*
X133291666Y-58407200D02*
X133339285Y-58359580D01*
X133339285Y-58359580D02*
X133386904Y-58264342D01*
X133386904Y-58264342D02*
X133434523Y-58073866D01*
X133434523Y-58073866D02*
X133434523Y-57835771D01*
X133434523Y-57835771D02*
X133386904Y-57645295D01*
X133386904Y-57645295D02*
X133339285Y-57550057D01*
X133339285Y-57550057D02*
X133291666Y-57502438D01*
X133291666Y-57502438D02*
X133196428Y-57454819D01*
X116863094Y-24454819D02*
X116863094Y-23454819D01*
X116863094Y-23454819D02*
X116624999Y-23454819D01*
X116624999Y-23454819D02*
X116482142Y-23502438D01*
X116482142Y-23502438D02*
X116386904Y-23597676D01*
X116386904Y-23597676D02*
X116339285Y-23692914D01*
X116339285Y-23692914D02*
X116291666Y-23883390D01*
X116291666Y-23883390D02*
X116291666Y-24026247D01*
X116291666Y-24026247D02*
X116339285Y-24216723D01*
X116339285Y-24216723D02*
X116386904Y-24311961D01*
X116386904Y-24311961D02*
X116482142Y-24407200D01*
X116482142Y-24407200D02*
X116624999Y-24454819D01*
X116624999Y-24454819D02*
X116863094Y-24454819D01*
X115815475Y-24454819D02*
X115624999Y-24454819D01*
X115624999Y-24454819D02*
X115529761Y-24407200D01*
X115529761Y-24407200D02*
X115482142Y-24359580D01*
X115482142Y-24359580D02*
X115386904Y-24216723D01*
X115386904Y-24216723D02*
X115339285Y-24026247D01*
X115339285Y-24026247D02*
X115339285Y-23645295D01*
X115339285Y-23645295D02*
X115386904Y-23550057D01*
X115386904Y-23550057D02*
X115434523Y-23502438D01*
X115434523Y-23502438D02*
X115529761Y-23454819D01*
X115529761Y-23454819D02*
X115720237Y-23454819D01*
X115720237Y-23454819D02*
X115815475Y-23502438D01*
X115815475Y-23502438D02*
X115863094Y-23550057D01*
X115863094Y-23550057D02*
X115910713Y-23645295D01*
X115910713Y-23645295D02*
X115910713Y-23883390D01*
X115910713Y-23883390D02*
X115863094Y-23978628D01*
X115863094Y-23978628D02*
X115815475Y-24026247D01*
X115815475Y-24026247D02*
X115720237Y-24073866D01*
X115720237Y-24073866D02*
X115529761Y-24073866D01*
X115529761Y-24073866D02*
X115434523Y-24026247D01*
X115434523Y-24026247D02*
X115386904Y-23978628D01*
X115386904Y-23978628D02*
X115339285Y-23883390D01*
X98863094Y-2454819D02*
X98863094Y-1454819D01*
X98863094Y-1454819D02*
X98624999Y-1454819D01*
X98624999Y-1454819D02*
X98482142Y-1502438D01*
X98482142Y-1502438D02*
X98386904Y-1597676D01*
X98386904Y-1597676D02*
X98339285Y-1692914D01*
X98339285Y-1692914D02*
X98291666Y-1883390D01*
X98291666Y-1883390D02*
X98291666Y-2026247D01*
X98291666Y-2026247D02*
X98339285Y-2216723D01*
X98339285Y-2216723D02*
X98386904Y-2311961D01*
X98386904Y-2311961D02*
X98482142Y-2407200D01*
X98482142Y-2407200D02*
X98624999Y-2454819D01*
X98624999Y-2454819D02*
X98863094Y-2454819D01*
X97434523Y-1788152D02*
X97434523Y-2454819D01*
X97672618Y-1407200D02*
X97910713Y-2121485D01*
X97910713Y-2121485D02*
X97291666Y-2121485D01*
X134863094Y-24454819D02*
X134863094Y-23454819D01*
X134863094Y-23454819D02*
X134624999Y-23454819D01*
X134624999Y-23454819D02*
X134482142Y-23502438D01*
X134482142Y-23502438D02*
X134386904Y-23597676D01*
X134386904Y-23597676D02*
X134339285Y-23692914D01*
X134339285Y-23692914D02*
X134291666Y-23883390D01*
X134291666Y-23883390D02*
X134291666Y-24026247D01*
X134291666Y-24026247D02*
X134339285Y-24216723D01*
X134339285Y-24216723D02*
X134386904Y-24311961D01*
X134386904Y-24311961D02*
X134482142Y-24407200D01*
X134482142Y-24407200D02*
X134624999Y-24454819D01*
X134624999Y-24454819D02*
X134863094Y-24454819D01*
X133720237Y-23883390D02*
X133815475Y-23835771D01*
X133815475Y-23835771D02*
X133863094Y-23788152D01*
X133863094Y-23788152D02*
X133910713Y-23692914D01*
X133910713Y-23692914D02*
X133910713Y-23645295D01*
X133910713Y-23645295D02*
X133863094Y-23550057D01*
X133863094Y-23550057D02*
X133815475Y-23502438D01*
X133815475Y-23502438D02*
X133720237Y-23454819D01*
X133720237Y-23454819D02*
X133529761Y-23454819D01*
X133529761Y-23454819D02*
X133434523Y-23502438D01*
X133434523Y-23502438D02*
X133386904Y-23550057D01*
X133386904Y-23550057D02*
X133339285Y-23645295D01*
X133339285Y-23645295D02*
X133339285Y-23692914D01*
X133339285Y-23692914D02*
X133386904Y-23788152D01*
X133386904Y-23788152D02*
X133434523Y-23835771D01*
X133434523Y-23835771D02*
X133529761Y-23883390D01*
X133529761Y-23883390D02*
X133720237Y-23883390D01*
X133720237Y-23883390D02*
X133815475Y-23931009D01*
X133815475Y-23931009D02*
X133863094Y-23978628D01*
X133863094Y-23978628D02*
X133910713Y-24073866D01*
X133910713Y-24073866D02*
X133910713Y-24264342D01*
X133910713Y-24264342D02*
X133863094Y-24359580D01*
X133863094Y-24359580D02*
X133815475Y-24407200D01*
X133815475Y-24407200D02*
X133720237Y-24454819D01*
X133720237Y-24454819D02*
X133529761Y-24454819D01*
X133529761Y-24454819D02*
X133434523Y-24407200D01*
X133434523Y-24407200D02*
X133386904Y-24359580D01*
X133386904Y-24359580D02*
X133339285Y-24264342D01*
X133339285Y-24264342D02*
X133339285Y-24073866D01*
X133339285Y-24073866D02*
X133386904Y-23978628D01*
X133386904Y-23978628D02*
X133434523Y-23931009D01*
X133434523Y-23931009D02*
X133529761Y-23883390D01*
X99339285Y-53454819D02*
X99339285Y-52454819D01*
X99339285Y-52454819D02*
X99101190Y-52454819D01*
X99101190Y-52454819D02*
X98958333Y-52502438D01*
X98958333Y-52502438D02*
X98863095Y-52597676D01*
X98863095Y-52597676D02*
X98815476Y-52692914D01*
X98815476Y-52692914D02*
X98767857Y-52883390D01*
X98767857Y-52883390D02*
X98767857Y-53026247D01*
X98767857Y-53026247D02*
X98815476Y-53216723D01*
X98815476Y-53216723D02*
X98863095Y-53311961D01*
X98863095Y-53311961D02*
X98958333Y-53407200D01*
X98958333Y-53407200D02*
X99101190Y-53454819D01*
X99101190Y-53454819D02*
X99339285Y-53454819D01*
X98386904Y-52550057D02*
X98339285Y-52502438D01*
X98339285Y-52502438D02*
X98244047Y-52454819D01*
X98244047Y-52454819D02*
X98005952Y-52454819D01*
X98005952Y-52454819D02*
X97910714Y-52502438D01*
X97910714Y-52502438D02*
X97863095Y-52550057D01*
X97863095Y-52550057D02*
X97815476Y-52645295D01*
X97815476Y-52645295D02*
X97815476Y-52740533D01*
X97815476Y-52740533D02*
X97863095Y-52883390D01*
X97863095Y-52883390D02*
X98434523Y-53454819D01*
X98434523Y-53454819D02*
X97815476Y-53454819D01*
X97434523Y-52550057D02*
X97386904Y-52502438D01*
X97386904Y-52502438D02*
X97291666Y-52454819D01*
X97291666Y-52454819D02*
X97053571Y-52454819D01*
X97053571Y-52454819D02*
X96958333Y-52502438D01*
X96958333Y-52502438D02*
X96910714Y-52550057D01*
X96910714Y-52550057D02*
X96863095Y-52645295D01*
X96863095Y-52645295D02*
X96863095Y-52740533D01*
X96863095Y-52740533D02*
X96910714Y-52883390D01*
X96910714Y-52883390D02*
X97482142Y-53454819D01*
X97482142Y-53454819D02*
X96863095Y-53454819D01*
X53177041Y-87056893D02*
X52918222Y-86090967D01*
X52918222Y-86090967D02*
X52688240Y-86152590D01*
X52688240Y-86152590D02*
X52562575Y-86235561D01*
X52562575Y-86235561D02*
X52495232Y-86352203D01*
X52495232Y-86352203D02*
X52473885Y-86456521D01*
X52473885Y-86456521D02*
X52477187Y-86652832D01*
X52477187Y-86652832D02*
X52514161Y-86790821D01*
X52514161Y-86790821D02*
X52609457Y-86962482D01*
X52609457Y-86962482D02*
X52680102Y-87042150D01*
X52680102Y-87042150D02*
X52796745Y-87109494D01*
X52796745Y-87109494D02*
X52947059Y-87118516D01*
X52947059Y-87118516D02*
X53177041Y-87056893D01*
X52022942Y-86429454D02*
X51964621Y-86395782D01*
X51964621Y-86395782D02*
X51860304Y-86374435D01*
X51860304Y-86374435D02*
X51630321Y-86436059D01*
X51630321Y-86436059D02*
X51550653Y-86506705D01*
X51550653Y-86506705D02*
X51516981Y-86565026D01*
X51516981Y-86565026D02*
X51495634Y-86669344D01*
X51495634Y-86669344D02*
X51520284Y-86761337D01*
X51520284Y-86761337D02*
X51603254Y-86887001D01*
X51603254Y-86887001D02*
X52303108Y-87291062D01*
X52303108Y-87291062D02*
X51705154Y-87451284D01*
X51124360Y-86571631D02*
X50480409Y-86744177D01*
X50480409Y-86744177D02*
X51153197Y-87599180D01*
X117339285Y-58454819D02*
X117339285Y-57454819D01*
X117339285Y-57454819D02*
X117101190Y-57454819D01*
X117101190Y-57454819D02*
X116958333Y-57502438D01*
X116958333Y-57502438D02*
X116863095Y-57597676D01*
X116863095Y-57597676D02*
X116815476Y-57692914D01*
X116815476Y-57692914D02*
X116767857Y-57883390D01*
X116767857Y-57883390D02*
X116767857Y-58026247D01*
X116767857Y-58026247D02*
X116815476Y-58216723D01*
X116815476Y-58216723D02*
X116863095Y-58311961D01*
X116863095Y-58311961D02*
X116958333Y-58407200D01*
X116958333Y-58407200D02*
X117101190Y-58454819D01*
X117101190Y-58454819D02*
X117339285Y-58454819D01*
X116386904Y-57550057D02*
X116339285Y-57502438D01*
X116339285Y-57502438D02*
X116244047Y-57454819D01*
X116244047Y-57454819D02*
X116005952Y-57454819D01*
X116005952Y-57454819D02*
X115910714Y-57502438D01*
X115910714Y-57502438D02*
X115863095Y-57550057D01*
X115863095Y-57550057D02*
X115815476Y-57645295D01*
X115815476Y-57645295D02*
X115815476Y-57740533D01*
X115815476Y-57740533D02*
X115863095Y-57883390D01*
X115863095Y-57883390D02*
X116434523Y-58454819D01*
X116434523Y-58454819D02*
X115815476Y-58454819D01*
X114863095Y-58454819D02*
X115434523Y-58454819D01*
X115148809Y-58454819D02*
X115148809Y-57454819D01*
X115148809Y-57454819D02*
X115244047Y-57597676D01*
X115244047Y-57597676D02*
X115339285Y-57692914D01*
X115339285Y-57692914D02*
X115434523Y-57740533D01*
X45163094Y-7454819D02*
X45163094Y-6454819D01*
X45163094Y-6454819D02*
X44924999Y-6454819D01*
X44924999Y-6454819D02*
X44782142Y-6502438D01*
X44782142Y-6502438D02*
X44686904Y-6597676D01*
X44686904Y-6597676D02*
X44639285Y-6692914D01*
X44639285Y-6692914D02*
X44591666Y-6883390D01*
X44591666Y-6883390D02*
X44591666Y-7026247D01*
X44591666Y-7026247D02*
X44639285Y-7216723D01*
X44639285Y-7216723D02*
X44686904Y-7311961D01*
X44686904Y-7311961D02*
X44782142Y-7407200D01*
X44782142Y-7407200D02*
X44924999Y-7454819D01*
X44924999Y-7454819D02*
X45163094Y-7454819D01*
X44258332Y-6454819D02*
X43591666Y-6454819D01*
X43591666Y-6454819D02*
X44020237Y-7454819D01*
X62663094Y-2454819D02*
X62663094Y-1454819D01*
X62663094Y-1454819D02*
X62424999Y-1454819D01*
X62424999Y-1454819D02*
X62282142Y-1502438D01*
X62282142Y-1502438D02*
X62186904Y-1597676D01*
X62186904Y-1597676D02*
X62139285Y-1692914D01*
X62139285Y-1692914D02*
X62091666Y-1883390D01*
X62091666Y-1883390D02*
X62091666Y-2026247D01*
X62091666Y-2026247D02*
X62139285Y-2216723D01*
X62139285Y-2216723D02*
X62186904Y-2311961D01*
X62186904Y-2311961D02*
X62282142Y-2407200D01*
X62282142Y-2407200D02*
X62424999Y-2454819D01*
X62424999Y-2454819D02*
X62663094Y-2454819D01*
X61234523Y-1454819D02*
X61424999Y-1454819D01*
X61424999Y-1454819D02*
X61520237Y-1502438D01*
X61520237Y-1502438D02*
X61567856Y-1550057D01*
X61567856Y-1550057D02*
X61663094Y-1692914D01*
X61663094Y-1692914D02*
X61710713Y-1883390D01*
X61710713Y-1883390D02*
X61710713Y-2264342D01*
X61710713Y-2264342D02*
X61663094Y-2359580D01*
X61663094Y-2359580D02*
X61615475Y-2407200D01*
X61615475Y-2407200D02*
X61520237Y-2454819D01*
X61520237Y-2454819D02*
X61329761Y-2454819D01*
X61329761Y-2454819D02*
X61234523Y-2407200D01*
X61234523Y-2407200D02*
X61186904Y-2359580D01*
X61186904Y-2359580D02*
X61139285Y-2264342D01*
X61139285Y-2264342D02*
X61139285Y-2026247D01*
X61139285Y-2026247D02*
X61186904Y-1931009D01*
X61186904Y-1931009D02*
X61234523Y-1883390D01*
X61234523Y-1883390D02*
X61329761Y-1835771D01*
X61329761Y-1835771D02*
X61520237Y-1835771D01*
X61520237Y-1835771D02*
X61615475Y-1883390D01*
X61615475Y-1883390D02*
X61663094Y-1931009D01*
X61663094Y-1931009D02*
X61710713Y-2026247D01*
X45639285Y-41454819D02*
X45639285Y-40454819D01*
X45639285Y-40454819D02*
X45401190Y-40454819D01*
X45401190Y-40454819D02*
X45258333Y-40502438D01*
X45258333Y-40502438D02*
X45163095Y-40597676D01*
X45163095Y-40597676D02*
X45115476Y-40692914D01*
X45115476Y-40692914D02*
X45067857Y-40883390D01*
X45067857Y-40883390D02*
X45067857Y-41026247D01*
X45067857Y-41026247D02*
X45115476Y-41216723D01*
X45115476Y-41216723D02*
X45163095Y-41311961D01*
X45163095Y-41311961D02*
X45258333Y-41407200D01*
X45258333Y-41407200D02*
X45401190Y-41454819D01*
X45401190Y-41454819D02*
X45639285Y-41454819D01*
X44115476Y-41454819D02*
X44686904Y-41454819D01*
X44401190Y-41454819D02*
X44401190Y-40454819D01*
X44401190Y-40454819D02*
X44496428Y-40597676D01*
X44496428Y-40597676D02*
X44591666Y-40692914D01*
X44591666Y-40692914D02*
X44686904Y-40740533D01*
X43639285Y-41454819D02*
X43448809Y-41454819D01*
X43448809Y-41454819D02*
X43353571Y-41407200D01*
X43353571Y-41407200D02*
X43305952Y-41359580D01*
X43305952Y-41359580D02*
X43210714Y-41216723D01*
X43210714Y-41216723D02*
X43163095Y-41026247D01*
X43163095Y-41026247D02*
X43163095Y-40645295D01*
X43163095Y-40645295D02*
X43210714Y-40550057D01*
X43210714Y-40550057D02*
X43258333Y-40502438D01*
X43258333Y-40502438D02*
X43353571Y-40454819D01*
X43353571Y-40454819D02*
X43544047Y-40454819D01*
X43544047Y-40454819D02*
X43639285Y-40502438D01*
X43639285Y-40502438D02*
X43686904Y-40550057D01*
X43686904Y-40550057D02*
X43734523Y-40645295D01*
X43734523Y-40645295D02*
X43734523Y-40883390D01*
X43734523Y-40883390D02*
X43686904Y-40978628D01*
X43686904Y-40978628D02*
X43639285Y-41026247D01*
X43639285Y-41026247D02*
X43544047Y-41073866D01*
X43544047Y-41073866D02*
X43353571Y-41073866D01*
X43353571Y-41073866D02*
X43258333Y-41026247D01*
X43258333Y-41026247D02*
X43210714Y-40978628D01*
X43210714Y-40978628D02*
X43163095Y-40883390D01*
X81339285Y-48454819D02*
X81339285Y-47454819D01*
X81339285Y-47454819D02*
X81101190Y-47454819D01*
X81101190Y-47454819D02*
X80958333Y-47502438D01*
X80958333Y-47502438D02*
X80863095Y-47597676D01*
X80863095Y-47597676D02*
X80815476Y-47692914D01*
X80815476Y-47692914D02*
X80767857Y-47883390D01*
X80767857Y-47883390D02*
X80767857Y-48026247D01*
X80767857Y-48026247D02*
X80815476Y-48216723D01*
X80815476Y-48216723D02*
X80863095Y-48311961D01*
X80863095Y-48311961D02*
X80958333Y-48407200D01*
X80958333Y-48407200D02*
X81101190Y-48454819D01*
X81101190Y-48454819D02*
X81339285Y-48454819D01*
X80386904Y-47550057D02*
X80339285Y-47502438D01*
X80339285Y-47502438D02*
X80244047Y-47454819D01*
X80244047Y-47454819D02*
X80005952Y-47454819D01*
X80005952Y-47454819D02*
X79910714Y-47502438D01*
X79910714Y-47502438D02*
X79863095Y-47550057D01*
X79863095Y-47550057D02*
X79815476Y-47645295D01*
X79815476Y-47645295D02*
X79815476Y-47740533D01*
X79815476Y-47740533D02*
X79863095Y-47883390D01*
X79863095Y-47883390D02*
X80434523Y-48454819D01*
X80434523Y-48454819D02*
X79815476Y-48454819D01*
X79482142Y-47454819D02*
X78863095Y-47454819D01*
X78863095Y-47454819D02*
X79196428Y-47835771D01*
X79196428Y-47835771D02*
X79053571Y-47835771D01*
X79053571Y-47835771D02*
X78958333Y-47883390D01*
X78958333Y-47883390D02*
X78910714Y-47931009D01*
X78910714Y-47931009D02*
X78863095Y-48026247D01*
X78863095Y-48026247D02*
X78863095Y-48264342D01*
X78863095Y-48264342D02*
X78910714Y-48359580D01*
X78910714Y-48359580D02*
X78958333Y-48407200D01*
X78958333Y-48407200D02*
X79053571Y-48454819D01*
X79053571Y-48454819D02*
X79339285Y-48454819D01*
X79339285Y-48454819D02*
X79434523Y-48407200D01*
X79434523Y-48407200D02*
X79482142Y-48359580D01*
X27139285Y-15954819D02*
X27139285Y-14954819D01*
X27139285Y-14954819D02*
X26901190Y-14954819D01*
X26901190Y-14954819D02*
X26758333Y-15002438D01*
X26758333Y-15002438D02*
X26663095Y-15097676D01*
X26663095Y-15097676D02*
X26615476Y-15192914D01*
X26615476Y-15192914D02*
X26567857Y-15383390D01*
X26567857Y-15383390D02*
X26567857Y-15526247D01*
X26567857Y-15526247D02*
X26615476Y-15716723D01*
X26615476Y-15716723D02*
X26663095Y-15811961D01*
X26663095Y-15811961D02*
X26758333Y-15907200D01*
X26758333Y-15907200D02*
X26901190Y-15954819D01*
X26901190Y-15954819D02*
X27139285Y-15954819D01*
X26234523Y-14954819D02*
X25615476Y-14954819D01*
X25615476Y-14954819D02*
X25948809Y-15335771D01*
X25948809Y-15335771D02*
X25805952Y-15335771D01*
X25805952Y-15335771D02*
X25710714Y-15383390D01*
X25710714Y-15383390D02*
X25663095Y-15431009D01*
X25663095Y-15431009D02*
X25615476Y-15526247D01*
X25615476Y-15526247D02*
X25615476Y-15764342D01*
X25615476Y-15764342D02*
X25663095Y-15859580D01*
X25663095Y-15859580D02*
X25710714Y-15907200D01*
X25710714Y-15907200D02*
X25805952Y-15954819D01*
X25805952Y-15954819D02*
X26091666Y-15954819D01*
X26091666Y-15954819D02*
X26186904Y-15907200D01*
X26186904Y-15907200D02*
X26234523Y-15859580D01*
X24663095Y-15954819D02*
X25234523Y-15954819D01*
X24948809Y-15954819D02*
X24948809Y-14954819D01*
X24948809Y-14954819D02*
X25044047Y-15097676D01*
X25044047Y-15097676D02*
X25139285Y-15192914D01*
X25139285Y-15192914D02*
X25234523Y-15240533D01*
X80863094Y2545180D02*
X80863094Y3545180D01*
X80863094Y3545180D02*
X80624999Y3545180D01*
X80624999Y3545180D02*
X80482142Y3497561D01*
X80482142Y3497561D02*
X80386904Y3402323D01*
X80386904Y3402323D02*
X80339285Y3307085D01*
X80339285Y3307085D02*
X80291666Y3116609D01*
X80291666Y3116609D02*
X80291666Y2973752D01*
X80291666Y2973752D02*
X80339285Y2783276D01*
X80339285Y2783276D02*
X80386904Y2688038D01*
X80386904Y2688038D02*
X80482142Y2592800D01*
X80482142Y2592800D02*
X80624999Y2545180D01*
X80624999Y2545180D02*
X80863094Y2545180D01*
X79386904Y3545180D02*
X79863094Y3545180D01*
X79863094Y3545180D02*
X79910713Y3068990D01*
X79910713Y3068990D02*
X79863094Y3116609D01*
X79863094Y3116609D02*
X79767856Y3164228D01*
X79767856Y3164228D02*
X79529761Y3164228D01*
X79529761Y3164228D02*
X79434523Y3116609D01*
X79434523Y3116609D02*
X79386904Y3068990D01*
X79386904Y3068990D02*
X79339285Y2973752D01*
X79339285Y2973752D02*
X79339285Y2735657D01*
X79339285Y2735657D02*
X79386904Y2640419D01*
X79386904Y2640419D02*
X79434523Y2592800D01*
X79434523Y2592800D02*
X79529761Y2545180D01*
X79529761Y2545180D02*
X79767856Y2545180D01*
X79767856Y2545180D02*
X79863094Y2592800D01*
X79863094Y2592800D02*
X79910713Y2640419D01*
X45639285Y-58454819D02*
X45639285Y-57454819D01*
X45639285Y-57454819D02*
X45401190Y-57454819D01*
X45401190Y-57454819D02*
X45258333Y-57502438D01*
X45258333Y-57502438D02*
X45163095Y-57597676D01*
X45163095Y-57597676D02*
X45115476Y-57692914D01*
X45115476Y-57692914D02*
X45067857Y-57883390D01*
X45067857Y-57883390D02*
X45067857Y-58026247D01*
X45067857Y-58026247D02*
X45115476Y-58216723D01*
X45115476Y-58216723D02*
X45163095Y-58311961D01*
X45163095Y-58311961D02*
X45258333Y-58407200D01*
X45258333Y-58407200D02*
X45401190Y-58454819D01*
X45401190Y-58454819D02*
X45639285Y-58454819D01*
X44686904Y-57550057D02*
X44639285Y-57502438D01*
X44639285Y-57502438D02*
X44544047Y-57454819D01*
X44544047Y-57454819D02*
X44305952Y-57454819D01*
X44305952Y-57454819D02*
X44210714Y-57502438D01*
X44210714Y-57502438D02*
X44163095Y-57550057D01*
X44163095Y-57550057D02*
X44115476Y-57645295D01*
X44115476Y-57645295D02*
X44115476Y-57740533D01*
X44115476Y-57740533D02*
X44163095Y-57883390D01*
X44163095Y-57883390D02*
X44734523Y-58454819D01*
X44734523Y-58454819D02*
X44115476Y-58454819D01*
X43210714Y-57454819D02*
X43686904Y-57454819D01*
X43686904Y-57454819D02*
X43734523Y-57931009D01*
X43734523Y-57931009D02*
X43686904Y-57883390D01*
X43686904Y-57883390D02*
X43591666Y-57835771D01*
X43591666Y-57835771D02*
X43353571Y-57835771D01*
X43353571Y-57835771D02*
X43258333Y-57883390D01*
X43258333Y-57883390D02*
X43210714Y-57931009D01*
X43210714Y-57931009D02*
X43163095Y-58026247D01*
X43163095Y-58026247D02*
X43163095Y-58264342D01*
X43163095Y-58264342D02*
X43210714Y-58359580D01*
X43210714Y-58359580D02*
X43258333Y-58407200D01*
X43258333Y-58407200D02*
X43353571Y-58454819D01*
X43353571Y-58454819D02*
X43591666Y-58454819D01*
X43591666Y-58454819D02*
X43686904Y-58407200D01*
X43686904Y-58407200D02*
X43734523Y-58359580D01*
X134863094Y-7454819D02*
X134863094Y-6454819D01*
X134863094Y-6454819D02*
X134624999Y-6454819D01*
X134624999Y-6454819D02*
X134482142Y-6502438D01*
X134482142Y-6502438D02*
X134386904Y-6597676D01*
X134386904Y-6597676D02*
X134339285Y-6692914D01*
X134339285Y-6692914D02*
X134291666Y-6883390D01*
X134291666Y-6883390D02*
X134291666Y-7026247D01*
X134291666Y-7026247D02*
X134339285Y-7216723D01*
X134339285Y-7216723D02*
X134386904Y-7311961D01*
X134386904Y-7311961D02*
X134482142Y-7407200D01*
X134482142Y-7407200D02*
X134624999Y-7454819D01*
X134624999Y-7454819D02*
X134863094Y-7454819D01*
X133910713Y-6550057D02*
X133863094Y-6502438D01*
X133863094Y-6502438D02*
X133767856Y-6454819D01*
X133767856Y-6454819D02*
X133529761Y-6454819D01*
X133529761Y-6454819D02*
X133434523Y-6502438D01*
X133434523Y-6502438D02*
X133386904Y-6550057D01*
X133386904Y-6550057D02*
X133339285Y-6645295D01*
X133339285Y-6645295D02*
X133339285Y-6740533D01*
X133339285Y-6740533D02*
X133386904Y-6883390D01*
X133386904Y-6883390D02*
X133958332Y-7454819D01*
X133958332Y-7454819D02*
X133339285Y-7454819D01*
X117339285Y-41454819D02*
X117339285Y-40454819D01*
X117339285Y-40454819D02*
X117101190Y-40454819D01*
X117101190Y-40454819D02*
X116958333Y-40502438D01*
X116958333Y-40502438D02*
X116863095Y-40597676D01*
X116863095Y-40597676D02*
X116815476Y-40692914D01*
X116815476Y-40692914D02*
X116767857Y-40883390D01*
X116767857Y-40883390D02*
X116767857Y-41026247D01*
X116767857Y-41026247D02*
X116815476Y-41216723D01*
X116815476Y-41216723D02*
X116863095Y-41311961D01*
X116863095Y-41311961D02*
X116958333Y-41407200D01*
X116958333Y-41407200D02*
X117101190Y-41454819D01*
X117101190Y-41454819D02*
X117339285Y-41454819D01*
X115815476Y-41454819D02*
X116386904Y-41454819D01*
X116101190Y-41454819D02*
X116101190Y-40454819D01*
X116101190Y-40454819D02*
X116196428Y-40597676D01*
X116196428Y-40597676D02*
X116291666Y-40692914D01*
X116291666Y-40692914D02*
X116386904Y-40740533D01*
X114910714Y-40454819D02*
X115386904Y-40454819D01*
X115386904Y-40454819D02*
X115434523Y-40931009D01*
X115434523Y-40931009D02*
X115386904Y-40883390D01*
X115386904Y-40883390D02*
X115291666Y-40835771D01*
X115291666Y-40835771D02*
X115053571Y-40835771D01*
X115053571Y-40835771D02*
X114958333Y-40883390D01*
X114958333Y-40883390D02*
X114910714Y-40931009D01*
X114910714Y-40931009D02*
X114863095Y-41026247D01*
X114863095Y-41026247D02*
X114863095Y-41264342D01*
X114863095Y-41264342D02*
X114910714Y-41359580D01*
X114910714Y-41359580D02*
X114958333Y-41407200D01*
X114958333Y-41407200D02*
X115053571Y-41454819D01*
X115053571Y-41454819D02*
X115291666Y-41454819D01*
X115291666Y-41454819D02*
X115386904Y-41407200D01*
X115386904Y-41407200D02*
X115434523Y-41359580D01*
X63139285Y-19454819D02*
X63139285Y-18454819D01*
X63139285Y-18454819D02*
X62901190Y-18454819D01*
X62901190Y-18454819D02*
X62758333Y-18502438D01*
X62758333Y-18502438D02*
X62663095Y-18597676D01*
X62663095Y-18597676D02*
X62615476Y-18692914D01*
X62615476Y-18692914D02*
X62567857Y-18883390D01*
X62567857Y-18883390D02*
X62567857Y-19026247D01*
X62567857Y-19026247D02*
X62615476Y-19216723D01*
X62615476Y-19216723D02*
X62663095Y-19311961D01*
X62663095Y-19311961D02*
X62758333Y-19407200D01*
X62758333Y-19407200D02*
X62901190Y-19454819D01*
X62901190Y-19454819D02*
X63139285Y-19454819D01*
X61615476Y-19454819D02*
X62186904Y-19454819D01*
X61901190Y-19454819D02*
X61901190Y-18454819D01*
X61901190Y-18454819D02*
X61996428Y-18597676D01*
X61996428Y-18597676D02*
X62091666Y-18692914D01*
X62091666Y-18692914D02*
X62186904Y-18740533D01*
X61234523Y-18550057D02*
X61186904Y-18502438D01*
X61186904Y-18502438D02*
X61091666Y-18454819D01*
X61091666Y-18454819D02*
X60853571Y-18454819D01*
X60853571Y-18454819D02*
X60758333Y-18502438D01*
X60758333Y-18502438D02*
X60710714Y-18550057D01*
X60710714Y-18550057D02*
X60663095Y-18645295D01*
X60663095Y-18645295D02*
X60663095Y-18740533D01*
X60663095Y-18740533D02*
X60710714Y-18883390D01*
X60710714Y-18883390D02*
X61282142Y-19454819D01*
X61282142Y-19454819D02*
X60663095Y-19454819D01*
X27139285Y-49954819D02*
X27139285Y-48954819D01*
X27139285Y-48954819D02*
X26901190Y-48954819D01*
X26901190Y-48954819D02*
X26758333Y-49002438D01*
X26758333Y-49002438D02*
X26663095Y-49097676D01*
X26663095Y-49097676D02*
X26615476Y-49192914D01*
X26615476Y-49192914D02*
X26567857Y-49383390D01*
X26567857Y-49383390D02*
X26567857Y-49526247D01*
X26567857Y-49526247D02*
X26615476Y-49716723D01*
X26615476Y-49716723D02*
X26663095Y-49811961D01*
X26663095Y-49811961D02*
X26758333Y-49907200D01*
X26758333Y-49907200D02*
X26901190Y-49954819D01*
X26901190Y-49954819D02*
X27139285Y-49954819D01*
X26186904Y-49050057D02*
X26139285Y-49002438D01*
X26139285Y-49002438D02*
X26044047Y-48954819D01*
X26044047Y-48954819D02*
X25805952Y-48954819D01*
X25805952Y-48954819D02*
X25710714Y-49002438D01*
X25710714Y-49002438D02*
X25663095Y-49050057D01*
X25663095Y-49050057D02*
X25615476Y-49145295D01*
X25615476Y-49145295D02*
X25615476Y-49240533D01*
X25615476Y-49240533D02*
X25663095Y-49383390D01*
X25663095Y-49383390D02*
X26234523Y-49954819D01*
X26234523Y-49954819D02*
X25615476Y-49954819D01*
X25139285Y-49954819D02*
X24948809Y-49954819D01*
X24948809Y-49954819D02*
X24853571Y-49907200D01*
X24853571Y-49907200D02*
X24805952Y-49859580D01*
X24805952Y-49859580D02*
X24710714Y-49716723D01*
X24710714Y-49716723D02*
X24663095Y-49526247D01*
X24663095Y-49526247D02*
X24663095Y-49145295D01*
X24663095Y-49145295D02*
X24710714Y-49050057D01*
X24710714Y-49050057D02*
X24758333Y-49002438D01*
X24758333Y-49002438D02*
X24853571Y-48954819D01*
X24853571Y-48954819D02*
X25044047Y-48954819D01*
X25044047Y-48954819D02*
X25139285Y-49002438D01*
X25139285Y-49002438D02*
X25186904Y-49050057D01*
X25186904Y-49050057D02*
X25234523Y-49145295D01*
X25234523Y-49145295D02*
X25234523Y-49383390D01*
X25234523Y-49383390D02*
X25186904Y-49478628D01*
X25186904Y-49478628D02*
X25139285Y-49526247D01*
X25139285Y-49526247D02*
X25044047Y-49573866D01*
X25044047Y-49573866D02*
X24853571Y-49573866D01*
X24853571Y-49573866D02*
X24758333Y-49526247D01*
X24758333Y-49526247D02*
X24710714Y-49478628D01*
X24710714Y-49478628D02*
X24663095Y-49383390D01*
X63139285Y-36454819D02*
X63139285Y-35454819D01*
X63139285Y-35454819D02*
X62901190Y-35454819D01*
X62901190Y-35454819D02*
X62758333Y-35502438D01*
X62758333Y-35502438D02*
X62663095Y-35597676D01*
X62663095Y-35597676D02*
X62615476Y-35692914D01*
X62615476Y-35692914D02*
X62567857Y-35883390D01*
X62567857Y-35883390D02*
X62567857Y-36026247D01*
X62567857Y-36026247D02*
X62615476Y-36216723D01*
X62615476Y-36216723D02*
X62663095Y-36311961D01*
X62663095Y-36311961D02*
X62758333Y-36407200D01*
X62758333Y-36407200D02*
X62901190Y-36454819D01*
X62901190Y-36454819D02*
X63139285Y-36454819D01*
X61615476Y-36454819D02*
X62186904Y-36454819D01*
X61901190Y-36454819D02*
X61901190Y-35454819D01*
X61901190Y-35454819D02*
X61996428Y-35597676D01*
X61996428Y-35597676D02*
X62091666Y-35692914D01*
X62091666Y-35692914D02*
X62186904Y-35740533D01*
X61044047Y-35883390D02*
X61139285Y-35835771D01*
X61139285Y-35835771D02*
X61186904Y-35788152D01*
X61186904Y-35788152D02*
X61234523Y-35692914D01*
X61234523Y-35692914D02*
X61234523Y-35645295D01*
X61234523Y-35645295D02*
X61186904Y-35550057D01*
X61186904Y-35550057D02*
X61139285Y-35502438D01*
X61139285Y-35502438D02*
X61044047Y-35454819D01*
X61044047Y-35454819D02*
X60853571Y-35454819D01*
X60853571Y-35454819D02*
X60758333Y-35502438D01*
X60758333Y-35502438D02*
X60710714Y-35550057D01*
X60710714Y-35550057D02*
X60663095Y-35645295D01*
X60663095Y-35645295D02*
X60663095Y-35692914D01*
X60663095Y-35692914D02*
X60710714Y-35788152D01*
X60710714Y-35788152D02*
X60758333Y-35835771D01*
X60758333Y-35835771D02*
X60853571Y-35883390D01*
X60853571Y-35883390D02*
X61044047Y-35883390D01*
X61044047Y-35883390D02*
X61139285Y-35931009D01*
X61139285Y-35931009D02*
X61186904Y-35978628D01*
X61186904Y-35978628D02*
X61234523Y-36073866D01*
X61234523Y-36073866D02*
X61234523Y-36264342D01*
X61234523Y-36264342D02*
X61186904Y-36359580D01*
X61186904Y-36359580D02*
X61139285Y-36407200D01*
X61139285Y-36407200D02*
X61044047Y-36454819D01*
X61044047Y-36454819D02*
X60853571Y-36454819D01*
X60853571Y-36454819D02*
X60758333Y-36407200D01*
X60758333Y-36407200D02*
X60710714Y-36359580D01*
X60710714Y-36359580D02*
X60663095Y-36264342D01*
X60663095Y-36264342D02*
X60663095Y-36073866D01*
X60663095Y-36073866D02*
X60710714Y-35978628D01*
X60710714Y-35978628D02*
X60758333Y-35931009D01*
X60758333Y-35931009D02*
X60853571Y-35883390D01*
X116863094Y-7454819D02*
X116863094Y-6454819D01*
X116863094Y-6454819D02*
X116624999Y-6454819D01*
X116624999Y-6454819D02*
X116482142Y-6502438D01*
X116482142Y-6502438D02*
X116386904Y-6597676D01*
X116386904Y-6597676D02*
X116339285Y-6692914D01*
X116339285Y-6692914D02*
X116291666Y-6883390D01*
X116291666Y-6883390D02*
X116291666Y-7026247D01*
X116291666Y-7026247D02*
X116339285Y-7216723D01*
X116339285Y-7216723D02*
X116386904Y-7311961D01*
X116386904Y-7311961D02*
X116482142Y-7407200D01*
X116482142Y-7407200D02*
X116624999Y-7454819D01*
X116624999Y-7454819D02*
X116863094Y-7454819D01*
X115958332Y-6454819D02*
X115339285Y-6454819D01*
X115339285Y-6454819D02*
X115672618Y-6835771D01*
X115672618Y-6835771D02*
X115529761Y-6835771D01*
X115529761Y-6835771D02*
X115434523Y-6883390D01*
X115434523Y-6883390D02*
X115386904Y-6931009D01*
X115386904Y-6931009D02*
X115339285Y-7026247D01*
X115339285Y-7026247D02*
X115339285Y-7264342D01*
X115339285Y-7264342D02*
X115386904Y-7359580D01*
X115386904Y-7359580D02*
X115434523Y-7407200D01*
X115434523Y-7407200D02*
X115529761Y-7454819D01*
X115529761Y-7454819D02*
X115815475Y-7454819D01*
X115815475Y-7454819D02*
X115910713Y-7407200D01*
X115910713Y-7407200D02*
X115958332Y-7359580D01*
X63139285Y-53454819D02*
X63139285Y-52454819D01*
X63139285Y-52454819D02*
X62901190Y-52454819D01*
X62901190Y-52454819D02*
X62758333Y-52502438D01*
X62758333Y-52502438D02*
X62663095Y-52597676D01*
X62663095Y-52597676D02*
X62615476Y-52692914D01*
X62615476Y-52692914D02*
X62567857Y-52883390D01*
X62567857Y-52883390D02*
X62567857Y-53026247D01*
X62567857Y-53026247D02*
X62615476Y-53216723D01*
X62615476Y-53216723D02*
X62663095Y-53311961D01*
X62663095Y-53311961D02*
X62758333Y-53407200D01*
X62758333Y-53407200D02*
X62901190Y-53454819D01*
X62901190Y-53454819D02*
X63139285Y-53454819D01*
X62186904Y-52550057D02*
X62139285Y-52502438D01*
X62139285Y-52502438D02*
X62044047Y-52454819D01*
X62044047Y-52454819D02*
X61805952Y-52454819D01*
X61805952Y-52454819D02*
X61710714Y-52502438D01*
X61710714Y-52502438D02*
X61663095Y-52550057D01*
X61663095Y-52550057D02*
X61615476Y-52645295D01*
X61615476Y-52645295D02*
X61615476Y-52740533D01*
X61615476Y-52740533D02*
X61663095Y-52883390D01*
X61663095Y-52883390D02*
X62234523Y-53454819D01*
X62234523Y-53454819D02*
X61615476Y-53454819D01*
X60758333Y-52788152D02*
X60758333Y-53454819D01*
X60996428Y-52407200D02*
X61234523Y-53121485D01*
X61234523Y-53121485D02*
X60615476Y-53121485D01*
D12*
%TO.C,SW10*%
X77859001Y409000D02*
X78796000Y1346000D01*
X78796000Y1346000D02*
X81543000Y1346000D01*
X78796000Y-3446000D02*
X77775000Y-2425000D01*
X81443000Y-3446000D02*
X78796000Y-3446000D01*
X81543000Y1346000D02*
X81946000Y1266000D01*
X81946000Y1266000D02*
X82288000Y1037000D01*
X82005000Y-3551000D02*
X81443000Y-3446000D01*
X82288000Y1037000D02*
X82821000Y504000D01*
X82484000Y-3850000D02*
X82005000Y-3551000D01*
X82820999Y282000D02*
X82908000Y-156000D01*
X82821000Y504000D02*
X82820999Y282000D01*
X82822000Y-4303000D02*
X82484000Y-3850000D01*
X82908000Y-156000D02*
X83152000Y-523000D01*
X82976000Y-4861000D02*
X82822000Y-4303000D01*
X83058000Y-5159000D02*
X82976000Y-4861000D01*
X83152000Y-523000D02*
X83518999Y-767000D01*
X83251000Y-5417000D02*
X83058000Y-5159000D01*
X83518999Y-767000D02*
X83957000Y-854000D01*
X83525000Y-5587000D02*
X83251000Y-5417000D01*
X83835000Y-5646000D02*
X83525000Y-5587000D01*
X83957000Y-854000D02*
X86757000Y-854000D01*
X86757000Y-854000D02*
X87084000Y-919000D01*
X87084000Y-919000D02*
X87367000Y-1108000D01*
X87367000Y-1108000D02*
X87556000Y-1391000D01*
X87556000Y-1391000D02*
X87641000Y-1818000D01*
X87558000Y-4704000D02*
X87921000Y-4704000D01*
X87921000Y-4704000D02*
X87921000Y-5646000D01*
X87921000Y-5646000D02*
X83835000Y-5646000D01*
%TO.C,SW28*%
X23859000Y-35091000D02*
X24796000Y-34154000D01*
X24796000Y-34154000D02*
X27543000Y-34154000D01*
X24796000Y-38946000D02*
X23775000Y-37925000D01*
X27443000Y-38946000D02*
X24796000Y-38946000D01*
X27543000Y-34154000D02*
X27946000Y-34234000D01*
X27946000Y-34234000D02*
X28288000Y-34463000D01*
X28005000Y-39051000D02*
X27443000Y-38946000D01*
X28288000Y-34463000D02*
X28821000Y-34996000D01*
X28484000Y-39350000D02*
X28005000Y-39051000D01*
X28821000Y-34996000D02*
X28821000Y-35218000D01*
X28821000Y-35218000D02*
X28908000Y-35656000D01*
X28822000Y-39802999D02*
X28484000Y-39350000D01*
X28908000Y-35656000D02*
X29152000Y-36023000D01*
X28976001Y-40361000D02*
X28822000Y-39802999D01*
X29058000Y-40659000D02*
X28976001Y-40361000D01*
X29152000Y-36023000D02*
X29519000Y-36267001D01*
X29251000Y-40917000D02*
X29058000Y-40659000D01*
X29519000Y-36267001D02*
X29957000Y-36354000D01*
X29525000Y-41087000D02*
X29251000Y-40917000D01*
X29835000Y-41146001D02*
X29525000Y-41087000D01*
X29957000Y-36354000D02*
X32757000Y-36354000D01*
X32757000Y-36354000D02*
X33084000Y-36419000D01*
X33084000Y-36419000D02*
X33367000Y-36608000D01*
X33367000Y-36608000D02*
X33556000Y-36891000D01*
X33556000Y-36891000D02*
X33641000Y-37318000D01*
X33558000Y-40204000D02*
X33921000Y-40204000D01*
X33921000Y-40204000D02*
X33921000Y-41146000D01*
X33921000Y-41146000D02*
X29835000Y-41146001D01*
%TO.C,SW14*%
X113859000Y-26591000D02*
X114796000Y-25654000D01*
X114796000Y-25654000D02*
X117543000Y-25654000D01*
X114796000Y-30446000D02*
X113775000Y-29425000D01*
X117443000Y-30446000D02*
X114796000Y-30446000D01*
X117543000Y-25654000D02*
X117946000Y-25734000D01*
X117946000Y-25734000D02*
X118288000Y-25963000D01*
X118005000Y-30551000D02*
X117443000Y-30446000D01*
X118288000Y-25963000D02*
X118821000Y-26496000D01*
X118484000Y-30850000D02*
X118005000Y-30551000D01*
X118821000Y-26496000D02*
X118821000Y-26718000D01*
X118821000Y-26718000D02*
X118908000Y-27156000D01*
X118822000Y-31303000D02*
X118484000Y-30850000D01*
X118908000Y-27156000D02*
X119152000Y-27523000D01*
X118976000Y-31861000D02*
X118822000Y-31303000D01*
X119058000Y-32159000D02*
X118976000Y-31861000D01*
X119152000Y-27523000D02*
X119519000Y-27767000D01*
X119251000Y-32417000D02*
X119058000Y-32159000D01*
X119519000Y-27767000D02*
X119957000Y-27854000D01*
X119525000Y-32587000D02*
X119251000Y-32417000D01*
X119835000Y-32646000D02*
X119525000Y-32587000D01*
X119957000Y-27854000D02*
X122757000Y-27854000D01*
X122757000Y-27854000D02*
X123084000Y-27919000D01*
X123084000Y-27919000D02*
X123367000Y-28108000D01*
X123367000Y-28108000D02*
X123556000Y-28391000D01*
X123556000Y-28391000D02*
X123641000Y-28818000D01*
X123558000Y-31704000D02*
X123921000Y-31704000D01*
X123921000Y-31704000D02*
X123921000Y-32646000D01*
X123921000Y-32646000D02*
X119835000Y-32646000D01*
%TO.C,SW11*%
X59859000Y-4591000D02*
X60796000Y-3654000D01*
X60796000Y-3654000D02*
X63543000Y-3654000D01*
X60796000Y-8446000D02*
X59775000Y-7425000D01*
X63443000Y-8446000D02*
X60796000Y-8446000D01*
X63543000Y-3654000D02*
X63946000Y-3734000D01*
X63946000Y-3734000D02*
X64288000Y-3963000D01*
X64005000Y-8551000D02*
X63443000Y-8446000D01*
X64288000Y-3963000D02*
X64821000Y-4496000D01*
X64484000Y-8850000D02*
X64005000Y-8551000D01*
X64821000Y-4496000D02*
X64821000Y-4718000D01*
X64821000Y-4718000D02*
X64908000Y-5156000D01*
X64822000Y-9303000D02*
X64484000Y-8850000D01*
X64908000Y-5156000D02*
X65152000Y-5523000D01*
X64976000Y-9861000D02*
X64822000Y-9303000D01*
X65058000Y-10159000D02*
X64976000Y-9861000D01*
X65152000Y-5523000D02*
X65519000Y-5767000D01*
X65251000Y-10417000D02*
X65058000Y-10159000D01*
X65519000Y-5767000D02*
X65957000Y-5854000D01*
X65525000Y-10587000D02*
X65251000Y-10417000D01*
X65835000Y-10646000D02*
X65525000Y-10587000D01*
X65957000Y-5854000D02*
X68757000Y-5854000D01*
X68757000Y-5854000D02*
X69084000Y-5919000D01*
X69084000Y-5919000D02*
X69367000Y-6108000D01*
X69367000Y-6108000D02*
X69556000Y-6391000D01*
X69556000Y-6391000D02*
X69641000Y-6818000D01*
X69558000Y-9704000D02*
X69921000Y-9704000D01*
X69921000Y-9704000D02*
X69921000Y-10646000D01*
X69921000Y-10646000D02*
X65835000Y-10646000D01*
%TO.C,SW5*%
X59859000Y12409000D02*
X60796000Y13346000D01*
X60796000Y13346000D02*
X63543000Y13346000D01*
X60796000Y8554000D02*
X59775000Y9575000D01*
X63443000Y8554000D02*
X60796000Y8554000D01*
X63543000Y13346000D02*
X63946000Y13266000D01*
X63946000Y13266000D02*
X64288000Y13037000D01*
X64005000Y8449000D02*
X63443000Y8554000D01*
X64288000Y13037000D02*
X64821000Y12504000D01*
X64484000Y8150000D02*
X64005000Y8449000D01*
X64821000Y12504000D02*
X64821000Y12282000D01*
X64821000Y12282000D02*
X64908000Y11844000D01*
X64822000Y7697000D02*
X64484000Y8150000D01*
X64908000Y11844000D02*
X65152000Y11477000D01*
X64976000Y7139000D02*
X64822000Y7697000D01*
X65058000Y6841000D02*
X64976000Y7139000D01*
X65152000Y11477000D02*
X65519000Y11233000D01*
X65251000Y6583000D02*
X65058000Y6841000D01*
X65519000Y11233000D02*
X65957000Y11146000D01*
X65525000Y6413000D02*
X65251000Y6583000D01*
X65835000Y6354000D02*
X65525000Y6413000D01*
X65957000Y11146000D02*
X68757000Y11146000D01*
X68757000Y11146000D02*
X69084000Y11081000D01*
X69084000Y11081000D02*
X69367000Y10892000D01*
X69367000Y10892000D02*
X69556000Y10609000D01*
X69556000Y10609000D02*
X69641000Y10182000D01*
X69558000Y7296000D02*
X69921000Y7296000D01*
X69921000Y7296000D02*
X69921000Y6354000D01*
X69921000Y6354000D02*
X65835000Y6354000D01*
%TO.C,SW19*%
X131859000Y-43591000D02*
X132796000Y-42654000D01*
X132796000Y-42654000D02*
X135543000Y-42654000D01*
X132796000Y-47446000D02*
X131775000Y-46425000D01*
X135443000Y-47446000D02*
X132796000Y-47446000D01*
X135543000Y-42654000D02*
X135946000Y-42734000D01*
X135946000Y-42734000D02*
X136288000Y-42963000D01*
X136005000Y-47551000D02*
X135443000Y-47446000D01*
X136288000Y-42963000D02*
X136821000Y-43496000D01*
X136484000Y-47850000D02*
X136005000Y-47551000D01*
X136821000Y-43496000D02*
X136821000Y-43718000D01*
X136821000Y-43718000D02*
X136908000Y-44156000D01*
X136822000Y-48303000D02*
X136484000Y-47850000D01*
X136908000Y-44156000D02*
X137152000Y-44523000D01*
X136976000Y-48861000D02*
X136822000Y-48303000D01*
X137058000Y-49159000D02*
X136976000Y-48861000D01*
X137152000Y-44523000D02*
X137519000Y-44767000D01*
X137251000Y-49417000D02*
X137058000Y-49159000D01*
X137519000Y-44767000D02*
X137957000Y-44854000D01*
X137525000Y-49587000D02*
X137251000Y-49417000D01*
X137835000Y-49646000D02*
X137525000Y-49587000D01*
X137957000Y-44854000D02*
X140757000Y-44854000D01*
X140757000Y-44854000D02*
X141084000Y-44919000D01*
X141084000Y-44919000D02*
X141367000Y-45108000D01*
X141367000Y-45108000D02*
X141556000Y-45391000D01*
X141556000Y-45391000D02*
X141641000Y-45818000D01*
X141558000Y-48704000D02*
X141921000Y-48704000D01*
X141921000Y-48704000D02*
X141921000Y-49646000D01*
X141921000Y-49646000D02*
X137835000Y-49646000D01*
%TO.C,SW12*%
X41859000Y-9591000D02*
X42796000Y-8654000D01*
X42796000Y-8654000D02*
X45543000Y-8654000D01*
X42796000Y-13446000D02*
X41775000Y-12425000D01*
X45443000Y-13446000D02*
X42796000Y-13446000D01*
X45543000Y-8654000D02*
X45946000Y-8734000D01*
X45946000Y-8734000D02*
X46288000Y-8963000D01*
X46005000Y-13551000D02*
X45443000Y-13446000D01*
X46288000Y-8963000D02*
X46821000Y-9496000D01*
X46484000Y-13850000D02*
X46005000Y-13551000D01*
X46821000Y-9496000D02*
X46821000Y-9718000D01*
X46821000Y-9718000D02*
X46908000Y-10156000D01*
X46822000Y-14303000D02*
X46484000Y-13850000D01*
X46908000Y-10156000D02*
X47152000Y-10523000D01*
X46976000Y-14861000D02*
X46822000Y-14303000D01*
X47058000Y-15159000D02*
X46976000Y-14861000D01*
X47152000Y-10523000D02*
X47519000Y-10767000D01*
X47251000Y-15417000D02*
X47058000Y-15159000D01*
X47519000Y-10767000D02*
X47957000Y-10854000D01*
X47525000Y-15587000D02*
X47251000Y-15417000D01*
X47835000Y-15646000D02*
X47525000Y-15587000D01*
X47957000Y-10854000D02*
X50757000Y-10854000D01*
X50757000Y-10854000D02*
X51084000Y-10919000D01*
X51084000Y-10919000D02*
X51367000Y-11108000D01*
X51367000Y-11108000D02*
X51556000Y-11391000D01*
X51556000Y-11391000D02*
X51641000Y-11818000D01*
X51558000Y-14704000D02*
X51921000Y-14704000D01*
X51921000Y-14704000D02*
X51921000Y-15646000D01*
X51921000Y-15646000D02*
X47835000Y-15646000D01*
%TO.C,SW13*%
X131859000Y-26591000D02*
X132796000Y-25654000D01*
X132796000Y-25654000D02*
X135543000Y-25654000D01*
X132796000Y-30446000D02*
X131775000Y-29425000D01*
X135443000Y-30446000D02*
X132796000Y-30446000D01*
X135543000Y-25654000D02*
X135946000Y-25734000D01*
X135946000Y-25734000D02*
X136288000Y-25963000D01*
X136005000Y-30551000D02*
X135443000Y-30446000D01*
X136288000Y-25963000D02*
X136821000Y-26496000D01*
X136484000Y-30850000D02*
X136005000Y-30551000D01*
X136821000Y-26496000D02*
X136821000Y-26718000D01*
X136821000Y-26718000D02*
X136908000Y-27156000D01*
X136822000Y-31303000D02*
X136484000Y-30850000D01*
X136908000Y-27156000D02*
X137152000Y-27523000D01*
X136976000Y-31861000D02*
X136822000Y-31303000D01*
X137058000Y-32159000D02*
X136976000Y-31861000D01*
X137152000Y-27523000D02*
X137519000Y-27767000D01*
X137251000Y-32417000D02*
X137058000Y-32159000D01*
X137519000Y-27767000D02*
X137957000Y-27854000D01*
X137525000Y-32587000D02*
X137251000Y-32417000D01*
X137835000Y-32646000D02*
X137525000Y-32587000D01*
X137957000Y-27854000D02*
X140757000Y-27854000D01*
X140757000Y-27854000D02*
X141084000Y-27919000D01*
X141084000Y-27919000D02*
X141367000Y-28108000D01*
X141367000Y-28108000D02*
X141556000Y-28391000D01*
X141556000Y-28391000D02*
X141641000Y-28818000D01*
X141558000Y-31704000D02*
X141921000Y-31704000D01*
X141921000Y-31704000D02*
X141921000Y-32646000D01*
X141921000Y-32646000D02*
X137835000Y-32646000D01*
%TO.C,SW9*%
X95859000Y-4591000D02*
X96796000Y-3654000D01*
X96796000Y-3654000D02*
X99543000Y-3654000D01*
X96796000Y-8446000D02*
X95775000Y-7425000D01*
X99443000Y-8446000D02*
X96796000Y-8446000D01*
X99543000Y-3654000D02*
X99946000Y-3734000D01*
X99946000Y-3734000D02*
X100288000Y-3963000D01*
X100005000Y-8551000D02*
X99443000Y-8446000D01*
X100288000Y-3963000D02*
X100821000Y-4496000D01*
X100484000Y-8850000D02*
X100005000Y-8551000D01*
X100821000Y-4496000D02*
X100821000Y-4718000D01*
X100821000Y-4718000D02*
X100908000Y-5156000D01*
X100822000Y-9303000D02*
X100484000Y-8850000D01*
X100908000Y-5156000D02*
X101152000Y-5523000D01*
X100976000Y-9861000D02*
X100822000Y-9303000D01*
X101058000Y-10159000D02*
X100976000Y-9861000D01*
X101152000Y-5523000D02*
X101519000Y-5767000D01*
X101251000Y-10417000D02*
X101058000Y-10159000D01*
X101519000Y-5767000D02*
X101957000Y-5854000D01*
X101525000Y-10587000D02*
X101251000Y-10417000D01*
X101835000Y-10646000D02*
X101525000Y-10587000D01*
X101957000Y-5854000D02*
X104757000Y-5854000D01*
X104757000Y-5854000D02*
X105084000Y-5919000D01*
X105084000Y-5919000D02*
X105367000Y-6108000D01*
X105367000Y-6108000D02*
X105556000Y-6391000D01*
X105556000Y-6391000D02*
X105641000Y-6818000D01*
X105558000Y-9704000D02*
X105921000Y-9704000D01*
X105921000Y-9704000D02*
X105921000Y-10646000D01*
X105921000Y-10646000D02*
X101835000Y-10646000D01*
%TO.C,SW17*%
X59859000Y-21591000D02*
X60796000Y-20654000D01*
X60796000Y-20654000D02*
X63543000Y-20654000D01*
X60796000Y-25446000D02*
X59775000Y-24425000D01*
X63443000Y-25446000D02*
X60796000Y-25446000D01*
X63543000Y-20654000D02*
X63946000Y-20734000D01*
X63946000Y-20734000D02*
X64288000Y-20963000D01*
X64005000Y-25551000D02*
X63443000Y-25446000D01*
X64288000Y-20963000D02*
X64821000Y-21496000D01*
X64484000Y-25850000D02*
X64005000Y-25551000D01*
X64821000Y-21496000D02*
X64821000Y-21718000D01*
X64821000Y-21718000D02*
X64908000Y-22156000D01*
X64822000Y-26303000D02*
X64484000Y-25850000D01*
X64908000Y-22156000D02*
X65152000Y-22523000D01*
X64976000Y-26861000D02*
X64822000Y-26303000D01*
X65058000Y-27159000D02*
X64976000Y-26861000D01*
X65152000Y-22523000D02*
X65519000Y-22767000D01*
X65251000Y-27417000D02*
X65058000Y-27159000D01*
X65519000Y-22767000D02*
X65957000Y-22854000D01*
X65525000Y-27587000D02*
X65251000Y-27417000D01*
X65835000Y-27646000D02*
X65525000Y-27587000D01*
X65957000Y-22854000D02*
X68757000Y-22854000D01*
X68757000Y-22854000D02*
X69084000Y-22919000D01*
X69084000Y-22919000D02*
X69367000Y-23108000D01*
X69367000Y-23108000D02*
X69556000Y-23391000D01*
X69556000Y-23391000D02*
X69641000Y-23818000D01*
X69558000Y-26704000D02*
X69921000Y-26704000D01*
X69921000Y-26704000D02*
X69921000Y-27646000D01*
X69921000Y-27646000D02*
X65835000Y-27646000D01*
%TO.C,SW2*%
X113859000Y7409000D02*
X114796000Y8346000D01*
X114796000Y8346000D02*
X117543000Y8346000D01*
X114796000Y3554000D02*
X113775000Y4575000D01*
X117443000Y3554000D02*
X114796000Y3554000D01*
X117543000Y8346000D02*
X117946000Y8266000D01*
X117946000Y8266000D02*
X118288000Y8037000D01*
X118005000Y3449000D02*
X117443000Y3554000D01*
X118288000Y8037000D02*
X118821000Y7504000D01*
X118484000Y3150000D02*
X118005000Y3449000D01*
X118821000Y7504000D02*
X118821000Y7282000D01*
X118821000Y7282000D02*
X118908000Y6844000D01*
X118822000Y2697000D02*
X118484000Y3150000D01*
X118908000Y6844000D02*
X119152000Y6477000D01*
X118976000Y2139000D02*
X118822000Y2697000D01*
X119058000Y1841000D02*
X118976000Y2139000D01*
X119152000Y6477000D02*
X119519000Y6233000D01*
X119251000Y1583000D02*
X119058000Y1841000D01*
X119519000Y6233000D02*
X119957000Y6146000D01*
X119525000Y1413000D02*
X119251000Y1583000D01*
X119835000Y1354000D02*
X119525000Y1413000D01*
X119957000Y6146000D02*
X122757000Y6146000D01*
X122757000Y6146000D02*
X123084000Y6081000D01*
X123084000Y6081000D02*
X123367000Y5892000D01*
X123367000Y5892000D02*
X123556000Y5609000D01*
X123556000Y5609000D02*
X123641000Y5182000D01*
X123558000Y2296000D02*
X123921000Y2296000D01*
X123921000Y2296000D02*
X123921000Y1354000D01*
X123921000Y1354000D02*
X119835000Y1354000D01*
%TO.C,SW30*%
X23859000Y-1091000D02*
X24796000Y-154000D01*
X24796000Y-154000D02*
X27543000Y-154000D01*
X24796000Y-4946000D02*
X23775000Y-3925000D01*
X27443000Y-4946000D02*
X24796000Y-4946000D01*
X27543000Y-154000D02*
X27946000Y-234000D01*
X27946000Y-234000D02*
X28288000Y-463000D01*
X28005000Y-5051000D02*
X27443000Y-4946000D01*
X28288000Y-463000D02*
X28821000Y-996000D01*
X28484000Y-5350000D02*
X28005000Y-5051000D01*
X28821000Y-996000D02*
X28821000Y-1218000D01*
X28821000Y-1218000D02*
X28908000Y-1656000D01*
X28822000Y-5803000D02*
X28484000Y-5350000D01*
X28908000Y-1656000D02*
X29152000Y-2023000D01*
X28976000Y-6361000D02*
X28822000Y-5803000D01*
X29058000Y-6659000D02*
X28976000Y-6361000D01*
X29152000Y-2023000D02*
X29519000Y-2267000D01*
X29251000Y-6917000D02*
X29058000Y-6659000D01*
X29519000Y-2267000D02*
X29957000Y-2354000D01*
X29525000Y-7087000D02*
X29251000Y-6917000D01*
X29835000Y-7146000D02*
X29525000Y-7087000D01*
X29957000Y-2354000D02*
X32757000Y-2354000D01*
X32757000Y-2354000D02*
X33084000Y-2419000D01*
X33084000Y-2419000D02*
X33367000Y-2608000D01*
X33367000Y-2608000D02*
X33556000Y-2891000D01*
X33556000Y-2891000D02*
X33641000Y-3318000D01*
X33558000Y-6204000D02*
X33921000Y-6204000D01*
X33921000Y-6204000D02*
X33921000Y-7146000D01*
X33921000Y-7146000D02*
X29835000Y-7146000D01*
%TO.C,SW24*%
X41859000Y-43591000D02*
X42796000Y-42654000D01*
X42796000Y-42654000D02*
X45543000Y-42654000D01*
X42796000Y-47446000D02*
X41775000Y-46425000D01*
X45443000Y-47446000D02*
X42796000Y-47446000D01*
X45543000Y-42654000D02*
X45946000Y-42734000D01*
X45946000Y-42734000D02*
X46288000Y-42963000D01*
X46005000Y-47551000D02*
X45443000Y-47446000D01*
X46288000Y-42963000D02*
X46821000Y-43496000D01*
X46484000Y-47850000D02*
X46005000Y-47551000D01*
X46821000Y-43496000D02*
X46821000Y-43718000D01*
X46821000Y-43718000D02*
X46908000Y-44156000D01*
X46822000Y-48303000D02*
X46484000Y-47850000D01*
X46908000Y-44156000D02*
X47152000Y-44523000D01*
X46976000Y-48861000D02*
X46822000Y-48303000D01*
X47058000Y-49159000D02*
X46976000Y-48861000D01*
X47152000Y-44523000D02*
X47519000Y-44767000D01*
X47251000Y-49417000D02*
X47058000Y-49159000D01*
X47519000Y-44767000D02*
X47957000Y-44854000D01*
X47525000Y-49587000D02*
X47251000Y-49417000D01*
X47835000Y-49646000D02*
X47525000Y-49587000D01*
X47957000Y-44854000D02*
X50757000Y-44854000D01*
X50757000Y-44854000D02*
X51084000Y-44919000D01*
X51084000Y-44919000D02*
X51367000Y-45108000D01*
X51367000Y-45108000D02*
X51556000Y-45391000D01*
X51556000Y-45391000D02*
X51641000Y-45818000D01*
X51558000Y-48704000D02*
X51921000Y-48704000D01*
X51921000Y-48704000D02*
X51921000Y-49646000D01*
X51921000Y-49646000D02*
X47835000Y-49646000D01*
%TO.C,SW16*%
X77859000Y-16591000D02*
X78796000Y-15654000D01*
X78796000Y-15654000D02*
X81543000Y-15654000D01*
X78796000Y-20446000D02*
X77775000Y-19425000D01*
X81443000Y-20446000D02*
X78796000Y-20446000D01*
X81543000Y-15654000D02*
X81946000Y-15734000D01*
X81946000Y-15734000D02*
X82288000Y-15963000D01*
X82005000Y-20551000D02*
X81443000Y-20446000D01*
X82288000Y-15963000D02*
X82821000Y-16496000D01*
X82484000Y-20850000D02*
X82005000Y-20551000D01*
X82821000Y-16496000D02*
X82821000Y-16718000D01*
X82821000Y-16718000D02*
X82908000Y-17156000D01*
X82822000Y-21303000D02*
X82484000Y-20850000D01*
X82908000Y-17156000D02*
X83152000Y-17523000D01*
X82976000Y-21861000D02*
X82822000Y-21303000D01*
X83058000Y-22159000D02*
X82976000Y-21861000D01*
X83152000Y-17523000D02*
X83519000Y-17767000D01*
X83251000Y-22417000D02*
X83058000Y-22159000D01*
X83519000Y-17767000D02*
X83957000Y-17854000D01*
X83525000Y-22587000D02*
X83251000Y-22417000D01*
X83835000Y-22646000D02*
X83525000Y-22587000D01*
X83957000Y-17854000D02*
X86757000Y-17854000D01*
X86757000Y-17854000D02*
X87084000Y-17919000D01*
X87084000Y-17919000D02*
X87367000Y-18108000D01*
X87367000Y-18108000D02*
X87556000Y-18391000D01*
X87556000Y-18391000D02*
X87641000Y-18818000D01*
X87558000Y-21704000D02*
X87921000Y-21704000D01*
X87921000Y-21704000D02*
X87921000Y-22646000D01*
X87921000Y-22646000D02*
X83835000Y-22646000D01*
%TO.C,SW25*%
X68859000Y-69591000D02*
X69796000Y-68654000D01*
X69796000Y-68654000D02*
X72543000Y-68654000D01*
X69796000Y-73446000D02*
X68775000Y-72425000D01*
X72443000Y-73446000D02*
X69796000Y-73446000D01*
X72543000Y-68654000D02*
X72946000Y-68734000D01*
X72946000Y-68734000D02*
X73288000Y-68963000D01*
X73005000Y-73551000D02*
X72443000Y-73446000D01*
X73288000Y-68963000D02*
X73821000Y-69496000D01*
X73484000Y-73850000D02*
X73005000Y-73551000D01*
X73821000Y-69496000D02*
X73821000Y-69718000D01*
X73821000Y-69718000D02*
X73908000Y-70156000D01*
X73822000Y-74303000D02*
X73484000Y-73850000D01*
X73908000Y-70156000D02*
X74152000Y-70523000D01*
X73976000Y-74861000D02*
X73822000Y-74303000D01*
X74058000Y-75159000D02*
X73976000Y-74861000D01*
X74152000Y-70523000D02*
X74519000Y-70767000D01*
X74251000Y-75417000D02*
X74058000Y-75159000D01*
X74519000Y-70767000D02*
X74957000Y-70854000D01*
X74525000Y-75587000D02*
X74251000Y-75417000D01*
X74835000Y-75646000D02*
X74525000Y-75587000D01*
X74957000Y-70854000D02*
X77757000Y-70854000D01*
X77757000Y-70854000D02*
X78084000Y-70919000D01*
X78084000Y-70919000D02*
X78367000Y-71108000D01*
X78367000Y-71108000D02*
X78556000Y-71391000D01*
X78556000Y-71391000D02*
X78641000Y-71818000D01*
X78558000Y-74704000D02*
X78921000Y-74704000D01*
X78921000Y-74704000D02*
X78921000Y-75646000D01*
X78921000Y-75646000D02*
X74835000Y-75646000D01*
%TO.C,SW1*%
X131859000Y7409000D02*
X132796000Y8346000D01*
X132796000Y8346000D02*
X135543000Y8346000D01*
X132796000Y3554000D02*
X131775000Y4575000D01*
X135443000Y3554000D02*
X132796000Y3554000D01*
X135543000Y8346000D02*
X135946000Y8266000D01*
X135946000Y8266000D02*
X136288000Y8037000D01*
X136005000Y3449000D02*
X135443000Y3554000D01*
X136288000Y8037000D02*
X136821000Y7504000D01*
X136484000Y3150000D02*
X136005000Y3449000D01*
X136821000Y7504000D02*
X136821000Y7282000D01*
X136821000Y7282000D02*
X136908000Y6844000D01*
X136822000Y2697000D02*
X136484000Y3150000D01*
X136908000Y6844000D02*
X137152000Y6477000D01*
X136976000Y2139000D02*
X136822000Y2697000D01*
X137058000Y1841000D02*
X136976000Y2139000D01*
X137152000Y6477000D02*
X137519000Y6233000D01*
X137251000Y1583000D02*
X137058000Y1841000D01*
X137519000Y6233000D02*
X137957000Y6146000D01*
X137525000Y1413000D02*
X137251000Y1583000D01*
X137835000Y1354000D02*
X137525000Y1413000D01*
X137957000Y6146000D02*
X140757000Y6146000D01*
X140757000Y6146000D02*
X141084000Y6081000D01*
X141084000Y6081000D02*
X141367000Y5892000D01*
X141367000Y5892000D02*
X141556000Y5609000D01*
X141556000Y5609000D02*
X141641000Y5182000D01*
X141558000Y2296000D02*
X141921000Y2296000D01*
X141921000Y2296000D02*
X141921000Y1354000D01*
X141921000Y1354000D02*
X137835000Y1354000D01*
%TO.C,SW7*%
X131859000Y-9591000D02*
X132796000Y-8654000D01*
X132796000Y-8654000D02*
X135543000Y-8654000D01*
X132796000Y-13446000D02*
X131775000Y-12425000D01*
X135443000Y-13446000D02*
X132796000Y-13446000D01*
X135543000Y-8654000D02*
X135946000Y-8734000D01*
X135946000Y-8734000D02*
X136288000Y-8963000D01*
X136005000Y-13551000D02*
X135443000Y-13446000D01*
X136288000Y-8963000D02*
X136821000Y-9496000D01*
X136484000Y-13850000D02*
X136005000Y-13551000D01*
X136821000Y-9496000D02*
X136821000Y-9718000D01*
X136821000Y-9718000D02*
X136908000Y-10156000D01*
X136822000Y-14303000D02*
X136484000Y-13850000D01*
X136908000Y-10156000D02*
X137152000Y-10523000D01*
X136976000Y-14861000D02*
X136822000Y-14303000D01*
X137058000Y-15159000D02*
X136976000Y-14861000D01*
X137152000Y-10523000D02*
X137519000Y-10767000D01*
X137251000Y-15417000D02*
X137058000Y-15159000D01*
X137519000Y-10767000D02*
X137957000Y-10854000D01*
X137525000Y-15587000D02*
X137251000Y-15417000D01*
X137835000Y-15646000D02*
X137525000Y-15587000D01*
X137957000Y-10854000D02*
X140757000Y-10854000D01*
X140757000Y-10854000D02*
X141084000Y-10919000D01*
X141084000Y-10919000D02*
X141367000Y-11108000D01*
X141367000Y-11108000D02*
X141556000Y-11391000D01*
X141556000Y-11391000D02*
X141641000Y-11818000D01*
X141558000Y-14704000D02*
X141921000Y-14704000D01*
X141921000Y-14704000D02*
X141921000Y-15646000D01*
X141921000Y-15646000D02*
X137835000Y-15646000D01*
%TO.C,SW18*%
X41859000Y-26591000D02*
X42796000Y-25654000D01*
X42796000Y-25654000D02*
X45543000Y-25654000D01*
X42796000Y-30446000D02*
X41775000Y-29425000D01*
X45443000Y-30446000D02*
X42796000Y-30446000D01*
X45543000Y-25654000D02*
X45946000Y-25734000D01*
X45946000Y-25734000D02*
X46288000Y-25963000D01*
X46005000Y-30551000D02*
X45443000Y-30446000D01*
X46288000Y-25963000D02*
X46821000Y-26496000D01*
X46484000Y-30850000D02*
X46005000Y-30551000D01*
X46821000Y-26496000D02*
X46821000Y-26718000D01*
X46821000Y-26718000D02*
X46908000Y-27156000D01*
X46822000Y-31303000D02*
X46484000Y-30850000D01*
X46908000Y-27156000D02*
X47152000Y-27523000D01*
X46976000Y-31861000D02*
X46822000Y-31303000D01*
X47058000Y-32159000D02*
X46976000Y-31861000D01*
X47152000Y-27523000D02*
X47519000Y-27767000D01*
X47251000Y-32417000D02*
X47058000Y-32159000D01*
X47519000Y-27767000D02*
X47957000Y-27854000D01*
X47525000Y-32587000D02*
X47251000Y-32417000D01*
X47835000Y-32646000D02*
X47525000Y-32587000D01*
X47957000Y-27854000D02*
X50757000Y-27854000D01*
X50757000Y-27854000D02*
X51084000Y-27919000D01*
X51084000Y-27919000D02*
X51367000Y-28108000D01*
X51367000Y-28108000D02*
X51556000Y-28391000D01*
X51556000Y-28391000D02*
X51641000Y-28818000D01*
X51558000Y-31704000D02*
X51921000Y-31704000D01*
X51921000Y-31704000D02*
X51921000Y-32646000D01*
X51921000Y-32646000D02*
X47835000Y-32646000D01*
%TO.C,SW3*%
X95859000Y12409000D02*
X96796000Y13346000D01*
X96796000Y13346000D02*
X99543000Y13346000D01*
X96796000Y8554000D02*
X95775000Y9575000D01*
X99443000Y8554000D02*
X96796000Y8554000D01*
X99543000Y13346000D02*
X99946000Y13266000D01*
X99946000Y13266000D02*
X100288000Y13037000D01*
X100005000Y8449000D02*
X99443000Y8554000D01*
X100288000Y13037000D02*
X100821000Y12504000D01*
X100484000Y8150000D02*
X100005000Y8449000D01*
X100821000Y12504000D02*
X100821000Y12282000D01*
X100821000Y12282000D02*
X100908000Y11844000D01*
X100822000Y7697000D02*
X100484000Y8150000D01*
X100908000Y11844000D02*
X101152000Y11477000D01*
X100976000Y7139000D02*
X100822000Y7697000D01*
X101058000Y6841000D02*
X100976000Y7139000D01*
X101152000Y11477000D02*
X101519000Y11233000D01*
X101251000Y6583000D02*
X101058000Y6841000D01*
X101519000Y11233000D02*
X101957000Y11146000D01*
X101525000Y6413000D02*
X101251000Y6583000D01*
X101835000Y6354000D02*
X101525000Y6413000D01*
X101957000Y11146000D02*
X104757000Y11146000D01*
X104757000Y11146000D02*
X105084000Y11081000D01*
X105084000Y11081000D02*
X105367000Y10892000D01*
X105367000Y10892000D02*
X105556000Y10609000D01*
X105556000Y10609000D02*
X105641000Y10182000D01*
X105558000Y7296000D02*
X105921000Y7296000D01*
X105921000Y7296000D02*
X105921000Y6354000D01*
X105921000Y6354000D02*
X101835000Y6354000D01*
%TO.C,SW26*%
X45523733Y-73468762D02*
X46186292Y-72321177D01*
X46186292Y-72321177D02*
X48839691Y-71610201D01*
X47426553Y-76949893D02*
X46176089Y-76227937D01*
X48839691Y-71610201D02*
X49249664Y-71583171D01*
X49249664Y-71583171D02*
X49639280Y-71715852D01*
X49639280Y-71715852D02*
X50292069Y-72092740D01*
X49983358Y-76264799D02*
X47426553Y-76949893D01*
X50292069Y-72092740D02*
X50349525Y-72307175D01*
X50349525Y-72307175D02*
X50546925Y-72707733D01*
X50546925Y-72707733D02*
X50877598Y-72999076D01*
X50553385Y-76220765D02*
X49983358Y-76264799D01*
X50877598Y-72999076D02*
X51295244Y-73139775D01*
X51093450Y-76385603D02*
X50553385Y-76220765D01*
X51295244Y-73139775D02*
X51740837Y-73110448D01*
X51537178Y-76735686D02*
X51093450Y-76385603D01*
X51740837Y-73110448D02*
X54445429Y-72385755D01*
X51830352Y-77234814D02*
X51537178Y-76735686D01*
X51986685Y-77501437D02*
X51830352Y-77234814D01*
X52239885Y-77700694D02*
X51986685Y-77501437D01*
X52548548Y-77793985D02*
X52239885Y-77700694D01*
X52863255Y-77770740D02*
X52548548Y-77793985D01*
X54445429Y-72385755D02*
X54778111Y-72363906D01*
X54778111Y-72363906D02*
X55100384Y-72473221D01*
X55100384Y-72473221D02*
X55356190Y-72697661D01*
X55356190Y-72697661D02*
X55548809Y-73088111D01*
X56215589Y-75897255D02*
X56566220Y-75803304D01*
X56566220Y-75803304D02*
X56810028Y-76713206D01*
X56810028Y-76713206D02*
X52863255Y-77770740D01*
%TO.C,SW20*%
X113859000Y-43591000D02*
X114796000Y-42654000D01*
X114796000Y-42654000D02*
X117543000Y-42654000D01*
X114796000Y-47446000D02*
X113775000Y-46425000D01*
X117443000Y-47446000D02*
X114796000Y-47446000D01*
X117543000Y-42654000D02*
X117946000Y-42734000D01*
X117946000Y-42734000D02*
X118288000Y-42963000D01*
X118005000Y-47551000D02*
X117443000Y-47446000D01*
X118288000Y-42963000D02*
X118821000Y-43496000D01*
X118484000Y-47850000D02*
X118005000Y-47551000D01*
X118821000Y-43496000D02*
X118821000Y-43718000D01*
X118821000Y-43718000D02*
X118908000Y-44156000D01*
X118822000Y-48303000D02*
X118484000Y-47850000D01*
X118908000Y-44156000D02*
X119152000Y-44523000D01*
X118976000Y-48861000D02*
X118822000Y-48303000D01*
X119058000Y-49159000D02*
X118976000Y-48861000D01*
X119152000Y-44523000D02*
X119519000Y-44767000D01*
X119251000Y-49417000D02*
X119058000Y-49159000D01*
X119519000Y-44767000D02*
X119957000Y-44854000D01*
X119525000Y-49587000D02*
X119251000Y-49417000D01*
X119835000Y-49646000D02*
X119525000Y-49587000D01*
X119957000Y-44854000D02*
X122757000Y-44854000D01*
X122757000Y-44854000D02*
X123084000Y-44919000D01*
X123084000Y-44919000D02*
X123367000Y-45108000D01*
X123367000Y-45108000D02*
X123556000Y-45391000D01*
X123556000Y-45391000D02*
X123641000Y-45818000D01*
X123558000Y-48704000D02*
X123921000Y-48704000D01*
X123921000Y-48704000D02*
X123921000Y-49646000D01*
X123921000Y-49646000D02*
X119835000Y-49646000D01*
%TO.C,SW15*%
X95859000Y-21591000D02*
X96796000Y-20654000D01*
X96796000Y-20654000D02*
X99543000Y-20654000D01*
X96796000Y-25446000D02*
X95775000Y-24425000D01*
X99443000Y-25446000D02*
X96796000Y-25446000D01*
X99543000Y-20654000D02*
X99946000Y-20734000D01*
X99946000Y-20734000D02*
X100288000Y-20963000D01*
X100005000Y-25551000D02*
X99443000Y-25446000D01*
X100288000Y-20963000D02*
X100821000Y-21496000D01*
X100484000Y-25850000D02*
X100005000Y-25551000D01*
X100821000Y-21496000D02*
X100821000Y-21718000D01*
X100821000Y-21718000D02*
X100908000Y-22156000D01*
X100822000Y-26302999D02*
X100484000Y-25850000D01*
X100908000Y-22156000D02*
X101152000Y-22523000D01*
X100976001Y-26861000D02*
X100822000Y-26302999D01*
X101058000Y-27159000D02*
X100976001Y-26861000D01*
X101152000Y-22523000D02*
X101519000Y-22767001D01*
X101251000Y-27417000D02*
X101058000Y-27159000D01*
X101519000Y-22767001D02*
X101957000Y-22854000D01*
X101525000Y-27587000D02*
X101251000Y-27417000D01*
X101835000Y-27646001D02*
X101525000Y-27587000D01*
X101957000Y-22854000D02*
X104757000Y-22854000D01*
X104757000Y-22854000D02*
X105084000Y-22919000D01*
X105084000Y-22919000D02*
X105367000Y-23108000D01*
X105367000Y-23108000D02*
X105556000Y-23391000D01*
X105556000Y-23391000D02*
X105641000Y-23818000D01*
X105558000Y-26704000D02*
X105921000Y-26704000D01*
X105921000Y-26704000D02*
X105921000Y-27646000D01*
X105921000Y-27646000D02*
X101835000Y-27646001D01*
%TO.C,SW29*%
X23859000Y-18091000D02*
X24796000Y-17154000D01*
X24796000Y-17154000D02*
X27543000Y-17154000D01*
X24796000Y-21946000D02*
X23775000Y-20925000D01*
X27443000Y-21946000D02*
X24796000Y-21946000D01*
X27543000Y-17154000D02*
X27946000Y-17234000D01*
X27946000Y-17234000D02*
X28288000Y-17463000D01*
X28005000Y-22051000D02*
X27443000Y-21946000D01*
X28288000Y-17463000D02*
X28821000Y-17996000D01*
X28484000Y-22350000D02*
X28005000Y-22051000D01*
X28821000Y-17996000D02*
X28821000Y-18218000D01*
X28821000Y-18218000D02*
X28908000Y-18656000D01*
X28822000Y-22803000D02*
X28484000Y-22350000D01*
X28908000Y-18656000D02*
X29152000Y-19023000D01*
X28976000Y-23361000D02*
X28822000Y-22803000D01*
X29058000Y-23659000D02*
X28976000Y-23361000D01*
X29152000Y-19023000D02*
X29519000Y-19267000D01*
X29251000Y-23917000D02*
X29058000Y-23659000D01*
X29519000Y-19267000D02*
X29957000Y-19354000D01*
X29525000Y-24087000D02*
X29251000Y-23917000D01*
X29835000Y-24146000D02*
X29525000Y-24087000D01*
X29957000Y-19354000D02*
X32757000Y-19354000D01*
X32757000Y-19354000D02*
X33084000Y-19419000D01*
X33084000Y-19419000D02*
X33367000Y-19608000D01*
X33367000Y-19608000D02*
X33556000Y-19891000D01*
X33556000Y-19891000D02*
X33641000Y-20318000D01*
X33558000Y-23204000D02*
X33921000Y-23204000D01*
X33921000Y-23204000D02*
X33921000Y-24146000D01*
X33921000Y-24146000D02*
X29835000Y-24146000D01*
%TO.C,SW8*%
X113859000Y-9591000D02*
X114796000Y-8654000D01*
X114796000Y-8654000D02*
X117543000Y-8654000D01*
X114796000Y-13446000D02*
X113775000Y-12425000D01*
X117443000Y-13446000D02*
X114796000Y-13446000D01*
X117543000Y-8654000D02*
X117946000Y-8734000D01*
X117946000Y-8734000D02*
X118288000Y-8963000D01*
X118005000Y-13551000D02*
X117443000Y-13446000D01*
X118288000Y-8963000D02*
X118821000Y-9496000D01*
X118484000Y-13850000D02*
X118005000Y-13551000D01*
X118821000Y-9496000D02*
X118821000Y-9718000D01*
X118821000Y-9718000D02*
X118908000Y-10156000D01*
X118822000Y-14303000D02*
X118484000Y-13850000D01*
X118908000Y-10156000D02*
X119152000Y-10523000D01*
X118976000Y-14861000D02*
X118822000Y-14303000D01*
X119058000Y-15159000D02*
X118976000Y-14861000D01*
X119152000Y-10523000D02*
X119519000Y-10767000D01*
X119251000Y-15417000D02*
X119058000Y-15159000D01*
X119519000Y-10767000D02*
X119957000Y-10854000D01*
X119525000Y-15587000D02*
X119251000Y-15417000D01*
X119835000Y-15646000D02*
X119525000Y-15587000D01*
X119957000Y-10854000D02*
X122757000Y-10854000D01*
X122757000Y-10854000D02*
X123084000Y-10919000D01*
X123084000Y-10919000D02*
X123367000Y-11108000D01*
X123367000Y-11108000D02*
X123556000Y-11391000D01*
X123556000Y-11391000D02*
X123641000Y-11818000D01*
X123558000Y-14704000D02*
X123921000Y-14704000D01*
X123921000Y-14704000D02*
X123921000Y-15646000D01*
X123921000Y-15646000D02*
X119835000Y-15646000D01*
%TO.C,SW21*%
X95859000Y-38591000D02*
X96796000Y-37654000D01*
X96796000Y-37654000D02*
X99543000Y-37654000D01*
X96796000Y-42446000D02*
X95775000Y-41425000D01*
X99443000Y-42446000D02*
X96796000Y-42446000D01*
X99543000Y-37654000D02*
X99946000Y-37734000D01*
X99946000Y-37734000D02*
X100288000Y-37963000D01*
X100005000Y-42551000D02*
X99443000Y-42446000D01*
X100288000Y-37963000D02*
X100821000Y-38496000D01*
X100484000Y-42850000D02*
X100005000Y-42551000D01*
X100821000Y-38496000D02*
X100821000Y-38718000D01*
X100821000Y-38718000D02*
X100908000Y-39156000D01*
X100822000Y-43303000D02*
X100484000Y-42850000D01*
X100908000Y-39156000D02*
X101152000Y-39523000D01*
X100976000Y-43861000D02*
X100822000Y-43303000D01*
X101058000Y-44159000D02*
X100976000Y-43861000D01*
X101152000Y-39523000D02*
X101519000Y-39767000D01*
X101251000Y-44417000D02*
X101058000Y-44159000D01*
X101519000Y-39767000D02*
X101957000Y-39854000D01*
X101525000Y-44587000D02*
X101251000Y-44417000D01*
X101835000Y-44646000D02*
X101525000Y-44587000D01*
X101957000Y-39854000D02*
X104757000Y-39854000D01*
X104757000Y-39854000D02*
X105084000Y-39919000D01*
X105084000Y-39919000D02*
X105367000Y-40108000D01*
X105367000Y-40108000D02*
X105556000Y-40391000D01*
X105556000Y-40391000D02*
X105641000Y-40818000D01*
X105558000Y-43704000D02*
X105921000Y-43704000D01*
X105921000Y-43704000D02*
X105921000Y-44646000D01*
X105921000Y-44646000D02*
X101835000Y-44646000D01*
%TO.C,SW22*%
X77859000Y-33591000D02*
X78796000Y-32654000D01*
X78796000Y-32654000D02*
X81543000Y-32654000D01*
X78796000Y-37446000D02*
X77775000Y-36425000D01*
X81443000Y-37446000D02*
X78796000Y-37446000D01*
X81543000Y-32654000D02*
X81946000Y-32734000D01*
X81946000Y-32734000D02*
X82288000Y-32963000D01*
X82005000Y-37551000D02*
X81443000Y-37446000D01*
X82288000Y-32963000D02*
X82821000Y-33496000D01*
X82484000Y-37850000D02*
X82005000Y-37551000D01*
X82821000Y-33496000D02*
X82821000Y-33718000D01*
X82821000Y-33718000D02*
X82908000Y-34156000D01*
X82822000Y-38303000D02*
X82484000Y-37850000D01*
X82908000Y-34156000D02*
X83152000Y-34523000D01*
X82976000Y-38861000D02*
X82822000Y-38303000D01*
X83058000Y-39159000D02*
X82976000Y-38861000D01*
X83152000Y-34523000D02*
X83519000Y-34767000D01*
X83251000Y-39417000D02*
X83058000Y-39159000D01*
X83519000Y-34767000D02*
X83957000Y-34854000D01*
X83525000Y-39587000D02*
X83251000Y-39417000D01*
X83835000Y-39646000D02*
X83525000Y-39587000D01*
X83957000Y-34854000D02*
X86757000Y-34854000D01*
X86757000Y-34854000D02*
X87084000Y-34919000D01*
X87084000Y-34919000D02*
X87367000Y-35108000D01*
X87367000Y-35108000D02*
X87556000Y-35391000D01*
X87556000Y-35391000D02*
X87641000Y-35818000D01*
X87558000Y-38704000D02*
X87921000Y-38704000D01*
X87921000Y-38704000D02*
X87921000Y-39646000D01*
X87921000Y-39646000D02*
X83835000Y-39646000D01*
%TO.C,SW6*%
X41859000Y7409000D02*
X42796000Y8346000D01*
X42796000Y8346000D02*
X45543000Y8346000D01*
X42796000Y3554000D02*
X41775000Y4575000D01*
X45443000Y3554000D02*
X42796000Y3554000D01*
X45543000Y8346000D02*
X45946000Y8266000D01*
X45946000Y8266000D02*
X46288000Y8037000D01*
X46005000Y3449000D02*
X45443000Y3554000D01*
X46288000Y8037000D02*
X46821000Y7504000D01*
X46484000Y3150000D02*
X46005000Y3449000D01*
X46821000Y7504000D02*
X46821000Y7282000D01*
X46821000Y7282000D02*
X46908000Y6844000D01*
X46822000Y2697000D02*
X46484000Y3150000D01*
X46908000Y6844000D02*
X47152000Y6477000D01*
X46976000Y2139000D02*
X46822000Y2697000D01*
X47058000Y1841000D02*
X46976000Y2139000D01*
X47152000Y6477000D02*
X47519000Y6233000D01*
X47251000Y1583000D02*
X47058000Y1841000D01*
X47519000Y6233000D02*
X47957000Y6146000D01*
X47525000Y1413000D02*
X47251000Y1583000D01*
X47835000Y1354000D02*
X47525000Y1413000D01*
X47957000Y6146000D02*
X50757000Y6146000D01*
X50757000Y6146000D02*
X51084000Y6081000D01*
X51084000Y6081000D02*
X51367000Y5892000D01*
X51367000Y5892000D02*
X51556000Y5609000D01*
X51556000Y5609000D02*
X51641000Y5182000D01*
X51558000Y2296000D02*
X51921000Y2296000D01*
X51921000Y2296000D02*
X51921000Y1354000D01*
X51921000Y1354000D02*
X47835000Y1354000D01*
%TO.C,SW4*%
X77859000Y17409000D02*
X78796000Y18346000D01*
X78796000Y18346000D02*
X81543000Y18346000D01*
X78796000Y13554000D02*
X77775000Y14575000D01*
X81443000Y13554000D02*
X78796000Y13554000D01*
X81543000Y18346000D02*
X81946000Y18266000D01*
X81946000Y18266000D02*
X82288000Y18037000D01*
X82005000Y13449000D02*
X81443000Y13554000D01*
X82288000Y18037000D02*
X82821000Y17504000D01*
X82484000Y13150000D02*
X82005000Y13449000D01*
X82821000Y17504000D02*
X82821000Y17282000D01*
X82821000Y17282000D02*
X82908000Y16844000D01*
X82822000Y12697000D02*
X82484000Y13150000D01*
X82908000Y16844000D02*
X83152000Y16477000D01*
X82976000Y12139000D02*
X82822000Y12697000D01*
X83058000Y11841000D02*
X82976000Y12139000D01*
X83152000Y16477000D02*
X83519000Y16233000D01*
X83251000Y11583000D02*
X83058000Y11841000D01*
X83519000Y16233000D02*
X83957000Y16146000D01*
X83525000Y11413000D02*
X83251000Y11583000D01*
X83835000Y11354000D02*
X83525000Y11413000D01*
X83957000Y16146000D02*
X86757000Y16146000D01*
X86757000Y16146000D02*
X87084000Y16081000D01*
X87084000Y16081000D02*
X87367000Y15892000D01*
X87367000Y15892000D02*
X87556000Y15609000D01*
X87556000Y15609000D02*
X87641000Y15182000D01*
X87558000Y12296000D02*
X87921000Y12296000D01*
X87921000Y12296000D02*
X87921000Y11354000D01*
X87921000Y11354000D02*
X83835000Y11354000D01*
%TO.C,SW27*%
X23978183Y-83291618D02*
X24321148Y-82011652D01*
X24321148Y-82011652D02*
X26700120Y-80638152D01*
X26700120Y-80638152D02*
X27089128Y-80505934D01*
X26717148Y-86161646D02*
X25322436Y-85787934D01*
X27089128Y-80505934D02*
X27499809Y-80533254D01*
X27499809Y-80533254D02*
X28227901Y-80728345D01*
X28227901Y-80728345D02*
X28338901Y-80920603D01*
X28338901Y-80920603D02*
X28633245Y-81256422D01*
X28633245Y-81256422D02*
X29028055Y-81452253D01*
X29009518Y-84838146D02*
X26717148Y-86161646D01*
X29028055Y-81452253D02*
X29467887Y-81480065D01*
X29467887Y-81480065D02*
X29890706Y-81336408D01*
X29548724Y-84648078D02*
X29009518Y-84838146D01*
X29890706Y-81336408D02*
X32315577Y-79936408D01*
X30113050Y-84667520D02*
X29548724Y-84648078D01*
X30632266Y-84890829D02*
X30113050Y-84667520D01*
X31044635Y-85297071D02*
X30632266Y-84890829D01*
X31264649Y-85514147D02*
X31044635Y-85297071D01*
X31560792Y-85641082D02*
X31264649Y-85514147D01*
X31883083Y-85651306D02*
X31560792Y-85641082D01*
X32181051Y-85547402D02*
X31883083Y-85651306D01*
X32315577Y-79936408D02*
X32631267Y-79829200D01*
X32631267Y-79829200D02*
X32970852Y-79851378D01*
X32970852Y-79851378D02*
X33276031Y-80001964D01*
X33276031Y-80001964D02*
X33563143Y-80329256D01*
X34934263Y-82870106D02*
X35248630Y-82688606D01*
X35248630Y-82688606D02*
X35719630Y-83504402D01*
X35719630Y-83504402D02*
X32181051Y-85547402D01*
%TO.C,SW23*%
X59859000Y-38591000D02*
X60796000Y-37654000D01*
X60796000Y-37654000D02*
X63543000Y-37654000D01*
X60796000Y-42446000D02*
X59775000Y-41425000D01*
X63443000Y-42446000D02*
X60796000Y-42446000D01*
X63543000Y-37654000D02*
X63946000Y-37734000D01*
X63946000Y-37734000D02*
X64288000Y-37963000D01*
X64005000Y-42551000D02*
X63443000Y-42446000D01*
X64288000Y-37963000D02*
X64821000Y-38496000D01*
X64484000Y-42850000D02*
X64005000Y-42551000D01*
X64821000Y-38496000D02*
X64821000Y-38718000D01*
X64821000Y-38718000D02*
X64908000Y-39156000D01*
X64822000Y-43303000D02*
X64484000Y-42850000D01*
X64908000Y-39156000D02*
X65152000Y-39523000D01*
X64976000Y-43861000D02*
X64822000Y-43303000D01*
X65058000Y-44159000D02*
X64976000Y-43861000D01*
X65152000Y-39523000D02*
X65519000Y-39767000D01*
X65251000Y-44417000D02*
X65058000Y-44159000D01*
X65519000Y-39767000D02*
X65957000Y-39854000D01*
X65525000Y-44587000D02*
X65251000Y-44417000D01*
X65835000Y-44646000D02*
X65525000Y-44587000D01*
X65957000Y-39854000D02*
X68757000Y-39854000D01*
X68757000Y-39854000D02*
X69084000Y-39919000D01*
X69084000Y-39919000D02*
X69367000Y-40108000D01*
X69367000Y-40108000D02*
X69556000Y-40391000D01*
X69556000Y-40391000D02*
X69641000Y-40818000D01*
X69558000Y-43704000D02*
X69921000Y-43704000D01*
X69921000Y-43704000D02*
X69921000Y-44646000D01*
X69921000Y-44646000D02*
X65835000Y-44646000D01*
%TO.C,D26*%
X69065000Y-81000000D02*
X73075000Y-81000000D01*
X69065000Y-83000000D02*
X69065000Y-81000000D01*
X69065000Y-83000000D02*
X73075000Y-83000000D01*
%TO.C,D16*%
X95765000Y-33000000D02*
X99775000Y-33000000D01*
X95765000Y-35000000D02*
X95765000Y-33000000D01*
X95765000Y-35000000D02*
X99775000Y-35000000D01*
%TO.C,D10*%
X95765000Y-16000000D02*
X99775000Y-16000000D01*
X95765000Y-18000000D02*
X95765000Y-16000000D01*
X95765000Y-18000000D02*
X99775000Y-18000000D01*
%TO.C,D30*%
X23565000Y-29500000D02*
X27575000Y-29500000D01*
X23565000Y-31500000D02*
X23565000Y-29500000D01*
X23565000Y-31500000D02*
X27575000Y-31500000D01*
%TO.C,D28*%
X30160122Y-93488975D02*
X33632884Y-91483975D01*
X31160122Y-95221025D02*
X30160122Y-93488975D01*
X31160122Y-95221025D02*
X34632884Y-93216025D01*
%TO.C,D13*%
X42065000Y-21000000D02*
X46075000Y-21000000D01*
X42065000Y-23000000D02*
X42065000Y-21000000D01*
X42065000Y-23000000D02*
X46075000Y-23000000D01*
%TO.C,D11*%
X77765000Y-11000000D02*
X81775000Y-11000000D01*
X77765000Y-13000000D02*
X77765000Y-11000000D01*
X77765000Y-13000000D02*
X81775000Y-13000000D01*
%TO.C,D17*%
X77765000Y-28000000D02*
X81775000Y-28000000D01*
X77765000Y-30000000D02*
X77765000Y-28000000D01*
X77765000Y-30000000D02*
X81775000Y-30000000D01*
%TO.C,D14*%
X131765000Y-38000000D02*
X135775000Y-38000000D01*
X131765000Y-40000000D02*
X131765000Y-38000000D01*
X131765000Y-40000000D02*
X135775000Y-40000000D01*
%TO.C,D20*%
X131765000Y-55000000D02*
X135775000Y-55000000D01*
X131765000Y-57000000D02*
X131765000Y-55000000D01*
X131765000Y-57000000D02*
X135775000Y-57000000D01*
%TO.C,D9*%
X113765000Y-21000000D02*
X117775000Y-21000000D01*
X113765000Y-23000000D02*
X113765000Y-21000000D01*
X113765000Y-23000000D02*
X117775000Y-23000000D01*
%TO.C,D4*%
X95765000Y1000000D02*
X99775000Y1000000D01*
X95765000Y-1000000D02*
X95765000Y1000000D01*
X95765000Y-1000000D02*
X99775000Y-1000000D01*
%TO.C,D8*%
X131765000Y-21000000D02*
X135775000Y-21000000D01*
X131765000Y-23000000D02*
X131765000Y-21000000D01*
X131765000Y-23000000D02*
X135775000Y-23000000D01*
%TO.C,D22*%
X95765000Y-50000000D02*
X99775000Y-50000000D01*
X95765000Y-52000000D02*
X95765000Y-50000000D01*
X95765000Y-52000000D02*
X99775000Y-52000000D01*
%TO.C,D27*%
X48830374Y-84644887D02*
X52703737Y-83607023D01*
X49348012Y-86576739D02*
X48830374Y-84644887D01*
X49348012Y-86576739D02*
X53221375Y-85538874D01*
%TO.C,D21*%
X113765000Y-55000000D02*
X117775000Y-55000000D01*
X113765000Y-57000000D02*
X113765000Y-55000000D01*
X113765000Y-57000000D02*
X117775000Y-57000000D01*
%TO.C,D7*%
X42065000Y-4000000D02*
X46075000Y-4000000D01*
X42065000Y-6000000D02*
X42065000Y-4000000D01*
X42065000Y-6000000D02*
X46075000Y-6000000D01*
%TO.C,D6*%
X59565000Y1000000D02*
X63575000Y1000000D01*
X59565000Y-1000000D02*
X59565000Y1000000D01*
X59565000Y-1000000D02*
X63575000Y-1000000D01*
%TO.C,D19*%
X42065000Y-38000000D02*
X46075000Y-38000000D01*
X42065000Y-40000000D02*
X42065000Y-38000000D01*
X42065000Y-40000000D02*
X46075000Y-40000000D01*
%TO.C,D23*%
X77765000Y-45000000D02*
X81775000Y-45000000D01*
X77765000Y-47000000D02*
X77765000Y-45000000D01*
X77765000Y-47000000D02*
X81775000Y-47000000D01*
%TO.C,D31*%
X23565000Y-12500000D02*
X27575000Y-12500000D01*
X23565000Y-14500000D02*
X23565000Y-12500000D01*
X23565000Y-14500000D02*
X27575000Y-14500000D01*
%TO.C,D5*%
X77765000Y6000000D02*
X81775000Y6000000D01*
X77765000Y4000000D02*
X77765000Y6000000D01*
X77765000Y4000000D02*
X81775000Y4000000D01*
%TO.C,D25*%
X42065000Y-55000000D02*
X46075000Y-55000000D01*
X42065000Y-57000000D02*
X42065000Y-55000000D01*
X42065000Y-57000000D02*
X46075000Y-57000000D01*
%TO.C,D2*%
X131765000Y-4000000D02*
X135775000Y-4000000D01*
X131765000Y-6000000D02*
X131765000Y-4000000D01*
X131765000Y-6000000D02*
X135775000Y-6000000D01*
%TO.C,D15*%
X113765000Y-38000000D02*
X117775000Y-38000000D01*
X113765000Y-40000000D02*
X113765000Y-38000000D01*
X113765000Y-40000000D02*
X117775000Y-40000000D01*
%TO.C,D12*%
X59565000Y-16000000D02*
X63575000Y-16000000D01*
X59565000Y-18000000D02*
X59565000Y-16000000D01*
X59565000Y-18000000D02*
X63575000Y-18000000D01*
%TO.C,D29*%
X23565000Y-46500000D02*
X27575000Y-46500000D01*
X23565000Y-48500000D02*
X23565000Y-46500000D01*
X23565000Y-48500000D02*
X27575000Y-48500000D01*
%TO.C,D18*%
X59565000Y-33000000D02*
X63575000Y-33000000D01*
X59565000Y-35000000D02*
X59565000Y-33000000D01*
X59565000Y-35000000D02*
X63575000Y-35000000D01*
%TO.C,D3*%
X113765000Y-4000000D02*
X117775000Y-4000000D01*
X113765000Y-6000000D02*
X113765000Y-4000000D01*
X113765000Y-6000000D02*
X117775000Y-6000000D01*
%TO.C,D24*%
X59565000Y-50000000D02*
X63575000Y-50000000D01*
X59565000Y-52000000D02*
X59565000Y-50000000D01*
X59565000Y-52000000D02*
X63575000Y-52000000D01*
%TD*%
M02*
