M48
; DRILL file {KiCad 9.0.7} date 2026-04-23T19:45:03+0900
; FORMAT={-:-/ absolute / metric / decimal}
; #@! TF.CreationDate,2026-04-23T19:45:03+09:00
; #@! TF.GenerationSoftware,Kicad,Pcbnew,9.0.7
; #@! TF.FileFunction,NonPlated,1,2,NPTH
FMAT,2
METRIC
; #@! TA.AperFunction,NonPlated,NPTH,ComponentDrill
T1C1.500
; #@! TA.AperFunction,NonPlated,NPTH,ComponentDrill
T2C1.600
; #@! TA.AperFunction,NonPlated,NPTH,ComponentDrill
T3C1.900
; #@! TA.AperFunction,NonPlated,NPTH,ComponentDrill
T4C3.050
; #@! TA.AperFunction,NonPlated,NPTH,ComponentDrill
T5C5.050
%
G90
G05
T1
X-9.475Y-39.77
X-2.475Y-39.77
T2
X21.275Y-13.65
X21.275Y-30.65
X21.275Y-47.65
X28.02Y-95.46
X39.275Y-5.15
X39.275Y-22.15
X39.275Y-39.15
X39.275Y-56.15
X46.278Y-86.269
X57.275Y-0.15
X57.275Y-17.15
X57.275Y-34.15
X57.275Y-51.15
X66.275Y-82.15
X75.275Y4.85
X75.275Y-12.15
X75.275Y-29.15
X75.275Y-46.15
X93.275Y-0.15
X93.275Y-17.15
X93.275Y-34.15
X93.275Y-51.15
X111.275Y-5.15
X111.275Y-22.15
X111.275Y-39.15
X111.275Y-56.15
X129.275Y-5.15
X129.275Y-22.15
X129.275Y-39.15
X129.275Y-56.15
T3
X20.775Y-8.5
X20.775Y-25.5
X20.775Y-42.5
X25.012Y-91.25
X31.775Y-8.5
X31.775Y-25.5
X31.775Y-42.5
X34.538Y-85.75
X38.775Y0.0
X38.775Y-17.0
X38.775Y-34.0
X38.775Y-51.0
X44.462Y-81.424
X49.775Y0.0
X49.775Y-17.0
X49.775Y-34.0
X49.775Y-51.0
X55.088Y-78.576
X56.775Y5.0
X56.775Y-12.0
X56.775Y-29.0
X56.775Y-46.0
X65.775Y-77.0
X67.775Y5.0
X67.775Y-12.0
X67.775Y-29.0
X67.775Y-46.0
X74.775Y10.0
X74.775Y-7.0
X74.775Y-24.0
X74.775Y-41.0
X76.775Y-77.0
X85.775Y10.0
X85.775Y-7.0
X85.775Y-24.0
X85.775Y-41.0
X92.775Y5.0
X92.775Y-12.0
X92.775Y-29.0
X92.775Y-46.0
X103.775Y5.0
X103.775Y-12.0
X103.775Y-29.0
X103.775Y-46.0
X110.775Y0.0
X110.775Y-17.0
X110.775Y-34.0
X110.775Y-51.0
X121.775Y0.0
X121.775Y-17.0
X121.775Y-34.0
X121.775Y-51.0
X128.775Y0.0
X128.775Y-17.0
X128.775Y-34.0
X128.775Y-51.0
X139.775Y0.0
X139.775Y-17.0
X139.775Y-34.0
X139.775Y-51.0
T4
X26.275Y-2.6
X26.275Y-19.6
X26.275Y-36.6
X26.825Y-83.39
X31.275Y-4.7
X31.275Y-21.7
X31.275Y-38.7
X32.205Y-82.709
X44.275Y5.9
X44.275Y-11.1
X44.275Y-28.1
X44.275Y-45.1
X48.248Y-74.301
X49.275Y3.8
X49.275Y-13.2
X49.275Y-30.2
X49.275Y-47.2
X53.621Y-75.035
X62.275Y10.9
X62.275Y-6.1
X62.275Y-23.1
X62.275Y-40.1
X67.275Y8.8
X67.275Y-8.2
X67.275Y-25.2
X67.275Y-42.2
X71.275Y-71.1
X76.275Y-73.2
X80.275Y15.9
X80.275Y-1.1
X80.275Y-18.1
X80.275Y-35.1
X85.275Y13.8
X85.275Y-3.2
X85.275Y-20.2
X85.275Y-37.2
X98.275Y10.9
X98.275Y-6.1
X98.275Y-23.1
X98.275Y-40.1
X103.275Y8.8
X103.275Y-8.2
X103.275Y-25.2
X103.275Y-42.2
X116.275Y5.9
X116.275Y-11.1
X116.275Y-28.1
X116.275Y-45.1
X121.275Y3.8
X121.275Y-13.2
X121.275Y-30.2
X121.275Y-47.2
X134.275Y5.9
X134.275Y-11.1
X134.275Y-28.1
X134.275Y-45.1
X139.275Y3.8
X139.275Y-13.2
X139.275Y-30.2
X139.275Y-47.2
T5
X26.275Y-8.5
X26.275Y-25.5
X26.275Y-42.5
X29.775Y-88.5
X44.275Y0.0
X44.275Y-17.0
X44.275Y-34.0
X44.275Y-51.0
X49.775Y-80.0
X62.275Y5.0
X62.275Y-12.0
X62.275Y-29.0
X62.275Y-46.0
X71.275Y-77.0
X80.275Y10.0
X80.275Y-7.0
X80.275Y-24.0
X80.275Y-41.0
X98.275Y5.0
X98.275Y-12.0
X98.275Y-29.0
X98.275Y-46.0
X116.275Y0.0
X116.275Y-17.0
X116.275Y-34.0
X116.275Y-51.0
X134.275Y0.0
X134.275Y-17.0
X134.275Y-34.0
X134.275Y-51.0
M30
