%TF.GenerationSoftware,KiCad,Pcbnew,9.0.7*%
%TF.CreationDate,2026-05-02T18:05:20+09:00*%
%TF.ProjectId,keykeyv2.1,6b65796b-6579-4763-922e-312e6b696361,rev?*%
%TF.SameCoordinates,Original*%
%TF.FileFunction,Legend,Top*%
%TF.FilePolarity,Positive*%
%FSLAX46Y46*%
G04 Gerber Fmt 4.6, Leading zero omitted, Abs format (unit mm)*
G04 Created by KiCad (PCBNEW 9.0.7) date 2026-05-02 18:05:20*
%MOMM*%
%LPD*%
G01*
G04 APERTURE LIST*
%ADD10C,0.050000*%
%ADD11C,0.150000*%
%ADD12C,0.100000*%
%ADD13C,0.120000*%
G04 APERTURE END LIST*
D10*
X115600000Y-73500000D02*
G75*
G02*
X112600000Y-73500000I-1500000J0D01*
G01*
X112600000Y-73500000D02*
G75*
G02*
X115600000Y-73500000I1500000J0D01*
G01*
X-10300000Y-200000D02*
G75*
G02*
X-13300000Y-200000I-1500000J0D01*
G01*
X-13300000Y-200000D02*
G75*
G02*
X-10300000Y-200000I1500000J0D01*
G01*
X134200000Y-46000000D02*
G75*
G02*
X131200000Y-46000000I-1500000J0D01*
G01*
X131200000Y-46000000D02*
G75*
G02*
X134200000Y-46000000I1500000J0D01*
G01*
X62700000Y-59500000D02*
G75*
G02*
X59700000Y-59500000I-1500000J0D01*
G01*
X59700000Y-59500000D02*
G75*
G02*
X62700000Y-59500000I1500000J0D01*
G01*
X-10300000Y-51100000D02*
G75*
G02*
X-13300000Y-51100000I-1500000J0D01*
G01*
X-13300000Y-51100000D02*
G75*
G02*
X-10300000Y-51100000I1500000J0D01*
G01*
D11*
X64623809Y-59469819D02*
X64623809Y-58469819D01*
X65195237Y-59469819D02*
X64766666Y-58898390D01*
X65195237Y-58469819D02*
X64623809Y-59041247D01*
X65623809Y-58946009D02*
X65957142Y-58946009D01*
X66099999Y-59469819D02*
X65623809Y-59469819D01*
X65623809Y-59469819D02*
X65623809Y-58469819D01*
X65623809Y-58469819D02*
X66099999Y-58469819D01*
X66719047Y-58993628D02*
X66719047Y-59469819D01*
X66385714Y-58469819D02*
X66719047Y-58993628D01*
X66719047Y-58993628D02*
X67052380Y-58469819D01*
X67385714Y-59469819D02*
X67385714Y-58469819D01*
X67957142Y-59469819D02*
X67528571Y-58898390D01*
X67957142Y-58469819D02*
X67385714Y-59041247D01*
X68385714Y-58946009D02*
X68719047Y-58946009D01*
X68861904Y-59469819D02*
X68385714Y-59469819D01*
X68385714Y-59469819D02*
X68385714Y-58469819D01*
X68385714Y-58469819D02*
X68861904Y-58469819D01*
X69480952Y-58993628D02*
X69480952Y-59469819D01*
X69147619Y-58469819D02*
X69480952Y-58993628D01*
X69480952Y-58993628D02*
X69814285Y-58469819D01*
X70766667Y-58469819D02*
X71100000Y-59469819D01*
X71100000Y-59469819D02*
X71433333Y-58469819D01*
X71719048Y-58565057D02*
X71766667Y-58517438D01*
X71766667Y-58517438D02*
X71861905Y-58469819D01*
X71861905Y-58469819D02*
X72100000Y-58469819D01*
X72100000Y-58469819D02*
X72195238Y-58517438D01*
X72195238Y-58517438D02*
X72242857Y-58565057D01*
X72242857Y-58565057D02*
X72290476Y-58660295D01*
X72290476Y-58660295D02*
X72290476Y-58755533D01*
X72290476Y-58755533D02*
X72242857Y-58898390D01*
X72242857Y-58898390D02*
X71671429Y-59469819D01*
X71671429Y-59469819D02*
X72290476Y-59469819D01*
X72719048Y-59374580D02*
X72766667Y-59422200D01*
X72766667Y-59422200D02*
X72719048Y-59469819D01*
X72719048Y-59469819D02*
X72671429Y-59422200D01*
X72671429Y-59422200D02*
X72719048Y-59374580D01*
X72719048Y-59374580D02*
X72719048Y-59469819D01*
X73719047Y-59469819D02*
X73147619Y-59469819D01*
X73433333Y-59469819D02*
X73433333Y-58469819D01*
X73433333Y-58469819D02*
X73338095Y-58612676D01*
X73338095Y-58612676D02*
X73242857Y-58707914D01*
X73242857Y-58707914D02*
X73147619Y-58755533D01*
X75195238Y-59850771D02*
X75147619Y-59803152D01*
X75147619Y-59803152D02*
X75052381Y-59660295D01*
X75052381Y-59660295D02*
X75004762Y-59565057D01*
X75004762Y-59565057D02*
X74957143Y-59422200D01*
X74957143Y-59422200D02*
X74909524Y-59184104D01*
X74909524Y-59184104D02*
X74909524Y-58993628D01*
X74909524Y-58993628D02*
X74957143Y-58755533D01*
X74957143Y-58755533D02*
X75004762Y-58612676D01*
X75004762Y-58612676D02*
X75052381Y-58517438D01*
X75052381Y-58517438D02*
X75147619Y-58374580D01*
X75147619Y-58374580D02*
X75195238Y-58326961D01*
X76052381Y-59469819D02*
X75576191Y-59469819D01*
X75576191Y-59469819D02*
X75576191Y-58469819D01*
X76290477Y-59850771D02*
X76338096Y-59803152D01*
X76338096Y-59803152D02*
X76433334Y-59660295D01*
X76433334Y-59660295D02*
X76480953Y-59565057D01*
X76480953Y-59565057D02*
X76528572Y-59422200D01*
X76528572Y-59422200D02*
X76576191Y-59184104D01*
X76576191Y-59184104D02*
X76576191Y-58993628D01*
X76576191Y-58993628D02*
X76528572Y-58755533D01*
X76528572Y-58755533D02*
X76480953Y-58612676D01*
X76480953Y-58612676D02*
X76433334Y-58517438D01*
X76433334Y-58517438D02*
X76338096Y-58374580D01*
X76338096Y-58374580D02*
X76290477Y-58326961D01*
X52190476Y1592799D02*
X52333333Y1545179D01*
X52333333Y1545179D02*
X52571428Y1545179D01*
X52571428Y1545179D02*
X52666666Y1592799D01*
X52666666Y1592799D02*
X52714285Y1640418D01*
X52714285Y1640418D02*
X52761904Y1735656D01*
X52761904Y1735656D02*
X52761904Y1830894D01*
X52761904Y1830894D02*
X52714285Y1926132D01*
X52714285Y1926132D02*
X52666666Y1973751D01*
X52666666Y1973751D02*
X52571428Y2021370D01*
X52571428Y2021370D02*
X52380952Y2068989D01*
X52380952Y2068989D02*
X52285714Y2116608D01*
X52285714Y2116608D02*
X52238095Y2164227D01*
X52238095Y2164227D02*
X52190476Y2259465D01*
X52190476Y2259465D02*
X52190476Y2354703D01*
X52190476Y2354703D02*
X52238095Y2449941D01*
X52238095Y2449941D02*
X52285714Y2497560D01*
X52285714Y2497560D02*
X52380952Y2545179D01*
X52380952Y2545179D02*
X52619047Y2545179D01*
X52619047Y2545179D02*
X52761904Y2497560D01*
X53095238Y2545179D02*
X53333333Y1545179D01*
X53333333Y1545179D02*
X53523809Y2259465D01*
X53523809Y2259465D02*
X53714285Y1545179D01*
X53714285Y1545179D02*
X53952381Y2545179D01*
X54857142Y1545179D02*
X54285714Y1545179D01*
X54571428Y1545179D02*
X54571428Y2545179D01*
X54571428Y2545179D02*
X54476190Y2402322D01*
X54476190Y2402322D02*
X54380952Y2307084D01*
X54380952Y2307084D02*
X54285714Y2259465D01*
X55476190Y2545179D02*
X55571428Y2545179D01*
X55571428Y2545179D02*
X55666666Y2497560D01*
X55666666Y2497560D02*
X55714285Y2449941D01*
X55714285Y2449941D02*
X55761904Y2354703D01*
X55761904Y2354703D02*
X55809523Y2164227D01*
X55809523Y2164227D02*
X55809523Y1926132D01*
X55809523Y1926132D02*
X55761904Y1735656D01*
X55761904Y1735656D02*
X55714285Y1640418D01*
X55714285Y1640418D02*
X55666666Y1592799D01*
X55666666Y1592799D02*
X55571428Y1545179D01*
X55571428Y1545179D02*
X55476190Y1545179D01*
X55476190Y1545179D02*
X55380952Y1592799D01*
X55380952Y1592799D02*
X55333333Y1640418D01*
X55333333Y1640418D02*
X55285714Y1735656D01*
X55285714Y1735656D02*
X55238095Y1926132D01*
X55238095Y1926132D02*
X55238095Y2164227D01*
X55238095Y2164227D02*
X55285714Y2354703D01*
X55285714Y2354703D02*
X55333333Y2449941D01*
X55333333Y2449941D02*
X55380952Y2497560D01*
X55380952Y2497560D02*
X55476190Y2545179D01*
X106190476Y-33907200D02*
X106333333Y-33954819D01*
X106333333Y-33954819D02*
X106571428Y-33954819D01*
X106571428Y-33954819D02*
X106666666Y-33907200D01*
X106666666Y-33907200D02*
X106714285Y-33859580D01*
X106714285Y-33859580D02*
X106761904Y-33764342D01*
X106761904Y-33764342D02*
X106761904Y-33669104D01*
X106761904Y-33669104D02*
X106714285Y-33573866D01*
X106714285Y-33573866D02*
X106666666Y-33526247D01*
X106666666Y-33526247D02*
X106571428Y-33478628D01*
X106571428Y-33478628D02*
X106380952Y-33431009D01*
X106380952Y-33431009D02*
X106285714Y-33383390D01*
X106285714Y-33383390D02*
X106238095Y-33335771D01*
X106238095Y-33335771D02*
X106190476Y-33240533D01*
X106190476Y-33240533D02*
X106190476Y-33145295D01*
X106190476Y-33145295D02*
X106238095Y-33050057D01*
X106238095Y-33050057D02*
X106285714Y-33002438D01*
X106285714Y-33002438D02*
X106380952Y-32954819D01*
X106380952Y-32954819D02*
X106619047Y-32954819D01*
X106619047Y-32954819D02*
X106761904Y-33002438D01*
X107095238Y-32954819D02*
X107333333Y-33954819D01*
X107333333Y-33954819D02*
X107523809Y-33240533D01*
X107523809Y-33240533D02*
X107714285Y-33954819D01*
X107714285Y-33954819D02*
X107952381Y-32954819D01*
X108285714Y-33050057D02*
X108333333Y-33002438D01*
X108333333Y-33002438D02*
X108428571Y-32954819D01*
X108428571Y-32954819D02*
X108666666Y-32954819D01*
X108666666Y-32954819D02*
X108761904Y-33002438D01*
X108761904Y-33002438D02*
X108809523Y-33050057D01*
X108809523Y-33050057D02*
X108857142Y-33145295D01*
X108857142Y-33145295D02*
X108857142Y-33240533D01*
X108857142Y-33240533D02*
X108809523Y-33383390D01*
X108809523Y-33383390D02*
X108238095Y-33954819D01*
X108238095Y-33954819D02*
X108857142Y-33954819D01*
X109428571Y-33383390D02*
X109333333Y-33335771D01*
X109333333Y-33335771D02*
X109285714Y-33288152D01*
X109285714Y-33288152D02*
X109238095Y-33192914D01*
X109238095Y-33192914D02*
X109238095Y-33145295D01*
X109238095Y-33145295D02*
X109285714Y-33050057D01*
X109285714Y-33050057D02*
X109333333Y-33002438D01*
X109333333Y-33002438D02*
X109428571Y-32954819D01*
X109428571Y-32954819D02*
X109619047Y-32954819D01*
X109619047Y-32954819D02*
X109714285Y-33002438D01*
X109714285Y-33002438D02*
X109761904Y-33050057D01*
X109761904Y-33050057D02*
X109809523Y-33145295D01*
X109809523Y-33145295D02*
X109809523Y-33192914D01*
X109809523Y-33192914D02*
X109761904Y-33288152D01*
X109761904Y-33288152D02*
X109714285Y-33335771D01*
X109714285Y-33335771D02*
X109619047Y-33383390D01*
X109619047Y-33383390D02*
X109428571Y-33383390D01*
X109428571Y-33383390D02*
X109333333Y-33431009D01*
X109333333Y-33431009D02*
X109285714Y-33478628D01*
X109285714Y-33478628D02*
X109238095Y-33573866D01*
X109238095Y-33573866D02*
X109238095Y-33764342D01*
X109238095Y-33764342D02*
X109285714Y-33859580D01*
X109285714Y-33859580D02*
X109333333Y-33907200D01*
X109333333Y-33907200D02*
X109428571Y-33954819D01*
X109428571Y-33954819D02*
X109619047Y-33954819D01*
X109619047Y-33954819D02*
X109714285Y-33907200D01*
X109714285Y-33907200D02*
X109761904Y-33859580D01*
X109761904Y-33859580D02*
X109809523Y-33764342D01*
X109809523Y-33764342D02*
X109809523Y-33573866D01*
X109809523Y-33573866D02*
X109761904Y-33478628D01*
X109761904Y-33478628D02*
X109714285Y-33431009D01*
X109714285Y-33431009D02*
X109619047Y-33383390D01*
X16190476Y-25407200D02*
X16333333Y-25454819D01*
X16333333Y-25454819D02*
X16571428Y-25454819D01*
X16571428Y-25454819D02*
X16666666Y-25407200D01*
X16666666Y-25407200D02*
X16714285Y-25359580D01*
X16714285Y-25359580D02*
X16761904Y-25264342D01*
X16761904Y-25264342D02*
X16761904Y-25169104D01*
X16761904Y-25169104D02*
X16714285Y-25073866D01*
X16714285Y-25073866D02*
X16666666Y-25026247D01*
X16666666Y-25026247D02*
X16571428Y-24978628D01*
X16571428Y-24978628D02*
X16380952Y-24931009D01*
X16380952Y-24931009D02*
X16285714Y-24883390D01*
X16285714Y-24883390D02*
X16238095Y-24835771D01*
X16238095Y-24835771D02*
X16190476Y-24740533D01*
X16190476Y-24740533D02*
X16190476Y-24645295D01*
X16190476Y-24645295D02*
X16238095Y-24550057D01*
X16238095Y-24550057D02*
X16285714Y-24502438D01*
X16285714Y-24502438D02*
X16380952Y-24454819D01*
X16380952Y-24454819D02*
X16619047Y-24454819D01*
X16619047Y-24454819D02*
X16761904Y-24502438D01*
X17095238Y-24454819D02*
X17333333Y-25454819D01*
X17333333Y-25454819D02*
X17523809Y-24740533D01*
X17523809Y-24740533D02*
X17714285Y-25454819D01*
X17714285Y-25454819D02*
X17952381Y-24454819D01*
X18857142Y-25454819D02*
X18285714Y-25454819D01*
X18571428Y-25454819D02*
X18571428Y-24454819D01*
X18571428Y-24454819D02*
X18476190Y-24597676D01*
X18476190Y-24597676D02*
X18380952Y-24692914D01*
X18380952Y-24692914D02*
X18285714Y-24740533D01*
X19714285Y-24788152D02*
X19714285Y-25454819D01*
X19476190Y-24407200D02*
X19238095Y-25121485D01*
X19238095Y-25121485D02*
X19857142Y-25121485D01*
X70190476Y-3407200D02*
X70333333Y-3454819D01*
X70333333Y-3454819D02*
X70571428Y-3454819D01*
X70571428Y-3454819D02*
X70666666Y-3407200D01*
X70666666Y-3407200D02*
X70714285Y-3359580D01*
X70714285Y-3359580D02*
X70761904Y-3264342D01*
X70761904Y-3264342D02*
X70761904Y-3169104D01*
X70761904Y-3169104D02*
X70714285Y-3073866D01*
X70714285Y-3073866D02*
X70666666Y-3026247D01*
X70666666Y-3026247D02*
X70571428Y-2978628D01*
X70571428Y-2978628D02*
X70380952Y-2931009D01*
X70380952Y-2931009D02*
X70285714Y-2883390D01*
X70285714Y-2883390D02*
X70238095Y-2835771D01*
X70238095Y-2835771D02*
X70190476Y-2740533D01*
X70190476Y-2740533D02*
X70190476Y-2645295D01*
X70190476Y-2645295D02*
X70238095Y-2550057D01*
X70238095Y-2550057D02*
X70285714Y-2502438D01*
X70285714Y-2502438D02*
X70380952Y-2454819D01*
X70380952Y-2454819D02*
X70619047Y-2454819D01*
X70619047Y-2454819D02*
X70761904Y-2502438D01*
X71095238Y-2454819D02*
X71333333Y-3454819D01*
X71333333Y-3454819D02*
X71523809Y-2740533D01*
X71523809Y-2740533D02*
X71714285Y-3454819D01*
X71714285Y-3454819D02*
X71952381Y-2454819D01*
X72857142Y-3454819D02*
X72285714Y-3454819D01*
X72571428Y-3454819D02*
X72571428Y-2454819D01*
X72571428Y-2454819D02*
X72476190Y-2597676D01*
X72476190Y-2597676D02*
X72380952Y-2692914D01*
X72380952Y-2692914D02*
X72285714Y-2740533D01*
X73809523Y-3454819D02*
X73238095Y-3454819D01*
X73523809Y-3454819D02*
X73523809Y-2454819D01*
X73523809Y-2454819D02*
X73428571Y-2597676D01*
X73428571Y-2597676D02*
X73333333Y-2692914D01*
X73333333Y-2692914D02*
X73238095Y-2740533D01*
X70666667Y13592800D02*
X70809524Y13545180D01*
X70809524Y13545180D02*
X71047619Y13545180D01*
X71047619Y13545180D02*
X71142857Y13592800D01*
X71142857Y13592800D02*
X71190476Y13640419D01*
X71190476Y13640419D02*
X71238095Y13735657D01*
X71238095Y13735657D02*
X71238095Y13830895D01*
X71238095Y13830895D02*
X71190476Y13926133D01*
X71190476Y13926133D02*
X71142857Y13973752D01*
X71142857Y13973752D02*
X71047619Y14021371D01*
X71047619Y14021371D02*
X70857143Y14068990D01*
X70857143Y14068990D02*
X70761905Y14116609D01*
X70761905Y14116609D02*
X70714286Y14164228D01*
X70714286Y14164228D02*
X70666667Y14259466D01*
X70666667Y14259466D02*
X70666667Y14354704D01*
X70666667Y14354704D02*
X70714286Y14449942D01*
X70714286Y14449942D02*
X70761905Y14497561D01*
X70761905Y14497561D02*
X70857143Y14545180D01*
X70857143Y14545180D02*
X71095238Y14545180D01*
X71095238Y14545180D02*
X71238095Y14497561D01*
X71571429Y14545180D02*
X71809524Y13545180D01*
X71809524Y13545180D02*
X72000000Y14259466D01*
X72000000Y14259466D02*
X72190476Y13545180D01*
X72190476Y13545180D02*
X72428572Y14545180D01*
X73285714Y14545180D02*
X72809524Y14545180D01*
X72809524Y14545180D02*
X72761905Y14068990D01*
X72761905Y14068990D02*
X72809524Y14116609D01*
X72809524Y14116609D02*
X72904762Y14164228D01*
X72904762Y14164228D02*
X73142857Y14164228D01*
X73142857Y14164228D02*
X73238095Y14116609D01*
X73238095Y14116609D02*
X73285714Y14068990D01*
X73285714Y14068990D02*
X73333333Y13973752D01*
X73333333Y13973752D02*
X73333333Y13735657D01*
X73333333Y13735657D02*
X73285714Y13640419D01*
X73285714Y13640419D02*
X73238095Y13592800D01*
X73238095Y13592800D02*
X73142857Y13545180D01*
X73142857Y13545180D02*
X72904762Y13545180D01*
X72904762Y13545180D02*
X72809524Y13592800D01*
X72809524Y13592800D02*
X72761905Y13640419D01*
X-1809523Y-42407200D02*
X-1666666Y-42454819D01*
X-1666666Y-42454819D02*
X-1428571Y-42454819D01*
X-1428571Y-42454819D02*
X-1333333Y-42407200D01*
X-1333333Y-42407200D02*
X-1285714Y-42359580D01*
X-1285714Y-42359580D02*
X-1238095Y-42264342D01*
X-1238095Y-42264342D02*
X-1238095Y-42169104D01*
X-1238095Y-42169104D02*
X-1285714Y-42073866D01*
X-1285714Y-42073866D02*
X-1333333Y-42026247D01*
X-1333333Y-42026247D02*
X-1428571Y-41978628D01*
X-1428571Y-41978628D02*
X-1619047Y-41931009D01*
X-1619047Y-41931009D02*
X-1714285Y-41883390D01*
X-1714285Y-41883390D02*
X-1761904Y-41835771D01*
X-1761904Y-41835771D02*
X-1809523Y-41740533D01*
X-1809523Y-41740533D02*
X-1809523Y-41645295D01*
X-1809523Y-41645295D02*
X-1761904Y-41550057D01*
X-1761904Y-41550057D02*
X-1714285Y-41502438D01*
X-1714285Y-41502438D02*
X-1619047Y-41454819D01*
X-1619047Y-41454819D02*
X-1380952Y-41454819D01*
X-1380952Y-41454819D02*
X-1238095Y-41502438D01*
X-904761Y-41454819D02*
X-666666Y-42454819D01*
X-666666Y-42454819D02*
X-476190Y-41740533D01*
X-476190Y-41740533D02*
X-285714Y-42454819D01*
X-285714Y-42454819D02*
X-47619Y-41454819D01*
X857142Y-42454819D02*
X285714Y-42454819D01*
X571428Y-42454819D02*
X571428Y-41454819D01*
X571428Y-41454819D02*
X476190Y-41597676D01*
X476190Y-41597676D02*
X380952Y-41692914D01*
X380952Y-41692914D02*
X285714Y-41740533D01*
X1333333Y-42454819D02*
X1523809Y-42454819D01*
X1523809Y-42454819D02*
X1619047Y-42407200D01*
X1619047Y-42407200D02*
X1666666Y-42359580D01*
X1666666Y-42359580D02*
X1761904Y-42216723D01*
X1761904Y-42216723D02*
X1809523Y-42026247D01*
X1809523Y-42026247D02*
X1809523Y-41645295D01*
X1809523Y-41645295D02*
X1761904Y-41550057D01*
X1761904Y-41550057D02*
X1714285Y-41502438D01*
X1714285Y-41502438D02*
X1619047Y-41454819D01*
X1619047Y-41454819D02*
X1428571Y-41454819D01*
X1428571Y-41454819D02*
X1333333Y-41502438D01*
X1333333Y-41502438D02*
X1285714Y-41550057D01*
X1285714Y-41550057D02*
X1238095Y-41645295D01*
X1238095Y-41645295D02*
X1238095Y-41883390D01*
X1238095Y-41883390D02*
X1285714Y-41978628D01*
X1285714Y-41978628D02*
X1333333Y-42026247D01*
X1333333Y-42026247D02*
X1428571Y-42073866D01*
X1428571Y-42073866D02*
X1619047Y-42073866D01*
X1619047Y-42073866D02*
X1714285Y-42026247D01*
X1714285Y-42026247D02*
X1761904Y-41978628D01*
X1761904Y-41978628D02*
X1809523Y-41883390D01*
X88190476Y-8407200D02*
X88333333Y-8454819D01*
X88333333Y-8454819D02*
X88571428Y-8454819D01*
X88571428Y-8454819D02*
X88666666Y-8407200D01*
X88666666Y-8407200D02*
X88714285Y-8359580D01*
X88714285Y-8359580D02*
X88761904Y-8264342D01*
X88761904Y-8264342D02*
X88761904Y-8169104D01*
X88761904Y-8169104D02*
X88714285Y-8073866D01*
X88714285Y-8073866D02*
X88666666Y-8026247D01*
X88666666Y-8026247D02*
X88571428Y-7978628D01*
X88571428Y-7978628D02*
X88380952Y-7931009D01*
X88380952Y-7931009D02*
X88285714Y-7883390D01*
X88285714Y-7883390D02*
X88238095Y-7835771D01*
X88238095Y-7835771D02*
X88190476Y-7740533D01*
X88190476Y-7740533D02*
X88190476Y-7645295D01*
X88190476Y-7645295D02*
X88238095Y-7550057D01*
X88238095Y-7550057D02*
X88285714Y-7502438D01*
X88285714Y-7502438D02*
X88380952Y-7454819D01*
X88380952Y-7454819D02*
X88619047Y-7454819D01*
X88619047Y-7454819D02*
X88761904Y-7502438D01*
X89095238Y-7454819D02*
X89333333Y-8454819D01*
X89333333Y-8454819D02*
X89523809Y-7740533D01*
X89523809Y-7740533D02*
X89714285Y-8454819D01*
X89714285Y-8454819D02*
X89952381Y-7454819D01*
X90857142Y-8454819D02*
X90285714Y-8454819D01*
X90571428Y-8454819D02*
X90571428Y-7454819D01*
X90571428Y-7454819D02*
X90476190Y-7597676D01*
X90476190Y-7597676D02*
X90380952Y-7692914D01*
X90380952Y-7692914D02*
X90285714Y-7740533D01*
X91238095Y-7550057D02*
X91285714Y-7502438D01*
X91285714Y-7502438D02*
X91380952Y-7454819D01*
X91380952Y-7454819D02*
X91619047Y-7454819D01*
X91619047Y-7454819D02*
X91714285Y-7502438D01*
X91714285Y-7502438D02*
X91761904Y-7550057D01*
X91761904Y-7550057D02*
X91809523Y-7645295D01*
X91809523Y-7645295D02*
X91809523Y-7740533D01*
X91809523Y-7740533D02*
X91761904Y-7883390D01*
X91761904Y-7883390D02*
X91190476Y-8454819D01*
X91190476Y-8454819D02*
X91809523Y-8454819D01*
X-1809523Y-25407200D02*
X-1666666Y-25454819D01*
X-1666666Y-25454819D02*
X-1428571Y-25454819D01*
X-1428571Y-25454819D02*
X-1333333Y-25407200D01*
X-1333333Y-25407200D02*
X-1285714Y-25359580D01*
X-1285714Y-25359580D02*
X-1238095Y-25264342D01*
X-1238095Y-25264342D02*
X-1238095Y-25169104D01*
X-1238095Y-25169104D02*
X-1285714Y-25073866D01*
X-1285714Y-25073866D02*
X-1333333Y-25026247D01*
X-1333333Y-25026247D02*
X-1428571Y-24978628D01*
X-1428571Y-24978628D02*
X-1619047Y-24931009D01*
X-1619047Y-24931009D02*
X-1714285Y-24883390D01*
X-1714285Y-24883390D02*
X-1761904Y-24835771D01*
X-1761904Y-24835771D02*
X-1809523Y-24740533D01*
X-1809523Y-24740533D02*
X-1809523Y-24645295D01*
X-1809523Y-24645295D02*
X-1761904Y-24550057D01*
X-1761904Y-24550057D02*
X-1714285Y-24502438D01*
X-1714285Y-24502438D02*
X-1619047Y-24454819D01*
X-1619047Y-24454819D02*
X-1380952Y-24454819D01*
X-1380952Y-24454819D02*
X-1238095Y-24502438D01*
X-904761Y-24454819D02*
X-666666Y-25454819D01*
X-666666Y-25454819D02*
X-476190Y-24740533D01*
X-476190Y-24740533D02*
X-285714Y-25454819D01*
X-285714Y-25454819D02*
X-47619Y-24454819D01*
X857142Y-25454819D02*
X285714Y-25454819D01*
X571428Y-25454819D02*
X571428Y-24454819D01*
X571428Y-24454819D02*
X476190Y-24597676D01*
X476190Y-24597676D02*
X380952Y-24692914D01*
X380952Y-24692914D02*
X285714Y-24740533D01*
X1190476Y-24454819D02*
X1809523Y-24454819D01*
X1809523Y-24454819D02*
X1476190Y-24835771D01*
X1476190Y-24835771D02*
X1619047Y-24835771D01*
X1619047Y-24835771D02*
X1714285Y-24883390D01*
X1714285Y-24883390D02*
X1761904Y-24931009D01*
X1761904Y-24931009D02*
X1809523Y-25026247D01*
X1809523Y-25026247D02*
X1809523Y-25264342D01*
X1809523Y-25264342D02*
X1761904Y-25359580D01*
X1761904Y-25359580D02*
X1714285Y-25407200D01*
X1714285Y-25407200D02*
X1619047Y-25454819D01*
X1619047Y-25454819D02*
X1333333Y-25454819D01*
X1333333Y-25454819D02*
X1238095Y-25407200D01*
X1238095Y-25407200D02*
X1190476Y-25359580D01*
X34666667Y-3407200D02*
X34809524Y-3454819D01*
X34809524Y-3454819D02*
X35047619Y-3454819D01*
X35047619Y-3454819D02*
X35142857Y-3407200D01*
X35142857Y-3407200D02*
X35190476Y-3359580D01*
X35190476Y-3359580D02*
X35238095Y-3264342D01*
X35238095Y-3264342D02*
X35238095Y-3169104D01*
X35238095Y-3169104D02*
X35190476Y-3073866D01*
X35190476Y-3073866D02*
X35142857Y-3026247D01*
X35142857Y-3026247D02*
X35047619Y-2978628D01*
X35047619Y-2978628D02*
X34857143Y-2931009D01*
X34857143Y-2931009D02*
X34761905Y-2883390D01*
X34761905Y-2883390D02*
X34714286Y-2835771D01*
X34714286Y-2835771D02*
X34666667Y-2740533D01*
X34666667Y-2740533D02*
X34666667Y-2645295D01*
X34666667Y-2645295D02*
X34714286Y-2550057D01*
X34714286Y-2550057D02*
X34761905Y-2502438D01*
X34761905Y-2502438D02*
X34857143Y-2454819D01*
X34857143Y-2454819D02*
X35095238Y-2454819D01*
X35095238Y-2454819D02*
X35238095Y-2502438D01*
X35571429Y-2454819D02*
X35809524Y-3454819D01*
X35809524Y-3454819D02*
X36000000Y-2740533D01*
X36000000Y-2740533D02*
X36190476Y-3454819D01*
X36190476Y-3454819D02*
X36428572Y-2454819D01*
X36857143Y-3454819D02*
X37047619Y-3454819D01*
X37047619Y-3454819D02*
X37142857Y-3407200D01*
X37142857Y-3407200D02*
X37190476Y-3359580D01*
X37190476Y-3359580D02*
X37285714Y-3216723D01*
X37285714Y-3216723D02*
X37333333Y-3026247D01*
X37333333Y-3026247D02*
X37333333Y-2645295D01*
X37333333Y-2645295D02*
X37285714Y-2550057D01*
X37285714Y-2550057D02*
X37238095Y-2502438D01*
X37238095Y-2502438D02*
X37142857Y-2454819D01*
X37142857Y-2454819D02*
X36952381Y-2454819D01*
X36952381Y-2454819D02*
X36857143Y-2502438D01*
X36857143Y-2502438D02*
X36809524Y-2550057D01*
X36809524Y-2550057D02*
X36761905Y-2645295D01*
X36761905Y-2645295D02*
X36761905Y-2883390D01*
X36761905Y-2883390D02*
X36809524Y-2978628D01*
X36809524Y-2978628D02*
X36857143Y-3026247D01*
X36857143Y-3026247D02*
X36952381Y-3073866D01*
X36952381Y-3073866D02*
X37142857Y-3073866D01*
X37142857Y-3073866D02*
X37238095Y-3026247D01*
X37238095Y-3026247D02*
X37285714Y-2978628D01*
X37285714Y-2978628D02*
X37333333Y-2883390D01*
X70190476Y-20407200D02*
X70333333Y-20454819D01*
X70333333Y-20454819D02*
X70571428Y-20454819D01*
X70571428Y-20454819D02*
X70666666Y-20407200D01*
X70666666Y-20407200D02*
X70714285Y-20359580D01*
X70714285Y-20359580D02*
X70761904Y-20264342D01*
X70761904Y-20264342D02*
X70761904Y-20169104D01*
X70761904Y-20169104D02*
X70714285Y-20073866D01*
X70714285Y-20073866D02*
X70666666Y-20026247D01*
X70666666Y-20026247D02*
X70571428Y-19978628D01*
X70571428Y-19978628D02*
X70380952Y-19931009D01*
X70380952Y-19931009D02*
X70285714Y-19883390D01*
X70285714Y-19883390D02*
X70238095Y-19835771D01*
X70238095Y-19835771D02*
X70190476Y-19740533D01*
X70190476Y-19740533D02*
X70190476Y-19645295D01*
X70190476Y-19645295D02*
X70238095Y-19550057D01*
X70238095Y-19550057D02*
X70285714Y-19502438D01*
X70285714Y-19502438D02*
X70380952Y-19454819D01*
X70380952Y-19454819D02*
X70619047Y-19454819D01*
X70619047Y-19454819D02*
X70761904Y-19502438D01*
X71095238Y-19454819D02*
X71333333Y-20454819D01*
X71333333Y-20454819D02*
X71523809Y-19740533D01*
X71523809Y-19740533D02*
X71714285Y-20454819D01*
X71714285Y-20454819D02*
X71952381Y-19454819D01*
X72857142Y-20454819D02*
X72285714Y-20454819D01*
X72571428Y-20454819D02*
X72571428Y-19454819D01*
X72571428Y-19454819D02*
X72476190Y-19597676D01*
X72476190Y-19597676D02*
X72380952Y-19692914D01*
X72380952Y-19692914D02*
X72285714Y-19740533D01*
X73190476Y-19454819D02*
X73857142Y-19454819D01*
X73857142Y-19454819D02*
X73428571Y-20454819D01*
X16666667Y8592800D02*
X16809524Y8545180D01*
X16809524Y8545180D02*
X17047619Y8545180D01*
X17047619Y8545180D02*
X17142857Y8592800D01*
X17142857Y8592800D02*
X17190476Y8640419D01*
X17190476Y8640419D02*
X17238095Y8735657D01*
X17238095Y8735657D02*
X17238095Y8830895D01*
X17238095Y8830895D02*
X17190476Y8926133D01*
X17190476Y8926133D02*
X17142857Y8973752D01*
X17142857Y8973752D02*
X17047619Y9021371D01*
X17047619Y9021371D02*
X16857143Y9068990D01*
X16857143Y9068990D02*
X16761905Y9116609D01*
X16761905Y9116609D02*
X16714286Y9164228D01*
X16714286Y9164228D02*
X16666667Y9259466D01*
X16666667Y9259466D02*
X16666667Y9354704D01*
X16666667Y9354704D02*
X16714286Y9449942D01*
X16714286Y9449942D02*
X16761905Y9497561D01*
X16761905Y9497561D02*
X16857143Y9545180D01*
X16857143Y9545180D02*
X17095238Y9545180D01*
X17095238Y9545180D02*
X17238095Y9497561D01*
X17571429Y9545180D02*
X17809524Y8545180D01*
X17809524Y8545180D02*
X18000000Y9259466D01*
X18000000Y9259466D02*
X18190476Y8545180D01*
X18190476Y8545180D02*
X18428572Y9545180D01*
X18761905Y9449942D02*
X18809524Y9497561D01*
X18809524Y9497561D02*
X18904762Y9545180D01*
X18904762Y9545180D02*
X19142857Y9545180D01*
X19142857Y9545180D02*
X19238095Y9497561D01*
X19238095Y9497561D02*
X19285714Y9449942D01*
X19285714Y9449942D02*
X19333333Y9354704D01*
X19333333Y9354704D02*
X19333333Y9259466D01*
X19333333Y9259466D02*
X19285714Y9116609D01*
X19285714Y9116609D02*
X18714286Y8545180D01*
X18714286Y8545180D02*
X19333333Y8545180D01*
X106190476Y92800D02*
X106333333Y45180D01*
X106333333Y45180D02*
X106571428Y45180D01*
X106571428Y45180D02*
X106666666Y92800D01*
X106666666Y92800D02*
X106714285Y140419D01*
X106714285Y140419D02*
X106761904Y235657D01*
X106761904Y235657D02*
X106761904Y330895D01*
X106761904Y330895D02*
X106714285Y426133D01*
X106714285Y426133D02*
X106666666Y473752D01*
X106666666Y473752D02*
X106571428Y521371D01*
X106571428Y521371D02*
X106380952Y568990D01*
X106380952Y568990D02*
X106285714Y616609D01*
X106285714Y616609D02*
X106238095Y664228D01*
X106238095Y664228D02*
X106190476Y759466D01*
X106190476Y759466D02*
X106190476Y854704D01*
X106190476Y854704D02*
X106238095Y949942D01*
X106238095Y949942D02*
X106285714Y997561D01*
X106285714Y997561D02*
X106380952Y1045180D01*
X106380952Y1045180D02*
X106619047Y1045180D01*
X106619047Y1045180D02*
X106761904Y997561D01*
X107095238Y1045180D02*
X107333333Y45180D01*
X107333333Y45180D02*
X107523809Y759466D01*
X107523809Y759466D02*
X107714285Y45180D01*
X107714285Y45180D02*
X107952381Y1045180D01*
X108238095Y1045180D02*
X108857142Y1045180D01*
X108857142Y1045180D02*
X108523809Y664228D01*
X108523809Y664228D02*
X108666666Y664228D01*
X108666666Y664228D02*
X108761904Y616609D01*
X108761904Y616609D02*
X108809523Y568990D01*
X108809523Y568990D02*
X108857142Y473752D01*
X108857142Y473752D02*
X108857142Y235657D01*
X108857142Y235657D02*
X108809523Y140419D01*
X108809523Y140419D02*
X108761904Y92800D01*
X108761904Y92800D02*
X108666666Y45180D01*
X108666666Y45180D02*
X108380952Y45180D01*
X108380952Y45180D02*
X108285714Y92800D01*
X108285714Y92800D02*
X108238095Y140419D01*
X109476190Y1045180D02*
X109571428Y1045180D01*
X109571428Y1045180D02*
X109666666Y997561D01*
X109666666Y997561D02*
X109714285Y949942D01*
X109714285Y949942D02*
X109761904Y854704D01*
X109761904Y854704D02*
X109809523Y664228D01*
X109809523Y664228D02*
X109809523Y426133D01*
X109809523Y426133D02*
X109761904Y235657D01*
X109761904Y235657D02*
X109714285Y140419D01*
X109714285Y140419D02*
X109666666Y92800D01*
X109666666Y92800D02*
X109571428Y45180D01*
X109571428Y45180D02*
X109476190Y45180D01*
X109476190Y45180D02*
X109380952Y92800D01*
X109380952Y92800D02*
X109333333Y140419D01*
X109333333Y140419D02*
X109285714Y235657D01*
X109285714Y235657D02*
X109238095Y426133D01*
X109238095Y426133D02*
X109238095Y664228D01*
X109238095Y664228D02*
X109285714Y854704D01*
X109285714Y854704D02*
X109333333Y949942D01*
X109333333Y949942D02*
X109380952Y997561D01*
X109380952Y997561D02*
X109476190Y1045180D01*
X125033332Y-37004819D02*
X124699999Y-36528628D01*
X124461904Y-37004819D02*
X124461904Y-36004819D01*
X124461904Y-36004819D02*
X124842856Y-36004819D01*
X124842856Y-36004819D02*
X124938094Y-36052438D01*
X124938094Y-36052438D02*
X124985713Y-36100057D01*
X124985713Y-36100057D02*
X125033332Y-36195295D01*
X125033332Y-36195295D02*
X125033332Y-36338152D01*
X125033332Y-36338152D02*
X124985713Y-36433390D01*
X124985713Y-36433390D02*
X124938094Y-36481009D01*
X124938094Y-36481009D02*
X124842856Y-36528628D01*
X124842856Y-36528628D02*
X124461904Y-36528628D01*
X125985713Y-37004819D02*
X125414285Y-37004819D01*
X125699999Y-37004819D02*
X125699999Y-36004819D01*
X125699999Y-36004819D02*
X125604761Y-36147676D01*
X125604761Y-36147676D02*
X125509523Y-36242914D01*
X125509523Y-36242914D02*
X125414285Y-36290533D01*
X141233333Y-27804819D02*
X140900000Y-27328628D01*
X140661905Y-27804819D02*
X140661905Y-26804819D01*
X140661905Y-26804819D02*
X141042857Y-26804819D01*
X141042857Y-26804819D02*
X141138095Y-26852438D01*
X141138095Y-26852438D02*
X141185714Y-26900057D01*
X141185714Y-26900057D02*
X141233333Y-26995295D01*
X141233333Y-26995295D02*
X141233333Y-27138152D01*
X141233333Y-27138152D02*
X141185714Y-27233390D01*
X141185714Y-27233390D02*
X141138095Y-27281009D01*
X141138095Y-27281009D02*
X141042857Y-27328628D01*
X141042857Y-27328628D02*
X140661905Y-27328628D01*
X141614286Y-26900057D02*
X141661905Y-26852438D01*
X141661905Y-26852438D02*
X141757143Y-26804819D01*
X141757143Y-26804819D02*
X141995238Y-26804819D01*
X141995238Y-26804819D02*
X142090476Y-26852438D01*
X142090476Y-26852438D02*
X142138095Y-26900057D01*
X142138095Y-26900057D02*
X142185714Y-26995295D01*
X142185714Y-26995295D02*
X142185714Y-27090533D01*
X142185714Y-27090533D02*
X142138095Y-27233390D01*
X142138095Y-27233390D02*
X141566667Y-27804819D01*
X141566667Y-27804819D02*
X142185714Y-27804819D01*
X88190476Y-42407200D02*
X88333333Y-42454819D01*
X88333333Y-42454819D02*
X88571428Y-42454819D01*
X88571428Y-42454819D02*
X88666666Y-42407200D01*
X88666666Y-42407200D02*
X88714285Y-42359580D01*
X88714285Y-42359580D02*
X88761904Y-42264342D01*
X88761904Y-42264342D02*
X88761904Y-42169104D01*
X88761904Y-42169104D02*
X88714285Y-42073866D01*
X88714285Y-42073866D02*
X88666666Y-42026247D01*
X88666666Y-42026247D02*
X88571428Y-41978628D01*
X88571428Y-41978628D02*
X88380952Y-41931009D01*
X88380952Y-41931009D02*
X88285714Y-41883390D01*
X88285714Y-41883390D02*
X88238095Y-41835771D01*
X88238095Y-41835771D02*
X88190476Y-41740533D01*
X88190476Y-41740533D02*
X88190476Y-41645295D01*
X88190476Y-41645295D02*
X88238095Y-41550057D01*
X88238095Y-41550057D02*
X88285714Y-41502438D01*
X88285714Y-41502438D02*
X88380952Y-41454819D01*
X88380952Y-41454819D02*
X88619047Y-41454819D01*
X88619047Y-41454819D02*
X88761904Y-41502438D01*
X89095238Y-41454819D02*
X89333333Y-42454819D01*
X89333333Y-42454819D02*
X89523809Y-41740533D01*
X89523809Y-41740533D02*
X89714285Y-42454819D01*
X89714285Y-42454819D02*
X89952381Y-41454819D01*
X90285714Y-41550057D02*
X90333333Y-41502438D01*
X90333333Y-41502438D02*
X90428571Y-41454819D01*
X90428571Y-41454819D02*
X90666666Y-41454819D01*
X90666666Y-41454819D02*
X90761904Y-41502438D01*
X90761904Y-41502438D02*
X90809523Y-41550057D01*
X90809523Y-41550057D02*
X90857142Y-41645295D01*
X90857142Y-41645295D02*
X90857142Y-41740533D01*
X90857142Y-41740533D02*
X90809523Y-41883390D01*
X90809523Y-41883390D02*
X90238095Y-42454819D01*
X90238095Y-42454819D02*
X90857142Y-42454819D01*
X91714285Y-41788152D02*
X91714285Y-42454819D01*
X91476190Y-41407200D02*
X91238095Y-42121485D01*
X91238095Y-42121485D02*
X91857142Y-42121485D01*
D12*
X112124036Y-65201532D02*
X112696456Y-65773952D01*
X112696456Y-65773952D02*
X112797471Y-65807623D01*
X112797471Y-65807623D02*
X112864814Y-65807623D01*
X112864814Y-65807623D02*
X112965830Y-65773952D01*
X112965830Y-65773952D02*
X113100517Y-65639265D01*
X113100517Y-65639265D02*
X113134188Y-65538249D01*
X113134188Y-65538249D02*
X113134188Y-65470906D01*
X113134188Y-65470906D02*
X113100517Y-65369891D01*
X113100517Y-65369891D02*
X112528097Y-64797471D01*
X112898486Y-64561769D02*
X112898486Y-64494425D01*
X112898486Y-64494425D02*
X112932158Y-64393410D01*
X112932158Y-64393410D02*
X113100517Y-64225051D01*
X113100517Y-64225051D02*
X113201532Y-64191379D01*
X113201532Y-64191379D02*
X113268875Y-64191379D01*
X113268875Y-64191379D02*
X113369891Y-64225051D01*
X113369891Y-64225051D02*
X113437234Y-64292395D01*
X113437234Y-64292395D02*
X113504578Y-64427082D01*
X113504578Y-64427082D02*
X113504578Y-65235204D01*
X113504578Y-65235204D02*
X113942310Y-64797471D01*
X106285238Y-67855991D02*
X106756643Y-68327396D01*
X105982192Y-68159037D02*
X106352581Y-68529426D01*
X106352581Y-68529426D02*
X106453597Y-68563098D01*
X106453597Y-68563098D02*
X106554612Y-68529426D01*
X106554612Y-68529426D02*
X106655627Y-68428411D01*
X106655627Y-68428411D02*
X106689299Y-68327396D01*
X106689299Y-68327396D02*
X106689299Y-68260052D01*
X106621956Y-67519274D02*
X107329062Y-68226380D01*
X106655627Y-67552945D02*
X106689299Y-67451930D01*
X106689299Y-67451930D02*
X106823986Y-67317243D01*
X106823986Y-67317243D02*
X106925001Y-67283571D01*
X106925001Y-67283571D02*
X106992345Y-67283571D01*
X106992345Y-67283571D02*
X107093360Y-67317243D01*
X107093360Y-67317243D02*
X107295391Y-67519274D01*
X107295391Y-67519274D02*
X107329062Y-67620289D01*
X107329062Y-67620289D02*
X107329062Y-67687632D01*
X107329062Y-67687632D02*
X107295391Y-67788648D01*
X107295391Y-67788648D02*
X107160704Y-67923335D01*
X107160704Y-67923335D02*
X107059688Y-67957006D01*
X109938624Y-73630697D02*
X109231517Y-72923590D01*
X109904952Y-73597025D02*
X109871280Y-73698040D01*
X109871280Y-73698040D02*
X109736593Y-73832727D01*
X109736593Y-73832727D02*
X109635578Y-73866399D01*
X109635578Y-73866399D02*
X109568234Y-73866399D01*
X109568234Y-73866399D02*
X109467219Y-73832727D01*
X109467219Y-73832727D02*
X109265188Y-73630697D01*
X109265188Y-73630697D02*
X109231517Y-73529682D01*
X109231517Y-73529682D02*
X109231517Y-73462338D01*
X109231517Y-73462338D02*
X109265188Y-73361323D01*
X109265188Y-73361323D02*
X109399875Y-73226636D01*
X109399875Y-73226636D02*
X109500891Y-73192964D01*
X110376356Y-73192964D02*
X110275341Y-73226636D01*
X110275341Y-73226636D02*
X110207998Y-73226636D01*
X110207998Y-73226636D02*
X110106982Y-73192964D01*
X110106982Y-73192964D02*
X109904952Y-72990933D01*
X109904952Y-72990933D02*
X109871280Y-72889918D01*
X109871280Y-72889918D02*
X109871280Y-72822575D01*
X109871280Y-72822575D02*
X109904952Y-72721559D01*
X109904952Y-72721559D02*
X110005967Y-72620544D01*
X110005967Y-72620544D02*
X110106982Y-72586872D01*
X110106982Y-72586872D02*
X110174326Y-72586872D01*
X110174326Y-72586872D02*
X110275341Y-72620544D01*
X110275341Y-72620544D02*
X110477372Y-72822575D01*
X110477372Y-72822575D02*
X110511043Y-72923590D01*
X110511043Y-72923590D02*
X110511043Y-72990933D01*
X110511043Y-72990933D02*
X110477372Y-73091949D01*
X110477372Y-73091949D02*
X110376356Y-73192964D01*
X110376356Y-72250155D02*
X110982448Y-72586872D01*
X110982448Y-72586872D02*
X110780417Y-72115468D01*
X110780417Y-72115468D02*
X111251822Y-72317498D01*
X111251822Y-72317498D02*
X110915104Y-71711407D01*
X111184478Y-71442033D02*
X111655883Y-71913437D01*
X111251822Y-71509376D02*
X111251822Y-71442033D01*
X111251822Y-71442033D02*
X111285494Y-71341018D01*
X111285494Y-71341018D02*
X111386509Y-71240002D01*
X111386509Y-71240002D02*
X111487524Y-71206331D01*
X111487524Y-71206331D02*
X111588539Y-71240002D01*
X111588539Y-71240002D02*
X111958929Y-71610392D01*
X116100554Y-58983484D02*
X115999539Y-59017156D01*
X115999539Y-59017156D02*
X115898523Y-58983484D01*
X115898523Y-58983484D02*
X115292432Y-58377393D01*
X116605631Y-58411064D02*
X116571959Y-58512079D01*
X116571959Y-58512079D02*
X116437272Y-58646766D01*
X116437272Y-58646766D02*
X116336257Y-58680438D01*
X116336257Y-58680438D02*
X116235241Y-58646766D01*
X116235241Y-58646766D02*
X115965867Y-58377392D01*
X115965867Y-58377392D02*
X115932196Y-58276377D01*
X115932196Y-58276377D02*
X115965867Y-58175362D01*
X115965867Y-58175362D02*
X116100554Y-58040675D01*
X116100554Y-58040675D02*
X116201570Y-58007003D01*
X116201570Y-58007003D02*
X116302585Y-58040675D01*
X116302585Y-58040675D02*
X116369928Y-58108018D01*
X116369928Y-58108018D02*
X116100554Y-58512079D01*
X116403600Y-57737629D02*
X116672974Y-57468255D01*
X116976020Y-58108018D02*
X116369928Y-57501927D01*
X116369928Y-57501927D02*
X116336257Y-57400912D01*
X116336257Y-57400912D02*
X116369928Y-57299896D01*
X116369928Y-57299896D02*
X116437272Y-57232553D01*
X116807662Y-57333568D02*
X117077036Y-57064194D01*
X116672975Y-56996850D02*
X117279066Y-57602942D01*
X117279066Y-57602942D02*
X117380081Y-57636613D01*
X117380081Y-57636613D02*
X117481097Y-57602942D01*
X117481097Y-57602942D02*
X117548440Y-57535598D01*
X119888626Y-62973588D02*
X119417221Y-62502183D01*
X119551908Y-62636870D02*
X119518236Y-62535855D01*
X119518236Y-62535855D02*
X119518236Y-62468511D01*
X119518236Y-62468511D02*
X119551908Y-62367496D01*
X119551908Y-62367496D02*
X119619252Y-62300153D01*
X120326359Y-62535854D02*
X119854954Y-62064450D01*
X119619252Y-61828748D02*
X119619252Y-61896091D01*
X119619252Y-61896091D02*
X119686596Y-61896091D01*
X119686596Y-61896091D02*
X119686596Y-61828748D01*
X119686596Y-61828748D02*
X119619252Y-61828748D01*
X119619252Y-61828748D02*
X119686596Y-61896091D01*
X120494717Y-61424687D02*
X121067137Y-61997107D01*
X121067137Y-61997107D02*
X121100809Y-62098122D01*
X121100809Y-62098122D02*
X121100809Y-62165466D01*
X121100809Y-62165466D02*
X121067137Y-62266481D01*
X121067137Y-62266481D02*
X120966122Y-62367496D01*
X120966122Y-62367496D02*
X120865106Y-62401168D01*
X120932450Y-61862420D02*
X120898778Y-61963435D01*
X120898778Y-61963435D02*
X120764091Y-62098122D01*
X120764091Y-62098122D02*
X120663076Y-62131794D01*
X120663076Y-62131794D02*
X120595732Y-62131794D01*
X120595732Y-62131794D02*
X120494717Y-62098122D01*
X120494717Y-62098122D02*
X120292687Y-61896092D01*
X120292687Y-61896092D02*
X120259015Y-61795076D01*
X120259015Y-61795076D02*
X120259015Y-61727733D01*
X120259015Y-61727733D02*
X120292687Y-61626718D01*
X120292687Y-61626718D02*
X120427374Y-61492031D01*
X120427374Y-61492031D02*
X120528389Y-61458359D01*
X121302839Y-61559374D02*
X120595733Y-60852267D01*
X121605885Y-61256328D02*
X121235496Y-60885939D01*
X121235496Y-60885939D02*
X121134481Y-60852267D01*
X121134481Y-60852267D02*
X121033465Y-60885939D01*
X121033465Y-60885939D02*
X120932450Y-60986954D01*
X120932450Y-60986954D02*
X120898778Y-61087969D01*
X120898778Y-61087969D02*
X120898778Y-61155313D01*
X121370183Y-60549221D02*
X121639557Y-60279847D01*
X121235496Y-60212504D02*
X121841587Y-60818595D01*
X121841587Y-60818595D02*
X121942603Y-60852267D01*
X121942603Y-60852267D02*
X122043618Y-60818595D01*
X122043618Y-60818595D02*
X122110961Y-60751252D01*
X117295901Y-60380862D02*
X118003008Y-61087969D01*
X117329573Y-60414534D02*
X117363245Y-60313519D01*
X117363245Y-60313519D02*
X117497932Y-60178832D01*
X117497932Y-60178832D02*
X117598947Y-60145160D01*
X117598947Y-60145160D02*
X117666290Y-60145160D01*
X117666290Y-60145160D02*
X117767306Y-60178832D01*
X117767306Y-60178832D02*
X117969336Y-60380862D01*
X117969336Y-60380862D02*
X118003008Y-60481877D01*
X118003008Y-60481877D02*
X118003008Y-60549221D01*
X118003008Y-60549221D02*
X117969336Y-60650236D01*
X117969336Y-60650236D02*
X117834649Y-60784923D01*
X117834649Y-60784923D02*
X117733634Y-60818595D01*
X118238710Y-59438053D02*
X118710115Y-59909457D01*
X117935665Y-59741099D02*
X118306054Y-60111488D01*
X118306054Y-60111488D02*
X118407069Y-60145160D01*
X118407069Y-60145160D02*
X118508084Y-60111488D01*
X118508084Y-60111488D02*
X118609100Y-60010473D01*
X118609100Y-60010473D02*
X118642771Y-59909457D01*
X118642771Y-59909457D02*
X118642771Y-59842114D01*
X118979489Y-59572740D02*
X119080504Y-59539068D01*
X119080504Y-59539068D02*
X119215191Y-59404381D01*
X119215191Y-59404381D02*
X119248863Y-59303366D01*
X119248863Y-59303366D02*
X119215191Y-59202351D01*
X119215191Y-59202351D02*
X119181519Y-59168679D01*
X119181519Y-59168679D02*
X119080504Y-59135007D01*
X119080504Y-59135007D02*
X118979489Y-59168679D01*
X118979489Y-59168679D02*
X118878474Y-59269694D01*
X118878474Y-59269694D02*
X118777458Y-59303366D01*
X118777458Y-59303366D02*
X118676443Y-59269694D01*
X118676443Y-59269694D02*
X118642771Y-59236022D01*
X118642771Y-59236022D02*
X118609100Y-59135007D01*
X118609100Y-59135007D02*
X118642771Y-59033992D01*
X118642771Y-59033992D02*
X118743787Y-58932977D01*
X118743787Y-58932977D02*
X118844802Y-58899305D01*
X119619252Y-59000320D02*
X118912146Y-58293213D01*
X119922298Y-58697274D02*
X119551909Y-58326885D01*
X119551909Y-58326885D02*
X119450894Y-58293213D01*
X119450894Y-58293213D02*
X119349878Y-58326885D01*
X119349878Y-58326885D02*
X119248863Y-58427900D01*
X119248863Y-58427900D02*
X119215191Y-58528915D01*
X119215191Y-58528915D02*
X119215191Y-58596259D01*
X107564765Y-70415044D02*
X107463750Y-70448716D01*
X107463750Y-70448716D02*
X107362734Y-70549731D01*
X107362734Y-70549731D02*
X107295391Y-70684418D01*
X107295391Y-70684418D02*
X107295391Y-70819105D01*
X107295391Y-70819105D02*
X107329063Y-70920121D01*
X107329063Y-70920121D02*
X107430078Y-71088479D01*
X107430078Y-71088479D02*
X107531093Y-71189495D01*
X107531093Y-71189495D02*
X107699452Y-71290510D01*
X107699452Y-71290510D02*
X107800467Y-71324182D01*
X107800467Y-71324182D02*
X107935154Y-71324182D01*
X107935154Y-71324182D02*
X108069841Y-71256838D01*
X108069841Y-71256838D02*
X108137185Y-71189495D01*
X108137185Y-71189495D02*
X108204528Y-71054808D01*
X108204528Y-71054808D02*
X108204528Y-70987464D01*
X108204528Y-70987464D02*
X107968826Y-70751762D01*
X107968826Y-70751762D02*
X107834139Y-70886449D01*
X108574918Y-70751762D02*
X107867811Y-70044655D01*
X107867811Y-70044655D02*
X108978979Y-70347701D01*
X108978979Y-70347701D02*
X108271872Y-69640594D01*
X109315696Y-70010983D02*
X108608589Y-69303876D01*
X108608589Y-69303876D02*
X108776948Y-69135518D01*
X108776948Y-69135518D02*
X108911635Y-69068174D01*
X108911635Y-69068174D02*
X109046322Y-69068174D01*
X109046322Y-69068174D02*
X109147337Y-69101846D01*
X109147337Y-69101846D02*
X109315696Y-69202861D01*
X109315696Y-69202861D02*
X109416711Y-69303876D01*
X109416711Y-69303876D02*
X109517727Y-69472235D01*
X109517727Y-69472235D02*
X109551398Y-69573250D01*
X109551398Y-69573250D02*
X109551398Y-69707937D01*
X109551398Y-69707937D02*
X109484055Y-69842625D01*
X109484055Y-69842625D02*
X109315696Y-70010983D01*
D11*
X52190476Y-15407200D02*
X52333333Y-15454819D01*
X52333333Y-15454819D02*
X52571428Y-15454819D01*
X52571428Y-15454819D02*
X52666666Y-15407200D01*
X52666666Y-15407200D02*
X52714285Y-15359580D01*
X52714285Y-15359580D02*
X52761904Y-15264342D01*
X52761904Y-15264342D02*
X52761904Y-15169104D01*
X52761904Y-15169104D02*
X52714285Y-15073866D01*
X52714285Y-15073866D02*
X52666666Y-15026247D01*
X52666666Y-15026247D02*
X52571428Y-14978628D01*
X52571428Y-14978628D02*
X52380952Y-14931009D01*
X52380952Y-14931009D02*
X52285714Y-14883390D01*
X52285714Y-14883390D02*
X52238095Y-14835771D01*
X52238095Y-14835771D02*
X52190476Y-14740533D01*
X52190476Y-14740533D02*
X52190476Y-14645295D01*
X52190476Y-14645295D02*
X52238095Y-14550057D01*
X52238095Y-14550057D02*
X52285714Y-14502438D01*
X52285714Y-14502438D02*
X52380952Y-14454819D01*
X52380952Y-14454819D02*
X52619047Y-14454819D01*
X52619047Y-14454819D02*
X52761904Y-14502438D01*
X53095238Y-14454819D02*
X53333333Y-15454819D01*
X53333333Y-15454819D02*
X53523809Y-14740533D01*
X53523809Y-14740533D02*
X53714285Y-15454819D01*
X53714285Y-15454819D02*
X53952381Y-14454819D01*
X54857142Y-15454819D02*
X54285714Y-15454819D01*
X54571428Y-15454819D02*
X54571428Y-14454819D01*
X54571428Y-14454819D02*
X54476190Y-14597676D01*
X54476190Y-14597676D02*
X54380952Y-14692914D01*
X54380952Y-14692914D02*
X54285714Y-14740533D01*
X55714285Y-14454819D02*
X55523809Y-14454819D01*
X55523809Y-14454819D02*
X55428571Y-14502438D01*
X55428571Y-14502438D02*
X55380952Y-14550057D01*
X55380952Y-14550057D02*
X55285714Y-14692914D01*
X55285714Y-14692914D02*
X55238095Y-14883390D01*
X55238095Y-14883390D02*
X55238095Y-15264342D01*
X55238095Y-15264342D02*
X55285714Y-15359580D01*
X55285714Y-15359580D02*
X55333333Y-15407200D01*
X55333333Y-15407200D02*
X55428571Y-15454819D01*
X55428571Y-15454819D02*
X55619047Y-15454819D01*
X55619047Y-15454819D02*
X55714285Y-15407200D01*
X55714285Y-15407200D02*
X55761904Y-15359580D01*
X55761904Y-15359580D02*
X55809523Y-15264342D01*
X55809523Y-15264342D02*
X55809523Y-15026247D01*
X55809523Y-15026247D02*
X55761904Y-14931009D01*
X55761904Y-14931009D02*
X55714285Y-14883390D01*
X55714285Y-14883390D02*
X55619047Y-14835771D01*
X55619047Y-14835771D02*
X55428571Y-14835771D01*
X55428571Y-14835771D02*
X55333333Y-14883390D01*
X55333333Y-14883390D02*
X55285714Y-14931009D01*
X55285714Y-14931009D02*
X55238095Y-15026247D01*
X128836906Y-40304819D02*
X128836906Y-39304819D01*
X128836906Y-39304819D02*
X129075001Y-39304819D01*
X129075001Y-39304819D02*
X129217858Y-39352438D01*
X129217858Y-39352438D02*
X129313096Y-39447676D01*
X129313096Y-39447676D02*
X129360715Y-39542914D01*
X129360715Y-39542914D02*
X129408334Y-39733390D01*
X129408334Y-39733390D02*
X129408334Y-39876247D01*
X129408334Y-39876247D02*
X129360715Y-40066723D01*
X129360715Y-40066723D02*
X129313096Y-40161961D01*
X129313096Y-40161961D02*
X129217858Y-40257200D01*
X129217858Y-40257200D02*
X129075001Y-40304819D01*
X129075001Y-40304819D02*
X128836906Y-40304819D01*
X130360715Y-40304819D02*
X129789287Y-40304819D01*
X130075001Y-40304819D02*
X130075001Y-39304819D01*
X130075001Y-39304819D02*
X129979763Y-39447676D01*
X129979763Y-39447676D02*
X129884525Y-39542914D01*
X129884525Y-39542914D02*
X129789287Y-39590533D01*
X61190476Y-68407200D02*
X61333333Y-68454819D01*
X61333333Y-68454819D02*
X61571428Y-68454819D01*
X61571428Y-68454819D02*
X61666666Y-68407200D01*
X61666666Y-68407200D02*
X61714285Y-68359580D01*
X61714285Y-68359580D02*
X61761904Y-68264342D01*
X61761904Y-68264342D02*
X61761904Y-68169104D01*
X61761904Y-68169104D02*
X61714285Y-68073866D01*
X61714285Y-68073866D02*
X61666666Y-68026247D01*
X61666666Y-68026247D02*
X61571428Y-67978628D01*
X61571428Y-67978628D02*
X61380952Y-67931009D01*
X61380952Y-67931009D02*
X61285714Y-67883390D01*
X61285714Y-67883390D02*
X61238095Y-67835771D01*
X61238095Y-67835771D02*
X61190476Y-67740533D01*
X61190476Y-67740533D02*
X61190476Y-67645295D01*
X61190476Y-67645295D02*
X61238095Y-67550057D01*
X61238095Y-67550057D02*
X61285714Y-67502438D01*
X61285714Y-67502438D02*
X61380952Y-67454819D01*
X61380952Y-67454819D02*
X61619047Y-67454819D01*
X61619047Y-67454819D02*
X61761904Y-67502438D01*
X62095238Y-67454819D02*
X62333333Y-68454819D01*
X62333333Y-68454819D02*
X62523809Y-67740533D01*
X62523809Y-67740533D02*
X62714285Y-68454819D01*
X62714285Y-68454819D02*
X62952381Y-67454819D01*
X63285714Y-67550057D02*
X63333333Y-67502438D01*
X63333333Y-67502438D02*
X63428571Y-67454819D01*
X63428571Y-67454819D02*
X63666666Y-67454819D01*
X63666666Y-67454819D02*
X63761904Y-67502438D01*
X63761904Y-67502438D02*
X63809523Y-67550057D01*
X63809523Y-67550057D02*
X63857142Y-67645295D01*
X63857142Y-67645295D02*
X63857142Y-67740533D01*
X63857142Y-67740533D02*
X63809523Y-67883390D01*
X63809523Y-67883390D02*
X63238095Y-68454819D01*
X63238095Y-68454819D02*
X63857142Y-68454819D01*
X64761904Y-67454819D02*
X64285714Y-67454819D01*
X64285714Y-67454819D02*
X64238095Y-67931009D01*
X64238095Y-67931009D02*
X64285714Y-67883390D01*
X64285714Y-67883390D02*
X64380952Y-67835771D01*
X64380952Y-67835771D02*
X64619047Y-67835771D01*
X64619047Y-67835771D02*
X64714285Y-67883390D01*
X64714285Y-67883390D02*
X64761904Y-67931009D01*
X64761904Y-67931009D02*
X64809523Y-68026247D01*
X64809523Y-68026247D02*
X64809523Y-68264342D01*
X64809523Y-68264342D02*
X64761904Y-68359580D01*
X64761904Y-68359580D02*
X64714285Y-68407200D01*
X64714285Y-68407200D02*
X64619047Y-68454819D01*
X64619047Y-68454819D02*
X64380952Y-68454819D01*
X64380952Y-68454819D02*
X64285714Y-68407200D01*
X64285714Y-68407200D02*
X64238095Y-68359580D01*
X-1333332Y8592800D02*
X-1190475Y8545180D01*
X-1190475Y8545180D02*
X-952380Y8545180D01*
X-952380Y8545180D02*
X-857142Y8592800D01*
X-857142Y8592800D02*
X-809523Y8640419D01*
X-809523Y8640419D02*
X-761904Y8735657D01*
X-761904Y8735657D02*
X-761904Y8830895D01*
X-761904Y8830895D02*
X-809523Y8926133D01*
X-809523Y8926133D02*
X-857142Y8973752D01*
X-857142Y8973752D02*
X-952380Y9021371D01*
X-952380Y9021371D02*
X-1142856Y9068990D01*
X-1142856Y9068990D02*
X-1238094Y9116609D01*
X-1238094Y9116609D02*
X-1285713Y9164228D01*
X-1285713Y9164228D02*
X-1333332Y9259466D01*
X-1333332Y9259466D02*
X-1333332Y9354704D01*
X-1333332Y9354704D02*
X-1285713Y9449942D01*
X-1285713Y9449942D02*
X-1238094Y9497561D01*
X-1238094Y9497561D02*
X-1142856Y9545180D01*
X-1142856Y9545180D02*
X-904761Y9545180D01*
X-904761Y9545180D02*
X-761904Y9497561D01*
X-428570Y9545180D02*
X-190475Y8545180D01*
X-190475Y8545180D02*
X0Y9259466D01*
X0Y9259466D02*
X190476Y8545180D01*
X190476Y8545180D02*
X428572Y9545180D01*
X1333333Y8545180D02*
X761905Y8545180D01*
X1047619Y8545180D02*
X1047619Y9545180D01*
X1047619Y9545180D02*
X952381Y9402323D01*
X952381Y9402323D02*
X857143Y9307085D01*
X857143Y9307085D02*
X761905Y9259466D01*
X-1333332Y-8407200D02*
X-1190475Y-8454819D01*
X-1190475Y-8454819D02*
X-952380Y-8454819D01*
X-952380Y-8454819D02*
X-857142Y-8407200D01*
X-857142Y-8407200D02*
X-809523Y-8359580D01*
X-809523Y-8359580D02*
X-761904Y-8264342D01*
X-761904Y-8264342D02*
X-761904Y-8169104D01*
X-761904Y-8169104D02*
X-809523Y-8073866D01*
X-809523Y-8073866D02*
X-857142Y-8026247D01*
X-857142Y-8026247D02*
X-952380Y-7978628D01*
X-952380Y-7978628D02*
X-1142856Y-7931009D01*
X-1142856Y-7931009D02*
X-1238094Y-7883390D01*
X-1238094Y-7883390D02*
X-1285713Y-7835771D01*
X-1285713Y-7835771D02*
X-1333332Y-7740533D01*
X-1333332Y-7740533D02*
X-1333332Y-7645295D01*
X-1333332Y-7645295D02*
X-1285713Y-7550057D01*
X-1285713Y-7550057D02*
X-1238094Y-7502438D01*
X-1238094Y-7502438D02*
X-1142856Y-7454819D01*
X-1142856Y-7454819D02*
X-904761Y-7454819D01*
X-904761Y-7454819D02*
X-761904Y-7502438D01*
X-428570Y-7454819D02*
X-190475Y-8454819D01*
X-190475Y-8454819D02*
X0Y-7740533D01*
X0Y-7740533D02*
X190476Y-8454819D01*
X190476Y-8454819D02*
X428572Y-7454819D01*
X714286Y-7454819D02*
X1380952Y-7454819D01*
X1380952Y-7454819D02*
X952381Y-8454819D01*
X88190476Y-25407200D02*
X88333333Y-25454819D01*
X88333333Y-25454819D02*
X88571428Y-25454819D01*
X88571428Y-25454819D02*
X88666666Y-25407200D01*
X88666666Y-25407200D02*
X88714285Y-25359580D01*
X88714285Y-25359580D02*
X88761904Y-25264342D01*
X88761904Y-25264342D02*
X88761904Y-25169104D01*
X88761904Y-25169104D02*
X88714285Y-25073866D01*
X88714285Y-25073866D02*
X88666666Y-25026247D01*
X88666666Y-25026247D02*
X88571428Y-24978628D01*
X88571428Y-24978628D02*
X88380952Y-24931009D01*
X88380952Y-24931009D02*
X88285714Y-24883390D01*
X88285714Y-24883390D02*
X88238095Y-24835771D01*
X88238095Y-24835771D02*
X88190476Y-24740533D01*
X88190476Y-24740533D02*
X88190476Y-24645295D01*
X88190476Y-24645295D02*
X88238095Y-24550057D01*
X88238095Y-24550057D02*
X88285714Y-24502438D01*
X88285714Y-24502438D02*
X88380952Y-24454819D01*
X88380952Y-24454819D02*
X88619047Y-24454819D01*
X88619047Y-24454819D02*
X88761904Y-24502438D01*
X89095238Y-24454819D02*
X89333333Y-25454819D01*
X89333333Y-25454819D02*
X89523809Y-24740533D01*
X89523809Y-24740533D02*
X89714285Y-25454819D01*
X89714285Y-25454819D02*
X89952381Y-24454819D01*
X90857142Y-25454819D02*
X90285714Y-25454819D01*
X90571428Y-25454819D02*
X90571428Y-24454819D01*
X90571428Y-24454819D02*
X90476190Y-24597676D01*
X90476190Y-24597676D02*
X90380952Y-24692914D01*
X90380952Y-24692914D02*
X90285714Y-24740533D01*
X91428571Y-24883390D02*
X91333333Y-24835771D01*
X91333333Y-24835771D02*
X91285714Y-24788152D01*
X91285714Y-24788152D02*
X91238095Y-24692914D01*
X91238095Y-24692914D02*
X91238095Y-24645295D01*
X91238095Y-24645295D02*
X91285714Y-24550057D01*
X91285714Y-24550057D02*
X91333333Y-24502438D01*
X91333333Y-24502438D02*
X91428571Y-24454819D01*
X91428571Y-24454819D02*
X91619047Y-24454819D01*
X91619047Y-24454819D02*
X91714285Y-24502438D01*
X91714285Y-24502438D02*
X91761904Y-24550057D01*
X91761904Y-24550057D02*
X91809523Y-24645295D01*
X91809523Y-24645295D02*
X91809523Y-24692914D01*
X91809523Y-24692914D02*
X91761904Y-24788152D01*
X91761904Y-24788152D02*
X91714285Y-24835771D01*
X91714285Y-24835771D02*
X91619047Y-24883390D01*
X91619047Y-24883390D02*
X91428571Y-24883390D01*
X91428571Y-24883390D02*
X91333333Y-24931009D01*
X91333333Y-24931009D02*
X91285714Y-24978628D01*
X91285714Y-24978628D02*
X91238095Y-25073866D01*
X91238095Y-25073866D02*
X91238095Y-25264342D01*
X91238095Y-25264342D02*
X91285714Y-25359580D01*
X91285714Y-25359580D02*
X91333333Y-25407200D01*
X91333333Y-25407200D02*
X91428571Y-25454819D01*
X91428571Y-25454819D02*
X91619047Y-25454819D01*
X91619047Y-25454819D02*
X91714285Y-25407200D01*
X91714285Y-25407200D02*
X91761904Y-25359580D01*
X91761904Y-25359580D02*
X91809523Y-25264342D01*
X91809523Y-25264342D02*
X91809523Y-25073866D01*
X91809523Y-25073866D02*
X91761904Y-24978628D01*
X91761904Y-24978628D02*
X91714285Y-24931009D01*
X91714285Y-24931009D02*
X91619047Y-24883390D01*
X34666667Y13592800D02*
X34809524Y13545180D01*
X34809524Y13545180D02*
X35047619Y13545180D01*
X35047619Y13545180D02*
X35142857Y13592800D01*
X35142857Y13592800D02*
X35190476Y13640419D01*
X35190476Y13640419D02*
X35238095Y13735657D01*
X35238095Y13735657D02*
X35238095Y13830895D01*
X35238095Y13830895D02*
X35190476Y13926133D01*
X35190476Y13926133D02*
X35142857Y13973752D01*
X35142857Y13973752D02*
X35047619Y14021371D01*
X35047619Y14021371D02*
X34857143Y14068990D01*
X34857143Y14068990D02*
X34761905Y14116609D01*
X34761905Y14116609D02*
X34714286Y14164228D01*
X34714286Y14164228D02*
X34666667Y14259466D01*
X34666667Y14259466D02*
X34666667Y14354704D01*
X34666667Y14354704D02*
X34714286Y14449942D01*
X34714286Y14449942D02*
X34761905Y14497561D01*
X34761905Y14497561D02*
X34857143Y14545180D01*
X34857143Y14545180D02*
X35095238Y14545180D01*
X35095238Y14545180D02*
X35238095Y14497561D01*
X35571429Y14545180D02*
X35809524Y13545180D01*
X35809524Y13545180D02*
X36000000Y14259466D01*
X36000000Y14259466D02*
X36190476Y13545180D01*
X36190476Y13545180D02*
X36428572Y14545180D01*
X36714286Y14545180D02*
X37333333Y14545180D01*
X37333333Y14545180D02*
X37000000Y14164228D01*
X37000000Y14164228D02*
X37142857Y14164228D01*
X37142857Y14164228D02*
X37238095Y14116609D01*
X37238095Y14116609D02*
X37285714Y14068990D01*
X37285714Y14068990D02*
X37333333Y13973752D01*
X37333333Y13973752D02*
X37333333Y13735657D01*
X37333333Y13735657D02*
X37285714Y13640419D01*
X37285714Y13640419D02*
X37238095Y13592800D01*
X37238095Y13592800D02*
X37142857Y13545180D01*
X37142857Y13545180D02*
X36857143Y13545180D01*
X36857143Y13545180D02*
X36761905Y13592800D01*
X36761905Y13592800D02*
X36714286Y13640419D01*
X84976114Y-71231654D02*
X85101778Y-71314625D01*
X85101778Y-71314625D02*
X85331761Y-71376248D01*
X85331761Y-71376248D02*
X85436078Y-71354901D01*
X85436078Y-71354901D02*
X85494399Y-71321230D01*
X85494399Y-71321230D02*
X85565045Y-71241561D01*
X85565045Y-71241561D02*
X85589695Y-71149569D01*
X85589695Y-71149569D02*
X85568348Y-71045251D01*
X85568348Y-71045251D02*
X85534676Y-70986930D01*
X85534676Y-70986930D02*
X85455008Y-70916284D01*
X85455008Y-70916284D02*
X85283347Y-70820988D01*
X85283347Y-70820988D02*
X85203678Y-70750343D01*
X85203678Y-70750343D02*
X85170007Y-70692021D01*
X85170007Y-70692021D02*
X85148660Y-70587704D01*
X85148660Y-70587704D02*
X85173309Y-70495711D01*
X85173309Y-70495711D02*
X85243955Y-70416043D01*
X85243955Y-70416043D02*
X85302276Y-70382371D01*
X85302276Y-70382371D02*
X85406594Y-70361024D01*
X85406594Y-70361024D02*
X85636576Y-70422647D01*
X85636576Y-70422647D02*
X85762241Y-70505618D01*
X86096541Y-70545895D02*
X86067704Y-71573444D01*
X86067704Y-71573444D02*
X86436561Y-70932796D01*
X86436561Y-70932796D02*
X86435676Y-71672042D01*
X86435676Y-71672042D02*
X86924477Y-70767739D01*
X87221803Y-70946005D02*
X87280124Y-70912334D01*
X87280124Y-70912334D02*
X87384442Y-70890987D01*
X87384442Y-70890987D02*
X87614424Y-70952610D01*
X87614424Y-70952610D02*
X87694092Y-71023256D01*
X87694092Y-71023256D02*
X87727764Y-71081577D01*
X87727764Y-71081577D02*
X87749111Y-71185895D01*
X87749111Y-71185895D02*
X87724462Y-71277888D01*
X87724462Y-71277888D02*
X87641491Y-71403553D01*
X87641491Y-71403553D02*
X86941637Y-71807614D01*
X86941637Y-71807614D02*
X87539591Y-71967835D01*
X88626347Y-71223754D02*
X88442361Y-71174455D01*
X88442361Y-71174455D02*
X88338043Y-71195802D01*
X88338043Y-71195802D02*
X88279722Y-71229474D01*
X88279722Y-71229474D02*
X88150755Y-71342814D01*
X88150755Y-71342814D02*
X88055459Y-71514475D01*
X88055459Y-71514475D02*
X87956862Y-71882447D01*
X87956862Y-71882447D02*
X87978209Y-71986764D01*
X87978209Y-71986764D02*
X88011880Y-72045086D01*
X88011880Y-72045086D02*
X88091549Y-72115731D01*
X88091549Y-72115731D02*
X88275535Y-72165030D01*
X88275535Y-72165030D02*
X88379852Y-72143683D01*
X88379852Y-72143683D02*
X88438173Y-72110012D01*
X88438173Y-72110012D02*
X88508819Y-72030343D01*
X88508819Y-72030343D02*
X88570443Y-71800361D01*
X88570443Y-71800361D02*
X88549096Y-71696043D01*
X88549096Y-71696043D02*
X88515424Y-71637722D01*
X88515424Y-71637722D02*
X88435756Y-71567076D01*
X88435756Y-71567076D02*
X88251770Y-71517777D01*
X88251770Y-71517777D02*
X88147452Y-71539124D01*
X88147452Y-71539124D02*
X88089131Y-71572796D01*
X88089131Y-71572796D02*
X88018485Y-71652464D01*
X16190476Y-42407200D02*
X16333333Y-42454819D01*
X16333333Y-42454819D02*
X16571428Y-42454819D01*
X16571428Y-42454819D02*
X16666666Y-42407200D01*
X16666666Y-42407200D02*
X16714285Y-42359580D01*
X16714285Y-42359580D02*
X16761904Y-42264342D01*
X16761904Y-42264342D02*
X16761904Y-42169104D01*
X16761904Y-42169104D02*
X16714285Y-42073866D01*
X16714285Y-42073866D02*
X16666666Y-42026247D01*
X16666666Y-42026247D02*
X16571428Y-41978628D01*
X16571428Y-41978628D02*
X16380952Y-41931009D01*
X16380952Y-41931009D02*
X16285714Y-41883390D01*
X16285714Y-41883390D02*
X16238095Y-41835771D01*
X16238095Y-41835771D02*
X16190476Y-41740533D01*
X16190476Y-41740533D02*
X16190476Y-41645295D01*
X16190476Y-41645295D02*
X16238095Y-41550057D01*
X16238095Y-41550057D02*
X16285714Y-41502438D01*
X16285714Y-41502438D02*
X16380952Y-41454819D01*
X16380952Y-41454819D02*
X16619047Y-41454819D01*
X16619047Y-41454819D02*
X16761904Y-41502438D01*
X17095238Y-41454819D02*
X17333333Y-42454819D01*
X17333333Y-42454819D02*
X17523809Y-41740533D01*
X17523809Y-41740533D02*
X17714285Y-42454819D01*
X17714285Y-42454819D02*
X17952381Y-41454819D01*
X18285714Y-41550057D02*
X18333333Y-41502438D01*
X18333333Y-41502438D02*
X18428571Y-41454819D01*
X18428571Y-41454819D02*
X18666666Y-41454819D01*
X18666666Y-41454819D02*
X18761904Y-41502438D01*
X18761904Y-41502438D02*
X18809523Y-41550057D01*
X18809523Y-41550057D02*
X18857142Y-41645295D01*
X18857142Y-41645295D02*
X18857142Y-41740533D01*
X18857142Y-41740533D02*
X18809523Y-41883390D01*
X18809523Y-41883390D02*
X18238095Y-42454819D01*
X18238095Y-42454819D02*
X18857142Y-42454819D01*
X19476190Y-41454819D02*
X19571428Y-41454819D01*
X19571428Y-41454819D02*
X19666666Y-41502438D01*
X19666666Y-41502438D02*
X19714285Y-41550057D01*
X19714285Y-41550057D02*
X19761904Y-41645295D01*
X19761904Y-41645295D02*
X19809523Y-41835771D01*
X19809523Y-41835771D02*
X19809523Y-42073866D01*
X19809523Y-42073866D02*
X19761904Y-42264342D01*
X19761904Y-42264342D02*
X19714285Y-42359580D01*
X19714285Y-42359580D02*
X19666666Y-42407200D01*
X19666666Y-42407200D02*
X19571428Y-42454819D01*
X19571428Y-42454819D02*
X19476190Y-42454819D01*
X19476190Y-42454819D02*
X19380952Y-42407200D01*
X19380952Y-42407200D02*
X19333333Y-42359580D01*
X19333333Y-42359580D02*
X19285714Y-42264342D01*
X19285714Y-42264342D02*
X19238095Y-42073866D01*
X19238095Y-42073866D02*
X19238095Y-41835771D01*
X19238095Y-41835771D02*
X19285714Y-41645295D01*
X19285714Y-41645295D02*
X19333333Y-41550057D01*
X19333333Y-41550057D02*
X19380952Y-41502438D01*
X19380952Y-41502438D02*
X19476190Y-41454819D01*
X34190476Y-20407200D02*
X34333333Y-20454819D01*
X34333333Y-20454819D02*
X34571428Y-20454819D01*
X34571428Y-20454819D02*
X34666666Y-20407200D01*
X34666666Y-20407200D02*
X34714285Y-20359580D01*
X34714285Y-20359580D02*
X34761904Y-20264342D01*
X34761904Y-20264342D02*
X34761904Y-20169104D01*
X34761904Y-20169104D02*
X34714285Y-20073866D01*
X34714285Y-20073866D02*
X34666666Y-20026247D01*
X34666666Y-20026247D02*
X34571428Y-19978628D01*
X34571428Y-19978628D02*
X34380952Y-19931009D01*
X34380952Y-19931009D02*
X34285714Y-19883390D01*
X34285714Y-19883390D02*
X34238095Y-19835771D01*
X34238095Y-19835771D02*
X34190476Y-19740533D01*
X34190476Y-19740533D02*
X34190476Y-19645295D01*
X34190476Y-19645295D02*
X34238095Y-19550057D01*
X34238095Y-19550057D02*
X34285714Y-19502438D01*
X34285714Y-19502438D02*
X34380952Y-19454819D01*
X34380952Y-19454819D02*
X34619047Y-19454819D01*
X34619047Y-19454819D02*
X34761904Y-19502438D01*
X35095238Y-19454819D02*
X35333333Y-20454819D01*
X35333333Y-20454819D02*
X35523809Y-19740533D01*
X35523809Y-19740533D02*
X35714285Y-20454819D01*
X35714285Y-20454819D02*
X35952381Y-19454819D01*
X36857142Y-20454819D02*
X36285714Y-20454819D01*
X36571428Y-20454819D02*
X36571428Y-19454819D01*
X36571428Y-19454819D02*
X36476190Y-19597676D01*
X36476190Y-19597676D02*
X36380952Y-19692914D01*
X36380952Y-19692914D02*
X36285714Y-19740533D01*
X37761904Y-19454819D02*
X37285714Y-19454819D01*
X37285714Y-19454819D02*
X37238095Y-19931009D01*
X37238095Y-19931009D02*
X37285714Y-19883390D01*
X37285714Y-19883390D02*
X37380952Y-19835771D01*
X37380952Y-19835771D02*
X37619047Y-19835771D01*
X37619047Y-19835771D02*
X37714285Y-19883390D01*
X37714285Y-19883390D02*
X37761904Y-19931009D01*
X37761904Y-19931009D02*
X37809523Y-20026247D01*
X37809523Y-20026247D02*
X37809523Y-20264342D01*
X37809523Y-20264342D02*
X37761904Y-20359580D01*
X37761904Y-20359580D02*
X37714285Y-20407200D01*
X37714285Y-20407200D02*
X37619047Y-20454819D01*
X37619047Y-20454819D02*
X37380952Y-20454819D01*
X37380952Y-20454819D02*
X37285714Y-20407200D01*
X37285714Y-20407200D02*
X37238095Y-20359580D01*
X106190476Y-16907200D02*
X106333333Y-16954819D01*
X106333333Y-16954819D02*
X106571428Y-16954819D01*
X106571428Y-16954819D02*
X106666666Y-16907200D01*
X106666666Y-16907200D02*
X106714285Y-16859580D01*
X106714285Y-16859580D02*
X106761904Y-16764342D01*
X106761904Y-16764342D02*
X106761904Y-16669104D01*
X106761904Y-16669104D02*
X106714285Y-16573866D01*
X106714285Y-16573866D02*
X106666666Y-16526247D01*
X106666666Y-16526247D02*
X106571428Y-16478628D01*
X106571428Y-16478628D02*
X106380952Y-16431009D01*
X106380952Y-16431009D02*
X106285714Y-16383390D01*
X106285714Y-16383390D02*
X106238095Y-16335771D01*
X106238095Y-16335771D02*
X106190476Y-16240533D01*
X106190476Y-16240533D02*
X106190476Y-16145295D01*
X106190476Y-16145295D02*
X106238095Y-16050057D01*
X106238095Y-16050057D02*
X106285714Y-16002438D01*
X106285714Y-16002438D02*
X106380952Y-15954819D01*
X106380952Y-15954819D02*
X106619047Y-15954819D01*
X106619047Y-15954819D02*
X106761904Y-16002438D01*
X107095238Y-15954819D02*
X107333333Y-16954819D01*
X107333333Y-16954819D02*
X107523809Y-16240533D01*
X107523809Y-16240533D02*
X107714285Y-16954819D01*
X107714285Y-16954819D02*
X107952381Y-15954819D01*
X108285714Y-16050057D02*
X108333333Y-16002438D01*
X108333333Y-16002438D02*
X108428571Y-15954819D01*
X108428571Y-15954819D02*
X108666666Y-15954819D01*
X108666666Y-15954819D02*
X108761904Y-16002438D01*
X108761904Y-16002438D02*
X108809523Y-16050057D01*
X108809523Y-16050057D02*
X108857142Y-16145295D01*
X108857142Y-16145295D02*
X108857142Y-16240533D01*
X108857142Y-16240533D02*
X108809523Y-16383390D01*
X108809523Y-16383390D02*
X108238095Y-16954819D01*
X108238095Y-16954819D02*
X108857142Y-16954819D01*
X109333333Y-16954819D02*
X109523809Y-16954819D01*
X109523809Y-16954819D02*
X109619047Y-16907200D01*
X109619047Y-16907200D02*
X109666666Y-16859580D01*
X109666666Y-16859580D02*
X109761904Y-16716723D01*
X109761904Y-16716723D02*
X109809523Y-16526247D01*
X109809523Y-16526247D02*
X109809523Y-16145295D01*
X109809523Y-16145295D02*
X109761904Y-16050057D01*
X109761904Y-16050057D02*
X109714285Y-16002438D01*
X109714285Y-16002438D02*
X109619047Y-15954819D01*
X109619047Y-15954819D02*
X109428571Y-15954819D01*
X109428571Y-15954819D02*
X109333333Y-16002438D01*
X109333333Y-16002438D02*
X109285714Y-16050057D01*
X109285714Y-16050057D02*
X109238095Y-16145295D01*
X109238095Y-16145295D02*
X109238095Y-16383390D01*
X109238095Y-16383390D02*
X109285714Y-16478628D01*
X109285714Y-16478628D02*
X109333333Y-16526247D01*
X109333333Y-16526247D02*
X109428571Y-16573866D01*
X109428571Y-16573866D02*
X109619047Y-16573866D01*
X109619047Y-16573866D02*
X109714285Y-16526247D01*
X109714285Y-16526247D02*
X109761904Y-16478628D01*
X109761904Y-16478628D02*
X109809523Y-16383390D01*
X16666667Y-8407200D02*
X16809524Y-8454819D01*
X16809524Y-8454819D02*
X17047619Y-8454819D01*
X17047619Y-8454819D02*
X17142857Y-8407200D01*
X17142857Y-8407200D02*
X17190476Y-8359580D01*
X17190476Y-8359580D02*
X17238095Y-8264342D01*
X17238095Y-8264342D02*
X17238095Y-8169104D01*
X17238095Y-8169104D02*
X17190476Y-8073866D01*
X17190476Y-8073866D02*
X17142857Y-8026247D01*
X17142857Y-8026247D02*
X17047619Y-7978628D01*
X17047619Y-7978628D02*
X16857143Y-7931009D01*
X16857143Y-7931009D02*
X16761905Y-7883390D01*
X16761905Y-7883390D02*
X16714286Y-7835771D01*
X16714286Y-7835771D02*
X16666667Y-7740533D01*
X16666667Y-7740533D02*
X16666667Y-7645295D01*
X16666667Y-7645295D02*
X16714286Y-7550057D01*
X16714286Y-7550057D02*
X16761905Y-7502438D01*
X16761905Y-7502438D02*
X16857143Y-7454819D01*
X16857143Y-7454819D02*
X17095238Y-7454819D01*
X17095238Y-7454819D02*
X17238095Y-7502438D01*
X17571429Y-7454819D02*
X17809524Y-8454819D01*
X17809524Y-8454819D02*
X18000000Y-7740533D01*
X18000000Y-7740533D02*
X18190476Y-8454819D01*
X18190476Y-8454819D02*
X18428572Y-7454819D01*
X18952381Y-7883390D02*
X18857143Y-7835771D01*
X18857143Y-7835771D02*
X18809524Y-7788152D01*
X18809524Y-7788152D02*
X18761905Y-7692914D01*
X18761905Y-7692914D02*
X18761905Y-7645295D01*
X18761905Y-7645295D02*
X18809524Y-7550057D01*
X18809524Y-7550057D02*
X18857143Y-7502438D01*
X18857143Y-7502438D02*
X18952381Y-7454819D01*
X18952381Y-7454819D02*
X19142857Y-7454819D01*
X19142857Y-7454819D02*
X19238095Y-7502438D01*
X19238095Y-7502438D02*
X19285714Y-7550057D01*
X19285714Y-7550057D02*
X19333333Y-7645295D01*
X19333333Y-7645295D02*
X19333333Y-7692914D01*
X19333333Y-7692914D02*
X19285714Y-7788152D01*
X19285714Y-7788152D02*
X19238095Y-7835771D01*
X19238095Y-7835771D02*
X19142857Y-7883390D01*
X19142857Y-7883390D02*
X18952381Y-7883390D01*
X18952381Y-7883390D02*
X18857143Y-7931009D01*
X18857143Y-7931009D02*
X18809524Y-7978628D01*
X18809524Y-7978628D02*
X18761905Y-8073866D01*
X18761905Y-8073866D02*
X18761905Y-8264342D01*
X18761905Y-8264342D02*
X18809524Y-8359580D01*
X18809524Y-8359580D02*
X18857143Y-8407200D01*
X18857143Y-8407200D02*
X18952381Y-8454819D01*
X18952381Y-8454819D02*
X19142857Y-8454819D01*
X19142857Y-8454819D02*
X19238095Y-8407200D01*
X19238095Y-8407200D02*
X19285714Y-8359580D01*
X19285714Y-8359580D02*
X19333333Y-8264342D01*
X19333333Y-8264342D02*
X19333333Y-8073866D01*
X19333333Y-8073866D02*
X19285714Y-7978628D01*
X19285714Y-7978628D02*
X19238095Y-7931009D01*
X19238095Y-7931009D02*
X19142857Y-7883390D01*
X138671166Y-40293819D02*
X138671166Y-41008104D01*
X138671166Y-41008104D02*
X138623547Y-41150961D01*
X138623547Y-41150961D02*
X138528309Y-41246200D01*
X138528309Y-41246200D02*
X138385452Y-41293819D01*
X138385452Y-41293819D02*
X138290214Y-41293819D01*
X139671166Y-41293819D02*
X139099738Y-41293819D01*
X139385452Y-41293819D02*
X139385452Y-40293819D01*
X139385452Y-40293819D02*
X139290214Y-40436676D01*
X139290214Y-40436676D02*
X139194976Y-40531914D01*
X139194976Y-40531914D02*
X139099738Y-40579533D01*
X34190476Y-37407200D02*
X34333333Y-37454819D01*
X34333333Y-37454819D02*
X34571428Y-37454819D01*
X34571428Y-37454819D02*
X34666666Y-37407200D01*
X34666666Y-37407200D02*
X34714285Y-37359580D01*
X34714285Y-37359580D02*
X34761904Y-37264342D01*
X34761904Y-37264342D02*
X34761904Y-37169104D01*
X34761904Y-37169104D02*
X34714285Y-37073866D01*
X34714285Y-37073866D02*
X34666666Y-37026247D01*
X34666666Y-37026247D02*
X34571428Y-36978628D01*
X34571428Y-36978628D02*
X34380952Y-36931009D01*
X34380952Y-36931009D02*
X34285714Y-36883390D01*
X34285714Y-36883390D02*
X34238095Y-36835771D01*
X34238095Y-36835771D02*
X34190476Y-36740533D01*
X34190476Y-36740533D02*
X34190476Y-36645295D01*
X34190476Y-36645295D02*
X34238095Y-36550057D01*
X34238095Y-36550057D02*
X34285714Y-36502438D01*
X34285714Y-36502438D02*
X34380952Y-36454819D01*
X34380952Y-36454819D02*
X34619047Y-36454819D01*
X34619047Y-36454819D02*
X34761904Y-36502438D01*
X35095238Y-36454819D02*
X35333333Y-37454819D01*
X35333333Y-37454819D02*
X35523809Y-36740533D01*
X35523809Y-36740533D02*
X35714285Y-37454819D01*
X35714285Y-37454819D02*
X35952381Y-36454819D01*
X36285714Y-36550057D02*
X36333333Y-36502438D01*
X36333333Y-36502438D02*
X36428571Y-36454819D01*
X36428571Y-36454819D02*
X36666666Y-36454819D01*
X36666666Y-36454819D02*
X36761904Y-36502438D01*
X36761904Y-36502438D02*
X36809523Y-36550057D01*
X36809523Y-36550057D02*
X36857142Y-36645295D01*
X36857142Y-36645295D02*
X36857142Y-36740533D01*
X36857142Y-36740533D02*
X36809523Y-36883390D01*
X36809523Y-36883390D02*
X36238095Y-37454819D01*
X36238095Y-37454819D02*
X36857142Y-37454819D01*
X37809523Y-37454819D02*
X37238095Y-37454819D01*
X37523809Y-37454819D02*
X37523809Y-36454819D01*
X37523809Y-36454819D02*
X37428571Y-36597676D01*
X37428571Y-36597676D02*
X37333333Y-36692914D01*
X37333333Y-36692914D02*
X37238095Y-36740533D01*
X52190476Y-32407200D02*
X52333333Y-32454819D01*
X52333333Y-32454819D02*
X52571428Y-32454819D01*
X52571428Y-32454819D02*
X52666666Y-32407200D01*
X52666666Y-32407200D02*
X52714285Y-32359580D01*
X52714285Y-32359580D02*
X52761904Y-32264342D01*
X52761904Y-32264342D02*
X52761904Y-32169104D01*
X52761904Y-32169104D02*
X52714285Y-32073866D01*
X52714285Y-32073866D02*
X52666666Y-32026247D01*
X52666666Y-32026247D02*
X52571428Y-31978628D01*
X52571428Y-31978628D02*
X52380952Y-31931009D01*
X52380952Y-31931009D02*
X52285714Y-31883390D01*
X52285714Y-31883390D02*
X52238095Y-31835771D01*
X52238095Y-31835771D02*
X52190476Y-31740533D01*
X52190476Y-31740533D02*
X52190476Y-31645295D01*
X52190476Y-31645295D02*
X52238095Y-31550057D01*
X52238095Y-31550057D02*
X52285714Y-31502438D01*
X52285714Y-31502438D02*
X52380952Y-31454819D01*
X52380952Y-31454819D02*
X52619047Y-31454819D01*
X52619047Y-31454819D02*
X52761904Y-31502438D01*
X53095238Y-31454819D02*
X53333333Y-32454819D01*
X53333333Y-32454819D02*
X53523809Y-31740533D01*
X53523809Y-31740533D02*
X53714285Y-32454819D01*
X53714285Y-32454819D02*
X53952381Y-31454819D01*
X54285714Y-31550057D02*
X54333333Y-31502438D01*
X54333333Y-31502438D02*
X54428571Y-31454819D01*
X54428571Y-31454819D02*
X54666666Y-31454819D01*
X54666666Y-31454819D02*
X54761904Y-31502438D01*
X54761904Y-31502438D02*
X54809523Y-31550057D01*
X54809523Y-31550057D02*
X54857142Y-31645295D01*
X54857142Y-31645295D02*
X54857142Y-31740533D01*
X54857142Y-31740533D02*
X54809523Y-31883390D01*
X54809523Y-31883390D02*
X54238095Y-32454819D01*
X54238095Y-32454819D02*
X54857142Y-32454819D01*
X55238095Y-31550057D02*
X55285714Y-31502438D01*
X55285714Y-31502438D02*
X55380952Y-31454819D01*
X55380952Y-31454819D02*
X55619047Y-31454819D01*
X55619047Y-31454819D02*
X55714285Y-31502438D01*
X55714285Y-31502438D02*
X55761904Y-31550057D01*
X55761904Y-31550057D02*
X55809523Y-31645295D01*
X55809523Y-31645295D02*
X55809523Y-31740533D01*
X55809523Y-31740533D02*
X55761904Y-31883390D01*
X55761904Y-31883390D02*
X55190476Y-32454819D01*
X55190476Y-32454819D02*
X55809523Y-32454819D01*
D12*
X143292580Y-10198095D02*
X142483057Y-10198095D01*
X142483057Y-10198095D02*
X142387819Y-10245714D01*
X142387819Y-10245714D02*
X142340200Y-10293333D01*
X142340200Y-10293333D02*
X142292580Y-10388571D01*
X142292580Y-10388571D02*
X142292580Y-10579047D01*
X142292580Y-10579047D02*
X142340200Y-10674285D01*
X142340200Y-10674285D02*
X142387819Y-10721904D01*
X142387819Y-10721904D02*
X142483057Y-10769523D01*
X142483057Y-10769523D02*
X143292580Y-10769523D01*
X142292580Y-11769523D02*
X142292580Y-11198095D01*
X142292580Y-11483809D02*
X143292580Y-11483809D01*
X143292580Y-11483809D02*
X143149723Y-11388571D01*
X143149723Y-11388571D02*
X143054485Y-11293333D01*
X143054485Y-11293333D02*
X143006866Y-11198095D01*
D11*
X88666667Y8592800D02*
X88809524Y8545180D01*
X88809524Y8545180D02*
X89047619Y8545180D01*
X89047619Y8545180D02*
X89142857Y8592800D01*
X89142857Y8592800D02*
X89190476Y8640419D01*
X89190476Y8640419D02*
X89238095Y8735657D01*
X89238095Y8735657D02*
X89238095Y8830895D01*
X89238095Y8830895D02*
X89190476Y8926133D01*
X89190476Y8926133D02*
X89142857Y8973752D01*
X89142857Y8973752D02*
X89047619Y9021371D01*
X89047619Y9021371D02*
X88857143Y9068990D01*
X88857143Y9068990D02*
X88761905Y9116609D01*
X88761905Y9116609D02*
X88714286Y9164228D01*
X88714286Y9164228D02*
X88666667Y9259466D01*
X88666667Y9259466D02*
X88666667Y9354704D01*
X88666667Y9354704D02*
X88714286Y9449942D01*
X88714286Y9449942D02*
X88761905Y9497561D01*
X88761905Y9497561D02*
X88857143Y9545180D01*
X88857143Y9545180D02*
X89095238Y9545180D01*
X89095238Y9545180D02*
X89238095Y9497561D01*
X89571429Y9545180D02*
X89809524Y8545180D01*
X89809524Y8545180D02*
X90000000Y9259466D01*
X90000000Y9259466D02*
X90190476Y8545180D01*
X90190476Y8545180D02*
X90428572Y9545180D01*
X91238095Y9545180D02*
X91047619Y9545180D01*
X91047619Y9545180D02*
X90952381Y9497561D01*
X90952381Y9497561D02*
X90904762Y9449942D01*
X90904762Y9449942D02*
X90809524Y9307085D01*
X90809524Y9307085D02*
X90761905Y9116609D01*
X90761905Y9116609D02*
X90761905Y8735657D01*
X90761905Y8735657D02*
X90809524Y8640419D01*
X90809524Y8640419D02*
X90857143Y8592800D01*
X90857143Y8592800D02*
X90952381Y8545180D01*
X90952381Y8545180D02*
X91142857Y8545180D01*
X91142857Y8545180D02*
X91238095Y8592800D01*
X91238095Y8592800D02*
X91285714Y8640419D01*
X91285714Y8640419D02*
X91333333Y8735657D01*
X91333333Y8735657D02*
X91333333Y8973752D01*
X91333333Y8973752D02*
X91285714Y9068990D01*
X91285714Y9068990D02*
X91238095Y9116609D01*
X91238095Y9116609D02*
X91142857Y9164228D01*
X91142857Y9164228D02*
X90952381Y9164228D01*
X90952381Y9164228D02*
X90857143Y9116609D01*
X90857143Y9116609D02*
X90809524Y9068990D01*
X90809524Y9068990D02*
X90761905Y8973752D01*
X52666667Y18592800D02*
X52809524Y18545180D01*
X52809524Y18545180D02*
X53047619Y18545180D01*
X53047619Y18545180D02*
X53142857Y18592800D01*
X53142857Y18592800D02*
X53190476Y18640419D01*
X53190476Y18640419D02*
X53238095Y18735657D01*
X53238095Y18735657D02*
X53238095Y18830895D01*
X53238095Y18830895D02*
X53190476Y18926133D01*
X53190476Y18926133D02*
X53142857Y18973752D01*
X53142857Y18973752D02*
X53047619Y19021371D01*
X53047619Y19021371D02*
X52857143Y19068990D01*
X52857143Y19068990D02*
X52761905Y19116609D01*
X52761905Y19116609D02*
X52714286Y19164228D01*
X52714286Y19164228D02*
X52666667Y19259466D01*
X52666667Y19259466D02*
X52666667Y19354704D01*
X52666667Y19354704D02*
X52714286Y19449942D01*
X52714286Y19449942D02*
X52761905Y19497561D01*
X52761905Y19497561D02*
X52857143Y19545180D01*
X52857143Y19545180D02*
X53095238Y19545180D01*
X53095238Y19545180D02*
X53238095Y19497561D01*
X53571429Y19545180D02*
X53809524Y18545180D01*
X53809524Y18545180D02*
X54000000Y19259466D01*
X54000000Y19259466D02*
X54190476Y18545180D01*
X54190476Y18545180D02*
X54428572Y19545180D01*
X55238095Y19211847D02*
X55238095Y18545180D01*
X55000000Y19592800D02*
X54761905Y18878514D01*
X54761905Y18878514D02*
X55380952Y18878514D01*
X107229306Y-80153654D02*
X107329214Y-80266322D01*
X107329214Y-80266322D02*
X107535411Y-80385370D01*
X107535411Y-80385370D02*
X107641699Y-80391749D01*
X107641699Y-80391749D02*
X107706748Y-80374320D01*
X107706748Y-80374320D02*
X107795606Y-80315651D01*
X107795606Y-80315651D02*
X107843225Y-80233172D01*
X107843225Y-80233172D02*
X107849605Y-80126884D01*
X107849605Y-80126884D02*
X107832175Y-80061835D01*
X107832175Y-80061835D02*
X107773506Y-79972977D01*
X107773506Y-79972977D02*
X107632358Y-79836499D01*
X107632358Y-79836499D02*
X107573689Y-79747641D01*
X107573689Y-79747641D02*
X107556260Y-79682592D01*
X107556260Y-79682592D02*
X107562639Y-79576304D01*
X107562639Y-79576304D02*
X107610258Y-79493825D01*
X107610258Y-79493825D02*
X107699117Y-79435156D01*
X107699117Y-79435156D02*
X107764165Y-79417726D01*
X107764165Y-79417726D02*
X107870454Y-79424106D01*
X107870454Y-79424106D02*
X108076650Y-79543154D01*
X108076650Y-79543154D02*
X108176559Y-79655822D01*
X108489043Y-79781249D02*
X108195240Y-80766322D01*
X108195240Y-80766322D02*
X108717340Y-80242971D01*
X108717340Y-80242971D02*
X108525154Y-80956798D01*
X108525154Y-80956798D02*
X109231351Y-80209820D01*
X109472407Y-80458966D02*
X109537456Y-80441536D01*
X109537456Y-80441536D02*
X109643744Y-80447916D01*
X109643744Y-80447916D02*
X109849940Y-80566963D01*
X109849940Y-80566963D02*
X109908609Y-80655822D01*
X109908609Y-80655822D02*
X109926039Y-80720870D01*
X109926039Y-80720870D02*
X109919659Y-80827159D01*
X109919659Y-80827159D02*
X109872040Y-80909637D01*
X109872040Y-80909637D02*
X109759372Y-81009546D01*
X109759372Y-81009546D02*
X108978786Y-81218703D01*
X108978786Y-81218703D02*
X109514897Y-81528227D01*
X110303573Y-80828868D02*
X110880923Y-81162201D01*
X110880923Y-81162201D02*
X110009769Y-81813941D01*
X70190476Y-37407200D02*
X70333333Y-37454819D01*
X70333333Y-37454819D02*
X70571428Y-37454819D01*
X70571428Y-37454819D02*
X70666666Y-37407200D01*
X70666666Y-37407200D02*
X70714285Y-37359580D01*
X70714285Y-37359580D02*
X70761904Y-37264342D01*
X70761904Y-37264342D02*
X70761904Y-37169104D01*
X70761904Y-37169104D02*
X70714285Y-37073866D01*
X70714285Y-37073866D02*
X70666666Y-37026247D01*
X70666666Y-37026247D02*
X70571428Y-36978628D01*
X70571428Y-36978628D02*
X70380952Y-36931009D01*
X70380952Y-36931009D02*
X70285714Y-36883390D01*
X70285714Y-36883390D02*
X70238095Y-36835771D01*
X70238095Y-36835771D02*
X70190476Y-36740533D01*
X70190476Y-36740533D02*
X70190476Y-36645295D01*
X70190476Y-36645295D02*
X70238095Y-36550057D01*
X70238095Y-36550057D02*
X70285714Y-36502438D01*
X70285714Y-36502438D02*
X70380952Y-36454819D01*
X70380952Y-36454819D02*
X70619047Y-36454819D01*
X70619047Y-36454819D02*
X70761904Y-36502438D01*
X71095238Y-36454819D02*
X71333333Y-37454819D01*
X71333333Y-37454819D02*
X71523809Y-36740533D01*
X71523809Y-36740533D02*
X71714285Y-37454819D01*
X71714285Y-37454819D02*
X71952381Y-36454819D01*
X72285714Y-36550057D02*
X72333333Y-36502438D01*
X72333333Y-36502438D02*
X72428571Y-36454819D01*
X72428571Y-36454819D02*
X72666666Y-36454819D01*
X72666666Y-36454819D02*
X72761904Y-36502438D01*
X72761904Y-36502438D02*
X72809523Y-36550057D01*
X72809523Y-36550057D02*
X72857142Y-36645295D01*
X72857142Y-36645295D02*
X72857142Y-36740533D01*
X72857142Y-36740533D02*
X72809523Y-36883390D01*
X72809523Y-36883390D02*
X72238095Y-37454819D01*
X72238095Y-37454819D02*
X72857142Y-37454819D01*
X73190476Y-36454819D02*
X73809523Y-36454819D01*
X73809523Y-36454819D02*
X73476190Y-36835771D01*
X73476190Y-36835771D02*
X73619047Y-36835771D01*
X73619047Y-36835771D02*
X73714285Y-36883390D01*
X73714285Y-36883390D02*
X73761904Y-36931009D01*
X73761904Y-36931009D02*
X73809523Y-37026247D01*
X73809523Y-37026247D02*
X73809523Y-37264342D01*
X73809523Y-37264342D02*
X73761904Y-37359580D01*
X73761904Y-37359580D02*
X73714285Y-37407200D01*
X73714285Y-37407200D02*
X73619047Y-37454819D01*
X73619047Y-37454819D02*
X73333333Y-37454819D01*
X73333333Y-37454819D02*
X73238095Y-37407200D01*
X73238095Y-37407200D02*
X73190476Y-37359580D01*
D13*
%TO.C,SW10*%
X46400000Y600000D02*
X46400000Y-14600000D01*
X46400000Y-14600000D02*
X61600000Y-14600000D01*
X61600000Y600000D02*
X46400000Y600000D01*
X61600000Y-14600000D02*
X61600000Y600000D01*
%TO.C,SW28*%
X100400000Y-34900000D02*
X100400000Y-50100000D01*
X100400000Y-50100000D02*
X115600000Y-50100000D01*
X115600000Y-34900000D02*
X100400000Y-34900000D01*
X115600000Y-50100000D02*
X115600000Y-34900000D01*
%TO.C,SW14*%
X10400000Y-26400000D02*
X10400000Y-41600000D01*
X10400000Y-41600000D02*
X25600000Y-41600000D01*
X25600000Y-26400000D02*
X10400000Y-26400000D01*
X25600000Y-41600000D02*
X25600000Y-26400000D01*
%TO.C,SW11*%
X64400000Y-4400000D02*
X64400000Y-19600000D01*
X64400000Y-19600000D02*
X79600000Y-19600000D01*
X79600000Y-4400000D02*
X64400000Y-4400000D01*
X79600000Y-19600000D02*
X79600000Y-4400000D01*
%TO.C,SW5*%
X64400000Y12600000D02*
X64400000Y-2600000D01*
X64400000Y-2600000D02*
X79600000Y-2600000D01*
X79600000Y12600000D02*
X64400000Y12600000D01*
X79600000Y-2600000D02*
X79600000Y12600000D01*
%TO.C,SW19*%
X-7600000Y-43400000D02*
X-7600000Y-58600000D01*
X-7600000Y-58600000D02*
X7600000Y-58600000D01*
X7600000Y-43400000D02*
X-7600000Y-43400000D01*
X7600000Y-58600000D02*
X7600000Y-43400000D01*
%TO.C,SW12*%
X82400000Y-9400000D02*
X82400000Y-24600000D01*
X82400000Y-24600000D02*
X97600000Y-24600000D01*
X97600000Y-9400000D02*
X82400000Y-9400000D01*
X97600000Y-24600000D02*
X97600000Y-9400000D01*
%TO.C,SW13*%
X-7600000Y-26400000D02*
X-7600000Y-41600000D01*
X-7600000Y-41600000D02*
X7600000Y-41600000D01*
X7600000Y-26400000D02*
X-7600000Y-26400000D01*
X7600000Y-41600000D02*
X7600000Y-26400000D01*
%TO.C,SW9*%
X28400000Y-4400000D02*
X28400000Y-19600000D01*
X28400000Y-19600000D02*
X43600000Y-19600000D01*
X43600000Y-4400000D02*
X28400000Y-4400000D01*
X43600000Y-19600000D02*
X43600000Y-4400000D01*
%TO.C,SW17*%
X64400000Y-21400000D02*
X64400000Y-36600000D01*
X64400000Y-36600000D02*
X79600000Y-36600000D01*
X79600000Y-21400000D02*
X64400000Y-21400000D01*
X79600000Y-36600000D02*
X79600000Y-21400000D01*
%TO.C,SW2*%
X10400000Y7600000D02*
X10400000Y-7600000D01*
X10400000Y-7600000D02*
X25600000Y-7600000D01*
X25600000Y7600000D02*
X10400000Y7600000D01*
X25600000Y-7600000D02*
X25600000Y7600000D01*
%TO.C,SW30*%
X100400000Y-900000D02*
X100400000Y-16100000D01*
X100400000Y-16100000D02*
X115600000Y-16100000D01*
X115600000Y-900000D02*
X100400000Y-900000D01*
X115600000Y-16100000D02*
X115600000Y-900000D01*
%TO.C,R1*%
X124972936Y-37465000D02*
X125427064Y-37465000D01*
X124972936Y-38935000D02*
X125427064Y-38935000D01*
%TO.C,R2*%
X141172936Y-28265000D02*
X141627064Y-28265000D01*
X141172936Y-29735000D02*
X141627064Y-29735000D01*
%TO.C,SW24*%
X82400000Y-43400000D02*
X82400000Y-58600000D01*
X82400000Y-58600000D02*
X97600000Y-58600000D01*
X97600000Y-43400000D02*
X82400000Y-43400000D01*
X97600000Y-58600000D02*
X97600000Y-43400000D01*
D12*
%TO.C,U2*%
X118703301Y-65400000D02*
X113400000Y-70703301D01*
X108096699Y-65400000D01*
X113400000Y-60096699D01*
X118703301Y-65400000D01*
D13*
%TO.C,SW16*%
X46400000Y-16400000D02*
X46400000Y-31600000D01*
X46400000Y-31600000D02*
X61600000Y-31600000D01*
X61600000Y-16400000D02*
X46400000Y-16400000D01*
X61600000Y-31600000D02*
X61600000Y-16400000D01*
%TO.C,D1*%
X128575000Y-39160000D02*
X131435000Y-39160000D01*
X131435000Y-37240000D02*
X128575000Y-37240000D01*
X131435000Y-39160000D02*
X131435000Y-37240000D01*
%TO.C,SW25*%
X55400000Y-69400000D02*
X55400000Y-84600000D01*
X55400000Y-84600000D02*
X70600000Y-84600000D01*
X70600000Y-69400000D02*
X55400000Y-69400000D01*
X70600000Y-84600000D02*
X70600000Y-69400000D01*
%TO.C,SW1*%
X-7600000Y7600000D02*
X-7600000Y-7600000D01*
X-7600000Y-7600000D02*
X7600000Y-7600000D01*
X7600000Y7600000D02*
X-7600000Y7600000D01*
X7600000Y-7600000D02*
X7600000Y7600000D01*
%TO.C,SW7*%
X-7600000Y-9400000D02*
X-7600000Y-24600000D01*
X-7600000Y-24600000D02*
X7600000Y-24600000D01*
X7600000Y-9400000D02*
X-7600000Y-9400000D01*
X7600000Y-24600000D02*
X7600000Y-9400000D01*
%TO.C,SW18*%
X82400000Y-26400000D02*
X82400000Y-41600000D01*
X82400000Y-41600000D02*
X97600000Y-41600000D01*
X97600000Y-26400000D02*
X82400000Y-26400000D01*
X97600000Y-41600000D02*
X97600000Y-26400000D01*
%TO.C,SW3*%
X28400000Y12600000D02*
X28400000Y-2600000D01*
X28400000Y-2600000D02*
X43600000Y-2600000D01*
X43600000Y12600000D02*
X28400000Y12600000D01*
X43600000Y-2600000D02*
X43600000Y12600000D01*
%TO.C,SW26*%
X75191939Y-85374012D02*
X89874012Y-89308061D01*
X79125988Y-70691939D02*
X75191939Y-85374012D01*
X89874012Y-89308061D02*
X93808061Y-74625988D01*
X93808061Y-74625988D02*
X79125988Y-70691939D01*
%TO.C,SW20*%
X10400000Y-43400000D02*
X10400000Y-58600000D01*
X10400000Y-58600000D02*
X25600000Y-58600000D01*
X25600000Y-43400000D02*
X10400000Y-43400000D01*
X25600000Y-58600000D02*
X25600000Y-43400000D01*
%TO.C,SW15*%
X28400000Y-21400000D02*
X28400000Y-36600000D01*
X28400000Y-36600000D02*
X43600000Y-36600000D01*
X43600000Y-21400000D02*
X28400000Y-21400000D01*
X43600000Y-36600000D02*
X43600000Y-21400000D01*
%TO.C,SW29*%
X100400000Y-17900000D02*
X100400000Y-33100000D01*
X100400000Y-33100000D02*
X115600000Y-33100000D01*
X115600000Y-17900000D02*
X100400000Y-17900000D01*
X115600000Y-33100000D02*
X115600000Y-17900000D01*
%TO.C,SW8*%
X10400000Y-9400000D02*
X10400000Y-24600000D01*
X10400000Y-24600000D02*
X25600000Y-24600000D01*
X25600000Y-9400000D02*
X10400000Y-9400000D01*
X25600000Y-24600000D02*
X25600000Y-9400000D01*
%TO.C,J1*%
X132450000Y-38670000D02*
X132450000Y-32070000D01*
X145450000Y-32070000D02*
X132450000Y-32070000D01*
X145450000Y-32870000D02*
X145450000Y-32070000D01*
X145450000Y-37870000D02*
X145450000Y-38670000D01*
X145450000Y-38670000D02*
X132450000Y-38670000D01*
X147450000Y-32870000D02*
X145450000Y-32870000D01*
X147450000Y-37570000D02*
X147450000Y-32870000D01*
X147450000Y-37570000D02*
X147450000Y-37870000D01*
X147450000Y-37870000D02*
X145450000Y-37870000D01*
%TO.C,SW21*%
X28400000Y-38400000D02*
X28400000Y-53600000D01*
X28400000Y-53600000D02*
X43600000Y-53600000D01*
X43600000Y-38400000D02*
X28400000Y-38400000D01*
X43600000Y-53600000D02*
X43600000Y-38400000D01*
%TO.C,SW22*%
X46400000Y-33400000D02*
X46400000Y-48600000D01*
X46400000Y-48600000D02*
X61600000Y-48600000D01*
X61600000Y-33400000D02*
X46400000Y-33400000D01*
X61600000Y-48600000D02*
X61600000Y-33400000D01*
%TO.C,SW6*%
X82400000Y7600000D02*
X82400000Y-7600000D01*
X82400000Y-7600000D02*
X97600000Y-7600000D01*
X97600000Y7600000D02*
X82400000Y7600000D01*
X97600000Y-7600000D02*
X97600000Y7600000D01*
%TO.C,SW4*%
X46400000Y17600000D02*
X46400000Y2400000D01*
X46400000Y2400000D02*
X61600000Y2400000D01*
X61600000Y17600000D02*
X46400000Y17600000D01*
X61600000Y2400000D02*
X61600000Y17600000D01*
%TO.C,SW27*%
X94118207Y-91281793D02*
X107281793Y-98881793D01*
X101718207Y-78118207D02*
X94118207Y-91281793D01*
X107281793Y-98881793D02*
X114881793Y-85718207D01*
X114881793Y-85718207D02*
X101718207Y-78118207D01*
%TO.C,SW23*%
X64400000Y-38400000D02*
X64400000Y-53600000D01*
X64400000Y-53600000D02*
X79600000Y-53600000D01*
X79600000Y-38400000D02*
X64400000Y-38400000D01*
X79600000Y-53600000D02*
X79600000Y-38400000D01*
%TD*%
M02*
